G04 #@! TF.GenerationSoftware,KiCad,Pcbnew,(5.1.6)-1*
G04 #@! TF.CreationDate,2021-04-16T16:03:38+02:00*
G04 #@! TF.ProjectId,Inverter,496e7665-7274-4657-922e-6b696361645f,rev?*
G04 #@! TF.SameCoordinates,Original*
G04 #@! TF.FileFunction,Legend,Top*
G04 #@! TF.FilePolarity,Positive*
%FSLAX46Y46*%
G04 Gerber Fmt 4.6, Leading zero omitted, Abs format (unit mm)*
G04 Created by KiCad (PCBNEW (5.1.6)-1) date 2021-04-16 16:03:38*
%MOMM*%
%LPD*%
G01*
G04 APERTURE LIST*
%ADD10C,0.150000*%
%ADD11C,0.152400*%
%ADD12C,0.200000*%
%ADD13C,0.120000*%
%ADD14C,0.254000*%
G04 APERTURE END LIST*
D10*
X127977380Y-76942857D02*
X126977380Y-76942857D01*
X127310714Y-76466666D02*
X127977380Y-76466666D01*
X127405952Y-76466666D02*
X127358333Y-76419047D01*
X127310714Y-76323809D01*
X127310714Y-76180952D01*
X127358333Y-76085714D01*
X127453571Y-76038095D01*
X127977380Y-76038095D01*
X127310714Y-75657142D02*
X127977380Y-75419047D01*
X127310714Y-75180952D01*
X127929761Y-74419047D02*
X127977380Y-74514285D01*
X127977380Y-74704761D01*
X127929761Y-74800000D01*
X127834523Y-74847619D01*
X127453571Y-74847619D01*
X127358333Y-74800000D01*
X127310714Y-74704761D01*
X127310714Y-74514285D01*
X127358333Y-74419047D01*
X127453571Y-74371428D01*
X127548809Y-74371428D01*
X127644047Y-74847619D01*
X127977380Y-73942857D02*
X127310714Y-73942857D01*
X127501190Y-73942857D02*
X127405952Y-73895238D01*
X127358333Y-73847619D01*
X127310714Y-73752380D01*
X127310714Y-73657142D01*
X127310714Y-73466666D02*
X127310714Y-73085714D01*
X126977380Y-73323809D02*
X127834523Y-73323809D01*
X127929761Y-73276190D01*
X127977380Y-73180952D01*
X127977380Y-73085714D01*
X127929761Y-72371428D02*
X127977380Y-72466666D01*
X127977380Y-72657142D01*
X127929761Y-72752380D01*
X127834523Y-72800000D01*
X127453571Y-72800000D01*
X127358333Y-72752380D01*
X127310714Y-72657142D01*
X127310714Y-72466666D01*
X127358333Y-72371428D01*
X127453571Y-72323809D01*
X127548809Y-72323809D01*
X127644047Y-72800000D01*
X127977380Y-71895238D02*
X127310714Y-71895238D01*
X127501190Y-71895238D02*
X127405952Y-71847619D01*
X127358333Y-71800000D01*
X127310714Y-71704761D01*
X127310714Y-71609523D01*
X127453571Y-70180952D02*
X127501190Y-70038095D01*
X127548809Y-69990476D01*
X127644047Y-69942857D01*
X127786904Y-69942857D01*
X127882142Y-69990476D01*
X127929761Y-70038095D01*
X127977380Y-70133333D01*
X127977380Y-70514285D01*
X126977380Y-70514285D01*
X126977380Y-70180952D01*
X127025000Y-70085714D01*
X127072619Y-70038095D01*
X127167857Y-69990476D01*
X127263095Y-69990476D01*
X127358333Y-70038095D01*
X127405952Y-70085714D01*
X127453571Y-70180952D01*
X127453571Y-70514285D01*
X127977380Y-69371428D02*
X127929761Y-69466666D01*
X127882142Y-69514285D01*
X127786904Y-69561904D01*
X127501190Y-69561904D01*
X127405952Y-69514285D01*
X127358333Y-69466666D01*
X127310714Y-69371428D01*
X127310714Y-69228571D01*
X127358333Y-69133333D01*
X127405952Y-69085714D01*
X127501190Y-69038095D01*
X127786904Y-69038095D01*
X127882142Y-69085714D01*
X127929761Y-69133333D01*
X127977380Y-69228571D01*
X127977380Y-69371428D01*
X127977380Y-68180952D02*
X127453571Y-68180952D01*
X127358333Y-68228571D01*
X127310714Y-68323809D01*
X127310714Y-68514285D01*
X127358333Y-68609523D01*
X127929761Y-68180952D02*
X127977380Y-68276190D01*
X127977380Y-68514285D01*
X127929761Y-68609523D01*
X127834523Y-68657142D01*
X127739285Y-68657142D01*
X127644047Y-68609523D01*
X127596428Y-68514285D01*
X127596428Y-68276190D01*
X127548809Y-68180952D01*
X127977380Y-67704761D02*
X127310714Y-67704761D01*
X127501190Y-67704761D02*
X127405952Y-67657142D01*
X127358333Y-67609523D01*
X127310714Y-67514285D01*
X127310714Y-67419047D01*
X127977380Y-66657142D02*
X126977380Y-66657142D01*
X127929761Y-66657142D02*
X127977380Y-66752380D01*
X127977380Y-66942857D01*
X127929761Y-67038095D01*
X127882142Y-67085714D01*
X127786904Y-67133333D01*
X127501190Y-67133333D01*
X127405952Y-67085714D01*
X127358333Y-67038095D01*
X127310714Y-66942857D01*
X127310714Y-66752380D01*
X127358333Y-66657142D01*
X129579761Y-76276190D02*
X129627380Y-76133333D01*
X129627380Y-75895238D01*
X129579761Y-75800000D01*
X129532142Y-75752380D01*
X129436904Y-75704761D01*
X129341666Y-75704761D01*
X129246428Y-75752380D01*
X129198809Y-75800000D01*
X129151190Y-75895238D01*
X129103571Y-76085714D01*
X129055952Y-76180952D01*
X129008333Y-76228571D01*
X128913095Y-76276190D01*
X128817857Y-76276190D01*
X128722619Y-76228571D01*
X128675000Y-76180952D01*
X128627380Y-76085714D01*
X128627380Y-75847619D01*
X128675000Y-75704761D01*
X128960714Y-75276190D02*
X129960714Y-75276190D01*
X129008333Y-75276190D02*
X128960714Y-75180952D01*
X128960714Y-74990476D01*
X129008333Y-74895238D01*
X129055952Y-74847619D01*
X129151190Y-74800000D01*
X129436904Y-74800000D01*
X129532142Y-74847619D01*
X129579761Y-74895238D01*
X129627380Y-74990476D01*
X129627380Y-75180952D01*
X129579761Y-75276190D01*
X129627380Y-74371428D02*
X128960714Y-74371428D01*
X129151190Y-74371428D02*
X129055952Y-74323809D01*
X129008333Y-74276190D01*
X128960714Y-74180952D01*
X128960714Y-74085714D01*
X129627380Y-73752380D02*
X128960714Y-73752380D01*
X128627380Y-73752380D02*
X128675000Y-73800000D01*
X128722619Y-73752380D01*
X128675000Y-73704761D01*
X128627380Y-73752380D01*
X128722619Y-73752380D01*
X128960714Y-73276190D02*
X129627380Y-73276190D01*
X129055952Y-73276190D02*
X129008333Y-73228571D01*
X128960714Y-73133333D01*
X128960714Y-72990476D01*
X129008333Y-72895238D01*
X129103571Y-72847619D01*
X129627380Y-72847619D01*
X128960714Y-71942857D02*
X129770238Y-71942857D01*
X129865476Y-71990476D01*
X129913095Y-72038095D01*
X129960714Y-72133333D01*
X129960714Y-72276190D01*
X129913095Y-72371428D01*
X129579761Y-71942857D02*
X129627380Y-72038095D01*
X129627380Y-72228571D01*
X129579761Y-72323809D01*
X129532142Y-72371428D01*
X129436904Y-72419047D01*
X129151190Y-72419047D01*
X129055952Y-72371428D01*
X129008333Y-72323809D01*
X128960714Y-72228571D01*
X128960714Y-72038095D01*
X129008333Y-71942857D01*
X128722619Y-70752380D02*
X128675000Y-70704761D01*
X128627380Y-70609523D01*
X128627380Y-70371428D01*
X128675000Y-70276190D01*
X128722619Y-70228571D01*
X128817857Y-70180952D01*
X128913095Y-70180952D01*
X129055952Y-70228571D01*
X129627380Y-70800000D01*
X129627380Y-70180952D01*
X128627380Y-69561904D02*
X128627380Y-69466666D01*
X128675000Y-69371428D01*
X128722619Y-69323809D01*
X128817857Y-69276190D01*
X129008333Y-69228571D01*
X129246428Y-69228571D01*
X129436904Y-69276190D01*
X129532142Y-69323809D01*
X129579761Y-69371428D01*
X129627380Y-69466666D01*
X129627380Y-69561904D01*
X129579761Y-69657142D01*
X129532142Y-69704761D01*
X129436904Y-69752380D01*
X129246428Y-69800000D01*
X129008333Y-69800000D01*
X128817857Y-69752380D01*
X128722619Y-69704761D01*
X128675000Y-69657142D01*
X128627380Y-69561904D01*
X128722619Y-68847619D02*
X128675000Y-68800000D01*
X128627380Y-68704761D01*
X128627380Y-68466666D01*
X128675000Y-68371428D01*
X128722619Y-68323809D01*
X128817857Y-68276190D01*
X128913095Y-68276190D01*
X129055952Y-68323809D01*
X129627380Y-68895238D01*
X129627380Y-68276190D01*
X129627380Y-67323809D02*
X129627380Y-67895238D01*
X129627380Y-67609523D02*
X128627380Y-67609523D01*
X128770238Y-67704761D01*
X128865476Y-67800000D01*
X128913095Y-67895238D01*
X130325000Y-74061904D02*
X130277380Y-74157142D01*
X130277380Y-74300000D01*
X130325000Y-74442857D01*
X130420238Y-74538095D01*
X130515476Y-74585714D01*
X130705952Y-74633333D01*
X130848809Y-74633333D01*
X131039285Y-74585714D01*
X131134523Y-74538095D01*
X131229761Y-74442857D01*
X131277380Y-74300000D01*
X131277380Y-74204761D01*
X131229761Y-74061904D01*
X131182142Y-74014285D01*
X130848809Y-74014285D01*
X130848809Y-74204761D01*
X131277380Y-73585714D02*
X130610714Y-73585714D01*
X130801190Y-73585714D02*
X130705952Y-73538095D01*
X130658333Y-73490476D01*
X130610714Y-73395238D01*
X130610714Y-73300000D01*
X131277380Y-72823809D02*
X131229761Y-72919047D01*
X131182142Y-72966666D01*
X131086904Y-73014285D01*
X130801190Y-73014285D01*
X130705952Y-72966666D01*
X130658333Y-72919047D01*
X130610714Y-72823809D01*
X130610714Y-72680952D01*
X130658333Y-72585714D01*
X130705952Y-72538095D01*
X130801190Y-72490476D01*
X131086904Y-72490476D01*
X131182142Y-72538095D01*
X131229761Y-72585714D01*
X131277380Y-72680952D01*
X131277380Y-72823809D01*
X130610714Y-71633333D02*
X131277380Y-71633333D01*
X130610714Y-72061904D02*
X131134523Y-72061904D01*
X131229761Y-72014285D01*
X131277380Y-71919047D01*
X131277380Y-71776190D01*
X131229761Y-71680952D01*
X131182142Y-71633333D01*
X130610714Y-71157142D02*
X131610714Y-71157142D01*
X130658333Y-71157142D02*
X130610714Y-71061904D01*
X130610714Y-70871428D01*
X130658333Y-70776190D01*
X130705952Y-70728571D01*
X130801190Y-70680952D01*
X131086904Y-70680952D01*
X131182142Y-70728571D01*
X131229761Y-70776190D01*
X131277380Y-70871428D01*
X131277380Y-71061904D01*
X131229761Y-71157142D01*
X131277380Y-68966666D02*
X131277380Y-69538095D01*
X131277380Y-69252380D02*
X130277380Y-69252380D01*
X130420238Y-69347619D01*
X130515476Y-69442857D01*
X130563095Y-69538095D01*
X131927380Y-83609523D02*
X132736904Y-83609523D01*
X132832142Y-83561904D01*
X132879761Y-83514285D01*
X132927380Y-83419047D01*
X132927380Y-83228571D01*
X132879761Y-83133333D01*
X132832142Y-83085714D01*
X132736904Y-83038095D01*
X131927380Y-83038095D01*
X132260714Y-82561904D02*
X132927380Y-82561904D01*
X132355952Y-82561904D02*
X132308333Y-82514285D01*
X132260714Y-82419047D01*
X132260714Y-82276190D01*
X132308333Y-82180952D01*
X132403571Y-82133333D01*
X132927380Y-82133333D01*
X132927380Y-81657142D02*
X132260714Y-81657142D01*
X131927380Y-81657142D02*
X131975000Y-81704761D01*
X132022619Y-81657142D01*
X131975000Y-81609523D01*
X131927380Y-81657142D01*
X132022619Y-81657142D01*
X132260714Y-81276190D02*
X132927380Y-81038095D01*
X132260714Y-80800000D01*
X132879761Y-80038095D02*
X132927380Y-80133333D01*
X132927380Y-80323809D01*
X132879761Y-80419047D01*
X132784523Y-80466666D01*
X132403571Y-80466666D01*
X132308333Y-80419047D01*
X132260714Y-80323809D01*
X132260714Y-80133333D01*
X132308333Y-80038095D01*
X132403571Y-79990476D01*
X132498809Y-79990476D01*
X132594047Y-80466666D01*
X132927380Y-79561904D02*
X132260714Y-79561904D01*
X132451190Y-79561904D02*
X132355952Y-79514285D01*
X132308333Y-79466666D01*
X132260714Y-79371428D01*
X132260714Y-79276190D01*
X132879761Y-78990476D02*
X132927380Y-78895238D01*
X132927380Y-78704761D01*
X132879761Y-78609523D01*
X132784523Y-78561904D01*
X132736904Y-78561904D01*
X132641666Y-78609523D01*
X132594047Y-78704761D01*
X132594047Y-78847619D01*
X132546428Y-78942857D01*
X132451190Y-78990476D01*
X132403571Y-78990476D01*
X132308333Y-78942857D01*
X132260714Y-78847619D01*
X132260714Y-78704761D01*
X132308333Y-78609523D01*
X132927380Y-78133333D02*
X132260714Y-78133333D01*
X131927380Y-78133333D02*
X131975000Y-78180952D01*
X132022619Y-78133333D01*
X131975000Y-78085714D01*
X131927380Y-78133333D01*
X132022619Y-78133333D01*
X132260714Y-77800000D02*
X132260714Y-77419047D01*
X131927380Y-77657142D02*
X132784523Y-77657142D01*
X132879761Y-77609523D01*
X132927380Y-77514285D01*
X132927380Y-77419047D01*
X132260714Y-77180952D02*
X132927380Y-76942857D01*
X132260714Y-76704761D02*
X132927380Y-76942857D01*
X133165476Y-77038095D01*
X133213095Y-77085714D01*
X133260714Y-77180952D01*
X132927380Y-75419047D02*
X132879761Y-75514285D01*
X132832142Y-75561904D01*
X132736904Y-75609523D01*
X132451190Y-75609523D01*
X132355952Y-75561904D01*
X132308333Y-75514285D01*
X132260714Y-75419047D01*
X132260714Y-75276190D01*
X132308333Y-75180952D01*
X132355952Y-75133333D01*
X132451190Y-75085714D01*
X132736904Y-75085714D01*
X132832142Y-75133333D01*
X132879761Y-75180952D01*
X132927380Y-75276190D01*
X132927380Y-75419047D01*
X132260714Y-74800000D02*
X132260714Y-74419047D01*
X132927380Y-74657142D02*
X132070238Y-74657142D01*
X131975000Y-74609523D01*
X131927380Y-74514285D01*
X131927380Y-74419047D01*
X132879761Y-73371428D02*
X132927380Y-73228571D01*
X132927380Y-72990476D01*
X132879761Y-72895238D01*
X132832142Y-72847619D01*
X132736904Y-72800000D01*
X132641666Y-72800000D01*
X132546428Y-72847619D01*
X132498809Y-72895238D01*
X132451190Y-72990476D01*
X132403571Y-73180952D01*
X132355952Y-73276190D01*
X132308333Y-73323809D01*
X132213095Y-73371428D01*
X132117857Y-73371428D01*
X132022619Y-73323809D01*
X131975000Y-73276190D01*
X131927380Y-73180952D01*
X131927380Y-72942857D01*
X131975000Y-72800000D01*
X132927380Y-72228571D02*
X132879761Y-72323809D01*
X132832142Y-72371428D01*
X132736904Y-72419047D01*
X132451190Y-72419047D01*
X132355952Y-72371428D01*
X132308333Y-72323809D01*
X132260714Y-72228571D01*
X132260714Y-72085714D01*
X132308333Y-71990476D01*
X132355952Y-71942857D01*
X132451190Y-71895238D01*
X132736904Y-71895238D01*
X132832142Y-71942857D01*
X132879761Y-71990476D01*
X132927380Y-72085714D01*
X132927380Y-72228571D01*
X132260714Y-71038095D02*
X132927380Y-71038095D01*
X132260714Y-71466666D02*
X132784523Y-71466666D01*
X132879761Y-71419047D01*
X132927380Y-71323809D01*
X132927380Y-71180952D01*
X132879761Y-71085714D01*
X132832142Y-71038095D01*
X132260714Y-70704761D02*
X132260714Y-70323809D01*
X131927380Y-70561904D02*
X132784523Y-70561904D01*
X132879761Y-70514285D01*
X132927380Y-70419047D01*
X132927380Y-70323809D01*
X132927380Y-69990476D02*
X131927380Y-69990476D01*
X132927380Y-69561904D02*
X132403571Y-69561904D01*
X132308333Y-69609523D01*
X132260714Y-69704761D01*
X132260714Y-69847619D01*
X132308333Y-69942857D01*
X132355952Y-69990476D01*
X132879761Y-68704761D02*
X132927380Y-68800000D01*
X132927380Y-68990476D01*
X132879761Y-69085714D01*
X132784523Y-69133333D01*
X132403571Y-69133333D01*
X132308333Y-69085714D01*
X132260714Y-68990476D01*
X132260714Y-68800000D01*
X132308333Y-68704761D01*
X132403571Y-68657142D01*
X132498809Y-68657142D01*
X132594047Y-69133333D01*
X132927380Y-68228571D02*
X132260714Y-68228571D01*
X132451190Y-68228571D02*
X132355952Y-68180952D01*
X132308333Y-68133333D01*
X132260714Y-68038095D01*
X132260714Y-67942857D01*
X132260714Y-67609523D02*
X132927380Y-67609523D01*
X132355952Y-67609523D02*
X132308333Y-67561904D01*
X132260714Y-67466666D01*
X132260714Y-67323809D01*
X132308333Y-67228571D01*
X132403571Y-67180952D01*
X132927380Y-67180952D01*
X132927380Y-65942857D02*
X131927380Y-65942857D01*
X131927380Y-65704761D01*
X131975000Y-65561904D01*
X132070238Y-65466666D01*
X132165476Y-65419047D01*
X132355952Y-65371428D01*
X132498809Y-65371428D01*
X132689285Y-65419047D01*
X132784523Y-65466666D01*
X132879761Y-65561904D01*
X132927380Y-65704761D01*
X132927380Y-65942857D01*
X132879761Y-64561904D02*
X132927380Y-64657142D01*
X132927380Y-64847619D01*
X132879761Y-64942857D01*
X132784523Y-64990476D01*
X132403571Y-64990476D01*
X132308333Y-64942857D01*
X132260714Y-64847619D01*
X132260714Y-64657142D01*
X132308333Y-64561904D01*
X132403571Y-64514285D01*
X132498809Y-64514285D01*
X132594047Y-64990476D01*
X132260714Y-64085714D02*
X132927380Y-64085714D01*
X132355952Y-64085714D02*
X132308333Y-64038095D01*
X132260714Y-63942857D01*
X132260714Y-63800000D01*
X132308333Y-63704761D01*
X132403571Y-63657142D01*
X132927380Y-63657142D01*
X132927380Y-63180952D02*
X132260714Y-63180952D01*
X132355952Y-63180952D02*
X132308333Y-63133333D01*
X132260714Y-63038095D01*
X132260714Y-62895238D01*
X132308333Y-62800000D01*
X132403571Y-62752380D01*
X132927380Y-62752380D01*
X132403571Y-62752380D02*
X132308333Y-62704761D01*
X132260714Y-62609523D01*
X132260714Y-62466666D01*
X132308333Y-62371428D01*
X132403571Y-62323809D01*
X132927380Y-62323809D01*
X132927380Y-61419047D02*
X132403571Y-61419047D01*
X132308333Y-61466666D01*
X132260714Y-61561904D01*
X132260714Y-61752380D01*
X132308333Y-61847619D01*
X132879761Y-61419047D02*
X132927380Y-61514285D01*
X132927380Y-61752380D01*
X132879761Y-61847619D01*
X132784523Y-61895238D01*
X132689285Y-61895238D01*
X132594047Y-61847619D01*
X132546428Y-61752380D01*
X132546428Y-61514285D01*
X132498809Y-61419047D01*
X132927380Y-60942857D02*
X132260714Y-60942857D01*
X132451190Y-60942857D02*
X132355952Y-60895238D01*
X132308333Y-60847619D01*
X132260714Y-60752380D01*
X132260714Y-60657142D01*
X132927380Y-60323809D02*
X131927380Y-60323809D01*
X132546428Y-60228571D02*
X132927380Y-59942857D01*
X132260714Y-59942857D02*
X132641666Y-60323809D01*
D11*
X96316800Y-101409500D02*
X96316800Y-100139500D01*
X96951800Y-100393500D02*
X95681800Y-100393500D01*
X96316800Y-100393500D02*
X96951800Y-101155500D01*
X96316800Y-100393500D02*
X96824800Y-101155500D01*
X96316800Y-100393500D02*
X96697800Y-101155500D01*
X96316800Y-100393500D02*
X96570800Y-101155500D01*
X96316800Y-100393500D02*
X96443800Y-101155500D01*
X96316800Y-100393500D02*
X95681800Y-101155500D01*
X96316800Y-100393500D02*
X95808800Y-101155500D01*
X96316800Y-100393500D02*
X95935800Y-101155500D01*
X96316800Y-100393500D02*
X96062800Y-101155500D01*
X96316800Y-100393500D02*
X96189800Y-101155500D01*
X96951800Y-101155500D02*
X95681800Y-101155500D01*
X91135200Y-113906300D02*
X91339561Y-113906300D01*
X101498400Y-113906300D02*
X101498400Y-109915288D01*
X91135200Y-109915288D02*
X91135200Y-113906300D01*
X101294039Y-113906300D02*
X101498400Y-113906300D01*
X107746800Y-101384100D02*
X107746800Y-100114100D01*
X108381800Y-100368100D02*
X107111800Y-100368100D01*
X107746800Y-100368100D02*
X108381800Y-101130100D01*
X107746800Y-100368100D02*
X108254800Y-101130100D01*
X107746800Y-100368100D02*
X108127800Y-101130100D01*
X107746800Y-100368100D02*
X108000800Y-101130100D01*
X107746800Y-100368100D02*
X107873800Y-101130100D01*
X107746800Y-100368100D02*
X107111800Y-101130100D01*
X107746800Y-100368100D02*
X107238800Y-101130100D01*
X107746800Y-100368100D02*
X107365800Y-101130100D01*
X107746800Y-100368100D02*
X107492800Y-101130100D01*
X107746800Y-100368100D02*
X107619800Y-101130100D01*
X108381800Y-101130100D02*
X107111800Y-101130100D01*
X102565200Y-113880900D02*
X102769561Y-113880900D01*
X112928400Y-113880900D02*
X112928400Y-109889888D01*
X102565200Y-109889888D02*
X102565200Y-113880900D01*
X112724039Y-113880900D02*
X112928400Y-113880900D01*
X100558600Y-67881500D02*
X100558600Y-66611500D01*
X101193600Y-66865500D02*
X99923600Y-66865500D01*
X100558600Y-66865500D02*
X101193600Y-67627500D01*
X100558600Y-66865500D02*
X101066600Y-67627500D01*
X100558600Y-66865500D02*
X100939600Y-67627500D01*
X100558600Y-66865500D02*
X100812600Y-67627500D01*
X100558600Y-66865500D02*
X100685600Y-67627500D01*
X100558600Y-66865500D02*
X99923600Y-67627500D01*
X100558600Y-66865500D02*
X100050600Y-67627500D01*
X100558600Y-66865500D02*
X100177600Y-67627500D01*
X100558600Y-66865500D02*
X100304600Y-67627500D01*
X100558600Y-66865500D02*
X100431600Y-67627500D01*
X101193600Y-67627500D02*
X99923600Y-67627500D01*
X95377000Y-80378300D02*
X95581361Y-80378300D01*
X105740200Y-80378300D02*
X105740200Y-76387288D01*
X95377000Y-76387288D02*
X95377000Y-80378300D01*
X105535839Y-80378300D02*
X105740200Y-80378300D01*
X111988600Y-67881500D02*
X111988600Y-66611500D01*
X112623600Y-66865500D02*
X111353600Y-66865500D01*
X111988600Y-66865500D02*
X112623600Y-67627500D01*
X111988600Y-66865500D02*
X112496600Y-67627500D01*
X111988600Y-66865500D02*
X112369600Y-67627500D01*
X111988600Y-66865500D02*
X112242600Y-67627500D01*
X111988600Y-66865500D02*
X112115600Y-67627500D01*
X111988600Y-66865500D02*
X111353600Y-67627500D01*
X111988600Y-66865500D02*
X111480600Y-67627500D01*
X111988600Y-66865500D02*
X111607600Y-67627500D01*
X111988600Y-66865500D02*
X111734600Y-67627500D01*
X111988600Y-66865500D02*
X111861600Y-67627500D01*
X112623600Y-67627500D02*
X111353600Y-67627500D01*
X106807000Y-80378300D02*
X107011361Y-80378300D01*
X117170200Y-80378300D02*
X117170200Y-76387288D01*
X106807000Y-76387288D02*
X106807000Y-80378300D01*
X116965839Y-80378300D02*
X117170200Y-80378300D01*
D12*
X124205000Y-125295000D02*
X124205000Y-125295000D01*
X124405000Y-125295000D02*
X124405000Y-125295000D01*
X124205000Y-125295000D02*
G75*
G02*
X124405000Y-125295000I100000J0D01*
G01*
X124405000Y-125295000D02*
G75*
G02*
X124205000Y-125295000I-100000J0D01*
G01*
X96900000Y-125295000D02*
X96900000Y-125295000D01*
X97100000Y-125295000D02*
X97100000Y-125295000D01*
X96900000Y-125295000D02*
G75*
G02*
X97100000Y-125295000I100000J0D01*
G01*
X97100000Y-125295000D02*
G75*
G02*
X96900000Y-125295000I-100000J0D01*
G01*
X69595000Y-125295000D02*
X69595000Y-125295000D01*
X69795000Y-125295000D02*
X69795000Y-125295000D01*
X69595000Y-125295000D02*
G75*
G02*
X69795000Y-125295000I100000J0D01*
G01*
X69795000Y-125295000D02*
G75*
G02*
X69595000Y-125295000I-100000J0D01*
G01*
X112775000Y-93291000D02*
X112775000Y-93291000D01*
X112975000Y-93291000D02*
X112975000Y-93291000D01*
X112775000Y-93291000D02*
G75*
G02*
X112975000Y-93291000I100000J0D01*
G01*
X112975000Y-93291000D02*
G75*
G02*
X112775000Y-93291000I-100000J0D01*
G01*
X102615000Y-93291000D02*
X102615000Y-93291000D01*
X102815000Y-93291000D02*
X102815000Y-93291000D01*
X102615000Y-93291000D02*
G75*
G02*
X102815000Y-93291000I100000J0D01*
G01*
X102815000Y-93291000D02*
G75*
G02*
X102615000Y-93291000I-100000J0D01*
G01*
X92455000Y-93291000D02*
X92455000Y-93291000D01*
X92655000Y-93291000D02*
X92655000Y-93291000D01*
X92455000Y-93291000D02*
G75*
G02*
X92655000Y-93291000I100000J0D01*
G01*
X92655000Y-93291000D02*
G75*
G02*
X92455000Y-93291000I-100000J0D01*
G01*
X110108000Y-62557000D02*
X110108000Y-62557000D01*
X110308000Y-62557000D02*
X110308000Y-62557000D01*
X110108000Y-62557000D02*
G75*
G02*
X110308000Y-62557000I100000J0D01*
G01*
X110308000Y-62557000D02*
G75*
G02*
X110108000Y-62557000I-100000J0D01*
G01*
X99948000Y-62557000D02*
X99948000Y-62557000D01*
X100148000Y-62557000D02*
X100148000Y-62557000D01*
X99948000Y-62557000D02*
G75*
G02*
X100148000Y-62557000I100000J0D01*
G01*
X100148000Y-62557000D02*
G75*
G02*
X99948000Y-62557000I-100000J0D01*
G01*
X89788000Y-62557000D02*
X89788000Y-62557000D01*
X89988000Y-62557000D02*
X89988000Y-62557000D01*
X89788000Y-62557000D02*
G75*
G02*
X89988000Y-62557000I100000J0D01*
G01*
X89988000Y-62557000D02*
G75*
G02*
X89788000Y-62557000I-100000J0D01*
G01*
D13*
X71522000Y-77012748D02*
X71522000Y-78435252D01*
X69702000Y-77012748D02*
X69702000Y-78435252D01*
X74570000Y-77012748D02*
X74570000Y-78435252D01*
X72750000Y-77012748D02*
X72750000Y-78435252D01*
X83587000Y-77012748D02*
X83587000Y-78435252D01*
X81767000Y-77012748D02*
X81767000Y-78435252D01*
X77618000Y-77012748D02*
X77618000Y-78435252D01*
X75798000Y-77012748D02*
X75798000Y-78435252D01*
X80539000Y-77012748D02*
X80539000Y-78435252D01*
X78719000Y-77012748D02*
X78719000Y-78435252D01*
X120375000Y-101819064D02*
X120375000Y-100364936D01*
X122195000Y-101819064D02*
X122195000Y-100364936D01*
X119867000Y-80102064D02*
X119867000Y-78647936D01*
X121687000Y-80102064D02*
X121687000Y-78647936D01*
X125370000Y-100380748D02*
X125370000Y-101803252D01*
X123550000Y-100380748D02*
X123550000Y-101803252D01*
X125497000Y-78663748D02*
X125497000Y-80086252D01*
X123677000Y-78663748D02*
X123677000Y-80086252D01*
X133625000Y-92405148D02*
X133625000Y-93827652D01*
X131805000Y-92405148D02*
X131805000Y-93827652D01*
X131085000Y-92405148D02*
X131085000Y-93827652D01*
X129265000Y-92405148D02*
X129265000Y-93827652D01*
X128545000Y-92405148D02*
X128545000Y-93827652D01*
X126725000Y-92405148D02*
X126725000Y-93827652D01*
X126005000Y-92405148D02*
X126005000Y-93827652D01*
X124185000Y-92405148D02*
X124185000Y-93827652D01*
X86635000Y-77012748D02*
X86635000Y-78435252D01*
X84815000Y-77012748D02*
X84815000Y-78435252D01*
X74420000Y-100270000D02*
X75440000Y-100270000D01*
X74420000Y-105470000D02*
X75440000Y-105470000D01*
X76960000Y-100270000D02*
X77530000Y-100270000D01*
X76960000Y-105470000D02*
X77530000Y-105470000D01*
X72330000Y-100270000D02*
X72900000Y-100270000D01*
X72330000Y-105470000D02*
X72900000Y-105470000D01*
X72900000Y-106910000D02*
X72900000Y-105470000D01*
X77530000Y-105470000D02*
X77530000Y-100270000D01*
X72330000Y-105470000D02*
X72330000Y-100270000D01*
D12*
X80950000Y-89248600D02*
X84150000Y-89248600D01*
X84150000Y-89248600D02*
X84150000Y-97898600D01*
X84150000Y-97898600D02*
X80950000Y-97898600D01*
X80950000Y-97898600D02*
X80950000Y-89248600D01*
X79075000Y-89063600D02*
X80600000Y-89063600D01*
D13*
X89000000Y-91967248D02*
X89000000Y-92489752D01*
X87530000Y-91967248D02*
X87530000Y-92489752D01*
X82805600Y-101043600D02*
X82805600Y-103503600D01*
X84275600Y-101043600D02*
X82805600Y-101043600D01*
X84275600Y-103503600D02*
X84275600Y-101043600D01*
X86333424Y-103033300D02*
X85823976Y-103033300D01*
X86333424Y-104078300D02*
X85823976Y-104078300D01*
X86311824Y-101433100D02*
X85802376Y-101433100D01*
X86311824Y-102478100D02*
X85802376Y-102478100D01*
X80498733Y-102110000D02*
X80791267Y-102110000D01*
X80498733Y-101090000D02*
X80791267Y-101090000D01*
X80498733Y-100205000D02*
X80791267Y-100205000D01*
X80498733Y-99185000D02*
X80791267Y-99185000D01*
X83469433Y-87555800D02*
X83761967Y-87555800D01*
X83469433Y-86535800D02*
X83761967Y-86535800D01*
X80791267Y-102995000D02*
X80498733Y-102995000D01*
X80791267Y-104015000D02*
X80498733Y-104015000D01*
X76346267Y-93470000D02*
X76053733Y-93470000D01*
X76346267Y-94490000D02*
X76053733Y-94490000D01*
X76346267Y-90295000D02*
X76053733Y-90295000D01*
X76346267Y-91315000D02*
X76053733Y-91315000D01*
X76454724Y-95362500D02*
X75945276Y-95362500D01*
X76454724Y-96407500D02*
X75945276Y-96407500D01*
X80440624Y-86523300D02*
X79931176Y-86523300D01*
X80440624Y-87568300D02*
X79931176Y-87568300D01*
X75945276Y-89422500D02*
X76454724Y-89422500D01*
X75945276Y-88377500D02*
X76454724Y-88377500D01*
X91440724Y-116190500D02*
X90931276Y-116190500D01*
X91440724Y-117235500D02*
X90931276Y-117235500D01*
X102870724Y-116190500D02*
X102361276Y-116190500D01*
X102870724Y-117235500D02*
X102361276Y-117235500D01*
X95123724Y-82789500D02*
X94614276Y-82789500D01*
X95123724Y-83834500D02*
X94614276Y-83834500D01*
X107315724Y-82027500D02*
X106806276Y-82027500D01*
X107315724Y-83072500D02*
X106806276Y-83072500D01*
X93267624Y-79538300D02*
X92758176Y-79538300D01*
X93267624Y-80583300D02*
X92758176Y-80583300D01*
X93271424Y-81087700D02*
X92761976Y-81087700D01*
X93271424Y-82132700D02*
X92761976Y-82132700D01*
X91184400Y-82468800D02*
X91184400Y-80008800D01*
X89714400Y-82468800D02*
X91184400Y-82468800D01*
X89714400Y-80008800D02*
X89714400Y-82468800D01*
D10*
X99088095Y-100652380D02*
X99088095Y-101461904D01*
X99135714Y-101557142D01*
X99183333Y-101604761D01*
X99278571Y-101652380D01*
X99469047Y-101652380D01*
X99564285Y-101604761D01*
X99611904Y-101557142D01*
X99659523Y-101461904D01*
X99659523Y-100652380D01*
X100564285Y-100985714D02*
X100564285Y-101652380D01*
X100326190Y-100604761D02*
X100088095Y-101319047D01*
X100707142Y-101319047D01*
X103588095Y-100702380D02*
X103588095Y-101511904D01*
X103635714Y-101607142D01*
X103683333Y-101654761D01*
X103778571Y-101702380D01*
X103969047Y-101702380D01*
X104064285Y-101654761D01*
X104111904Y-101607142D01*
X104159523Y-101511904D01*
X104159523Y-100702380D01*
X104540476Y-100702380D02*
X105159523Y-100702380D01*
X104826190Y-101083333D01*
X104969047Y-101083333D01*
X105064285Y-101130952D01*
X105111904Y-101178571D01*
X105159523Y-101273809D01*
X105159523Y-101511904D01*
X105111904Y-101607142D01*
X105064285Y-101654761D01*
X104969047Y-101702380D01*
X104683333Y-101702380D01*
X104588095Y-101654761D01*
X104540476Y-101607142D01*
X92738095Y-73152380D02*
X92738095Y-73961904D01*
X92785714Y-74057142D01*
X92833333Y-74104761D01*
X92928571Y-74152380D01*
X93119047Y-74152380D01*
X93214285Y-74104761D01*
X93261904Y-74057142D01*
X93309523Y-73961904D01*
X93309523Y-73152380D01*
X93738095Y-73247619D02*
X93785714Y-73200000D01*
X93880952Y-73152380D01*
X94119047Y-73152380D01*
X94214285Y-73200000D01*
X94261904Y-73247619D01*
X94309523Y-73342857D01*
X94309523Y-73438095D01*
X94261904Y-73580952D01*
X93690476Y-74152380D01*
X94309523Y-74152380D01*
X117838095Y-73202380D02*
X117838095Y-74011904D01*
X117885714Y-74107142D01*
X117933333Y-74154761D01*
X118028571Y-74202380D01*
X118219047Y-74202380D01*
X118314285Y-74154761D01*
X118361904Y-74107142D01*
X118409523Y-74011904D01*
X118409523Y-73202380D01*
X119409523Y-74202380D02*
X118838095Y-74202380D01*
X119123809Y-74202380D02*
X119123809Y-73202380D01*
X119028571Y-73345238D01*
X118933333Y-73440476D01*
X118838095Y-73488095D01*
X69969142Y-74906142D02*
X69921523Y-74953761D01*
X69778666Y-75001380D01*
X69683428Y-75001380D01*
X69540571Y-74953761D01*
X69445333Y-74858523D01*
X69397714Y-74763285D01*
X69350095Y-74572809D01*
X69350095Y-74429952D01*
X69397714Y-74239476D01*
X69445333Y-74144238D01*
X69540571Y-74049000D01*
X69683428Y-74001380D01*
X69778666Y-74001380D01*
X69921523Y-74049000D01*
X69969142Y-74096619D01*
X70921523Y-75001380D02*
X70350095Y-75001380D01*
X70635809Y-75001380D02*
X70635809Y-74001380D01*
X70540571Y-74144238D01*
X70445333Y-74239476D01*
X70350095Y-74287095D01*
X71397714Y-75001380D02*
X71588190Y-75001380D01*
X71683428Y-74953761D01*
X71731047Y-74906142D01*
X71826285Y-74763285D01*
X71873904Y-74572809D01*
X71873904Y-74191857D01*
X71826285Y-74096619D01*
X71778666Y-74049000D01*
X71683428Y-74001380D01*
X71492952Y-74001380D01*
X71397714Y-74049000D01*
X71350095Y-74096619D01*
X71302476Y-74191857D01*
X71302476Y-74429952D01*
X71350095Y-74525190D01*
X71397714Y-74572809D01*
X71492952Y-74620428D01*
X71683428Y-74620428D01*
X71778666Y-74572809D01*
X71826285Y-74525190D01*
X71873904Y-74429952D01*
X73017142Y-81256142D02*
X72969523Y-81303761D01*
X72826666Y-81351380D01*
X72731428Y-81351380D01*
X72588571Y-81303761D01*
X72493333Y-81208523D01*
X72445714Y-81113285D01*
X72398095Y-80922809D01*
X72398095Y-80779952D01*
X72445714Y-80589476D01*
X72493333Y-80494238D01*
X72588571Y-80399000D01*
X72731428Y-80351380D01*
X72826666Y-80351380D01*
X72969523Y-80399000D01*
X73017142Y-80446619D01*
X73969523Y-81351380D02*
X73398095Y-81351380D01*
X73683809Y-81351380D02*
X73683809Y-80351380D01*
X73588571Y-80494238D01*
X73493333Y-80589476D01*
X73398095Y-80637095D01*
X74540952Y-80779952D02*
X74445714Y-80732333D01*
X74398095Y-80684714D01*
X74350476Y-80589476D01*
X74350476Y-80541857D01*
X74398095Y-80446619D01*
X74445714Y-80399000D01*
X74540952Y-80351380D01*
X74731428Y-80351380D01*
X74826666Y-80399000D01*
X74874285Y-80446619D01*
X74921904Y-80541857D01*
X74921904Y-80589476D01*
X74874285Y-80684714D01*
X74826666Y-80732333D01*
X74731428Y-80779952D01*
X74540952Y-80779952D01*
X74445714Y-80827571D01*
X74398095Y-80875190D01*
X74350476Y-80970428D01*
X74350476Y-81160904D01*
X74398095Y-81256142D01*
X74445714Y-81303761D01*
X74540952Y-81351380D01*
X74731428Y-81351380D01*
X74826666Y-81303761D01*
X74874285Y-81256142D01*
X74921904Y-81160904D01*
X74921904Y-80970428D01*
X74874285Y-80875190D01*
X74826666Y-80827571D01*
X74731428Y-80779952D01*
X82034142Y-74906142D02*
X81986523Y-74953761D01*
X81843666Y-75001380D01*
X81748428Y-75001380D01*
X81605571Y-74953761D01*
X81510333Y-74858523D01*
X81462714Y-74763285D01*
X81415095Y-74572809D01*
X81415095Y-74429952D01*
X81462714Y-74239476D01*
X81510333Y-74144238D01*
X81605571Y-74049000D01*
X81748428Y-74001380D01*
X81843666Y-74001380D01*
X81986523Y-74049000D01*
X82034142Y-74096619D01*
X82986523Y-75001380D02*
X82415095Y-75001380D01*
X82700809Y-75001380D02*
X82700809Y-74001380D01*
X82605571Y-74144238D01*
X82510333Y-74239476D01*
X82415095Y-74287095D01*
X83319857Y-74001380D02*
X83986523Y-74001380D01*
X83557952Y-75001380D01*
X76065142Y-74906142D02*
X76017523Y-74953761D01*
X75874666Y-75001380D01*
X75779428Y-75001380D01*
X75636571Y-74953761D01*
X75541333Y-74858523D01*
X75493714Y-74763285D01*
X75446095Y-74572809D01*
X75446095Y-74429952D01*
X75493714Y-74239476D01*
X75541333Y-74144238D01*
X75636571Y-74049000D01*
X75779428Y-74001380D01*
X75874666Y-74001380D01*
X76017523Y-74049000D01*
X76065142Y-74096619D01*
X77017523Y-75001380D02*
X76446095Y-75001380D01*
X76731809Y-75001380D02*
X76731809Y-74001380D01*
X76636571Y-74144238D01*
X76541333Y-74239476D01*
X76446095Y-74287095D01*
X77874666Y-74001380D02*
X77684190Y-74001380D01*
X77588952Y-74049000D01*
X77541333Y-74096619D01*
X77446095Y-74239476D01*
X77398476Y-74429952D01*
X77398476Y-74810904D01*
X77446095Y-74906142D01*
X77493714Y-74953761D01*
X77588952Y-75001380D01*
X77779428Y-75001380D01*
X77874666Y-74953761D01*
X77922285Y-74906142D01*
X77969904Y-74810904D01*
X77969904Y-74572809D01*
X77922285Y-74477571D01*
X77874666Y-74429952D01*
X77779428Y-74382333D01*
X77588952Y-74382333D01*
X77493714Y-74429952D01*
X77446095Y-74477571D01*
X77398476Y-74572809D01*
X78986142Y-81510142D02*
X78938523Y-81557761D01*
X78795666Y-81605380D01*
X78700428Y-81605380D01*
X78557571Y-81557761D01*
X78462333Y-81462523D01*
X78414714Y-81367285D01*
X78367095Y-81176809D01*
X78367095Y-81033952D01*
X78414714Y-80843476D01*
X78462333Y-80748238D01*
X78557571Y-80653000D01*
X78700428Y-80605380D01*
X78795666Y-80605380D01*
X78938523Y-80653000D01*
X78986142Y-80700619D01*
X79938523Y-81605380D02*
X79367095Y-81605380D01*
X79652809Y-81605380D02*
X79652809Y-80605380D01*
X79557571Y-80748238D01*
X79462333Y-80843476D01*
X79367095Y-80891095D01*
X80557571Y-80605380D02*
X80652809Y-80605380D01*
X80748047Y-80653000D01*
X80795666Y-80700619D01*
X80843285Y-80795857D01*
X80890904Y-80986333D01*
X80890904Y-81224428D01*
X80843285Y-81414904D01*
X80795666Y-81510142D01*
X80748047Y-81557761D01*
X80652809Y-81605380D01*
X80557571Y-81605380D01*
X80462333Y-81557761D01*
X80414714Y-81510142D01*
X80367095Y-81414904D01*
X80319476Y-81224428D01*
X80319476Y-80986333D01*
X80367095Y-80795857D01*
X80414714Y-80700619D01*
X80462333Y-80653000D01*
X80557571Y-80605380D01*
X119832380Y-101734857D02*
X119356190Y-102068190D01*
X119832380Y-102306285D02*
X118832380Y-102306285D01*
X118832380Y-101925333D01*
X118880000Y-101830095D01*
X118927619Y-101782476D01*
X119022857Y-101734857D01*
X119165714Y-101734857D01*
X119260952Y-101782476D01*
X119308571Y-101830095D01*
X119356190Y-101925333D01*
X119356190Y-102306285D01*
X119832380Y-100782476D02*
X119832380Y-101353904D01*
X119832380Y-101068190D02*
X118832380Y-101068190D01*
X118975238Y-101163428D01*
X119070476Y-101258666D01*
X119118095Y-101353904D01*
X118832380Y-100449142D02*
X118832380Y-99830095D01*
X119213333Y-100163428D01*
X119213333Y-100020571D01*
X119260952Y-99925333D01*
X119308571Y-99877714D01*
X119403809Y-99830095D01*
X119641904Y-99830095D01*
X119737142Y-99877714D01*
X119784761Y-99925333D01*
X119832380Y-100020571D01*
X119832380Y-100306285D01*
X119784761Y-100401523D01*
X119737142Y-100449142D01*
X119409380Y-80017857D02*
X118933190Y-80351190D01*
X119409380Y-80589285D02*
X118409380Y-80589285D01*
X118409380Y-80208333D01*
X118457000Y-80113095D01*
X118504619Y-80065476D01*
X118599857Y-80017857D01*
X118742714Y-80017857D01*
X118837952Y-80065476D01*
X118885571Y-80113095D01*
X118933190Y-80208333D01*
X118933190Y-80589285D01*
X119409380Y-79065476D02*
X119409380Y-79636904D01*
X119409380Y-79351190D02*
X118409380Y-79351190D01*
X118552238Y-79446428D01*
X118647476Y-79541666D01*
X118695095Y-79636904D01*
X118504619Y-78684523D02*
X118457000Y-78636904D01*
X118409380Y-78541666D01*
X118409380Y-78303571D01*
X118457000Y-78208333D01*
X118504619Y-78160714D01*
X118599857Y-78113095D01*
X118695095Y-78113095D01*
X118837952Y-78160714D01*
X119409380Y-78732142D01*
X119409380Y-78113095D01*
X126667142Y-101258666D02*
X126714761Y-101306285D01*
X126762380Y-101449142D01*
X126762380Y-101544380D01*
X126714761Y-101687238D01*
X126619523Y-101782476D01*
X126524285Y-101830095D01*
X126333809Y-101877714D01*
X126190952Y-101877714D01*
X126000476Y-101830095D01*
X125905238Y-101782476D01*
X125810000Y-101687238D01*
X125762380Y-101544380D01*
X125762380Y-101449142D01*
X125810000Y-101306285D01*
X125857619Y-101258666D01*
X126190952Y-100687238D02*
X126143333Y-100782476D01*
X126095714Y-100830095D01*
X126000476Y-100877714D01*
X125952857Y-100877714D01*
X125857619Y-100830095D01*
X125810000Y-100782476D01*
X125762380Y-100687238D01*
X125762380Y-100496761D01*
X125810000Y-100401523D01*
X125857619Y-100353904D01*
X125952857Y-100306285D01*
X126000476Y-100306285D01*
X126095714Y-100353904D01*
X126143333Y-100401523D01*
X126190952Y-100496761D01*
X126190952Y-100687238D01*
X126238571Y-100782476D01*
X126286190Y-100830095D01*
X126381428Y-100877714D01*
X126571904Y-100877714D01*
X126667142Y-100830095D01*
X126714761Y-100782476D01*
X126762380Y-100687238D01*
X126762380Y-100496761D01*
X126714761Y-100401523D01*
X126667142Y-100353904D01*
X126571904Y-100306285D01*
X126381428Y-100306285D01*
X126286190Y-100353904D01*
X126238571Y-100401523D01*
X126190952Y-100496761D01*
X126794142Y-79541666D02*
X126841761Y-79589285D01*
X126889380Y-79732142D01*
X126889380Y-79827380D01*
X126841761Y-79970238D01*
X126746523Y-80065476D01*
X126651285Y-80113095D01*
X126460809Y-80160714D01*
X126317952Y-80160714D01*
X126127476Y-80113095D01*
X126032238Y-80065476D01*
X125937000Y-79970238D01*
X125889380Y-79827380D01*
X125889380Y-79732142D01*
X125937000Y-79589285D01*
X125984619Y-79541666D01*
X125889380Y-79208333D02*
X125889380Y-78541666D01*
X126889380Y-78970238D01*
X131945142Y-90273142D02*
X131897523Y-90320761D01*
X131754666Y-90368380D01*
X131659428Y-90368380D01*
X131516571Y-90320761D01*
X131421333Y-90225523D01*
X131373714Y-90130285D01*
X131326095Y-89939809D01*
X131326095Y-89796952D01*
X131373714Y-89606476D01*
X131421333Y-89511238D01*
X131516571Y-89416000D01*
X131659428Y-89368380D01*
X131754666Y-89368380D01*
X131897523Y-89416000D01*
X131945142Y-89463619D01*
X132897523Y-90368380D02*
X132326095Y-90368380D01*
X132611809Y-90368380D02*
X132611809Y-89368380D01*
X132516571Y-89511238D01*
X132421333Y-89606476D01*
X132326095Y-89654095D01*
X133802285Y-89368380D02*
X133326095Y-89368380D01*
X133278476Y-89844571D01*
X133326095Y-89796952D01*
X133421333Y-89749333D01*
X133659428Y-89749333D01*
X133754666Y-89796952D01*
X133802285Y-89844571D01*
X133849904Y-89939809D01*
X133849904Y-90177904D01*
X133802285Y-90273142D01*
X133754666Y-90320761D01*
X133659428Y-90368380D01*
X133421333Y-90368380D01*
X133326095Y-90320761D01*
X133278476Y-90273142D01*
X129532142Y-96750142D02*
X129484523Y-96797761D01*
X129341666Y-96845380D01*
X129246428Y-96845380D01*
X129103571Y-96797761D01*
X129008333Y-96702523D01*
X128960714Y-96607285D01*
X128913095Y-96416809D01*
X128913095Y-96273952D01*
X128960714Y-96083476D01*
X129008333Y-95988238D01*
X129103571Y-95893000D01*
X129246428Y-95845380D01*
X129341666Y-95845380D01*
X129484523Y-95893000D01*
X129532142Y-95940619D01*
X130484523Y-96845380D02*
X129913095Y-96845380D01*
X130198809Y-96845380D02*
X130198809Y-95845380D01*
X130103571Y-95988238D01*
X130008333Y-96083476D01*
X129913095Y-96131095D01*
X131341666Y-96178714D02*
X131341666Y-96845380D01*
X131103571Y-95797761D02*
X130865476Y-96512047D01*
X131484523Y-96512047D01*
X126865142Y-90273142D02*
X126817523Y-90320761D01*
X126674666Y-90368380D01*
X126579428Y-90368380D01*
X126436571Y-90320761D01*
X126341333Y-90225523D01*
X126293714Y-90130285D01*
X126246095Y-89939809D01*
X126246095Y-89796952D01*
X126293714Y-89606476D01*
X126341333Y-89511238D01*
X126436571Y-89416000D01*
X126579428Y-89368380D01*
X126674666Y-89368380D01*
X126817523Y-89416000D01*
X126865142Y-89463619D01*
X127817523Y-90368380D02*
X127246095Y-90368380D01*
X127531809Y-90368380D02*
X127531809Y-89368380D01*
X127436571Y-89511238D01*
X127341333Y-89606476D01*
X127246095Y-89654095D01*
X128150857Y-89368380D02*
X128769904Y-89368380D01*
X128436571Y-89749333D01*
X128579428Y-89749333D01*
X128674666Y-89796952D01*
X128722285Y-89844571D01*
X128769904Y-89939809D01*
X128769904Y-90177904D01*
X128722285Y-90273142D01*
X128674666Y-90320761D01*
X128579428Y-90368380D01*
X128293714Y-90368380D01*
X128198476Y-90320761D01*
X128150857Y-90273142D01*
X124325142Y-96750142D02*
X124277523Y-96797761D01*
X124134666Y-96845380D01*
X124039428Y-96845380D01*
X123896571Y-96797761D01*
X123801333Y-96702523D01*
X123753714Y-96607285D01*
X123706095Y-96416809D01*
X123706095Y-96273952D01*
X123753714Y-96083476D01*
X123801333Y-95988238D01*
X123896571Y-95893000D01*
X124039428Y-95845380D01*
X124134666Y-95845380D01*
X124277523Y-95893000D01*
X124325142Y-95940619D01*
X125277523Y-96845380D02*
X124706095Y-96845380D01*
X124991809Y-96845380D02*
X124991809Y-95845380D01*
X124896571Y-95988238D01*
X124801333Y-96083476D01*
X124706095Y-96131095D01*
X125658476Y-95940619D02*
X125706095Y-95893000D01*
X125801333Y-95845380D01*
X126039428Y-95845380D01*
X126134666Y-95893000D01*
X126182285Y-95940619D01*
X126229904Y-96035857D01*
X126229904Y-96131095D01*
X126182285Y-96273952D01*
X125610857Y-96845380D01*
X126229904Y-96845380D01*
X84955142Y-81510142D02*
X84907523Y-81557761D01*
X84764666Y-81605380D01*
X84669428Y-81605380D01*
X84526571Y-81557761D01*
X84431333Y-81462523D01*
X84383714Y-81367285D01*
X84336095Y-81176809D01*
X84336095Y-81033952D01*
X84383714Y-80843476D01*
X84431333Y-80748238D01*
X84526571Y-80653000D01*
X84669428Y-80605380D01*
X84764666Y-80605380D01*
X84907523Y-80653000D01*
X84955142Y-80700619D01*
X85907523Y-81605380D02*
X85336095Y-81605380D01*
X85621809Y-81605380D02*
X85621809Y-80605380D01*
X85526571Y-80748238D01*
X85431333Y-80843476D01*
X85336095Y-80891095D01*
X86859904Y-81605380D02*
X86288476Y-81605380D01*
X86574190Y-81605380D02*
X86574190Y-80605380D01*
X86478952Y-80748238D01*
X86383714Y-80843476D01*
X86288476Y-80891095D01*
X70782380Y-103203333D02*
X71496666Y-103203333D01*
X71639523Y-103250952D01*
X71734761Y-103346190D01*
X71782380Y-103489047D01*
X71782380Y-103584285D01*
X71782380Y-102203333D02*
X71782380Y-102774761D01*
X71782380Y-102489047D02*
X70782380Y-102489047D01*
X70925238Y-102584285D01*
X71020476Y-102679523D01*
X71068095Y-102774761D01*
D14*
X86510238Y-98074523D02*
X86510238Y-96804523D01*
X87840714Y-97953571D02*
X87780238Y-98014047D01*
X87598809Y-98074523D01*
X87477857Y-98074523D01*
X87296428Y-98014047D01*
X87175476Y-97893095D01*
X87115000Y-97772142D01*
X87054523Y-97530238D01*
X87054523Y-97348809D01*
X87115000Y-97106904D01*
X87175476Y-96985952D01*
X87296428Y-96865000D01*
X87477857Y-96804523D01*
X87598809Y-96804523D01*
X87780238Y-96865000D01*
X87840714Y-96925476D01*
X89050238Y-98074523D02*
X88324523Y-98074523D01*
X88687380Y-98074523D02*
X88687380Y-96804523D01*
X88566428Y-96985952D01*
X88445476Y-97106904D01*
X88324523Y-97167380D01*
D10*
X90302142Y-92395166D02*
X90349761Y-92442785D01*
X90397380Y-92585642D01*
X90397380Y-92680880D01*
X90349761Y-92823738D01*
X90254523Y-92918976D01*
X90159285Y-92966595D01*
X89968809Y-93014214D01*
X89825952Y-93014214D01*
X89635476Y-92966595D01*
X89540238Y-92918976D01*
X89445000Y-92823738D01*
X89397380Y-92680880D01*
X89397380Y-92585642D01*
X89445000Y-92442785D01*
X89492619Y-92395166D01*
X89397380Y-91538023D02*
X89397380Y-91728500D01*
X89445000Y-91823738D01*
X89492619Y-91871357D01*
X89635476Y-91966595D01*
X89825952Y-92014214D01*
X90206904Y-92014214D01*
X90302142Y-91966595D01*
X90349761Y-91918976D01*
X90397380Y-91823738D01*
X90397380Y-91633261D01*
X90349761Y-91538023D01*
X90302142Y-91490404D01*
X90206904Y-91442785D01*
X89968809Y-91442785D01*
X89873571Y-91490404D01*
X89825952Y-91538023D01*
X89778333Y-91633261D01*
X89778333Y-91823738D01*
X89825952Y-91918976D01*
X89873571Y-91966595D01*
X89968809Y-92014214D01*
X84145380Y-106021095D02*
X83145380Y-106021095D01*
X83145380Y-105783000D01*
X83193000Y-105640142D01*
X83288238Y-105544904D01*
X83383476Y-105497285D01*
X83573952Y-105449666D01*
X83716809Y-105449666D01*
X83907285Y-105497285D01*
X84002523Y-105544904D01*
X84097761Y-105640142D01*
X84145380Y-105783000D01*
X84145380Y-106021095D01*
X84145380Y-104497285D02*
X84145380Y-105068714D01*
X84145380Y-104783000D02*
X83145380Y-104783000D01*
X83288238Y-104878238D01*
X83383476Y-104973476D01*
X83431095Y-105068714D01*
X88479333Y-104084380D02*
X88146000Y-103608190D01*
X87907904Y-104084380D02*
X87907904Y-103084380D01*
X88288857Y-103084380D01*
X88384095Y-103132000D01*
X88431714Y-103179619D01*
X88479333Y-103274857D01*
X88479333Y-103417714D01*
X88431714Y-103512952D01*
X88384095Y-103560571D01*
X88288857Y-103608190D01*
X87907904Y-103608190D01*
X89384095Y-103084380D02*
X88907904Y-103084380D01*
X88860285Y-103560571D01*
X88907904Y-103512952D01*
X89003142Y-103465333D01*
X89241238Y-103465333D01*
X89336476Y-103512952D01*
X89384095Y-103560571D01*
X89431714Y-103655809D01*
X89431714Y-103893904D01*
X89384095Y-103989142D01*
X89336476Y-104036761D01*
X89241238Y-104084380D01*
X89003142Y-104084380D01*
X88907904Y-104036761D01*
X88860285Y-103989142D01*
X88479333Y-102433380D02*
X88146000Y-101957190D01*
X87907904Y-102433380D02*
X87907904Y-101433380D01*
X88288857Y-101433380D01*
X88384095Y-101481000D01*
X88431714Y-101528619D01*
X88479333Y-101623857D01*
X88479333Y-101766714D01*
X88431714Y-101861952D01*
X88384095Y-101909571D01*
X88288857Y-101957190D01*
X87907904Y-101957190D01*
X89336476Y-101766714D02*
X89336476Y-102433380D01*
X89098380Y-101385761D02*
X88860285Y-102100047D01*
X89479333Y-102100047D01*
X78716142Y-101766666D02*
X78763761Y-101814285D01*
X78811380Y-101957142D01*
X78811380Y-102052380D01*
X78763761Y-102195238D01*
X78668523Y-102290476D01*
X78573285Y-102338095D01*
X78382809Y-102385714D01*
X78239952Y-102385714D01*
X78049476Y-102338095D01*
X77954238Y-102290476D01*
X77859000Y-102195238D01*
X77811380Y-102052380D01*
X77811380Y-101957142D01*
X77859000Y-101814285D01*
X77906619Y-101766666D01*
X77811380Y-101433333D02*
X77811380Y-100814285D01*
X78192333Y-101147619D01*
X78192333Y-101004761D01*
X78239952Y-100909523D01*
X78287571Y-100861904D01*
X78382809Y-100814285D01*
X78620904Y-100814285D01*
X78716142Y-100861904D01*
X78763761Y-100909523D01*
X78811380Y-101004761D01*
X78811380Y-101290476D01*
X78763761Y-101385714D01*
X78716142Y-101433333D01*
X78716142Y-99734666D02*
X78763761Y-99782285D01*
X78811380Y-99925142D01*
X78811380Y-100020380D01*
X78763761Y-100163238D01*
X78668523Y-100258476D01*
X78573285Y-100306095D01*
X78382809Y-100353714D01*
X78239952Y-100353714D01*
X78049476Y-100306095D01*
X77954238Y-100258476D01*
X77859000Y-100163238D01*
X77811380Y-100020380D01*
X77811380Y-99925142D01*
X77859000Y-99782285D01*
X77906619Y-99734666D01*
X78811380Y-99258476D02*
X78811380Y-99068000D01*
X78763761Y-98972761D01*
X78716142Y-98925142D01*
X78573285Y-98829904D01*
X78382809Y-98782285D01*
X78001857Y-98782285D01*
X77906619Y-98829904D01*
X77859000Y-98877523D01*
X77811380Y-98972761D01*
X77811380Y-99163238D01*
X77859000Y-99258476D01*
X77906619Y-99306095D01*
X78001857Y-99353714D01*
X78239952Y-99353714D01*
X78335190Y-99306095D01*
X78382809Y-99258476D01*
X78430428Y-99163238D01*
X78430428Y-98972761D01*
X78382809Y-98877523D01*
X78335190Y-98829904D01*
X78239952Y-98782285D01*
X83449033Y-85972942D02*
X83401414Y-86020561D01*
X83258557Y-86068180D01*
X83163319Y-86068180D01*
X83020461Y-86020561D01*
X82925223Y-85925323D01*
X82877604Y-85830085D01*
X82829985Y-85639609D01*
X82829985Y-85496752D01*
X82877604Y-85306276D01*
X82925223Y-85211038D01*
X83020461Y-85115800D01*
X83163319Y-85068180D01*
X83258557Y-85068180D01*
X83401414Y-85115800D01*
X83449033Y-85163419D01*
X84353795Y-85068180D02*
X83877604Y-85068180D01*
X83829985Y-85544371D01*
X83877604Y-85496752D01*
X83972842Y-85449133D01*
X84210938Y-85449133D01*
X84306176Y-85496752D01*
X84353795Y-85544371D01*
X84401414Y-85639609D01*
X84401414Y-85877704D01*
X84353795Y-85972942D01*
X84306176Y-86020561D01*
X84210938Y-86068180D01*
X83972842Y-86068180D01*
X83877604Y-86020561D01*
X83829985Y-85972942D01*
X78716142Y-103671666D02*
X78763761Y-103719285D01*
X78811380Y-103862142D01*
X78811380Y-103957380D01*
X78763761Y-104100238D01*
X78668523Y-104195476D01*
X78573285Y-104243095D01*
X78382809Y-104290714D01*
X78239952Y-104290714D01*
X78049476Y-104243095D01*
X77954238Y-104195476D01*
X77859000Y-104100238D01*
X77811380Y-103957380D01*
X77811380Y-103862142D01*
X77859000Y-103719285D01*
X77906619Y-103671666D01*
X78144714Y-102814523D02*
X78811380Y-102814523D01*
X77763761Y-103052619D02*
X78478047Y-103290714D01*
X78478047Y-102671666D01*
X73366333Y-94464142D02*
X73318714Y-94511761D01*
X73175857Y-94559380D01*
X73080619Y-94559380D01*
X72937761Y-94511761D01*
X72842523Y-94416523D01*
X72794904Y-94321285D01*
X72747285Y-94130809D01*
X72747285Y-93987952D01*
X72794904Y-93797476D01*
X72842523Y-93702238D01*
X72937761Y-93607000D01*
X73080619Y-93559380D01*
X73175857Y-93559380D01*
X73318714Y-93607000D01*
X73366333Y-93654619D01*
X73747285Y-93654619D02*
X73794904Y-93607000D01*
X73890142Y-93559380D01*
X74128238Y-93559380D01*
X74223476Y-93607000D01*
X74271095Y-93654619D01*
X74318714Y-93749857D01*
X74318714Y-93845095D01*
X74271095Y-93987952D01*
X73699666Y-94559380D01*
X74318714Y-94559380D01*
X73366333Y-91289142D02*
X73318714Y-91336761D01*
X73175857Y-91384380D01*
X73080619Y-91384380D01*
X72937761Y-91336761D01*
X72842523Y-91241523D01*
X72794904Y-91146285D01*
X72747285Y-90955809D01*
X72747285Y-90812952D01*
X72794904Y-90622476D01*
X72842523Y-90527238D01*
X72937761Y-90432000D01*
X73080619Y-90384380D01*
X73175857Y-90384380D01*
X73318714Y-90432000D01*
X73366333Y-90479619D01*
X74318714Y-91384380D02*
X73747285Y-91384380D01*
X74033000Y-91384380D02*
X74033000Y-90384380D01*
X73937761Y-90527238D01*
X73842523Y-90622476D01*
X73747285Y-90670095D01*
X73493333Y-96337380D02*
X73160000Y-95861190D01*
X72921904Y-96337380D02*
X72921904Y-95337380D01*
X73302857Y-95337380D01*
X73398095Y-95385000D01*
X73445714Y-95432619D01*
X73493333Y-95527857D01*
X73493333Y-95670714D01*
X73445714Y-95765952D01*
X73398095Y-95813571D01*
X73302857Y-95861190D01*
X72921904Y-95861190D01*
X74445714Y-96337380D02*
X73874285Y-96337380D01*
X74160000Y-96337380D02*
X74160000Y-95337380D01*
X74064761Y-95480238D01*
X73969523Y-95575476D01*
X73874285Y-95623095D01*
X80019233Y-86177380D02*
X79685900Y-85701190D01*
X79447804Y-86177380D02*
X79447804Y-85177380D01*
X79828757Y-85177380D01*
X79923995Y-85225000D01*
X79971614Y-85272619D01*
X80019233Y-85367857D01*
X80019233Y-85510714D01*
X79971614Y-85605952D01*
X79923995Y-85653571D01*
X79828757Y-85701190D01*
X79447804Y-85701190D01*
X80352566Y-85177380D02*
X80971614Y-85177380D01*
X80638280Y-85558333D01*
X80781138Y-85558333D01*
X80876376Y-85605952D01*
X80923995Y-85653571D01*
X80971614Y-85748809D01*
X80971614Y-85986904D01*
X80923995Y-86082142D01*
X80876376Y-86129761D01*
X80781138Y-86177380D01*
X80495423Y-86177380D01*
X80400185Y-86129761D01*
X80352566Y-86082142D01*
X73239333Y-89479380D02*
X72906000Y-89003190D01*
X72667904Y-89479380D02*
X72667904Y-88479380D01*
X73048857Y-88479380D01*
X73144095Y-88527000D01*
X73191714Y-88574619D01*
X73239333Y-88669857D01*
X73239333Y-88812714D01*
X73191714Y-88907952D01*
X73144095Y-88955571D01*
X73048857Y-89003190D01*
X72667904Y-89003190D01*
X73620285Y-88574619D02*
X73667904Y-88527000D01*
X73763142Y-88479380D01*
X74001238Y-88479380D01*
X74096476Y-88527000D01*
X74144095Y-88574619D01*
X74191714Y-88669857D01*
X74191714Y-88765095D01*
X74144095Y-88907952D01*
X73572666Y-89479380D01*
X74191714Y-89479380D01*
X91019333Y-118595380D02*
X90686000Y-118119190D01*
X90447904Y-118595380D02*
X90447904Y-117595380D01*
X90828857Y-117595380D01*
X90924095Y-117643000D01*
X90971714Y-117690619D01*
X91019333Y-117785857D01*
X91019333Y-117928714D01*
X90971714Y-118023952D01*
X90924095Y-118071571D01*
X90828857Y-118119190D01*
X90447904Y-118119190D01*
X91495523Y-118595380D02*
X91686000Y-118595380D01*
X91781238Y-118547761D01*
X91828857Y-118500142D01*
X91924095Y-118357285D01*
X91971714Y-118166809D01*
X91971714Y-117785857D01*
X91924095Y-117690619D01*
X91876476Y-117643000D01*
X91781238Y-117595380D01*
X91590761Y-117595380D01*
X91495523Y-117643000D01*
X91447904Y-117690619D01*
X91400285Y-117785857D01*
X91400285Y-118023952D01*
X91447904Y-118119190D01*
X91495523Y-118166809D01*
X91590761Y-118214428D01*
X91781238Y-118214428D01*
X91876476Y-118166809D01*
X91924095Y-118119190D01*
X91971714Y-118023952D01*
X102449333Y-118595380D02*
X102116000Y-118119190D01*
X101877904Y-118595380D02*
X101877904Y-117595380D01*
X102258857Y-117595380D01*
X102354095Y-117643000D01*
X102401714Y-117690619D01*
X102449333Y-117785857D01*
X102449333Y-117928714D01*
X102401714Y-118023952D01*
X102354095Y-118071571D01*
X102258857Y-118119190D01*
X101877904Y-118119190D01*
X103020761Y-118023952D02*
X102925523Y-117976333D01*
X102877904Y-117928714D01*
X102830285Y-117833476D01*
X102830285Y-117785857D01*
X102877904Y-117690619D01*
X102925523Y-117643000D01*
X103020761Y-117595380D01*
X103211238Y-117595380D01*
X103306476Y-117643000D01*
X103354095Y-117690619D01*
X103401714Y-117785857D01*
X103401714Y-117833476D01*
X103354095Y-117928714D01*
X103306476Y-117976333D01*
X103211238Y-118023952D01*
X103020761Y-118023952D01*
X102925523Y-118071571D01*
X102877904Y-118119190D01*
X102830285Y-118214428D01*
X102830285Y-118404904D01*
X102877904Y-118500142D01*
X102925523Y-118547761D01*
X103020761Y-118595380D01*
X103211238Y-118595380D01*
X103306476Y-118547761D01*
X103354095Y-118500142D01*
X103401714Y-118404904D01*
X103401714Y-118214428D01*
X103354095Y-118119190D01*
X103306476Y-118071571D01*
X103211238Y-118023952D01*
X94226142Y-85194380D02*
X93892809Y-84718190D01*
X93654714Y-85194380D02*
X93654714Y-84194380D01*
X94035666Y-84194380D01*
X94130904Y-84242000D01*
X94178523Y-84289619D01*
X94226142Y-84384857D01*
X94226142Y-84527714D01*
X94178523Y-84622952D01*
X94130904Y-84670571D01*
X94035666Y-84718190D01*
X93654714Y-84718190D01*
X95178523Y-85194380D02*
X94607095Y-85194380D01*
X94892809Y-85194380D02*
X94892809Y-84194380D01*
X94797571Y-84337238D01*
X94702333Y-84432476D01*
X94607095Y-84480095D01*
X96130904Y-85194380D02*
X95559476Y-85194380D01*
X95845190Y-85194380D02*
X95845190Y-84194380D01*
X95749952Y-84337238D01*
X95654714Y-84432476D01*
X95559476Y-84480095D01*
X106418142Y-84432380D02*
X106084809Y-83956190D01*
X105846714Y-84432380D02*
X105846714Y-83432380D01*
X106227666Y-83432380D01*
X106322904Y-83480000D01*
X106370523Y-83527619D01*
X106418142Y-83622857D01*
X106418142Y-83765714D01*
X106370523Y-83860952D01*
X106322904Y-83908571D01*
X106227666Y-83956190D01*
X105846714Y-83956190D01*
X107370523Y-84432380D02*
X106799095Y-84432380D01*
X107084809Y-84432380D02*
X107084809Y-83432380D01*
X106989571Y-83575238D01*
X106894333Y-83670476D01*
X106799095Y-83718095D01*
X107989571Y-83432380D02*
X108084809Y-83432380D01*
X108180047Y-83480000D01*
X108227666Y-83527619D01*
X108275285Y-83622857D01*
X108322904Y-83813333D01*
X108322904Y-84051428D01*
X108275285Y-84241904D01*
X108227666Y-84337142D01*
X108180047Y-84384761D01*
X108084809Y-84432380D01*
X107989571Y-84432380D01*
X107894333Y-84384761D01*
X107846714Y-84337142D01*
X107799095Y-84241904D01*
X107751476Y-84051428D01*
X107751476Y-83813333D01*
X107799095Y-83622857D01*
X107846714Y-83527619D01*
X107894333Y-83480000D01*
X107989571Y-83432380D01*
X92833333Y-78752380D02*
X92500000Y-78276190D01*
X92261904Y-78752380D02*
X92261904Y-77752380D01*
X92642857Y-77752380D01*
X92738095Y-77800000D01*
X92785714Y-77847619D01*
X92833333Y-77942857D01*
X92833333Y-78085714D01*
X92785714Y-78180952D01*
X92738095Y-78228571D01*
X92642857Y-78276190D01*
X92261904Y-78276190D01*
X93166666Y-77752380D02*
X93833333Y-77752380D01*
X93404761Y-78752380D01*
X92035333Y-83637380D02*
X91702000Y-83161190D01*
X91463904Y-83637380D02*
X91463904Y-82637380D01*
X91844857Y-82637380D01*
X91940095Y-82685000D01*
X91987714Y-82732619D01*
X92035333Y-82827857D01*
X92035333Y-82970714D01*
X91987714Y-83065952D01*
X91940095Y-83113571D01*
X91844857Y-83161190D01*
X91463904Y-83161190D01*
X92892476Y-82637380D02*
X92702000Y-82637380D01*
X92606761Y-82685000D01*
X92559142Y-82732619D01*
X92463904Y-82875476D01*
X92416285Y-83065952D01*
X92416285Y-83446904D01*
X92463904Y-83542142D01*
X92511523Y-83589761D01*
X92606761Y-83637380D01*
X92797238Y-83637380D01*
X92892476Y-83589761D01*
X92940095Y-83542142D01*
X92987714Y-83446904D01*
X92987714Y-83208809D01*
X92940095Y-83113571D01*
X92892476Y-83065952D01*
X92797238Y-83018333D01*
X92606761Y-83018333D01*
X92511523Y-83065952D01*
X92463904Y-83113571D01*
X92416285Y-83208809D01*
X89471780Y-81546895D02*
X88471780Y-81546895D01*
X88471780Y-81308800D01*
X88519400Y-81165942D01*
X88614638Y-81070704D01*
X88709876Y-81023085D01*
X88900352Y-80975466D01*
X89043209Y-80975466D01*
X89233685Y-81023085D01*
X89328923Y-81070704D01*
X89424161Y-81165942D01*
X89471780Y-81308800D01*
X89471780Y-81546895D01*
X88567019Y-80594514D02*
X88519400Y-80546895D01*
X88471780Y-80451657D01*
X88471780Y-80213561D01*
X88519400Y-80118323D01*
X88567019Y-80070704D01*
X88662257Y-80023085D01*
X88757495Y-80023085D01*
X88900352Y-80070704D01*
X89471780Y-80642133D01*
X89471780Y-80023085D01*
M02*
