%TF.GenerationSoftware,KiCad,Pcbnew,(5.1.9)-1*%
%TF.CreationDate,2021-04-16T14:47:50+02:00*%
%TF.ProjectId,Inverter,496e7665-7274-4657-922e-6b696361645f,rev?*%
%TF.SameCoordinates,Original*%
%TF.FileFunction,Soldermask,Top*%
%TF.FilePolarity,Negative*%
%FSLAX46Y46*%
G04 Gerber Fmt 4.6, Leading zero omitted, Abs format (unit mm)*
G04 Created by KiCad (PCBNEW (5.1.9)-1) date 2021-04-16 14:47:50*
%MOMM*%
%LPD*%
G01*
G04 APERTURE LIST*
%ADD10C,0.152400*%
%ADD11C,8.000000*%
%ADD12C,6.400000*%
%ADD13R,1.000000X3.150000*%
%ADD14R,9.956800X7.467600*%
%ADD15R,0.889000X2.311400*%
%ADD16R,1.525000X0.700000*%
G04 APERTURE END LIST*
D10*
%TO.C,U4*%
X92872301Y-112318800D02*
X100961299Y-112318800D01*
X100961299Y-112318800D02*
X100961299Y-113131600D01*
X100961299Y-113131600D02*
X92872301Y-113131600D01*
X92872301Y-113131600D02*
X92872301Y-112318800D01*
%TO.C,U3*%
X104302301Y-112293400D02*
X112391299Y-112293400D01*
X112391299Y-112293400D02*
X112391299Y-113106200D01*
X112391299Y-113106200D02*
X104302301Y-113106200D01*
X104302301Y-113106200D02*
X104302301Y-112293400D01*
%TO.C,U2*%
X97114101Y-78790800D02*
X105203099Y-78790800D01*
X105203099Y-78790800D02*
X105203099Y-79603600D01*
X105203099Y-79603600D02*
X97114101Y-79603600D01*
X97114101Y-79603600D02*
X97114101Y-78790800D01*
%TO.C,U1*%
X108544101Y-78790800D02*
X116633099Y-78790800D01*
X116633099Y-78790800D02*
X116633099Y-79603600D01*
X116633099Y-79603600D02*
X108544101Y-79603600D01*
X108544101Y-79603600D02*
X108544101Y-78790800D01*
%TD*%
D11*
%TO.C,U\u002A\u002A*%
X128905000Y-125095000D03*
%TD*%
%TO.C,U\u002A\u002A*%
X101600000Y-125095000D03*
%TD*%
%TO.C,U\u002A\u002A*%
X74295000Y-125095000D03*
%TD*%
%TO.C,U\u002A\u002A*%
X117475000Y-93091000D03*
%TD*%
%TO.C,U\u002A\u002A*%
X107315000Y-93091000D03*
%TD*%
%TO.C,U\u002A\u002A*%
X97155000Y-93091000D03*
%TD*%
%TO.C,U\u002A\u002A*%
X114808000Y-62357000D03*
%TD*%
%TO.C,U\u002A\u002A*%
X104648000Y-62357000D03*
%TD*%
%TO.C,U\u002A\u002A*%
X94488000Y-62357000D03*
%TD*%
%TO.C,C19*%
G36*
G01*
X69961998Y-78624000D02*
X71262002Y-78624000D01*
G75*
G02*
X71512000Y-78873998I0J-249998D01*
G01*
X71512000Y-79699002D01*
G75*
G02*
X71262002Y-79949000I-249998J0D01*
G01*
X69961998Y-79949000D01*
G75*
G02*
X69712000Y-79699002I0J249998D01*
G01*
X69712000Y-78873998D01*
G75*
G02*
X69961998Y-78624000I249998J0D01*
G01*
G37*
G36*
G01*
X69961998Y-75499000D02*
X71262002Y-75499000D01*
G75*
G02*
X71512000Y-75748998I0J-249998D01*
G01*
X71512000Y-76574002D01*
G75*
G02*
X71262002Y-76824000I-249998J0D01*
G01*
X69961998Y-76824000D01*
G75*
G02*
X69712000Y-76574002I0J249998D01*
G01*
X69712000Y-75748998D01*
G75*
G02*
X69961998Y-75499000I249998J0D01*
G01*
G37*
%TD*%
%TO.C,C18*%
G36*
G01*
X73009998Y-78624000D02*
X74310002Y-78624000D01*
G75*
G02*
X74560000Y-78873998I0J-249998D01*
G01*
X74560000Y-79699002D01*
G75*
G02*
X74310002Y-79949000I-249998J0D01*
G01*
X73009998Y-79949000D01*
G75*
G02*
X72760000Y-79699002I0J249998D01*
G01*
X72760000Y-78873998D01*
G75*
G02*
X73009998Y-78624000I249998J0D01*
G01*
G37*
G36*
G01*
X73009998Y-75499000D02*
X74310002Y-75499000D01*
G75*
G02*
X74560000Y-75748998I0J-249998D01*
G01*
X74560000Y-76574002D01*
G75*
G02*
X74310002Y-76824000I-249998J0D01*
G01*
X73009998Y-76824000D01*
G75*
G02*
X72760000Y-76574002I0J249998D01*
G01*
X72760000Y-75748998D01*
G75*
G02*
X73009998Y-75499000I249998J0D01*
G01*
G37*
%TD*%
%TO.C,C17*%
G36*
G01*
X82026998Y-78624000D02*
X83327002Y-78624000D01*
G75*
G02*
X83577000Y-78873998I0J-249998D01*
G01*
X83577000Y-79699002D01*
G75*
G02*
X83327002Y-79949000I-249998J0D01*
G01*
X82026998Y-79949000D01*
G75*
G02*
X81777000Y-79699002I0J249998D01*
G01*
X81777000Y-78873998D01*
G75*
G02*
X82026998Y-78624000I249998J0D01*
G01*
G37*
G36*
G01*
X82026998Y-75499000D02*
X83327002Y-75499000D01*
G75*
G02*
X83577000Y-75748998I0J-249998D01*
G01*
X83577000Y-76574002D01*
G75*
G02*
X83327002Y-76824000I-249998J0D01*
G01*
X82026998Y-76824000D01*
G75*
G02*
X81777000Y-76574002I0J249998D01*
G01*
X81777000Y-75748998D01*
G75*
G02*
X82026998Y-75499000I249998J0D01*
G01*
G37*
%TD*%
%TO.C,C16*%
G36*
G01*
X76057998Y-78624000D02*
X77358002Y-78624000D01*
G75*
G02*
X77608000Y-78873998I0J-249998D01*
G01*
X77608000Y-79699002D01*
G75*
G02*
X77358002Y-79949000I-249998J0D01*
G01*
X76057998Y-79949000D01*
G75*
G02*
X75808000Y-79699002I0J249998D01*
G01*
X75808000Y-78873998D01*
G75*
G02*
X76057998Y-78624000I249998J0D01*
G01*
G37*
G36*
G01*
X76057998Y-75499000D02*
X77358002Y-75499000D01*
G75*
G02*
X77608000Y-75748998I0J-249998D01*
G01*
X77608000Y-76574002D01*
G75*
G02*
X77358002Y-76824000I-249998J0D01*
G01*
X76057998Y-76824000D01*
G75*
G02*
X75808000Y-76574002I0J249998D01*
G01*
X75808000Y-75748998D01*
G75*
G02*
X76057998Y-75499000I249998J0D01*
G01*
G37*
%TD*%
%TO.C,C10*%
G36*
G01*
X78978998Y-78624000D02*
X80279002Y-78624000D01*
G75*
G02*
X80529000Y-78873998I0J-249998D01*
G01*
X80529000Y-79699002D01*
G75*
G02*
X80279002Y-79949000I-249998J0D01*
G01*
X78978998Y-79949000D01*
G75*
G02*
X78729000Y-79699002I0J249998D01*
G01*
X78729000Y-78873998D01*
G75*
G02*
X78978998Y-78624000I249998J0D01*
G01*
G37*
G36*
G01*
X78978998Y-75499000D02*
X80279002Y-75499000D01*
G75*
G02*
X80529000Y-75748998I0J-249998D01*
G01*
X80529000Y-76574002D01*
G75*
G02*
X80279002Y-76824000I-249998J0D01*
G01*
X78978998Y-76824000D01*
G75*
G02*
X78729000Y-76574002I0J249998D01*
G01*
X78729000Y-75748998D01*
G75*
G02*
X78978998Y-75499000I249998J0D01*
G01*
G37*
%TD*%
D12*
%TO.C,REF\u002A\u002A*%
X118110000Y-106680000D03*
%TD*%
%TO.C,R13*%
G36*
G01*
X121910001Y-100192000D02*
X120659999Y-100192000D01*
G75*
G02*
X120410000Y-99942001I0J249999D01*
G01*
X120410000Y-99141999D01*
G75*
G02*
X120659999Y-98892000I249999J0D01*
G01*
X121910001Y-98892000D01*
G75*
G02*
X122160000Y-99141999I0J-249999D01*
G01*
X122160000Y-99942001D01*
G75*
G02*
X121910001Y-100192000I-249999J0D01*
G01*
G37*
G36*
G01*
X121910001Y-103292000D02*
X120659999Y-103292000D01*
G75*
G02*
X120410000Y-103042001I0J249999D01*
G01*
X120410000Y-102241999D01*
G75*
G02*
X120659999Y-101992000I249999J0D01*
G01*
X121910001Y-101992000D01*
G75*
G02*
X122160000Y-102241999I0J-249999D01*
G01*
X122160000Y-103042001D01*
G75*
G02*
X121910001Y-103292000I-249999J0D01*
G01*
G37*
%TD*%
%TO.C,R12*%
G36*
G01*
X121402001Y-78475000D02*
X120151999Y-78475000D01*
G75*
G02*
X119902000Y-78225001I0J249999D01*
G01*
X119902000Y-77424999D01*
G75*
G02*
X120151999Y-77175000I249999J0D01*
G01*
X121402001Y-77175000D01*
G75*
G02*
X121652000Y-77424999I0J-249999D01*
G01*
X121652000Y-78225001D01*
G75*
G02*
X121402001Y-78475000I-249999J0D01*
G01*
G37*
G36*
G01*
X121402001Y-81575000D02*
X120151999Y-81575000D01*
G75*
G02*
X119902000Y-81325001I0J249999D01*
G01*
X119902000Y-80524999D01*
G75*
G02*
X120151999Y-80275000I249999J0D01*
G01*
X121402001Y-80275000D01*
G75*
G02*
X121652000Y-80524999I0J-249999D01*
G01*
X121652000Y-81325001D01*
G75*
G02*
X121402001Y-81575000I-249999J0D01*
G01*
G37*
%TD*%
%TO.C,C8*%
G36*
G01*
X123809998Y-101992000D02*
X125110002Y-101992000D01*
G75*
G02*
X125360000Y-102241998I0J-249998D01*
G01*
X125360000Y-103067002D01*
G75*
G02*
X125110002Y-103317000I-249998J0D01*
G01*
X123809998Y-103317000D01*
G75*
G02*
X123560000Y-103067002I0J249998D01*
G01*
X123560000Y-102241998D01*
G75*
G02*
X123809998Y-101992000I249998J0D01*
G01*
G37*
G36*
G01*
X123809998Y-98867000D02*
X125110002Y-98867000D01*
G75*
G02*
X125360000Y-99116998I0J-249998D01*
G01*
X125360000Y-99942002D01*
G75*
G02*
X125110002Y-100192000I-249998J0D01*
G01*
X123809998Y-100192000D01*
G75*
G02*
X123560000Y-99942002I0J249998D01*
G01*
X123560000Y-99116998D01*
G75*
G02*
X123809998Y-98867000I249998J0D01*
G01*
G37*
%TD*%
%TO.C,C7*%
G36*
G01*
X123936998Y-80275000D02*
X125237002Y-80275000D01*
G75*
G02*
X125487000Y-80524998I0J-249998D01*
G01*
X125487000Y-81350002D01*
G75*
G02*
X125237002Y-81600000I-249998J0D01*
G01*
X123936998Y-81600000D01*
G75*
G02*
X123687000Y-81350002I0J249998D01*
G01*
X123687000Y-80524998D01*
G75*
G02*
X123936998Y-80275000I249998J0D01*
G01*
G37*
G36*
G01*
X123936998Y-77150000D02*
X125237002Y-77150000D01*
G75*
G02*
X125487000Y-77399998I0J-249998D01*
G01*
X125487000Y-78225002D01*
G75*
G02*
X125237002Y-78475000I-249998J0D01*
G01*
X123936998Y-78475000D01*
G75*
G02*
X123687000Y-78225002I0J249998D01*
G01*
X123687000Y-77399998D01*
G75*
G02*
X123936998Y-77150000I249998J0D01*
G01*
G37*
%TD*%
%TO.C,C15*%
G36*
G01*
X132064998Y-94016400D02*
X133365002Y-94016400D01*
G75*
G02*
X133615000Y-94266398I0J-249998D01*
G01*
X133615000Y-95091402D01*
G75*
G02*
X133365002Y-95341400I-249998J0D01*
G01*
X132064998Y-95341400D01*
G75*
G02*
X131815000Y-95091402I0J249998D01*
G01*
X131815000Y-94266398D01*
G75*
G02*
X132064998Y-94016400I249998J0D01*
G01*
G37*
G36*
G01*
X132064998Y-90891400D02*
X133365002Y-90891400D01*
G75*
G02*
X133615000Y-91141398I0J-249998D01*
G01*
X133615000Y-91966402D01*
G75*
G02*
X133365002Y-92216400I-249998J0D01*
G01*
X132064998Y-92216400D01*
G75*
G02*
X131815000Y-91966402I0J249998D01*
G01*
X131815000Y-91141398D01*
G75*
G02*
X132064998Y-90891400I249998J0D01*
G01*
G37*
%TD*%
%TO.C,C14*%
G36*
G01*
X129524998Y-94016400D02*
X130825002Y-94016400D01*
G75*
G02*
X131075000Y-94266398I0J-249998D01*
G01*
X131075000Y-95091402D01*
G75*
G02*
X130825002Y-95341400I-249998J0D01*
G01*
X129524998Y-95341400D01*
G75*
G02*
X129275000Y-95091402I0J249998D01*
G01*
X129275000Y-94266398D01*
G75*
G02*
X129524998Y-94016400I249998J0D01*
G01*
G37*
G36*
G01*
X129524998Y-90891400D02*
X130825002Y-90891400D01*
G75*
G02*
X131075000Y-91141398I0J-249998D01*
G01*
X131075000Y-91966402D01*
G75*
G02*
X130825002Y-92216400I-249998J0D01*
G01*
X129524998Y-92216400D01*
G75*
G02*
X129275000Y-91966402I0J249998D01*
G01*
X129275000Y-91141398D01*
G75*
G02*
X129524998Y-90891400I249998J0D01*
G01*
G37*
%TD*%
%TO.C,C13*%
G36*
G01*
X126984998Y-94016400D02*
X128285002Y-94016400D01*
G75*
G02*
X128535000Y-94266398I0J-249998D01*
G01*
X128535000Y-95091402D01*
G75*
G02*
X128285002Y-95341400I-249998J0D01*
G01*
X126984998Y-95341400D01*
G75*
G02*
X126735000Y-95091402I0J249998D01*
G01*
X126735000Y-94266398D01*
G75*
G02*
X126984998Y-94016400I249998J0D01*
G01*
G37*
G36*
G01*
X126984998Y-90891400D02*
X128285002Y-90891400D01*
G75*
G02*
X128535000Y-91141398I0J-249998D01*
G01*
X128535000Y-91966402D01*
G75*
G02*
X128285002Y-92216400I-249998J0D01*
G01*
X126984998Y-92216400D01*
G75*
G02*
X126735000Y-91966402I0J249998D01*
G01*
X126735000Y-91141398D01*
G75*
G02*
X126984998Y-90891400I249998J0D01*
G01*
G37*
%TD*%
%TO.C,C12*%
G36*
G01*
X124444998Y-94016400D02*
X125745002Y-94016400D01*
G75*
G02*
X125995000Y-94266398I0J-249998D01*
G01*
X125995000Y-95091402D01*
G75*
G02*
X125745002Y-95341400I-249998J0D01*
G01*
X124444998Y-95341400D01*
G75*
G02*
X124195000Y-95091402I0J249998D01*
G01*
X124195000Y-94266398D01*
G75*
G02*
X124444998Y-94016400I249998J0D01*
G01*
G37*
G36*
G01*
X124444998Y-90891400D02*
X125745002Y-90891400D01*
G75*
G02*
X125995000Y-91141398I0J-249998D01*
G01*
X125995000Y-91966402D01*
G75*
G02*
X125745002Y-92216400I-249998J0D01*
G01*
X124444998Y-92216400D01*
G75*
G02*
X124195000Y-91966402I0J249998D01*
G01*
X124195000Y-91141398D01*
G75*
G02*
X124444998Y-90891400I249998J0D01*
G01*
G37*
%TD*%
%TO.C,C11*%
G36*
G01*
X85074998Y-78624000D02*
X86375002Y-78624000D01*
G75*
G02*
X86625000Y-78873998I0J-249998D01*
G01*
X86625000Y-79699002D01*
G75*
G02*
X86375002Y-79949000I-249998J0D01*
G01*
X85074998Y-79949000D01*
G75*
G02*
X84825000Y-79699002I0J249998D01*
G01*
X84825000Y-78873998D01*
G75*
G02*
X85074998Y-78624000I249998J0D01*
G01*
G37*
G36*
G01*
X85074998Y-75499000D02*
X86375002Y-75499000D01*
G75*
G02*
X86625000Y-75748998I0J-249998D01*
G01*
X86625000Y-76574002D01*
G75*
G02*
X86375002Y-76824000I-249998J0D01*
G01*
X85074998Y-76824000D01*
G75*
G02*
X84825000Y-76574002I0J249998D01*
G01*
X84825000Y-75748998D01*
G75*
G02*
X85074998Y-75499000I249998J0D01*
G01*
G37*
%TD*%
%TO.C,REF\u002A\u002A*%
X78994000Y-62230000D03*
%TD*%
%TO.C,REF\u002A\u002A*%
X124206000Y-62230000D03*
%TD*%
%TO.C,REF\u002A\u002A*%
X114300000Y-125095000D03*
%TD*%
%TO.C,REF\u002A\u002A*%
X88900000Y-125095000D03*
%TD*%
D13*
%TO.C,J1*%
X76200000Y-100345000D03*
X76200000Y-105395000D03*
X73660000Y-100345000D03*
X73660000Y-105395000D03*
%TD*%
D14*
%TO.C,U4*%
X96316800Y-105918000D03*
D15*
X92116801Y-113474500D03*
X93316801Y-113474500D03*
X94516801Y-113474500D03*
X95716801Y-113474500D03*
X96916801Y-113474500D03*
X98116801Y-113474500D03*
X99316802Y-113474500D03*
X100516799Y-113474500D03*
%TD*%
D14*
%TO.C,U3*%
X107746800Y-105892600D03*
D15*
X103546801Y-113449100D03*
X104746801Y-113449100D03*
X105946801Y-113449100D03*
X107146801Y-113449100D03*
X108346801Y-113449100D03*
X109546801Y-113449100D03*
X110746802Y-113449100D03*
X111946799Y-113449100D03*
%TD*%
D14*
%TO.C,U2*%
X100558600Y-72390000D03*
D15*
X96358601Y-79946500D03*
X97558601Y-79946500D03*
X98758601Y-79946500D03*
X99958601Y-79946500D03*
X101158601Y-79946500D03*
X102358601Y-79946500D03*
X103558602Y-79946500D03*
X104758599Y-79946500D03*
%TD*%
D14*
%TO.C,U1*%
X111988600Y-72390000D03*
D15*
X107788601Y-79946500D03*
X108988601Y-79946500D03*
X110188601Y-79946500D03*
X111388601Y-79946500D03*
X112588601Y-79946500D03*
X113788601Y-79946500D03*
X114988602Y-79946500D03*
X116188599Y-79946500D03*
%TD*%
D16*
%TO.C,IC1*%
X79838000Y-89763600D03*
X79838000Y-91033600D03*
X79838000Y-92303600D03*
X79838000Y-93573600D03*
X79838000Y-94843600D03*
X79838000Y-96113600D03*
X79838000Y-97383600D03*
X85262000Y-97383600D03*
X85262000Y-96113600D03*
X85262000Y-94843600D03*
X85262000Y-93573600D03*
X85262000Y-92303600D03*
X85262000Y-91033600D03*
X85262000Y-89763600D03*
%TD*%
%TO.C,C6*%
G36*
G01*
X87790000Y-92678500D02*
X88740000Y-92678500D01*
G75*
G02*
X88990000Y-92928500I0J-250000D01*
G01*
X88990000Y-93603500D01*
G75*
G02*
X88740000Y-93853500I-250000J0D01*
G01*
X87790000Y-93853500D01*
G75*
G02*
X87540000Y-93603500I0J250000D01*
G01*
X87540000Y-92928500D01*
G75*
G02*
X87790000Y-92678500I250000J0D01*
G01*
G37*
G36*
G01*
X87790000Y-90603500D02*
X88740000Y-90603500D01*
G75*
G02*
X88990000Y-90853500I0J-250000D01*
G01*
X88990000Y-91528500D01*
G75*
G02*
X88740000Y-91778500I-250000J0D01*
G01*
X87790000Y-91778500D01*
G75*
G02*
X87540000Y-91528500I0J250000D01*
G01*
X87540000Y-90853500D01*
G75*
G02*
X87790000Y-90603500I250000J0D01*
G01*
G37*
%TD*%
%TO.C,D1*%
G36*
G01*
X83303100Y-103053600D02*
X83778100Y-103053600D01*
G75*
G02*
X84015600Y-103291100I0J-237500D01*
G01*
X84015600Y-103866100D01*
G75*
G02*
X83778100Y-104103600I-237500J0D01*
G01*
X83303100Y-104103600D01*
G75*
G02*
X83065600Y-103866100I0J237500D01*
G01*
X83065600Y-103291100D01*
G75*
G02*
X83303100Y-103053600I237500J0D01*
G01*
G37*
G36*
G01*
X83303100Y-101303600D02*
X83778100Y-101303600D01*
G75*
G02*
X84015600Y-101541100I0J-237500D01*
G01*
X84015600Y-102116100D01*
G75*
G02*
X83778100Y-102353600I-237500J0D01*
G01*
X83303100Y-102353600D01*
G75*
G02*
X83065600Y-102116100I0J237500D01*
G01*
X83065600Y-101541100D01*
G75*
G02*
X83303100Y-101303600I237500J0D01*
G01*
G37*
%TD*%
%TO.C,R5*%
G36*
G01*
X85653700Y-103318300D02*
X85653700Y-103793300D01*
G75*
G02*
X85416200Y-104030800I-237500J0D01*
G01*
X84916200Y-104030800D01*
G75*
G02*
X84678700Y-103793300I0J237500D01*
G01*
X84678700Y-103318300D01*
G75*
G02*
X84916200Y-103080800I237500J0D01*
G01*
X85416200Y-103080800D01*
G75*
G02*
X85653700Y-103318300I0J-237500D01*
G01*
G37*
G36*
G01*
X87478700Y-103318300D02*
X87478700Y-103793300D01*
G75*
G02*
X87241200Y-104030800I-237500J0D01*
G01*
X86741200Y-104030800D01*
G75*
G02*
X86503700Y-103793300I0J237500D01*
G01*
X86503700Y-103318300D01*
G75*
G02*
X86741200Y-103080800I237500J0D01*
G01*
X87241200Y-103080800D01*
G75*
G02*
X87478700Y-103318300I0J-237500D01*
G01*
G37*
%TD*%
%TO.C,R4*%
G36*
G01*
X85632100Y-101718100D02*
X85632100Y-102193100D01*
G75*
G02*
X85394600Y-102430600I-237500J0D01*
G01*
X84894600Y-102430600D01*
G75*
G02*
X84657100Y-102193100I0J237500D01*
G01*
X84657100Y-101718100D01*
G75*
G02*
X84894600Y-101480600I237500J0D01*
G01*
X85394600Y-101480600D01*
G75*
G02*
X85632100Y-101718100I0J-237500D01*
G01*
G37*
G36*
G01*
X87457100Y-101718100D02*
X87457100Y-102193100D01*
G75*
G02*
X87219600Y-102430600I-237500J0D01*
G01*
X86719600Y-102430600D01*
G75*
G02*
X86482100Y-102193100I0J237500D01*
G01*
X86482100Y-101718100D01*
G75*
G02*
X86719600Y-101480600I237500J0D01*
G01*
X87219600Y-101480600D01*
G75*
G02*
X87457100Y-101718100I0J-237500D01*
G01*
G37*
%TD*%
%TO.C,C3*%
G36*
G01*
X80970000Y-101837500D02*
X80970000Y-101362500D01*
G75*
G02*
X81207500Y-101125000I237500J0D01*
G01*
X81807500Y-101125000D01*
G75*
G02*
X82045000Y-101362500I0J-237500D01*
G01*
X82045000Y-101837500D01*
G75*
G02*
X81807500Y-102075000I-237500J0D01*
G01*
X81207500Y-102075000D01*
G75*
G02*
X80970000Y-101837500I0J237500D01*
G01*
G37*
G36*
G01*
X79245000Y-101837500D02*
X79245000Y-101362500D01*
G75*
G02*
X79482500Y-101125000I237500J0D01*
G01*
X80082500Y-101125000D01*
G75*
G02*
X80320000Y-101362500I0J-237500D01*
G01*
X80320000Y-101837500D01*
G75*
G02*
X80082500Y-102075000I-237500J0D01*
G01*
X79482500Y-102075000D01*
G75*
G02*
X79245000Y-101837500I0J237500D01*
G01*
G37*
%TD*%
%TO.C,C9*%
G36*
G01*
X80970000Y-99932500D02*
X80970000Y-99457500D01*
G75*
G02*
X81207500Y-99220000I237500J0D01*
G01*
X81807500Y-99220000D01*
G75*
G02*
X82045000Y-99457500I0J-237500D01*
G01*
X82045000Y-99932500D01*
G75*
G02*
X81807500Y-100170000I-237500J0D01*
G01*
X81207500Y-100170000D01*
G75*
G02*
X80970000Y-99932500I0J237500D01*
G01*
G37*
G36*
G01*
X79245000Y-99932500D02*
X79245000Y-99457500D01*
G75*
G02*
X79482500Y-99220000I237500J0D01*
G01*
X80082500Y-99220000D01*
G75*
G02*
X80320000Y-99457500I0J-237500D01*
G01*
X80320000Y-99932500D01*
G75*
G02*
X80082500Y-100170000I-237500J0D01*
G01*
X79482500Y-100170000D01*
G75*
G02*
X79245000Y-99932500I0J237500D01*
G01*
G37*
%TD*%
%TO.C,C5*%
G36*
G01*
X83940700Y-87283300D02*
X83940700Y-86808300D01*
G75*
G02*
X84178200Y-86570800I237500J0D01*
G01*
X84778200Y-86570800D01*
G75*
G02*
X85015700Y-86808300I0J-237500D01*
G01*
X85015700Y-87283300D01*
G75*
G02*
X84778200Y-87520800I-237500J0D01*
G01*
X84178200Y-87520800D01*
G75*
G02*
X83940700Y-87283300I0J237500D01*
G01*
G37*
G36*
G01*
X82215700Y-87283300D02*
X82215700Y-86808300D01*
G75*
G02*
X82453200Y-86570800I237500J0D01*
G01*
X83053200Y-86570800D01*
G75*
G02*
X83290700Y-86808300I0J-237500D01*
G01*
X83290700Y-87283300D01*
G75*
G02*
X83053200Y-87520800I-237500J0D01*
G01*
X82453200Y-87520800D01*
G75*
G02*
X82215700Y-87283300I0J237500D01*
G01*
G37*
%TD*%
%TO.C,C4*%
G36*
G01*
X80320000Y-103267500D02*
X80320000Y-103742500D01*
G75*
G02*
X80082500Y-103980000I-237500J0D01*
G01*
X79482500Y-103980000D01*
G75*
G02*
X79245000Y-103742500I0J237500D01*
G01*
X79245000Y-103267500D01*
G75*
G02*
X79482500Y-103030000I237500J0D01*
G01*
X80082500Y-103030000D01*
G75*
G02*
X80320000Y-103267500I0J-237500D01*
G01*
G37*
G36*
G01*
X82045000Y-103267500D02*
X82045000Y-103742500D01*
G75*
G02*
X81807500Y-103980000I-237500J0D01*
G01*
X81207500Y-103980000D01*
G75*
G02*
X80970000Y-103742500I0J237500D01*
G01*
X80970000Y-103267500D01*
G75*
G02*
X81207500Y-103030000I237500J0D01*
G01*
X81807500Y-103030000D01*
G75*
G02*
X82045000Y-103267500I0J-237500D01*
G01*
G37*
%TD*%
%TO.C,C2*%
G36*
G01*
X75875000Y-93742500D02*
X75875000Y-94217500D01*
G75*
G02*
X75637500Y-94455000I-237500J0D01*
G01*
X75037500Y-94455000D01*
G75*
G02*
X74800000Y-94217500I0J237500D01*
G01*
X74800000Y-93742500D01*
G75*
G02*
X75037500Y-93505000I237500J0D01*
G01*
X75637500Y-93505000D01*
G75*
G02*
X75875000Y-93742500I0J-237500D01*
G01*
G37*
G36*
G01*
X77600000Y-93742500D02*
X77600000Y-94217500D01*
G75*
G02*
X77362500Y-94455000I-237500J0D01*
G01*
X76762500Y-94455000D01*
G75*
G02*
X76525000Y-94217500I0J237500D01*
G01*
X76525000Y-93742500D01*
G75*
G02*
X76762500Y-93505000I237500J0D01*
G01*
X77362500Y-93505000D01*
G75*
G02*
X77600000Y-93742500I0J-237500D01*
G01*
G37*
%TD*%
%TO.C,C1*%
G36*
G01*
X75875000Y-90567500D02*
X75875000Y-91042500D01*
G75*
G02*
X75637500Y-91280000I-237500J0D01*
G01*
X75037500Y-91280000D01*
G75*
G02*
X74800000Y-91042500I0J237500D01*
G01*
X74800000Y-90567500D01*
G75*
G02*
X75037500Y-90330000I237500J0D01*
G01*
X75637500Y-90330000D01*
G75*
G02*
X75875000Y-90567500I0J-237500D01*
G01*
G37*
G36*
G01*
X77600000Y-90567500D02*
X77600000Y-91042500D01*
G75*
G02*
X77362500Y-91280000I-237500J0D01*
G01*
X76762500Y-91280000D01*
G75*
G02*
X76525000Y-91042500I0J237500D01*
G01*
X76525000Y-90567500D01*
G75*
G02*
X76762500Y-90330000I237500J0D01*
G01*
X77362500Y-90330000D01*
G75*
G02*
X77600000Y-90567500I0J-237500D01*
G01*
G37*
%TD*%
%TO.C,R1*%
G36*
G01*
X75775000Y-95647500D02*
X75775000Y-96122500D01*
G75*
G02*
X75537500Y-96360000I-237500J0D01*
G01*
X75037500Y-96360000D01*
G75*
G02*
X74800000Y-96122500I0J237500D01*
G01*
X74800000Y-95647500D01*
G75*
G02*
X75037500Y-95410000I237500J0D01*
G01*
X75537500Y-95410000D01*
G75*
G02*
X75775000Y-95647500I0J-237500D01*
G01*
G37*
G36*
G01*
X77600000Y-95647500D02*
X77600000Y-96122500D01*
G75*
G02*
X77362500Y-96360000I-237500J0D01*
G01*
X76862500Y-96360000D01*
G75*
G02*
X76625000Y-96122500I0J237500D01*
G01*
X76625000Y-95647500D01*
G75*
G02*
X76862500Y-95410000I237500J0D01*
G01*
X77362500Y-95410000D01*
G75*
G02*
X77600000Y-95647500I0J-237500D01*
G01*
G37*
%TD*%
%TO.C,R3*%
G36*
G01*
X79760900Y-86808300D02*
X79760900Y-87283300D01*
G75*
G02*
X79523400Y-87520800I-237500J0D01*
G01*
X79023400Y-87520800D01*
G75*
G02*
X78785900Y-87283300I0J237500D01*
G01*
X78785900Y-86808300D01*
G75*
G02*
X79023400Y-86570800I237500J0D01*
G01*
X79523400Y-86570800D01*
G75*
G02*
X79760900Y-86808300I0J-237500D01*
G01*
G37*
G36*
G01*
X81585900Y-86808300D02*
X81585900Y-87283300D01*
G75*
G02*
X81348400Y-87520800I-237500J0D01*
G01*
X80848400Y-87520800D01*
G75*
G02*
X80610900Y-87283300I0J237500D01*
G01*
X80610900Y-86808300D01*
G75*
G02*
X80848400Y-86570800I237500J0D01*
G01*
X81348400Y-86570800D01*
G75*
G02*
X81585900Y-86808300I0J-237500D01*
G01*
G37*
%TD*%
%TO.C,R2*%
G36*
G01*
X76625000Y-89137500D02*
X76625000Y-88662500D01*
G75*
G02*
X76862500Y-88425000I237500J0D01*
G01*
X77362500Y-88425000D01*
G75*
G02*
X77600000Y-88662500I0J-237500D01*
G01*
X77600000Y-89137500D01*
G75*
G02*
X77362500Y-89375000I-237500J0D01*
G01*
X76862500Y-89375000D01*
G75*
G02*
X76625000Y-89137500I0J237500D01*
G01*
G37*
G36*
G01*
X74800000Y-89137500D02*
X74800000Y-88662500D01*
G75*
G02*
X75037500Y-88425000I237500J0D01*
G01*
X75537500Y-88425000D01*
G75*
G02*
X75775000Y-88662500I0J-237500D01*
G01*
X75775000Y-89137500D01*
G75*
G02*
X75537500Y-89375000I-237500J0D01*
G01*
X75037500Y-89375000D01*
G75*
G02*
X74800000Y-89137500I0J237500D01*
G01*
G37*
%TD*%
%TO.C,R9*%
G36*
G01*
X91888300Y-118155900D02*
X92363300Y-118155900D01*
G75*
G02*
X92600800Y-118393400I0J-237500D01*
G01*
X92600800Y-118893400D01*
G75*
G02*
X92363300Y-119130900I-237500J0D01*
G01*
X91888300Y-119130900D01*
G75*
G02*
X91650800Y-118893400I0J237500D01*
G01*
X91650800Y-118393400D01*
G75*
G02*
X91888300Y-118155900I237500J0D01*
G01*
G37*
G36*
G01*
X91888300Y-116330900D02*
X92363300Y-116330900D01*
G75*
G02*
X92600800Y-116568400I0J-237500D01*
G01*
X92600800Y-117068400D01*
G75*
G02*
X92363300Y-117305900I-237500J0D01*
G01*
X91888300Y-117305900D01*
G75*
G02*
X91650800Y-117068400I0J237500D01*
G01*
X91650800Y-116568400D01*
G75*
G02*
X91888300Y-116330900I237500J0D01*
G01*
G37*
%TD*%
%TO.C,R8*%
G36*
G01*
X103292900Y-118155900D02*
X103767900Y-118155900D01*
G75*
G02*
X104005400Y-118393400I0J-237500D01*
G01*
X104005400Y-118893400D01*
G75*
G02*
X103767900Y-119130900I-237500J0D01*
G01*
X103292900Y-119130900D01*
G75*
G02*
X103055400Y-118893400I0J237500D01*
G01*
X103055400Y-118393400D01*
G75*
G02*
X103292900Y-118155900I237500J0D01*
G01*
G37*
G36*
G01*
X103292900Y-116330900D02*
X103767900Y-116330900D01*
G75*
G02*
X104005400Y-116568400I0J-237500D01*
G01*
X104005400Y-117068400D01*
G75*
G02*
X103767900Y-117305900I-237500J0D01*
G01*
X103292900Y-117305900D01*
G75*
G02*
X103055400Y-117068400I0J237500D01*
G01*
X103055400Y-116568400D01*
G75*
G02*
X103292900Y-116330900I237500J0D01*
G01*
G37*
%TD*%
%TO.C,R11*%
G36*
G01*
X94444000Y-83074500D02*
X94444000Y-83549500D01*
G75*
G02*
X94206500Y-83787000I-237500J0D01*
G01*
X93706500Y-83787000D01*
G75*
G02*
X93469000Y-83549500I0J237500D01*
G01*
X93469000Y-83074500D01*
G75*
G02*
X93706500Y-82837000I237500J0D01*
G01*
X94206500Y-82837000D01*
G75*
G02*
X94444000Y-83074500I0J-237500D01*
G01*
G37*
G36*
G01*
X96269000Y-83074500D02*
X96269000Y-83549500D01*
G75*
G02*
X96031500Y-83787000I-237500J0D01*
G01*
X95531500Y-83787000D01*
G75*
G02*
X95294000Y-83549500I0J237500D01*
G01*
X95294000Y-83074500D01*
G75*
G02*
X95531500Y-82837000I237500J0D01*
G01*
X96031500Y-82837000D01*
G75*
G02*
X96269000Y-83074500I0J-237500D01*
G01*
G37*
%TD*%
%TO.C,R10*%
G36*
G01*
X106636000Y-82312500D02*
X106636000Y-82787500D01*
G75*
G02*
X106398500Y-83025000I-237500J0D01*
G01*
X105898500Y-83025000D01*
G75*
G02*
X105661000Y-82787500I0J237500D01*
G01*
X105661000Y-82312500D01*
G75*
G02*
X105898500Y-82075000I237500J0D01*
G01*
X106398500Y-82075000D01*
G75*
G02*
X106636000Y-82312500I0J-237500D01*
G01*
G37*
G36*
G01*
X108461000Y-82312500D02*
X108461000Y-82787500D01*
G75*
G02*
X108223500Y-83025000I-237500J0D01*
G01*
X107723500Y-83025000D01*
G75*
G02*
X107486000Y-82787500I0J237500D01*
G01*
X107486000Y-82312500D01*
G75*
G02*
X107723500Y-82075000I237500J0D01*
G01*
X108223500Y-82075000D01*
G75*
G02*
X108461000Y-82312500I0J-237500D01*
G01*
G37*
%TD*%
%TO.C,R7*%
G36*
G01*
X92587900Y-79823300D02*
X92587900Y-80298300D01*
G75*
G02*
X92350400Y-80535800I-237500J0D01*
G01*
X91850400Y-80535800D01*
G75*
G02*
X91612900Y-80298300I0J237500D01*
G01*
X91612900Y-79823300D01*
G75*
G02*
X91850400Y-79585800I237500J0D01*
G01*
X92350400Y-79585800D01*
G75*
G02*
X92587900Y-79823300I0J-237500D01*
G01*
G37*
G36*
G01*
X94412900Y-79823300D02*
X94412900Y-80298300D01*
G75*
G02*
X94175400Y-80535800I-237500J0D01*
G01*
X93675400Y-80535800D01*
G75*
G02*
X93437900Y-80298300I0J237500D01*
G01*
X93437900Y-79823300D01*
G75*
G02*
X93675400Y-79585800I237500J0D01*
G01*
X94175400Y-79585800D01*
G75*
G02*
X94412900Y-79823300I0J-237500D01*
G01*
G37*
%TD*%
%TO.C,R6*%
G36*
G01*
X92591700Y-81372700D02*
X92591700Y-81847700D01*
G75*
G02*
X92354200Y-82085200I-237500J0D01*
G01*
X91854200Y-82085200D01*
G75*
G02*
X91616700Y-81847700I0J237500D01*
G01*
X91616700Y-81372700D01*
G75*
G02*
X91854200Y-81135200I237500J0D01*
G01*
X92354200Y-81135200D01*
G75*
G02*
X92591700Y-81372700I0J-237500D01*
G01*
G37*
G36*
G01*
X94416700Y-81372700D02*
X94416700Y-81847700D01*
G75*
G02*
X94179200Y-82085200I-237500J0D01*
G01*
X93679200Y-82085200D01*
G75*
G02*
X93441700Y-81847700I0J237500D01*
G01*
X93441700Y-81372700D01*
G75*
G02*
X93679200Y-81135200I237500J0D01*
G01*
X94179200Y-81135200D01*
G75*
G02*
X94416700Y-81372700I0J-237500D01*
G01*
G37*
%TD*%
%TO.C,D2*%
G36*
G01*
X90686900Y-80458800D02*
X90211900Y-80458800D01*
G75*
G02*
X89974400Y-80221300I0J237500D01*
G01*
X89974400Y-79646300D01*
G75*
G02*
X90211900Y-79408800I237500J0D01*
G01*
X90686900Y-79408800D01*
G75*
G02*
X90924400Y-79646300I0J-237500D01*
G01*
X90924400Y-80221300D01*
G75*
G02*
X90686900Y-80458800I-237500J0D01*
G01*
G37*
G36*
G01*
X90686900Y-82208800D02*
X90211900Y-82208800D01*
G75*
G02*
X89974400Y-81971300I0J237500D01*
G01*
X89974400Y-81396300D01*
G75*
G02*
X90211900Y-81158800I237500J0D01*
G01*
X90686900Y-81158800D01*
G75*
G02*
X90924400Y-81396300I0J-237500D01*
G01*
X90924400Y-81971300D01*
G75*
G02*
X90686900Y-82208800I-237500J0D01*
G01*
G37*
%TD*%
M02*
