G04 #@! TF.GenerationSoftware,KiCad,Pcbnew,(5.1.9)-1*
G04 #@! TF.CreationDate,2021-04-16T15:09:28+02:00*
G04 #@! TF.ProjectId,Inverter,496e7665-7274-4657-922e-6b696361645f,rev?*
G04 #@! TF.SameCoordinates,Original*
G04 #@! TF.FileFunction,Legend,Top*
G04 #@! TF.FilePolarity,Positive*
%FSLAX46Y46*%
G04 Gerber Fmt 4.6, Leading zero omitted, Abs format (unit mm)*
G04 Created by KiCad (PCBNEW (5.1.9)-1) date 2021-04-16 15:09:28*
%MOMM*%
%LPD*%
G01*
G04 APERTURE LIST*
%ADD10C,0.200000*%
%ADD11C,0.120000*%
%ADD12C,0.152400*%
%ADD13C,0.254000*%
%ADD14C,0.150000*%
G04 APERTURE END LIST*
D10*
X124205000Y-125295000D02*
X124205000Y-125295000D01*
X124405000Y-125295000D02*
X124405000Y-125295000D01*
X124405000Y-125295000D02*
G75*
G02*
X124205000Y-125295000I-100000J0D01*
G01*
X124205000Y-125295000D02*
G75*
G02*
X124405000Y-125295000I100000J0D01*
G01*
X97100000Y-125295000D02*
X97100000Y-125295000D01*
X96900000Y-125295000D02*
X96900000Y-125295000D01*
X96900000Y-125295000D02*
G75*
G02*
X97100000Y-125295000I100000J0D01*
G01*
X97100000Y-125295000D02*
G75*
G02*
X96900000Y-125295000I-100000J0D01*
G01*
X69595000Y-125295000D02*
X69595000Y-125295000D01*
X69795000Y-125295000D02*
X69795000Y-125295000D01*
X69795000Y-125295000D02*
G75*
G02*
X69595000Y-125295000I-100000J0D01*
G01*
X69595000Y-125295000D02*
G75*
G02*
X69795000Y-125295000I100000J0D01*
G01*
X112975000Y-93291000D02*
X112975000Y-93291000D01*
X112775000Y-93291000D02*
X112775000Y-93291000D01*
X112775000Y-93291000D02*
G75*
G02*
X112975000Y-93291000I100000J0D01*
G01*
X112975000Y-93291000D02*
G75*
G02*
X112775000Y-93291000I-100000J0D01*
G01*
X102615000Y-93291000D02*
X102615000Y-93291000D01*
X102815000Y-93291000D02*
X102815000Y-93291000D01*
X102815000Y-93291000D02*
G75*
G02*
X102615000Y-93291000I-100000J0D01*
G01*
X102615000Y-93291000D02*
G75*
G02*
X102815000Y-93291000I100000J0D01*
G01*
X92655000Y-93291000D02*
X92655000Y-93291000D01*
X92455000Y-93291000D02*
X92455000Y-93291000D01*
X92455000Y-93291000D02*
G75*
G02*
X92655000Y-93291000I100000J0D01*
G01*
X92655000Y-93291000D02*
G75*
G02*
X92455000Y-93291000I-100000J0D01*
G01*
X110108000Y-62557000D02*
X110108000Y-62557000D01*
X110308000Y-62557000D02*
X110308000Y-62557000D01*
X110308000Y-62557000D02*
G75*
G02*
X110108000Y-62557000I-100000J0D01*
G01*
X110108000Y-62557000D02*
G75*
G02*
X110308000Y-62557000I100000J0D01*
G01*
X100148000Y-62557000D02*
X100148000Y-62557000D01*
X99948000Y-62557000D02*
X99948000Y-62557000D01*
X99948000Y-62557000D02*
G75*
G02*
X100148000Y-62557000I100000J0D01*
G01*
X100148000Y-62557000D02*
G75*
G02*
X99948000Y-62557000I-100000J0D01*
G01*
X89788000Y-62557000D02*
X89788000Y-62557000D01*
X89988000Y-62557000D02*
X89988000Y-62557000D01*
X89988000Y-62557000D02*
G75*
G02*
X89788000Y-62557000I-100000J0D01*
G01*
X89788000Y-62557000D02*
G75*
G02*
X89988000Y-62557000I100000J0D01*
G01*
D11*
X69702000Y-77012748D02*
X69702000Y-78435252D01*
X71522000Y-77012748D02*
X71522000Y-78435252D01*
X72750000Y-77012748D02*
X72750000Y-78435252D01*
X74570000Y-77012748D02*
X74570000Y-78435252D01*
X81767000Y-77012748D02*
X81767000Y-78435252D01*
X83587000Y-77012748D02*
X83587000Y-78435252D01*
X75798000Y-77012748D02*
X75798000Y-78435252D01*
X77618000Y-77012748D02*
X77618000Y-78435252D01*
X78719000Y-77012748D02*
X78719000Y-78435252D01*
X80539000Y-77012748D02*
X80539000Y-78435252D01*
X122195000Y-101819064D02*
X122195000Y-100364936D01*
X120375000Y-101819064D02*
X120375000Y-100364936D01*
X121687000Y-80102064D02*
X121687000Y-78647936D01*
X119867000Y-80102064D02*
X119867000Y-78647936D01*
X123550000Y-100380748D02*
X123550000Y-101803252D01*
X125370000Y-100380748D02*
X125370000Y-101803252D01*
X123677000Y-78663748D02*
X123677000Y-80086252D01*
X125497000Y-78663748D02*
X125497000Y-80086252D01*
X131805000Y-92405148D02*
X131805000Y-93827652D01*
X133625000Y-92405148D02*
X133625000Y-93827652D01*
X129265000Y-92405148D02*
X129265000Y-93827652D01*
X131085000Y-92405148D02*
X131085000Y-93827652D01*
X126725000Y-92405148D02*
X126725000Y-93827652D01*
X128545000Y-92405148D02*
X128545000Y-93827652D01*
X124185000Y-92405148D02*
X124185000Y-93827652D01*
X126005000Y-92405148D02*
X126005000Y-93827652D01*
X84815000Y-77012748D02*
X84815000Y-78435252D01*
X86635000Y-77012748D02*
X86635000Y-78435252D01*
X72330000Y-105470000D02*
X72330000Y-100270000D01*
X77530000Y-105470000D02*
X77530000Y-100270000D01*
X72900000Y-106910000D02*
X72900000Y-105470000D01*
X72330000Y-105470000D02*
X72900000Y-105470000D01*
X72330000Y-100270000D02*
X72900000Y-100270000D01*
X76960000Y-105470000D02*
X77530000Y-105470000D01*
X76960000Y-100270000D02*
X77530000Y-100270000D01*
X74420000Y-105470000D02*
X75440000Y-105470000D01*
X74420000Y-100270000D02*
X75440000Y-100270000D01*
D12*
X101294039Y-113906300D02*
X101498400Y-113906300D01*
X91135200Y-109915288D02*
X91135200Y-113906300D01*
X101498400Y-113906300D02*
X101498400Y-109915288D01*
X91135200Y-113906300D02*
X91339561Y-113906300D01*
X96951800Y-101155500D02*
X95681800Y-101155500D01*
X96316800Y-100393500D02*
X96189800Y-101155500D01*
X96316800Y-100393500D02*
X96062800Y-101155500D01*
X96316800Y-100393500D02*
X95935800Y-101155500D01*
X96316800Y-100393500D02*
X95808800Y-101155500D01*
X96316800Y-100393500D02*
X95681800Y-101155500D01*
X96316800Y-100393500D02*
X96443800Y-101155500D01*
X96316800Y-100393500D02*
X96570800Y-101155500D01*
X96316800Y-100393500D02*
X96697800Y-101155500D01*
X96316800Y-100393500D02*
X96824800Y-101155500D01*
X96316800Y-100393500D02*
X96951800Y-101155500D01*
X96951800Y-100393500D02*
X95681800Y-100393500D01*
X96316800Y-101409500D02*
X96316800Y-100139500D01*
X112724039Y-113880900D02*
X112928400Y-113880900D01*
X102565200Y-109889888D02*
X102565200Y-113880900D01*
X112928400Y-113880900D02*
X112928400Y-109889888D01*
X102565200Y-113880900D02*
X102769561Y-113880900D01*
X108381800Y-101130100D02*
X107111800Y-101130100D01*
X107746800Y-100368100D02*
X107619800Y-101130100D01*
X107746800Y-100368100D02*
X107492800Y-101130100D01*
X107746800Y-100368100D02*
X107365800Y-101130100D01*
X107746800Y-100368100D02*
X107238800Y-101130100D01*
X107746800Y-100368100D02*
X107111800Y-101130100D01*
X107746800Y-100368100D02*
X107873800Y-101130100D01*
X107746800Y-100368100D02*
X108000800Y-101130100D01*
X107746800Y-100368100D02*
X108127800Y-101130100D01*
X107746800Y-100368100D02*
X108254800Y-101130100D01*
X107746800Y-100368100D02*
X108381800Y-101130100D01*
X108381800Y-100368100D02*
X107111800Y-100368100D01*
X107746800Y-101384100D02*
X107746800Y-100114100D01*
X105535839Y-80378300D02*
X105740200Y-80378300D01*
X95377000Y-76387288D02*
X95377000Y-80378300D01*
X105740200Y-80378300D02*
X105740200Y-76387288D01*
X95377000Y-80378300D02*
X95581361Y-80378300D01*
X101193600Y-67627500D02*
X99923600Y-67627500D01*
X100558600Y-66865500D02*
X100431600Y-67627500D01*
X100558600Y-66865500D02*
X100304600Y-67627500D01*
X100558600Y-66865500D02*
X100177600Y-67627500D01*
X100558600Y-66865500D02*
X100050600Y-67627500D01*
X100558600Y-66865500D02*
X99923600Y-67627500D01*
X100558600Y-66865500D02*
X100685600Y-67627500D01*
X100558600Y-66865500D02*
X100812600Y-67627500D01*
X100558600Y-66865500D02*
X100939600Y-67627500D01*
X100558600Y-66865500D02*
X101066600Y-67627500D01*
X100558600Y-66865500D02*
X101193600Y-67627500D01*
X101193600Y-66865500D02*
X99923600Y-66865500D01*
X100558600Y-67881500D02*
X100558600Y-66611500D01*
X116965839Y-80378300D02*
X117170200Y-80378300D01*
X106807000Y-76387288D02*
X106807000Y-80378300D01*
X117170200Y-80378300D02*
X117170200Y-76387288D01*
X106807000Y-80378300D02*
X107011361Y-80378300D01*
X112623600Y-67627500D02*
X111353600Y-67627500D01*
X111988600Y-66865500D02*
X111861600Y-67627500D01*
X111988600Y-66865500D02*
X111734600Y-67627500D01*
X111988600Y-66865500D02*
X111607600Y-67627500D01*
X111988600Y-66865500D02*
X111480600Y-67627500D01*
X111988600Y-66865500D02*
X111353600Y-67627500D01*
X111988600Y-66865500D02*
X112115600Y-67627500D01*
X111988600Y-66865500D02*
X112242600Y-67627500D01*
X111988600Y-66865500D02*
X112369600Y-67627500D01*
X111988600Y-66865500D02*
X112496600Y-67627500D01*
X111988600Y-66865500D02*
X112623600Y-67627500D01*
X112623600Y-66865500D02*
X111353600Y-66865500D01*
X111988600Y-67881500D02*
X111988600Y-66611500D01*
D10*
X79075000Y-89063600D02*
X80600000Y-89063600D01*
X80950000Y-97898600D02*
X80950000Y-89248600D01*
X84150000Y-97898600D02*
X80950000Y-97898600D01*
X84150000Y-89248600D02*
X84150000Y-97898600D01*
X80950000Y-89248600D02*
X84150000Y-89248600D01*
D11*
X87530000Y-91967248D02*
X87530000Y-92489752D01*
X89000000Y-91967248D02*
X89000000Y-92489752D01*
X84275600Y-103503600D02*
X84275600Y-101043600D01*
X84275600Y-101043600D02*
X82805600Y-101043600D01*
X82805600Y-101043600D02*
X82805600Y-103503600D01*
X86333424Y-104078300D02*
X85823976Y-104078300D01*
X86333424Y-103033300D02*
X85823976Y-103033300D01*
X86311824Y-102478100D02*
X85802376Y-102478100D01*
X86311824Y-101433100D02*
X85802376Y-101433100D01*
X80498733Y-101090000D02*
X80791267Y-101090000D01*
X80498733Y-102110000D02*
X80791267Y-102110000D01*
X80498733Y-99185000D02*
X80791267Y-99185000D01*
X80498733Y-100205000D02*
X80791267Y-100205000D01*
X83469433Y-86535800D02*
X83761967Y-86535800D01*
X83469433Y-87555800D02*
X83761967Y-87555800D01*
X80791267Y-104015000D02*
X80498733Y-104015000D01*
X80791267Y-102995000D02*
X80498733Y-102995000D01*
X76346267Y-94490000D02*
X76053733Y-94490000D01*
X76346267Y-93470000D02*
X76053733Y-93470000D01*
X76346267Y-91315000D02*
X76053733Y-91315000D01*
X76346267Y-90295000D02*
X76053733Y-90295000D01*
X76454724Y-96407500D02*
X75945276Y-96407500D01*
X76454724Y-95362500D02*
X75945276Y-95362500D01*
X80440624Y-87568300D02*
X79931176Y-87568300D01*
X80440624Y-86523300D02*
X79931176Y-86523300D01*
X75945276Y-88377500D02*
X76454724Y-88377500D01*
X75945276Y-89422500D02*
X76454724Y-89422500D01*
X92648300Y-117476176D02*
X92648300Y-117985624D01*
X91603300Y-117476176D02*
X91603300Y-117985624D01*
X104052900Y-117476176D02*
X104052900Y-117985624D01*
X103007900Y-117476176D02*
X103007900Y-117985624D01*
X95123724Y-83834500D02*
X94614276Y-83834500D01*
X95123724Y-82789500D02*
X94614276Y-82789500D01*
X107315724Y-83072500D02*
X106806276Y-83072500D01*
X107315724Y-82027500D02*
X106806276Y-82027500D01*
X93267624Y-80583300D02*
X92758176Y-80583300D01*
X93267624Y-79538300D02*
X92758176Y-79538300D01*
X93271424Y-82132700D02*
X92761976Y-82132700D01*
X93271424Y-81087700D02*
X92761976Y-81087700D01*
X89714400Y-80008800D02*
X89714400Y-82468800D01*
X89714400Y-82468800D02*
X91184400Y-82468800D01*
X91184400Y-82468800D02*
X91184400Y-80008800D01*
D13*
X127574523Y-124399523D02*
X127574523Y-125427619D01*
X127635000Y-125548571D01*
X127695476Y-125609047D01*
X127816428Y-125669523D01*
X128058333Y-125669523D01*
X128179285Y-125609047D01*
X128239761Y-125548571D01*
X128300238Y-125427619D01*
X128300238Y-124399523D01*
X129086428Y-124399523D02*
X129086428Y-124701904D01*
X128784047Y-124580952D02*
X129086428Y-124701904D01*
X129388809Y-124580952D01*
X128905000Y-124943809D02*
X129086428Y-124701904D01*
X129267857Y-124943809D01*
X130054047Y-124399523D02*
X130054047Y-124701904D01*
X129751666Y-124580952D02*
X130054047Y-124701904D01*
X130356428Y-124580952D01*
X129872619Y-124943809D02*
X130054047Y-124701904D01*
X130235476Y-124943809D01*
X100269523Y-124399523D02*
X100269523Y-125427619D01*
X100330000Y-125548571D01*
X100390476Y-125609047D01*
X100511428Y-125669523D01*
X100753333Y-125669523D01*
X100874285Y-125609047D01*
X100934761Y-125548571D01*
X100995238Y-125427619D01*
X100995238Y-124399523D01*
X101781428Y-124399523D02*
X101781428Y-124701904D01*
X101479047Y-124580952D02*
X101781428Y-124701904D01*
X102083809Y-124580952D01*
X101600000Y-124943809D02*
X101781428Y-124701904D01*
X101962857Y-124943809D01*
X102749047Y-124399523D02*
X102749047Y-124701904D01*
X102446666Y-124580952D02*
X102749047Y-124701904D01*
X103051428Y-124580952D01*
X102567619Y-124943809D02*
X102749047Y-124701904D01*
X102930476Y-124943809D01*
X72964523Y-124399523D02*
X72964523Y-125427619D01*
X73025000Y-125548571D01*
X73085476Y-125609047D01*
X73206428Y-125669523D01*
X73448333Y-125669523D01*
X73569285Y-125609047D01*
X73629761Y-125548571D01*
X73690238Y-125427619D01*
X73690238Y-124399523D01*
X74476428Y-124399523D02*
X74476428Y-124701904D01*
X74174047Y-124580952D02*
X74476428Y-124701904D01*
X74778809Y-124580952D01*
X74295000Y-124943809D02*
X74476428Y-124701904D01*
X74657857Y-124943809D01*
X75444047Y-124399523D02*
X75444047Y-124701904D01*
X75141666Y-124580952D02*
X75444047Y-124701904D01*
X75746428Y-124580952D01*
X75262619Y-124943809D02*
X75444047Y-124701904D01*
X75625476Y-124943809D01*
X116144523Y-92395523D02*
X116144523Y-93423619D01*
X116205000Y-93544571D01*
X116265476Y-93605047D01*
X116386428Y-93665523D01*
X116628333Y-93665523D01*
X116749285Y-93605047D01*
X116809761Y-93544571D01*
X116870238Y-93423619D01*
X116870238Y-92395523D01*
X117656428Y-92395523D02*
X117656428Y-92697904D01*
X117354047Y-92576952D02*
X117656428Y-92697904D01*
X117958809Y-92576952D01*
X117475000Y-92939809D02*
X117656428Y-92697904D01*
X117837857Y-92939809D01*
X118624047Y-92395523D02*
X118624047Y-92697904D01*
X118321666Y-92576952D02*
X118624047Y-92697904D01*
X118926428Y-92576952D01*
X118442619Y-92939809D02*
X118624047Y-92697904D01*
X118805476Y-92939809D01*
X105984523Y-92395523D02*
X105984523Y-93423619D01*
X106045000Y-93544571D01*
X106105476Y-93605047D01*
X106226428Y-93665523D01*
X106468333Y-93665523D01*
X106589285Y-93605047D01*
X106649761Y-93544571D01*
X106710238Y-93423619D01*
X106710238Y-92395523D01*
X107496428Y-92395523D02*
X107496428Y-92697904D01*
X107194047Y-92576952D02*
X107496428Y-92697904D01*
X107798809Y-92576952D01*
X107315000Y-92939809D02*
X107496428Y-92697904D01*
X107677857Y-92939809D01*
X108464047Y-92395523D02*
X108464047Y-92697904D01*
X108161666Y-92576952D02*
X108464047Y-92697904D01*
X108766428Y-92576952D01*
X108282619Y-92939809D02*
X108464047Y-92697904D01*
X108645476Y-92939809D01*
X95824523Y-92395523D02*
X95824523Y-93423619D01*
X95885000Y-93544571D01*
X95945476Y-93605047D01*
X96066428Y-93665523D01*
X96308333Y-93665523D01*
X96429285Y-93605047D01*
X96489761Y-93544571D01*
X96550238Y-93423619D01*
X96550238Y-92395523D01*
X97336428Y-92395523D02*
X97336428Y-92697904D01*
X97034047Y-92576952D02*
X97336428Y-92697904D01*
X97638809Y-92576952D01*
X97155000Y-92939809D02*
X97336428Y-92697904D01*
X97517857Y-92939809D01*
X98304047Y-92395523D02*
X98304047Y-92697904D01*
X98001666Y-92576952D02*
X98304047Y-92697904D01*
X98606428Y-92576952D01*
X98122619Y-92939809D02*
X98304047Y-92697904D01*
X98485476Y-92939809D01*
X113477523Y-61661523D02*
X113477523Y-62689619D01*
X113538000Y-62810571D01*
X113598476Y-62871047D01*
X113719428Y-62931523D01*
X113961333Y-62931523D01*
X114082285Y-62871047D01*
X114142761Y-62810571D01*
X114203238Y-62689619D01*
X114203238Y-61661523D01*
X114989428Y-61661523D02*
X114989428Y-61963904D01*
X114687047Y-61842952D02*
X114989428Y-61963904D01*
X115291809Y-61842952D01*
X114808000Y-62205809D02*
X114989428Y-61963904D01*
X115170857Y-62205809D01*
X115957047Y-61661523D02*
X115957047Y-61963904D01*
X115654666Y-61842952D02*
X115957047Y-61963904D01*
X116259428Y-61842952D01*
X115775619Y-62205809D02*
X115957047Y-61963904D01*
X116138476Y-62205809D01*
X103317523Y-61661523D02*
X103317523Y-62689619D01*
X103378000Y-62810571D01*
X103438476Y-62871047D01*
X103559428Y-62931523D01*
X103801333Y-62931523D01*
X103922285Y-62871047D01*
X103982761Y-62810571D01*
X104043238Y-62689619D01*
X104043238Y-61661523D01*
X104829428Y-61661523D02*
X104829428Y-61963904D01*
X104527047Y-61842952D02*
X104829428Y-61963904D01*
X105131809Y-61842952D01*
X104648000Y-62205809D02*
X104829428Y-61963904D01*
X105010857Y-62205809D01*
X105797047Y-61661523D02*
X105797047Y-61963904D01*
X105494666Y-61842952D02*
X105797047Y-61963904D01*
X106099428Y-61842952D01*
X105615619Y-62205809D02*
X105797047Y-61963904D01*
X105978476Y-62205809D01*
X93157523Y-61661523D02*
X93157523Y-62689619D01*
X93218000Y-62810571D01*
X93278476Y-62871047D01*
X93399428Y-62931523D01*
X93641333Y-62931523D01*
X93762285Y-62871047D01*
X93822761Y-62810571D01*
X93883238Y-62689619D01*
X93883238Y-61661523D01*
X94669428Y-61661523D02*
X94669428Y-61963904D01*
X94367047Y-61842952D02*
X94669428Y-61963904D01*
X94971809Y-61842952D01*
X94488000Y-62205809D02*
X94669428Y-61963904D01*
X94850857Y-62205809D01*
X95637047Y-61661523D02*
X95637047Y-61963904D01*
X95334666Y-61842952D02*
X95637047Y-61963904D01*
X95939428Y-61842952D01*
X95455619Y-62205809D02*
X95637047Y-61963904D01*
X95818476Y-62205809D01*
D14*
X69969142Y-74906142D02*
X69921523Y-74953761D01*
X69778666Y-75001380D01*
X69683428Y-75001380D01*
X69540571Y-74953761D01*
X69445333Y-74858523D01*
X69397714Y-74763285D01*
X69350095Y-74572809D01*
X69350095Y-74429952D01*
X69397714Y-74239476D01*
X69445333Y-74144238D01*
X69540571Y-74049000D01*
X69683428Y-74001380D01*
X69778666Y-74001380D01*
X69921523Y-74049000D01*
X69969142Y-74096619D01*
X70921523Y-75001380D02*
X70350095Y-75001380D01*
X70635809Y-75001380D02*
X70635809Y-74001380D01*
X70540571Y-74144238D01*
X70445333Y-74239476D01*
X70350095Y-74287095D01*
X71397714Y-75001380D02*
X71588190Y-75001380D01*
X71683428Y-74953761D01*
X71731047Y-74906142D01*
X71826285Y-74763285D01*
X71873904Y-74572809D01*
X71873904Y-74191857D01*
X71826285Y-74096619D01*
X71778666Y-74049000D01*
X71683428Y-74001380D01*
X71492952Y-74001380D01*
X71397714Y-74049000D01*
X71350095Y-74096619D01*
X71302476Y-74191857D01*
X71302476Y-74429952D01*
X71350095Y-74525190D01*
X71397714Y-74572809D01*
X71492952Y-74620428D01*
X71683428Y-74620428D01*
X71778666Y-74572809D01*
X71826285Y-74525190D01*
X71873904Y-74429952D01*
X73017142Y-81256142D02*
X72969523Y-81303761D01*
X72826666Y-81351380D01*
X72731428Y-81351380D01*
X72588571Y-81303761D01*
X72493333Y-81208523D01*
X72445714Y-81113285D01*
X72398095Y-80922809D01*
X72398095Y-80779952D01*
X72445714Y-80589476D01*
X72493333Y-80494238D01*
X72588571Y-80399000D01*
X72731428Y-80351380D01*
X72826666Y-80351380D01*
X72969523Y-80399000D01*
X73017142Y-80446619D01*
X73969523Y-81351380D02*
X73398095Y-81351380D01*
X73683809Y-81351380D02*
X73683809Y-80351380D01*
X73588571Y-80494238D01*
X73493333Y-80589476D01*
X73398095Y-80637095D01*
X74540952Y-80779952D02*
X74445714Y-80732333D01*
X74398095Y-80684714D01*
X74350476Y-80589476D01*
X74350476Y-80541857D01*
X74398095Y-80446619D01*
X74445714Y-80399000D01*
X74540952Y-80351380D01*
X74731428Y-80351380D01*
X74826666Y-80399000D01*
X74874285Y-80446619D01*
X74921904Y-80541857D01*
X74921904Y-80589476D01*
X74874285Y-80684714D01*
X74826666Y-80732333D01*
X74731428Y-80779952D01*
X74540952Y-80779952D01*
X74445714Y-80827571D01*
X74398095Y-80875190D01*
X74350476Y-80970428D01*
X74350476Y-81160904D01*
X74398095Y-81256142D01*
X74445714Y-81303761D01*
X74540952Y-81351380D01*
X74731428Y-81351380D01*
X74826666Y-81303761D01*
X74874285Y-81256142D01*
X74921904Y-81160904D01*
X74921904Y-80970428D01*
X74874285Y-80875190D01*
X74826666Y-80827571D01*
X74731428Y-80779952D01*
X82034142Y-74906142D02*
X81986523Y-74953761D01*
X81843666Y-75001380D01*
X81748428Y-75001380D01*
X81605571Y-74953761D01*
X81510333Y-74858523D01*
X81462714Y-74763285D01*
X81415095Y-74572809D01*
X81415095Y-74429952D01*
X81462714Y-74239476D01*
X81510333Y-74144238D01*
X81605571Y-74049000D01*
X81748428Y-74001380D01*
X81843666Y-74001380D01*
X81986523Y-74049000D01*
X82034142Y-74096619D01*
X82986523Y-75001380D02*
X82415095Y-75001380D01*
X82700809Y-75001380D02*
X82700809Y-74001380D01*
X82605571Y-74144238D01*
X82510333Y-74239476D01*
X82415095Y-74287095D01*
X83319857Y-74001380D02*
X83986523Y-74001380D01*
X83557952Y-75001380D01*
X76065142Y-74906142D02*
X76017523Y-74953761D01*
X75874666Y-75001380D01*
X75779428Y-75001380D01*
X75636571Y-74953761D01*
X75541333Y-74858523D01*
X75493714Y-74763285D01*
X75446095Y-74572809D01*
X75446095Y-74429952D01*
X75493714Y-74239476D01*
X75541333Y-74144238D01*
X75636571Y-74049000D01*
X75779428Y-74001380D01*
X75874666Y-74001380D01*
X76017523Y-74049000D01*
X76065142Y-74096619D01*
X77017523Y-75001380D02*
X76446095Y-75001380D01*
X76731809Y-75001380D02*
X76731809Y-74001380D01*
X76636571Y-74144238D01*
X76541333Y-74239476D01*
X76446095Y-74287095D01*
X77874666Y-74001380D02*
X77684190Y-74001380D01*
X77588952Y-74049000D01*
X77541333Y-74096619D01*
X77446095Y-74239476D01*
X77398476Y-74429952D01*
X77398476Y-74810904D01*
X77446095Y-74906142D01*
X77493714Y-74953761D01*
X77588952Y-75001380D01*
X77779428Y-75001380D01*
X77874666Y-74953761D01*
X77922285Y-74906142D01*
X77969904Y-74810904D01*
X77969904Y-74572809D01*
X77922285Y-74477571D01*
X77874666Y-74429952D01*
X77779428Y-74382333D01*
X77588952Y-74382333D01*
X77493714Y-74429952D01*
X77446095Y-74477571D01*
X77398476Y-74572809D01*
X78986142Y-81510142D02*
X78938523Y-81557761D01*
X78795666Y-81605380D01*
X78700428Y-81605380D01*
X78557571Y-81557761D01*
X78462333Y-81462523D01*
X78414714Y-81367285D01*
X78367095Y-81176809D01*
X78367095Y-81033952D01*
X78414714Y-80843476D01*
X78462333Y-80748238D01*
X78557571Y-80653000D01*
X78700428Y-80605380D01*
X78795666Y-80605380D01*
X78938523Y-80653000D01*
X78986142Y-80700619D01*
X79938523Y-81605380D02*
X79367095Y-81605380D01*
X79652809Y-81605380D02*
X79652809Y-80605380D01*
X79557571Y-80748238D01*
X79462333Y-80843476D01*
X79367095Y-80891095D01*
X80557571Y-80605380D02*
X80652809Y-80605380D01*
X80748047Y-80653000D01*
X80795666Y-80700619D01*
X80843285Y-80795857D01*
X80890904Y-80986333D01*
X80890904Y-81224428D01*
X80843285Y-81414904D01*
X80795666Y-81510142D01*
X80748047Y-81557761D01*
X80652809Y-81605380D01*
X80557571Y-81605380D01*
X80462333Y-81557761D01*
X80414714Y-81510142D01*
X80367095Y-81414904D01*
X80319476Y-81224428D01*
X80319476Y-80986333D01*
X80367095Y-80795857D01*
X80414714Y-80700619D01*
X80462333Y-80653000D01*
X80557571Y-80605380D01*
X116903666Y-109799380D02*
X116570333Y-109323190D01*
X116332238Y-109799380D02*
X116332238Y-108799380D01*
X116713190Y-108799380D01*
X116808428Y-108847000D01*
X116856047Y-108894619D01*
X116903666Y-108989857D01*
X116903666Y-109132714D01*
X116856047Y-109227952D01*
X116808428Y-109275571D01*
X116713190Y-109323190D01*
X116332238Y-109323190D01*
X117332238Y-109275571D02*
X117665571Y-109275571D01*
X117808428Y-109799380D02*
X117332238Y-109799380D01*
X117332238Y-108799380D01*
X117808428Y-108799380D01*
X118570333Y-109275571D02*
X118237000Y-109275571D01*
X118237000Y-109799380D02*
X118237000Y-108799380D01*
X118713190Y-108799380D01*
X119237000Y-108799380D02*
X119237000Y-109037476D01*
X118998904Y-108942238D02*
X119237000Y-109037476D01*
X119475095Y-108942238D01*
X119094142Y-109227952D02*
X119237000Y-109037476D01*
X119379857Y-109227952D01*
X119998904Y-108799380D02*
X119998904Y-109037476D01*
X119760809Y-108942238D02*
X119998904Y-109037476D01*
X120237000Y-108942238D01*
X119856047Y-109227952D02*
X119998904Y-109037476D01*
X120141761Y-109227952D01*
X119832380Y-101734857D02*
X119356190Y-102068190D01*
X119832380Y-102306285D02*
X118832380Y-102306285D01*
X118832380Y-101925333D01*
X118880000Y-101830095D01*
X118927619Y-101782476D01*
X119022857Y-101734857D01*
X119165714Y-101734857D01*
X119260952Y-101782476D01*
X119308571Y-101830095D01*
X119356190Y-101925333D01*
X119356190Y-102306285D01*
X119832380Y-100782476D02*
X119832380Y-101353904D01*
X119832380Y-101068190D02*
X118832380Y-101068190D01*
X118975238Y-101163428D01*
X119070476Y-101258666D01*
X119118095Y-101353904D01*
X118832380Y-100449142D02*
X118832380Y-99830095D01*
X119213333Y-100163428D01*
X119213333Y-100020571D01*
X119260952Y-99925333D01*
X119308571Y-99877714D01*
X119403809Y-99830095D01*
X119641904Y-99830095D01*
X119737142Y-99877714D01*
X119784761Y-99925333D01*
X119832380Y-100020571D01*
X119832380Y-100306285D01*
X119784761Y-100401523D01*
X119737142Y-100449142D01*
X119409380Y-80017857D02*
X118933190Y-80351190D01*
X119409380Y-80589285D02*
X118409380Y-80589285D01*
X118409380Y-80208333D01*
X118457000Y-80113095D01*
X118504619Y-80065476D01*
X118599857Y-80017857D01*
X118742714Y-80017857D01*
X118837952Y-80065476D01*
X118885571Y-80113095D01*
X118933190Y-80208333D01*
X118933190Y-80589285D01*
X119409380Y-79065476D02*
X119409380Y-79636904D01*
X119409380Y-79351190D02*
X118409380Y-79351190D01*
X118552238Y-79446428D01*
X118647476Y-79541666D01*
X118695095Y-79636904D01*
X118504619Y-78684523D02*
X118457000Y-78636904D01*
X118409380Y-78541666D01*
X118409380Y-78303571D01*
X118457000Y-78208333D01*
X118504619Y-78160714D01*
X118599857Y-78113095D01*
X118695095Y-78113095D01*
X118837952Y-78160714D01*
X119409380Y-78732142D01*
X119409380Y-78113095D01*
X126667142Y-101258666D02*
X126714761Y-101306285D01*
X126762380Y-101449142D01*
X126762380Y-101544380D01*
X126714761Y-101687238D01*
X126619523Y-101782476D01*
X126524285Y-101830095D01*
X126333809Y-101877714D01*
X126190952Y-101877714D01*
X126000476Y-101830095D01*
X125905238Y-101782476D01*
X125810000Y-101687238D01*
X125762380Y-101544380D01*
X125762380Y-101449142D01*
X125810000Y-101306285D01*
X125857619Y-101258666D01*
X126190952Y-100687238D02*
X126143333Y-100782476D01*
X126095714Y-100830095D01*
X126000476Y-100877714D01*
X125952857Y-100877714D01*
X125857619Y-100830095D01*
X125810000Y-100782476D01*
X125762380Y-100687238D01*
X125762380Y-100496761D01*
X125810000Y-100401523D01*
X125857619Y-100353904D01*
X125952857Y-100306285D01*
X126000476Y-100306285D01*
X126095714Y-100353904D01*
X126143333Y-100401523D01*
X126190952Y-100496761D01*
X126190952Y-100687238D01*
X126238571Y-100782476D01*
X126286190Y-100830095D01*
X126381428Y-100877714D01*
X126571904Y-100877714D01*
X126667142Y-100830095D01*
X126714761Y-100782476D01*
X126762380Y-100687238D01*
X126762380Y-100496761D01*
X126714761Y-100401523D01*
X126667142Y-100353904D01*
X126571904Y-100306285D01*
X126381428Y-100306285D01*
X126286190Y-100353904D01*
X126238571Y-100401523D01*
X126190952Y-100496761D01*
X126794142Y-79541666D02*
X126841761Y-79589285D01*
X126889380Y-79732142D01*
X126889380Y-79827380D01*
X126841761Y-79970238D01*
X126746523Y-80065476D01*
X126651285Y-80113095D01*
X126460809Y-80160714D01*
X126317952Y-80160714D01*
X126127476Y-80113095D01*
X126032238Y-80065476D01*
X125937000Y-79970238D01*
X125889380Y-79827380D01*
X125889380Y-79732142D01*
X125937000Y-79589285D01*
X125984619Y-79541666D01*
X125889380Y-79208333D02*
X125889380Y-78541666D01*
X126889380Y-78970238D01*
X131945142Y-90273142D02*
X131897523Y-90320761D01*
X131754666Y-90368380D01*
X131659428Y-90368380D01*
X131516571Y-90320761D01*
X131421333Y-90225523D01*
X131373714Y-90130285D01*
X131326095Y-89939809D01*
X131326095Y-89796952D01*
X131373714Y-89606476D01*
X131421333Y-89511238D01*
X131516571Y-89416000D01*
X131659428Y-89368380D01*
X131754666Y-89368380D01*
X131897523Y-89416000D01*
X131945142Y-89463619D01*
X132897523Y-90368380D02*
X132326095Y-90368380D01*
X132611809Y-90368380D02*
X132611809Y-89368380D01*
X132516571Y-89511238D01*
X132421333Y-89606476D01*
X132326095Y-89654095D01*
X133802285Y-89368380D02*
X133326095Y-89368380D01*
X133278476Y-89844571D01*
X133326095Y-89796952D01*
X133421333Y-89749333D01*
X133659428Y-89749333D01*
X133754666Y-89796952D01*
X133802285Y-89844571D01*
X133849904Y-89939809D01*
X133849904Y-90177904D01*
X133802285Y-90273142D01*
X133754666Y-90320761D01*
X133659428Y-90368380D01*
X133421333Y-90368380D01*
X133326095Y-90320761D01*
X133278476Y-90273142D01*
X129532142Y-96750142D02*
X129484523Y-96797761D01*
X129341666Y-96845380D01*
X129246428Y-96845380D01*
X129103571Y-96797761D01*
X129008333Y-96702523D01*
X128960714Y-96607285D01*
X128913095Y-96416809D01*
X128913095Y-96273952D01*
X128960714Y-96083476D01*
X129008333Y-95988238D01*
X129103571Y-95893000D01*
X129246428Y-95845380D01*
X129341666Y-95845380D01*
X129484523Y-95893000D01*
X129532142Y-95940619D01*
X130484523Y-96845380D02*
X129913095Y-96845380D01*
X130198809Y-96845380D02*
X130198809Y-95845380D01*
X130103571Y-95988238D01*
X130008333Y-96083476D01*
X129913095Y-96131095D01*
X131341666Y-96178714D02*
X131341666Y-96845380D01*
X131103571Y-95797761D02*
X130865476Y-96512047D01*
X131484523Y-96512047D01*
X126865142Y-90273142D02*
X126817523Y-90320761D01*
X126674666Y-90368380D01*
X126579428Y-90368380D01*
X126436571Y-90320761D01*
X126341333Y-90225523D01*
X126293714Y-90130285D01*
X126246095Y-89939809D01*
X126246095Y-89796952D01*
X126293714Y-89606476D01*
X126341333Y-89511238D01*
X126436571Y-89416000D01*
X126579428Y-89368380D01*
X126674666Y-89368380D01*
X126817523Y-89416000D01*
X126865142Y-89463619D01*
X127817523Y-90368380D02*
X127246095Y-90368380D01*
X127531809Y-90368380D02*
X127531809Y-89368380D01*
X127436571Y-89511238D01*
X127341333Y-89606476D01*
X127246095Y-89654095D01*
X128150857Y-89368380D02*
X128769904Y-89368380D01*
X128436571Y-89749333D01*
X128579428Y-89749333D01*
X128674666Y-89796952D01*
X128722285Y-89844571D01*
X128769904Y-89939809D01*
X128769904Y-90177904D01*
X128722285Y-90273142D01*
X128674666Y-90320761D01*
X128579428Y-90368380D01*
X128293714Y-90368380D01*
X128198476Y-90320761D01*
X128150857Y-90273142D01*
X124325142Y-96750142D02*
X124277523Y-96797761D01*
X124134666Y-96845380D01*
X124039428Y-96845380D01*
X123896571Y-96797761D01*
X123801333Y-96702523D01*
X123753714Y-96607285D01*
X123706095Y-96416809D01*
X123706095Y-96273952D01*
X123753714Y-96083476D01*
X123801333Y-95988238D01*
X123896571Y-95893000D01*
X124039428Y-95845380D01*
X124134666Y-95845380D01*
X124277523Y-95893000D01*
X124325142Y-95940619D01*
X125277523Y-96845380D02*
X124706095Y-96845380D01*
X124991809Y-96845380D02*
X124991809Y-95845380D01*
X124896571Y-95988238D01*
X124801333Y-96083476D01*
X124706095Y-96131095D01*
X125658476Y-95940619D02*
X125706095Y-95893000D01*
X125801333Y-95845380D01*
X126039428Y-95845380D01*
X126134666Y-95893000D01*
X126182285Y-95940619D01*
X126229904Y-96035857D01*
X126229904Y-96131095D01*
X126182285Y-96273952D01*
X125610857Y-96845380D01*
X126229904Y-96845380D01*
X84955142Y-81510142D02*
X84907523Y-81557761D01*
X84764666Y-81605380D01*
X84669428Y-81605380D01*
X84526571Y-81557761D01*
X84431333Y-81462523D01*
X84383714Y-81367285D01*
X84336095Y-81176809D01*
X84336095Y-81033952D01*
X84383714Y-80843476D01*
X84431333Y-80748238D01*
X84526571Y-80653000D01*
X84669428Y-80605380D01*
X84764666Y-80605380D01*
X84907523Y-80653000D01*
X84955142Y-80700619D01*
X85907523Y-81605380D02*
X85336095Y-81605380D01*
X85621809Y-81605380D02*
X85621809Y-80605380D01*
X85526571Y-80748238D01*
X85431333Y-80843476D01*
X85336095Y-80891095D01*
X86859904Y-81605380D02*
X86288476Y-81605380D01*
X86574190Y-81605380D02*
X86574190Y-80605380D01*
X86478952Y-80748238D01*
X86383714Y-80843476D01*
X86288476Y-80891095D01*
X83637380Y-63436333D02*
X83161190Y-63769666D01*
X83637380Y-64007761D02*
X82637380Y-64007761D01*
X82637380Y-63626809D01*
X82685000Y-63531571D01*
X82732619Y-63483952D01*
X82827857Y-63436333D01*
X82970714Y-63436333D01*
X83065952Y-63483952D01*
X83113571Y-63531571D01*
X83161190Y-63626809D01*
X83161190Y-64007761D01*
X83113571Y-63007761D02*
X83113571Y-62674428D01*
X83637380Y-62531571D02*
X83637380Y-63007761D01*
X82637380Y-63007761D01*
X82637380Y-62531571D01*
X83113571Y-61769666D02*
X83113571Y-62103000D01*
X83637380Y-62103000D02*
X82637380Y-62103000D01*
X82637380Y-61626809D01*
X82637380Y-61103000D02*
X82875476Y-61103000D01*
X82780238Y-61341095D02*
X82875476Y-61103000D01*
X82780238Y-60864904D01*
X83065952Y-61245857D02*
X82875476Y-61103000D01*
X83065952Y-60960142D01*
X82637380Y-60341095D02*
X82875476Y-60341095D01*
X82780238Y-60579190D02*
X82875476Y-60341095D01*
X82780238Y-60103000D01*
X83065952Y-60483952D02*
X82875476Y-60341095D01*
X83065952Y-60198238D01*
X129103380Y-63309333D02*
X128627190Y-63642666D01*
X129103380Y-63880761D02*
X128103380Y-63880761D01*
X128103380Y-63499809D01*
X128151000Y-63404571D01*
X128198619Y-63356952D01*
X128293857Y-63309333D01*
X128436714Y-63309333D01*
X128531952Y-63356952D01*
X128579571Y-63404571D01*
X128627190Y-63499809D01*
X128627190Y-63880761D01*
X128579571Y-62880761D02*
X128579571Y-62547428D01*
X129103380Y-62404571D02*
X129103380Y-62880761D01*
X128103380Y-62880761D01*
X128103380Y-62404571D01*
X128579571Y-61642666D02*
X128579571Y-61976000D01*
X129103380Y-61976000D02*
X128103380Y-61976000D01*
X128103380Y-61499809D01*
X128103380Y-60976000D02*
X128341476Y-60976000D01*
X128246238Y-61214095D02*
X128341476Y-60976000D01*
X128246238Y-60737904D01*
X128531952Y-61118857D02*
X128341476Y-60976000D01*
X128531952Y-60833142D01*
X128103380Y-60214095D02*
X128341476Y-60214095D01*
X128246238Y-60452190D02*
X128341476Y-60214095D01*
X128246238Y-59976000D01*
X128531952Y-60356952D02*
X128341476Y-60214095D01*
X128531952Y-60071238D01*
X112966666Y-121347380D02*
X112633333Y-120871190D01*
X112395238Y-121347380D02*
X112395238Y-120347380D01*
X112776190Y-120347380D01*
X112871428Y-120395000D01*
X112919047Y-120442619D01*
X112966666Y-120537857D01*
X112966666Y-120680714D01*
X112919047Y-120775952D01*
X112871428Y-120823571D01*
X112776190Y-120871190D01*
X112395238Y-120871190D01*
X113395238Y-120823571D02*
X113728571Y-120823571D01*
X113871428Y-121347380D02*
X113395238Y-121347380D01*
X113395238Y-120347380D01*
X113871428Y-120347380D01*
X114633333Y-120823571D02*
X114300000Y-120823571D01*
X114300000Y-121347380D02*
X114300000Y-120347380D01*
X114776190Y-120347380D01*
X115300000Y-120347380D02*
X115300000Y-120585476D01*
X115061904Y-120490238D02*
X115300000Y-120585476D01*
X115538095Y-120490238D01*
X115157142Y-120775952D02*
X115300000Y-120585476D01*
X115442857Y-120775952D01*
X116061904Y-120347380D02*
X116061904Y-120585476D01*
X115823809Y-120490238D02*
X116061904Y-120585476D01*
X116300000Y-120490238D01*
X115919047Y-120775952D02*
X116061904Y-120585476D01*
X116204761Y-120775952D01*
X87566666Y-121347380D02*
X87233333Y-120871190D01*
X86995238Y-121347380D02*
X86995238Y-120347380D01*
X87376190Y-120347380D01*
X87471428Y-120395000D01*
X87519047Y-120442619D01*
X87566666Y-120537857D01*
X87566666Y-120680714D01*
X87519047Y-120775952D01*
X87471428Y-120823571D01*
X87376190Y-120871190D01*
X86995238Y-120871190D01*
X87995238Y-120823571D02*
X88328571Y-120823571D01*
X88471428Y-121347380D02*
X87995238Y-121347380D01*
X87995238Y-120347380D01*
X88471428Y-120347380D01*
X89233333Y-120823571D02*
X88900000Y-120823571D01*
X88900000Y-121347380D02*
X88900000Y-120347380D01*
X89376190Y-120347380D01*
X89900000Y-120347380D02*
X89900000Y-120585476D01*
X89661904Y-120490238D02*
X89900000Y-120585476D01*
X90138095Y-120490238D01*
X89757142Y-120775952D02*
X89900000Y-120585476D01*
X90042857Y-120775952D01*
X90661904Y-120347380D02*
X90661904Y-120585476D01*
X90423809Y-120490238D02*
X90661904Y-120585476D01*
X90900000Y-120490238D01*
X90519047Y-120775952D02*
X90661904Y-120585476D01*
X90804761Y-120775952D01*
X70782380Y-103203333D02*
X71496666Y-103203333D01*
X71639523Y-103250952D01*
X71734761Y-103346190D01*
X71782380Y-103489047D01*
X71782380Y-103584285D01*
X71782380Y-102203333D02*
X71782380Y-102774761D01*
X71782380Y-102489047D02*
X70782380Y-102489047D01*
X70925238Y-102584285D01*
X71020476Y-102679523D01*
X71068095Y-102774761D01*
X95554895Y-107935780D02*
X95554895Y-108745304D01*
X95602514Y-108840542D01*
X95650133Y-108888161D01*
X95745371Y-108935780D01*
X95935847Y-108935780D01*
X96031085Y-108888161D01*
X96078704Y-108840542D01*
X96126323Y-108745304D01*
X96126323Y-107935780D01*
X97031085Y-108269114D02*
X97031085Y-108935780D01*
X96792990Y-107888161D02*
X96554895Y-108602447D01*
X97173942Y-108602447D01*
X106984895Y-107910380D02*
X106984895Y-108719904D01*
X107032514Y-108815142D01*
X107080133Y-108862761D01*
X107175371Y-108910380D01*
X107365847Y-108910380D01*
X107461085Y-108862761D01*
X107508704Y-108815142D01*
X107556323Y-108719904D01*
X107556323Y-107910380D01*
X107937276Y-107910380D02*
X108556323Y-107910380D01*
X108222990Y-108291333D01*
X108365847Y-108291333D01*
X108461085Y-108338952D01*
X108508704Y-108386571D01*
X108556323Y-108481809D01*
X108556323Y-108719904D01*
X108508704Y-108815142D01*
X108461085Y-108862761D01*
X108365847Y-108910380D01*
X108080133Y-108910380D01*
X107984895Y-108862761D01*
X107937276Y-108815142D01*
X99796695Y-74407780D02*
X99796695Y-75217304D01*
X99844314Y-75312542D01*
X99891933Y-75360161D01*
X99987171Y-75407780D01*
X100177647Y-75407780D01*
X100272885Y-75360161D01*
X100320504Y-75312542D01*
X100368123Y-75217304D01*
X100368123Y-74407780D01*
X100796695Y-74503019D02*
X100844314Y-74455400D01*
X100939552Y-74407780D01*
X101177647Y-74407780D01*
X101272885Y-74455400D01*
X101320504Y-74503019D01*
X101368123Y-74598257D01*
X101368123Y-74693495D01*
X101320504Y-74836352D01*
X100749076Y-75407780D01*
X101368123Y-75407780D01*
X111226695Y-74407780D02*
X111226695Y-75217304D01*
X111274314Y-75312542D01*
X111321933Y-75360161D01*
X111417171Y-75407780D01*
X111607647Y-75407780D01*
X111702885Y-75360161D01*
X111750504Y-75312542D01*
X111798123Y-75217304D01*
X111798123Y-74407780D01*
X112798123Y-75407780D02*
X112226695Y-75407780D01*
X112512409Y-75407780D02*
X112512409Y-74407780D01*
X112417171Y-74550638D01*
X112321933Y-74645876D01*
X112226695Y-74693495D01*
D13*
X81310238Y-94148123D02*
X81310238Y-92878123D01*
X82640714Y-94027171D02*
X82580238Y-94087647D01*
X82398809Y-94148123D01*
X82277857Y-94148123D01*
X82096428Y-94087647D01*
X81975476Y-93966695D01*
X81915000Y-93845742D01*
X81854523Y-93603838D01*
X81854523Y-93422409D01*
X81915000Y-93180504D01*
X81975476Y-93059552D01*
X82096428Y-92938600D01*
X82277857Y-92878123D01*
X82398809Y-92878123D01*
X82580238Y-92938600D01*
X82640714Y-92999076D01*
X83850238Y-94148123D02*
X83124523Y-94148123D01*
X83487380Y-94148123D02*
X83487380Y-92878123D01*
X83366428Y-93059552D01*
X83245476Y-93180504D01*
X83124523Y-93240980D01*
D14*
X90302142Y-92395166D02*
X90349761Y-92442785D01*
X90397380Y-92585642D01*
X90397380Y-92680880D01*
X90349761Y-92823738D01*
X90254523Y-92918976D01*
X90159285Y-92966595D01*
X89968809Y-93014214D01*
X89825952Y-93014214D01*
X89635476Y-92966595D01*
X89540238Y-92918976D01*
X89445000Y-92823738D01*
X89397380Y-92680880D01*
X89397380Y-92585642D01*
X89445000Y-92442785D01*
X89492619Y-92395166D01*
X89397380Y-91538023D02*
X89397380Y-91728500D01*
X89445000Y-91823738D01*
X89492619Y-91871357D01*
X89635476Y-91966595D01*
X89825952Y-92014214D01*
X90206904Y-92014214D01*
X90302142Y-91966595D01*
X90349761Y-91918976D01*
X90397380Y-91823738D01*
X90397380Y-91633261D01*
X90349761Y-91538023D01*
X90302142Y-91490404D01*
X90206904Y-91442785D01*
X89968809Y-91442785D01*
X89873571Y-91490404D01*
X89825952Y-91538023D01*
X89778333Y-91633261D01*
X89778333Y-91823738D01*
X89825952Y-91918976D01*
X89873571Y-91966595D01*
X89968809Y-92014214D01*
X84145380Y-106021095D02*
X83145380Y-106021095D01*
X83145380Y-105783000D01*
X83193000Y-105640142D01*
X83288238Y-105544904D01*
X83383476Y-105497285D01*
X83573952Y-105449666D01*
X83716809Y-105449666D01*
X83907285Y-105497285D01*
X84002523Y-105544904D01*
X84097761Y-105640142D01*
X84145380Y-105783000D01*
X84145380Y-106021095D01*
X84145380Y-104497285D02*
X84145380Y-105068714D01*
X84145380Y-104783000D02*
X83145380Y-104783000D01*
X83288238Y-104878238D01*
X83383476Y-104973476D01*
X83431095Y-105068714D01*
X88479333Y-104084380D02*
X88146000Y-103608190D01*
X87907904Y-104084380D02*
X87907904Y-103084380D01*
X88288857Y-103084380D01*
X88384095Y-103132000D01*
X88431714Y-103179619D01*
X88479333Y-103274857D01*
X88479333Y-103417714D01*
X88431714Y-103512952D01*
X88384095Y-103560571D01*
X88288857Y-103608190D01*
X87907904Y-103608190D01*
X89384095Y-103084380D02*
X88907904Y-103084380D01*
X88860285Y-103560571D01*
X88907904Y-103512952D01*
X89003142Y-103465333D01*
X89241238Y-103465333D01*
X89336476Y-103512952D01*
X89384095Y-103560571D01*
X89431714Y-103655809D01*
X89431714Y-103893904D01*
X89384095Y-103989142D01*
X89336476Y-104036761D01*
X89241238Y-104084380D01*
X89003142Y-104084380D01*
X88907904Y-104036761D01*
X88860285Y-103989142D01*
X88479333Y-102433380D02*
X88146000Y-101957190D01*
X87907904Y-102433380D02*
X87907904Y-101433380D01*
X88288857Y-101433380D01*
X88384095Y-101481000D01*
X88431714Y-101528619D01*
X88479333Y-101623857D01*
X88479333Y-101766714D01*
X88431714Y-101861952D01*
X88384095Y-101909571D01*
X88288857Y-101957190D01*
X87907904Y-101957190D01*
X89336476Y-101766714D02*
X89336476Y-102433380D01*
X89098380Y-101385761D02*
X88860285Y-102100047D01*
X89479333Y-102100047D01*
X78716142Y-101766666D02*
X78763761Y-101814285D01*
X78811380Y-101957142D01*
X78811380Y-102052380D01*
X78763761Y-102195238D01*
X78668523Y-102290476D01*
X78573285Y-102338095D01*
X78382809Y-102385714D01*
X78239952Y-102385714D01*
X78049476Y-102338095D01*
X77954238Y-102290476D01*
X77859000Y-102195238D01*
X77811380Y-102052380D01*
X77811380Y-101957142D01*
X77859000Y-101814285D01*
X77906619Y-101766666D01*
X77811380Y-101433333D02*
X77811380Y-100814285D01*
X78192333Y-101147619D01*
X78192333Y-101004761D01*
X78239952Y-100909523D01*
X78287571Y-100861904D01*
X78382809Y-100814285D01*
X78620904Y-100814285D01*
X78716142Y-100861904D01*
X78763761Y-100909523D01*
X78811380Y-101004761D01*
X78811380Y-101290476D01*
X78763761Y-101385714D01*
X78716142Y-101433333D01*
X78716142Y-99734666D02*
X78763761Y-99782285D01*
X78811380Y-99925142D01*
X78811380Y-100020380D01*
X78763761Y-100163238D01*
X78668523Y-100258476D01*
X78573285Y-100306095D01*
X78382809Y-100353714D01*
X78239952Y-100353714D01*
X78049476Y-100306095D01*
X77954238Y-100258476D01*
X77859000Y-100163238D01*
X77811380Y-100020380D01*
X77811380Y-99925142D01*
X77859000Y-99782285D01*
X77906619Y-99734666D01*
X78811380Y-99258476D02*
X78811380Y-99068000D01*
X78763761Y-98972761D01*
X78716142Y-98925142D01*
X78573285Y-98829904D01*
X78382809Y-98782285D01*
X78001857Y-98782285D01*
X77906619Y-98829904D01*
X77859000Y-98877523D01*
X77811380Y-98972761D01*
X77811380Y-99163238D01*
X77859000Y-99258476D01*
X77906619Y-99306095D01*
X78001857Y-99353714D01*
X78239952Y-99353714D01*
X78335190Y-99306095D01*
X78382809Y-99258476D01*
X78430428Y-99163238D01*
X78430428Y-98972761D01*
X78382809Y-98877523D01*
X78335190Y-98829904D01*
X78239952Y-98782285D01*
X83449033Y-85972942D02*
X83401414Y-86020561D01*
X83258557Y-86068180D01*
X83163319Y-86068180D01*
X83020461Y-86020561D01*
X82925223Y-85925323D01*
X82877604Y-85830085D01*
X82829985Y-85639609D01*
X82829985Y-85496752D01*
X82877604Y-85306276D01*
X82925223Y-85211038D01*
X83020461Y-85115800D01*
X83163319Y-85068180D01*
X83258557Y-85068180D01*
X83401414Y-85115800D01*
X83449033Y-85163419D01*
X84353795Y-85068180D02*
X83877604Y-85068180D01*
X83829985Y-85544371D01*
X83877604Y-85496752D01*
X83972842Y-85449133D01*
X84210938Y-85449133D01*
X84306176Y-85496752D01*
X84353795Y-85544371D01*
X84401414Y-85639609D01*
X84401414Y-85877704D01*
X84353795Y-85972942D01*
X84306176Y-86020561D01*
X84210938Y-86068180D01*
X83972842Y-86068180D01*
X83877604Y-86020561D01*
X83829985Y-85972942D01*
X78716142Y-103671666D02*
X78763761Y-103719285D01*
X78811380Y-103862142D01*
X78811380Y-103957380D01*
X78763761Y-104100238D01*
X78668523Y-104195476D01*
X78573285Y-104243095D01*
X78382809Y-104290714D01*
X78239952Y-104290714D01*
X78049476Y-104243095D01*
X77954238Y-104195476D01*
X77859000Y-104100238D01*
X77811380Y-103957380D01*
X77811380Y-103862142D01*
X77859000Y-103719285D01*
X77906619Y-103671666D01*
X78144714Y-102814523D02*
X78811380Y-102814523D01*
X77763761Y-103052619D02*
X78478047Y-103290714D01*
X78478047Y-102671666D01*
X73366333Y-94464142D02*
X73318714Y-94511761D01*
X73175857Y-94559380D01*
X73080619Y-94559380D01*
X72937761Y-94511761D01*
X72842523Y-94416523D01*
X72794904Y-94321285D01*
X72747285Y-94130809D01*
X72747285Y-93987952D01*
X72794904Y-93797476D01*
X72842523Y-93702238D01*
X72937761Y-93607000D01*
X73080619Y-93559380D01*
X73175857Y-93559380D01*
X73318714Y-93607000D01*
X73366333Y-93654619D01*
X73747285Y-93654619D02*
X73794904Y-93607000D01*
X73890142Y-93559380D01*
X74128238Y-93559380D01*
X74223476Y-93607000D01*
X74271095Y-93654619D01*
X74318714Y-93749857D01*
X74318714Y-93845095D01*
X74271095Y-93987952D01*
X73699666Y-94559380D01*
X74318714Y-94559380D01*
X73366333Y-91289142D02*
X73318714Y-91336761D01*
X73175857Y-91384380D01*
X73080619Y-91384380D01*
X72937761Y-91336761D01*
X72842523Y-91241523D01*
X72794904Y-91146285D01*
X72747285Y-90955809D01*
X72747285Y-90812952D01*
X72794904Y-90622476D01*
X72842523Y-90527238D01*
X72937761Y-90432000D01*
X73080619Y-90384380D01*
X73175857Y-90384380D01*
X73318714Y-90432000D01*
X73366333Y-90479619D01*
X74318714Y-91384380D02*
X73747285Y-91384380D01*
X74033000Y-91384380D02*
X74033000Y-90384380D01*
X73937761Y-90527238D01*
X73842523Y-90622476D01*
X73747285Y-90670095D01*
X73493333Y-96337380D02*
X73160000Y-95861190D01*
X72921904Y-96337380D02*
X72921904Y-95337380D01*
X73302857Y-95337380D01*
X73398095Y-95385000D01*
X73445714Y-95432619D01*
X73493333Y-95527857D01*
X73493333Y-95670714D01*
X73445714Y-95765952D01*
X73398095Y-95813571D01*
X73302857Y-95861190D01*
X72921904Y-95861190D01*
X74445714Y-96337380D02*
X73874285Y-96337380D01*
X74160000Y-96337380D02*
X74160000Y-95337380D01*
X74064761Y-95480238D01*
X73969523Y-95575476D01*
X73874285Y-95623095D01*
X80019233Y-86177380D02*
X79685900Y-85701190D01*
X79447804Y-86177380D02*
X79447804Y-85177380D01*
X79828757Y-85177380D01*
X79923995Y-85225000D01*
X79971614Y-85272619D01*
X80019233Y-85367857D01*
X80019233Y-85510714D01*
X79971614Y-85605952D01*
X79923995Y-85653571D01*
X79828757Y-85701190D01*
X79447804Y-85701190D01*
X80352566Y-85177380D02*
X80971614Y-85177380D01*
X80638280Y-85558333D01*
X80781138Y-85558333D01*
X80876376Y-85605952D01*
X80923995Y-85653571D01*
X80971614Y-85748809D01*
X80971614Y-85986904D01*
X80923995Y-86082142D01*
X80876376Y-86129761D01*
X80781138Y-86177380D01*
X80495423Y-86177380D01*
X80400185Y-86129761D01*
X80352566Y-86082142D01*
X73239333Y-89479380D02*
X72906000Y-89003190D01*
X72667904Y-89479380D02*
X72667904Y-88479380D01*
X73048857Y-88479380D01*
X73144095Y-88527000D01*
X73191714Y-88574619D01*
X73239333Y-88669857D01*
X73239333Y-88812714D01*
X73191714Y-88907952D01*
X73144095Y-88955571D01*
X73048857Y-89003190D01*
X72667904Y-89003190D01*
X73620285Y-88574619D02*
X73667904Y-88527000D01*
X73763142Y-88479380D01*
X74001238Y-88479380D01*
X74096476Y-88527000D01*
X74144095Y-88574619D01*
X74191714Y-88669857D01*
X74191714Y-88765095D01*
X74144095Y-88907952D01*
X73572666Y-89479380D01*
X74191714Y-89479380D01*
X94008180Y-117897566D02*
X93531990Y-118230900D01*
X94008180Y-118468995D02*
X93008180Y-118468995D01*
X93008180Y-118088042D01*
X93055800Y-117992804D01*
X93103419Y-117945185D01*
X93198657Y-117897566D01*
X93341514Y-117897566D01*
X93436752Y-117945185D01*
X93484371Y-117992804D01*
X93531990Y-118088042D01*
X93531990Y-118468995D01*
X94008180Y-117421376D02*
X94008180Y-117230900D01*
X93960561Y-117135661D01*
X93912942Y-117088042D01*
X93770085Y-116992804D01*
X93579609Y-116945185D01*
X93198657Y-116945185D01*
X93103419Y-116992804D01*
X93055800Y-117040423D01*
X93008180Y-117135661D01*
X93008180Y-117326138D01*
X93055800Y-117421376D01*
X93103419Y-117468995D01*
X93198657Y-117516614D01*
X93436752Y-117516614D01*
X93531990Y-117468995D01*
X93579609Y-117421376D01*
X93627228Y-117326138D01*
X93627228Y-117135661D01*
X93579609Y-117040423D01*
X93531990Y-116992804D01*
X93436752Y-116945185D01*
X105412780Y-117897566D02*
X104936590Y-118230900D01*
X105412780Y-118468995D02*
X104412780Y-118468995D01*
X104412780Y-118088042D01*
X104460400Y-117992804D01*
X104508019Y-117945185D01*
X104603257Y-117897566D01*
X104746114Y-117897566D01*
X104841352Y-117945185D01*
X104888971Y-117992804D01*
X104936590Y-118088042D01*
X104936590Y-118468995D01*
X104841352Y-117326138D02*
X104793733Y-117421376D01*
X104746114Y-117468995D01*
X104650876Y-117516614D01*
X104603257Y-117516614D01*
X104508019Y-117468995D01*
X104460400Y-117421376D01*
X104412780Y-117326138D01*
X104412780Y-117135661D01*
X104460400Y-117040423D01*
X104508019Y-116992804D01*
X104603257Y-116945185D01*
X104650876Y-116945185D01*
X104746114Y-116992804D01*
X104793733Y-117040423D01*
X104841352Y-117135661D01*
X104841352Y-117326138D01*
X104888971Y-117421376D01*
X104936590Y-117468995D01*
X105031828Y-117516614D01*
X105222304Y-117516614D01*
X105317542Y-117468995D01*
X105365161Y-117421376D01*
X105412780Y-117326138D01*
X105412780Y-117135661D01*
X105365161Y-117040423D01*
X105317542Y-116992804D01*
X105222304Y-116945185D01*
X105031828Y-116945185D01*
X104936590Y-116992804D01*
X104888971Y-117040423D01*
X104841352Y-117135661D01*
X94226142Y-85194380D02*
X93892809Y-84718190D01*
X93654714Y-85194380D02*
X93654714Y-84194380D01*
X94035666Y-84194380D01*
X94130904Y-84242000D01*
X94178523Y-84289619D01*
X94226142Y-84384857D01*
X94226142Y-84527714D01*
X94178523Y-84622952D01*
X94130904Y-84670571D01*
X94035666Y-84718190D01*
X93654714Y-84718190D01*
X95178523Y-85194380D02*
X94607095Y-85194380D01*
X94892809Y-85194380D02*
X94892809Y-84194380D01*
X94797571Y-84337238D01*
X94702333Y-84432476D01*
X94607095Y-84480095D01*
X96130904Y-85194380D02*
X95559476Y-85194380D01*
X95845190Y-85194380D02*
X95845190Y-84194380D01*
X95749952Y-84337238D01*
X95654714Y-84432476D01*
X95559476Y-84480095D01*
X106418142Y-84432380D02*
X106084809Y-83956190D01*
X105846714Y-84432380D02*
X105846714Y-83432380D01*
X106227666Y-83432380D01*
X106322904Y-83480000D01*
X106370523Y-83527619D01*
X106418142Y-83622857D01*
X106418142Y-83765714D01*
X106370523Y-83860952D01*
X106322904Y-83908571D01*
X106227666Y-83956190D01*
X105846714Y-83956190D01*
X107370523Y-84432380D02*
X106799095Y-84432380D01*
X107084809Y-84432380D02*
X107084809Y-83432380D01*
X106989571Y-83575238D01*
X106894333Y-83670476D01*
X106799095Y-83718095D01*
X107989571Y-83432380D02*
X108084809Y-83432380D01*
X108180047Y-83480000D01*
X108227666Y-83527619D01*
X108275285Y-83622857D01*
X108322904Y-83813333D01*
X108322904Y-84051428D01*
X108275285Y-84241904D01*
X108227666Y-84337142D01*
X108180047Y-84384761D01*
X108084809Y-84432380D01*
X107989571Y-84432380D01*
X107894333Y-84384761D01*
X107846714Y-84337142D01*
X107799095Y-84241904D01*
X107751476Y-84051428D01*
X107751476Y-83813333D01*
X107799095Y-83622857D01*
X107846714Y-83527619D01*
X107894333Y-83480000D01*
X107989571Y-83432380D01*
X92797333Y-79065380D02*
X92464000Y-78589190D01*
X92225904Y-79065380D02*
X92225904Y-78065380D01*
X92606857Y-78065380D01*
X92702095Y-78113000D01*
X92749714Y-78160619D01*
X92797333Y-78255857D01*
X92797333Y-78398714D01*
X92749714Y-78493952D01*
X92702095Y-78541571D01*
X92606857Y-78589190D01*
X92225904Y-78589190D01*
X93130666Y-78065380D02*
X93797333Y-78065380D01*
X93368761Y-79065380D01*
X92035333Y-83637380D02*
X91702000Y-83161190D01*
X91463904Y-83637380D02*
X91463904Y-82637380D01*
X91844857Y-82637380D01*
X91940095Y-82685000D01*
X91987714Y-82732619D01*
X92035333Y-82827857D01*
X92035333Y-82970714D01*
X91987714Y-83065952D01*
X91940095Y-83113571D01*
X91844857Y-83161190D01*
X91463904Y-83161190D01*
X92892476Y-82637380D02*
X92702000Y-82637380D01*
X92606761Y-82685000D01*
X92559142Y-82732619D01*
X92463904Y-82875476D01*
X92416285Y-83065952D01*
X92416285Y-83446904D01*
X92463904Y-83542142D01*
X92511523Y-83589761D01*
X92606761Y-83637380D01*
X92797238Y-83637380D01*
X92892476Y-83589761D01*
X92940095Y-83542142D01*
X92987714Y-83446904D01*
X92987714Y-83208809D01*
X92940095Y-83113571D01*
X92892476Y-83065952D01*
X92797238Y-83018333D01*
X92606761Y-83018333D01*
X92511523Y-83065952D01*
X92463904Y-83113571D01*
X92416285Y-83208809D01*
X89471780Y-81546895D02*
X88471780Y-81546895D01*
X88471780Y-81308800D01*
X88519400Y-81165942D01*
X88614638Y-81070704D01*
X88709876Y-81023085D01*
X88900352Y-80975466D01*
X89043209Y-80975466D01*
X89233685Y-81023085D01*
X89328923Y-81070704D01*
X89424161Y-81165942D01*
X89471780Y-81308800D01*
X89471780Y-81546895D01*
X88567019Y-80594514D02*
X88519400Y-80546895D01*
X88471780Y-80451657D01*
X88471780Y-80213561D01*
X88519400Y-80118323D01*
X88567019Y-80070704D01*
X88662257Y-80023085D01*
X88757495Y-80023085D01*
X88900352Y-80070704D01*
X89471780Y-80642133D01*
X89471780Y-80023085D01*
M02*
