%TF.GenerationSoftware,KiCad,Pcbnew,(5.1.9)-1*%
%TF.CreationDate,2021-04-16T14:35:26+02:00*%
%TF.ProjectId,Inverter,496e7665-7274-4657-922e-6b696361645f,rev?*%
%TF.SameCoordinates,Original*%
%TF.FileFunction,Legend,Top*%
%TF.FilePolarity,Positive*%
%FSLAX46Y46*%
G04 Gerber Fmt 4.6, Leading zero omitted, Abs format (unit mm)*
G04 Created by KiCad (PCBNEW (5.1.9)-1) date 2021-04-16 14:35:26*
%MOMM*%
%LPD*%
G01*
G04 APERTURE LIST*
%ADD10C,0.200000*%
%ADD11C,0.120000*%
%ADD12C,0.152400*%
%ADD13C,0.254000*%
%ADD14C,0.150000*%
G04 APERTURE END LIST*
D10*
%TO.C,U\u002A\u002A*%
X124205000Y-125295000D02*
X124205000Y-125295000D01*
X124405000Y-125295000D02*
X124405000Y-125295000D01*
X124405000Y-125295000D02*
G75*
G02*
X124205000Y-125295000I-100000J0D01*
G01*
X124205000Y-125295000D02*
G75*
G02*
X124405000Y-125295000I100000J0D01*
G01*
X97100000Y-125295000D02*
X97100000Y-125295000D01*
X96900000Y-125295000D02*
X96900000Y-125295000D01*
X96900000Y-125295000D02*
G75*
G02*
X97100000Y-125295000I100000J0D01*
G01*
X97100000Y-125295000D02*
G75*
G02*
X96900000Y-125295000I-100000J0D01*
G01*
X69595000Y-125295000D02*
X69595000Y-125295000D01*
X69795000Y-125295000D02*
X69795000Y-125295000D01*
X69795000Y-125295000D02*
G75*
G02*
X69595000Y-125295000I-100000J0D01*
G01*
X69595000Y-125295000D02*
G75*
G02*
X69795000Y-125295000I100000J0D01*
G01*
X112975000Y-93291000D02*
X112975000Y-93291000D01*
X112775000Y-93291000D02*
X112775000Y-93291000D01*
X112775000Y-93291000D02*
G75*
G02*
X112975000Y-93291000I100000J0D01*
G01*
X112975000Y-93291000D02*
G75*
G02*
X112775000Y-93291000I-100000J0D01*
G01*
X102615000Y-93291000D02*
X102615000Y-93291000D01*
X102815000Y-93291000D02*
X102815000Y-93291000D01*
X102815000Y-93291000D02*
G75*
G02*
X102615000Y-93291000I-100000J0D01*
G01*
X102615000Y-93291000D02*
G75*
G02*
X102815000Y-93291000I100000J0D01*
G01*
X92655000Y-93291000D02*
X92655000Y-93291000D01*
X92455000Y-93291000D02*
X92455000Y-93291000D01*
X92455000Y-93291000D02*
G75*
G02*
X92655000Y-93291000I100000J0D01*
G01*
X92655000Y-93291000D02*
G75*
G02*
X92455000Y-93291000I-100000J0D01*
G01*
X110108000Y-62557000D02*
X110108000Y-62557000D01*
X110308000Y-62557000D02*
X110308000Y-62557000D01*
X110308000Y-62557000D02*
G75*
G02*
X110108000Y-62557000I-100000J0D01*
G01*
X110108000Y-62557000D02*
G75*
G02*
X110308000Y-62557000I100000J0D01*
G01*
X100148000Y-62557000D02*
X100148000Y-62557000D01*
X99948000Y-62557000D02*
X99948000Y-62557000D01*
X99948000Y-62557000D02*
G75*
G02*
X100148000Y-62557000I100000J0D01*
G01*
X100148000Y-62557000D02*
G75*
G02*
X99948000Y-62557000I-100000J0D01*
G01*
X89788000Y-62557000D02*
X89788000Y-62557000D01*
X89988000Y-62557000D02*
X89988000Y-62557000D01*
X89988000Y-62557000D02*
G75*
G02*
X89788000Y-62557000I-100000J0D01*
G01*
X89788000Y-62557000D02*
G75*
G02*
X89988000Y-62557000I100000J0D01*
G01*
D11*
%TO.C,C19*%
X69702000Y-77012748D02*
X69702000Y-78435252D01*
X71522000Y-77012748D02*
X71522000Y-78435252D01*
%TO.C,C18*%
X72750000Y-77012748D02*
X72750000Y-78435252D01*
X74570000Y-77012748D02*
X74570000Y-78435252D01*
%TO.C,C17*%
X81767000Y-77012748D02*
X81767000Y-78435252D01*
X83587000Y-77012748D02*
X83587000Y-78435252D01*
%TO.C,C16*%
X75798000Y-77012748D02*
X75798000Y-78435252D01*
X77618000Y-77012748D02*
X77618000Y-78435252D01*
%TO.C,C10*%
X78719000Y-77012748D02*
X78719000Y-78435252D01*
X80539000Y-77012748D02*
X80539000Y-78435252D01*
%TO.C,R13*%
X122195000Y-101819064D02*
X122195000Y-100364936D01*
X120375000Y-101819064D02*
X120375000Y-100364936D01*
%TO.C,R12*%
X121687000Y-80102064D02*
X121687000Y-78647936D01*
X119867000Y-80102064D02*
X119867000Y-78647936D01*
%TO.C,C8*%
X123550000Y-100380748D02*
X123550000Y-101803252D01*
X125370000Y-100380748D02*
X125370000Y-101803252D01*
%TO.C,C7*%
X123677000Y-78663748D02*
X123677000Y-80086252D01*
X125497000Y-78663748D02*
X125497000Y-80086252D01*
%TO.C,C15*%
X131805000Y-92405148D02*
X131805000Y-93827652D01*
X133625000Y-92405148D02*
X133625000Y-93827652D01*
%TO.C,C14*%
X129265000Y-92405148D02*
X129265000Y-93827652D01*
X131085000Y-92405148D02*
X131085000Y-93827652D01*
%TO.C,C13*%
X126725000Y-92405148D02*
X126725000Y-93827652D01*
X128545000Y-92405148D02*
X128545000Y-93827652D01*
%TO.C,C12*%
X124185000Y-92405148D02*
X124185000Y-93827652D01*
X126005000Y-92405148D02*
X126005000Y-93827652D01*
%TO.C,C11*%
X84815000Y-77012748D02*
X84815000Y-78435252D01*
X86635000Y-77012748D02*
X86635000Y-78435252D01*
%TO.C,J1*%
X72330000Y-105470000D02*
X72330000Y-100270000D01*
X77530000Y-105470000D02*
X77530000Y-100270000D01*
X72900000Y-106910000D02*
X72900000Y-105470000D01*
X72330000Y-105470000D02*
X72900000Y-105470000D01*
X72330000Y-100270000D02*
X72900000Y-100270000D01*
X76960000Y-105470000D02*
X77530000Y-105470000D01*
X76960000Y-100270000D02*
X77530000Y-100270000D01*
X74420000Y-105470000D02*
X75440000Y-105470000D01*
X74420000Y-100270000D02*
X75440000Y-100270000D01*
D12*
%TO.C,U4*%
X101294039Y-113906300D02*
X101498400Y-113906300D01*
X91135200Y-109915288D02*
X91135200Y-113906300D01*
X101498400Y-113906300D02*
X101498400Y-109915288D01*
X91135200Y-113906300D02*
X91339561Y-113906300D01*
X96951800Y-101155500D02*
X95681800Y-101155500D01*
X96316800Y-100393500D02*
X96189800Y-101155500D01*
X96316800Y-100393500D02*
X96062800Y-101155500D01*
X96316800Y-100393500D02*
X95935800Y-101155500D01*
X96316800Y-100393500D02*
X95808800Y-101155500D01*
X96316800Y-100393500D02*
X95681800Y-101155500D01*
X96316800Y-100393500D02*
X96443800Y-101155500D01*
X96316800Y-100393500D02*
X96570800Y-101155500D01*
X96316800Y-100393500D02*
X96697800Y-101155500D01*
X96316800Y-100393500D02*
X96824800Y-101155500D01*
X96316800Y-100393500D02*
X96951800Y-101155500D01*
X96951800Y-100393500D02*
X95681800Y-100393500D01*
X96316800Y-101409500D02*
X96316800Y-100139500D01*
%TO.C,U3*%
X112724039Y-113880900D02*
X112928400Y-113880900D01*
X102565200Y-109889888D02*
X102565200Y-113880900D01*
X112928400Y-113880900D02*
X112928400Y-109889888D01*
X102565200Y-113880900D02*
X102769561Y-113880900D01*
X108381800Y-101130100D02*
X107111800Y-101130100D01*
X107746800Y-100368100D02*
X107619800Y-101130100D01*
X107746800Y-100368100D02*
X107492800Y-101130100D01*
X107746800Y-100368100D02*
X107365800Y-101130100D01*
X107746800Y-100368100D02*
X107238800Y-101130100D01*
X107746800Y-100368100D02*
X107111800Y-101130100D01*
X107746800Y-100368100D02*
X107873800Y-101130100D01*
X107746800Y-100368100D02*
X108000800Y-101130100D01*
X107746800Y-100368100D02*
X108127800Y-101130100D01*
X107746800Y-100368100D02*
X108254800Y-101130100D01*
X107746800Y-100368100D02*
X108381800Y-101130100D01*
X108381800Y-100368100D02*
X107111800Y-100368100D01*
X107746800Y-101384100D02*
X107746800Y-100114100D01*
%TO.C,U2*%
X105535839Y-80378300D02*
X105740200Y-80378300D01*
X95377000Y-76387288D02*
X95377000Y-80378300D01*
X105740200Y-80378300D02*
X105740200Y-76387288D01*
X95377000Y-80378300D02*
X95581361Y-80378300D01*
X101193600Y-67627500D02*
X99923600Y-67627500D01*
X100558600Y-66865500D02*
X100431600Y-67627500D01*
X100558600Y-66865500D02*
X100304600Y-67627500D01*
X100558600Y-66865500D02*
X100177600Y-67627500D01*
X100558600Y-66865500D02*
X100050600Y-67627500D01*
X100558600Y-66865500D02*
X99923600Y-67627500D01*
X100558600Y-66865500D02*
X100685600Y-67627500D01*
X100558600Y-66865500D02*
X100812600Y-67627500D01*
X100558600Y-66865500D02*
X100939600Y-67627500D01*
X100558600Y-66865500D02*
X101066600Y-67627500D01*
X100558600Y-66865500D02*
X101193600Y-67627500D01*
X101193600Y-66865500D02*
X99923600Y-66865500D01*
X100558600Y-67881500D02*
X100558600Y-66611500D01*
%TO.C,U1*%
X116965839Y-80378300D02*
X117170200Y-80378300D01*
X106807000Y-76387288D02*
X106807000Y-80378300D01*
X117170200Y-80378300D02*
X117170200Y-76387288D01*
X106807000Y-80378300D02*
X107011361Y-80378300D01*
X112623600Y-67627500D02*
X111353600Y-67627500D01*
X111988600Y-66865500D02*
X111861600Y-67627500D01*
X111988600Y-66865500D02*
X111734600Y-67627500D01*
X111988600Y-66865500D02*
X111607600Y-67627500D01*
X111988600Y-66865500D02*
X111480600Y-67627500D01*
X111988600Y-66865500D02*
X111353600Y-67627500D01*
X111988600Y-66865500D02*
X112115600Y-67627500D01*
X111988600Y-66865500D02*
X112242600Y-67627500D01*
X111988600Y-66865500D02*
X112369600Y-67627500D01*
X111988600Y-66865500D02*
X112496600Y-67627500D01*
X111988600Y-66865500D02*
X112623600Y-67627500D01*
X112623600Y-66865500D02*
X111353600Y-66865500D01*
X111988600Y-67881500D02*
X111988600Y-66611500D01*
D10*
%TO.C,IC1*%
X79075000Y-89063600D02*
X80600000Y-89063600D01*
X80950000Y-97898600D02*
X80950000Y-89248600D01*
X84150000Y-97898600D02*
X80950000Y-97898600D01*
X84150000Y-89248600D02*
X84150000Y-97898600D01*
X80950000Y-89248600D02*
X84150000Y-89248600D01*
D11*
%TO.C,C6*%
X87530000Y-91967248D02*
X87530000Y-92489752D01*
X89000000Y-91967248D02*
X89000000Y-92489752D01*
%TO.C,D1*%
X84275600Y-103503600D02*
X84275600Y-101043600D01*
X84275600Y-101043600D02*
X82805600Y-101043600D01*
X82805600Y-101043600D02*
X82805600Y-103503600D01*
%TO.C,R5*%
X86333424Y-104078300D02*
X85823976Y-104078300D01*
X86333424Y-103033300D02*
X85823976Y-103033300D01*
%TO.C,R4*%
X86311824Y-102478100D02*
X85802376Y-102478100D01*
X86311824Y-101433100D02*
X85802376Y-101433100D01*
%TO.C,C3*%
X80498733Y-101090000D02*
X80791267Y-101090000D01*
X80498733Y-102110000D02*
X80791267Y-102110000D01*
%TO.C,C9*%
X80498733Y-99185000D02*
X80791267Y-99185000D01*
X80498733Y-100205000D02*
X80791267Y-100205000D01*
%TO.C,C5*%
X83469433Y-86535800D02*
X83761967Y-86535800D01*
X83469433Y-87555800D02*
X83761967Y-87555800D01*
%TO.C,C4*%
X80791267Y-104015000D02*
X80498733Y-104015000D01*
X80791267Y-102995000D02*
X80498733Y-102995000D01*
%TO.C,C2*%
X76346267Y-94490000D02*
X76053733Y-94490000D01*
X76346267Y-93470000D02*
X76053733Y-93470000D01*
%TO.C,C1*%
X76346267Y-91315000D02*
X76053733Y-91315000D01*
X76346267Y-90295000D02*
X76053733Y-90295000D01*
%TO.C,R1*%
X76454724Y-96407500D02*
X75945276Y-96407500D01*
X76454724Y-95362500D02*
X75945276Y-95362500D01*
%TO.C,R3*%
X80440624Y-87568300D02*
X79931176Y-87568300D01*
X80440624Y-86523300D02*
X79931176Y-86523300D01*
%TO.C,R2*%
X75945276Y-88377500D02*
X76454724Y-88377500D01*
X75945276Y-89422500D02*
X76454724Y-89422500D01*
%TO.C,R9*%
X92648300Y-117476176D02*
X92648300Y-117985624D01*
X91603300Y-117476176D02*
X91603300Y-117985624D01*
%TO.C,R8*%
X104052900Y-117476176D02*
X104052900Y-117985624D01*
X103007900Y-117476176D02*
X103007900Y-117985624D01*
%TO.C,R11*%
X95123724Y-83834500D02*
X94614276Y-83834500D01*
X95123724Y-82789500D02*
X94614276Y-82789500D01*
%TO.C,R10*%
X107315724Y-83072500D02*
X106806276Y-83072500D01*
X107315724Y-82027500D02*
X106806276Y-82027500D01*
%TO.C,R7*%
X93267624Y-80583300D02*
X92758176Y-80583300D01*
X93267624Y-79538300D02*
X92758176Y-79538300D01*
%TO.C,R6*%
X93271424Y-82132700D02*
X92761976Y-82132700D01*
X93271424Y-81087700D02*
X92761976Y-81087700D01*
%TO.C,D2*%
X89714400Y-80008800D02*
X89714400Y-82468800D01*
X89714400Y-82468800D02*
X91184400Y-82468800D01*
X91184400Y-82468800D02*
X91184400Y-80008800D01*
%TO.C,U\u002A\u002A*%
D13*
X127574523Y-124399523D02*
X127574523Y-125427619D01*
X127635000Y-125548571D01*
X127695476Y-125609047D01*
X127816428Y-125669523D01*
X128058333Y-125669523D01*
X128179285Y-125609047D01*
X128239761Y-125548571D01*
X128300238Y-125427619D01*
X128300238Y-124399523D01*
X129086428Y-124399523D02*
X129086428Y-124701904D01*
X128784047Y-124580952D02*
X129086428Y-124701904D01*
X129388809Y-124580952D01*
X128905000Y-124943809D02*
X129086428Y-124701904D01*
X129267857Y-124943809D01*
X130054047Y-124399523D02*
X130054047Y-124701904D01*
X129751666Y-124580952D02*
X130054047Y-124701904D01*
X130356428Y-124580952D01*
X129872619Y-124943809D02*
X130054047Y-124701904D01*
X130235476Y-124943809D01*
X100269523Y-124399523D02*
X100269523Y-125427619D01*
X100330000Y-125548571D01*
X100390476Y-125609047D01*
X100511428Y-125669523D01*
X100753333Y-125669523D01*
X100874285Y-125609047D01*
X100934761Y-125548571D01*
X100995238Y-125427619D01*
X100995238Y-124399523D01*
X101781428Y-124399523D02*
X101781428Y-124701904D01*
X101479047Y-124580952D02*
X101781428Y-124701904D01*
X102083809Y-124580952D01*
X101600000Y-124943809D02*
X101781428Y-124701904D01*
X101962857Y-124943809D01*
X102749047Y-124399523D02*
X102749047Y-124701904D01*
X102446666Y-124580952D02*
X102749047Y-124701904D01*
X103051428Y-124580952D01*
X102567619Y-124943809D02*
X102749047Y-124701904D01*
X102930476Y-124943809D01*
X72964523Y-124399523D02*
X72964523Y-125427619D01*
X73025000Y-125548571D01*
X73085476Y-125609047D01*
X73206428Y-125669523D01*
X73448333Y-125669523D01*
X73569285Y-125609047D01*
X73629761Y-125548571D01*
X73690238Y-125427619D01*
X73690238Y-124399523D01*
X74476428Y-124399523D02*
X74476428Y-124701904D01*
X74174047Y-124580952D02*
X74476428Y-124701904D01*
X74778809Y-124580952D01*
X74295000Y-124943809D02*
X74476428Y-124701904D01*
X74657857Y-124943809D01*
X75444047Y-124399523D02*
X75444047Y-124701904D01*
X75141666Y-124580952D02*
X75444047Y-124701904D01*
X75746428Y-124580952D01*
X75262619Y-124943809D02*
X75444047Y-124701904D01*
X75625476Y-124943809D01*
X116144523Y-92395523D02*
X116144523Y-93423619D01*
X116205000Y-93544571D01*
X116265476Y-93605047D01*
X116386428Y-93665523D01*
X116628333Y-93665523D01*
X116749285Y-93605047D01*
X116809761Y-93544571D01*
X116870238Y-93423619D01*
X116870238Y-92395523D01*
X117656428Y-92395523D02*
X117656428Y-92697904D01*
X117354047Y-92576952D02*
X117656428Y-92697904D01*
X117958809Y-92576952D01*
X117475000Y-92939809D02*
X117656428Y-92697904D01*
X117837857Y-92939809D01*
X118624047Y-92395523D02*
X118624047Y-92697904D01*
X118321666Y-92576952D02*
X118624047Y-92697904D01*
X118926428Y-92576952D01*
X118442619Y-92939809D02*
X118624047Y-92697904D01*
X118805476Y-92939809D01*
X105984523Y-92395523D02*
X105984523Y-93423619D01*
X106045000Y-93544571D01*
X106105476Y-93605047D01*
X106226428Y-93665523D01*
X106468333Y-93665523D01*
X106589285Y-93605047D01*
X106649761Y-93544571D01*
X106710238Y-93423619D01*
X106710238Y-92395523D01*
X107496428Y-92395523D02*
X107496428Y-92697904D01*
X107194047Y-92576952D02*
X107496428Y-92697904D01*
X107798809Y-92576952D01*
X107315000Y-92939809D02*
X107496428Y-92697904D01*
X107677857Y-92939809D01*
X108464047Y-92395523D02*
X108464047Y-92697904D01*
X108161666Y-92576952D02*
X108464047Y-92697904D01*
X108766428Y-92576952D01*
X108282619Y-92939809D02*
X108464047Y-92697904D01*
X108645476Y-92939809D01*
X95824523Y-92395523D02*
X95824523Y-93423619D01*
X95885000Y-93544571D01*
X95945476Y-93605047D01*
X96066428Y-93665523D01*
X96308333Y-93665523D01*
X96429285Y-93605047D01*
X96489761Y-93544571D01*
X96550238Y-93423619D01*
X96550238Y-92395523D01*
X97336428Y-92395523D02*
X97336428Y-92697904D01*
X97034047Y-92576952D02*
X97336428Y-92697904D01*
X97638809Y-92576952D01*
X97155000Y-92939809D02*
X97336428Y-92697904D01*
X97517857Y-92939809D01*
X98304047Y-92395523D02*
X98304047Y-92697904D01*
X98001666Y-92576952D02*
X98304047Y-92697904D01*
X98606428Y-92576952D01*
X98122619Y-92939809D02*
X98304047Y-92697904D01*
X98485476Y-92939809D01*
X113477523Y-61661523D02*
X113477523Y-62689619D01*
X113538000Y-62810571D01*
X113598476Y-62871047D01*
X113719428Y-62931523D01*
X113961333Y-62931523D01*
X114082285Y-62871047D01*
X114142761Y-62810571D01*
X114203238Y-62689619D01*
X114203238Y-61661523D01*
X114989428Y-61661523D02*
X114989428Y-61963904D01*
X114687047Y-61842952D02*
X114989428Y-61963904D01*
X115291809Y-61842952D01*
X114808000Y-62205809D02*
X114989428Y-61963904D01*
X115170857Y-62205809D01*
X115957047Y-61661523D02*
X115957047Y-61963904D01*
X115654666Y-61842952D02*
X115957047Y-61963904D01*
X116259428Y-61842952D01*
X115775619Y-62205809D02*
X115957047Y-61963904D01*
X116138476Y-62205809D01*
X103317523Y-61661523D02*
X103317523Y-62689619D01*
X103378000Y-62810571D01*
X103438476Y-62871047D01*
X103559428Y-62931523D01*
X103801333Y-62931523D01*
X103922285Y-62871047D01*
X103982761Y-62810571D01*
X104043238Y-62689619D01*
X104043238Y-61661523D01*
X104829428Y-61661523D02*
X104829428Y-61963904D01*
X104527047Y-61842952D02*
X104829428Y-61963904D01*
X105131809Y-61842952D01*
X104648000Y-62205809D02*
X104829428Y-61963904D01*
X105010857Y-62205809D01*
X105797047Y-61661523D02*
X105797047Y-61963904D01*
X105494666Y-61842952D02*
X105797047Y-61963904D01*
X106099428Y-61842952D01*
X105615619Y-62205809D02*
X105797047Y-61963904D01*
X105978476Y-62205809D01*
X93157523Y-61661523D02*
X93157523Y-62689619D01*
X93218000Y-62810571D01*
X93278476Y-62871047D01*
X93399428Y-62931523D01*
X93641333Y-62931523D01*
X93762285Y-62871047D01*
X93822761Y-62810571D01*
X93883238Y-62689619D01*
X93883238Y-61661523D01*
X94669428Y-61661523D02*
X94669428Y-61963904D01*
X94367047Y-61842952D02*
X94669428Y-61963904D01*
X94971809Y-61842952D01*
X94488000Y-62205809D02*
X94669428Y-61963904D01*
X94850857Y-62205809D01*
X95637047Y-61661523D02*
X95637047Y-61963904D01*
X95334666Y-61842952D02*
X95637047Y-61963904D01*
X95939428Y-61842952D01*
X95455619Y-62205809D02*
X95637047Y-61963904D01*
X95818476Y-62205809D01*
%TO.C,C19*%
D14*
X72819142Y-78366857D02*
X72866761Y-78414476D01*
X72914380Y-78557333D01*
X72914380Y-78652571D01*
X72866761Y-78795428D01*
X72771523Y-78890666D01*
X72676285Y-78938285D01*
X72485809Y-78985904D01*
X72342952Y-78985904D01*
X72152476Y-78938285D01*
X72057238Y-78890666D01*
X71962000Y-78795428D01*
X71914380Y-78652571D01*
X71914380Y-78557333D01*
X71962000Y-78414476D01*
X72009619Y-78366857D01*
X72914380Y-77414476D02*
X72914380Y-77985904D01*
X72914380Y-77700190D02*
X71914380Y-77700190D01*
X72057238Y-77795428D01*
X72152476Y-77890666D01*
X72200095Y-77985904D01*
X72914380Y-76938285D02*
X72914380Y-76747809D01*
X72866761Y-76652571D01*
X72819142Y-76604952D01*
X72676285Y-76509714D01*
X72485809Y-76462095D01*
X72104857Y-76462095D01*
X72009619Y-76509714D01*
X71962000Y-76557333D01*
X71914380Y-76652571D01*
X71914380Y-76843047D01*
X71962000Y-76938285D01*
X72009619Y-76985904D01*
X72104857Y-77033523D01*
X72342952Y-77033523D01*
X72438190Y-76985904D01*
X72485809Y-76938285D01*
X72533428Y-76843047D01*
X72533428Y-76652571D01*
X72485809Y-76557333D01*
X72438190Y-76509714D01*
X72342952Y-76462095D01*
%TO.C,C18*%
X75867142Y-78366857D02*
X75914761Y-78414476D01*
X75962380Y-78557333D01*
X75962380Y-78652571D01*
X75914761Y-78795428D01*
X75819523Y-78890666D01*
X75724285Y-78938285D01*
X75533809Y-78985904D01*
X75390952Y-78985904D01*
X75200476Y-78938285D01*
X75105238Y-78890666D01*
X75010000Y-78795428D01*
X74962380Y-78652571D01*
X74962380Y-78557333D01*
X75010000Y-78414476D01*
X75057619Y-78366857D01*
X75962380Y-77414476D02*
X75962380Y-77985904D01*
X75962380Y-77700190D02*
X74962380Y-77700190D01*
X75105238Y-77795428D01*
X75200476Y-77890666D01*
X75248095Y-77985904D01*
X75390952Y-76843047D02*
X75343333Y-76938285D01*
X75295714Y-76985904D01*
X75200476Y-77033523D01*
X75152857Y-77033523D01*
X75057619Y-76985904D01*
X75010000Y-76938285D01*
X74962380Y-76843047D01*
X74962380Y-76652571D01*
X75010000Y-76557333D01*
X75057619Y-76509714D01*
X75152857Y-76462095D01*
X75200476Y-76462095D01*
X75295714Y-76509714D01*
X75343333Y-76557333D01*
X75390952Y-76652571D01*
X75390952Y-76843047D01*
X75438571Y-76938285D01*
X75486190Y-76985904D01*
X75581428Y-77033523D01*
X75771904Y-77033523D01*
X75867142Y-76985904D01*
X75914761Y-76938285D01*
X75962380Y-76843047D01*
X75962380Y-76652571D01*
X75914761Y-76557333D01*
X75867142Y-76509714D01*
X75771904Y-76462095D01*
X75581428Y-76462095D01*
X75486190Y-76509714D01*
X75438571Y-76557333D01*
X75390952Y-76652571D01*
%TO.C,C17*%
X84884142Y-78366857D02*
X84931761Y-78414476D01*
X84979380Y-78557333D01*
X84979380Y-78652571D01*
X84931761Y-78795428D01*
X84836523Y-78890666D01*
X84741285Y-78938285D01*
X84550809Y-78985904D01*
X84407952Y-78985904D01*
X84217476Y-78938285D01*
X84122238Y-78890666D01*
X84027000Y-78795428D01*
X83979380Y-78652571D01*
X83979380Y-78557333D01*
X84027000Y-78414476D01*
X84074619Y-78366857D01*
X84979380Y-77414476D02*
X84979380Y-77985904D01*
X84979380Y-77700190D02*
X83979380Y-77700190D01*
X84122238Y-77795428D01*
X84217476Y-77890666D01*
X84265095Y-77985904D01*
X83979380Y-77081142D02*
X83979380Y-76414476D01*
X84979380Y-76843047D01*
%TO.C,C16*%
X78915142Y-78366857D02*
X78962761Y-78414476D01*
X79010380Y-78557333D01*
X79010380Y-78652571D01*
X78962761Y-78795428D01*
X78867523Y-78890666D01*
X78772285Y-78938285D01*
X78581809Y-78985904D01*
X78438952Y-78985904D01*
X78248476Y-78938285D01*
X78153238Y-78890666D01*
X78058000Y-78795428D01*
X78010380Y-78652571D01*
X78010380Y-78557333D01*
X78058000Y-78414476D01*
X78105619Y-78366857D01*
X79010380Y-77414476D02*
X79010380Y-77985904D01*
X79010380Y-77700190D02*
X78010380Y-77700190D01*
X78153238Y-77795428D01*
X78248476Y-77890666D01*
X78296095Y-77985904D01*
X78010380Y-76557333D02*
X78010380Y-76747809D01*
X78058000Y-76843047D01*
X78105619Y-76890666D01*
X78248476Y-76985904D01*
X78438952Y-77033523D01*
X78819904Y-77033523D01*
X78915142Y-76985904D01*
X78962761Y-76938285D01*
X79010380Y-76843047D01*
X79010380Y-76652571D01*
X78962761Y-76557333D01*
X78915142Y-76509714D01*
X78819904Y-76462095D01*
X78581809Y-76462095D01*
X78486571Y-76509714D01*
X78438952Y-76557333D01*
X78391333Y-76652571D01*
X78391333Y-76843047D01*
X78438952Y-76938285D01*
X78486571Y-76985904D01*
X78581809Y-77033523D01*
%TO.C,C10*%
X81836142Y-78366857D02*
X81883761Y-78414476D01*
X81931380Y-78557333D01*
X81931380Y-78652571D01*
X81883761Y-78795428D01*
X81788523Y-78890666D01*
X81693285Y-78938285D01*
X81502809Y-78985904D01*
X81359952Y-78985904D01*
X81169476Y-78938285D01*
X81074238Y-78890666D01*
X80979000Y-78795428D01*
X80931380Y-78652571D01*
X80931380Y-78557333D01*
X80979000Y-78414476D01*
X81026619Y-78366857D01*
X81931380Y-77414476D02*
X81931380Y-77985904D01*
X81931380Y-77700190D02*
X80931380Y-77700190D01*
X81074238Y-77795428D01*
X81169476Y-77890666D01*
X81217095Y-77985904D01*
X80931380Y-76795428D02*
X80931380Y-76700190D01*
X80979000Y-76604952D01*
X81026619Y-76557333D01*
X81121857Y-76509714D01*
X81312333Y-76462095D01*
X81550428Y-76462095D01*
X81740904Y-76509714D01*
X81836142Y-76557333D01*
X81883761Y-76604952D01*
X81931380Y-76700190D01*
X81931380Y-76795428D01*
X81883761Y-76890666D01*
X81836142Y-76938285D01*
X81740904Y-76985904D01*
X81550428Y-77033523D01*
X81312333Y-77033523D01*
X81121857Y-76985904D01*
X81026619Y-76938285D01*
X80979000Y-76890666D01*
X80931380Y-76795428D01*
%TO.C,REF\u002A\u002A*%
X116776666Y-102932380D02*
X116443333Y-102456190D01*
X116205238Y-102932380D02*
X116205238Y-101932380D01*
X116586190Y-101932380D01*
X116681428Y-101980000D01*
X116729047Y-102027619D01*
X116776666Y-102122857D01*
X116776666Y-102265714D01*
X116729047Y-102360952D01*
X116681428Y-102408571D01*
X116586190Y-102456190D01*
X116205238Y-102456190D01*
X117205238Y-102408571D02*
X117538571Y-102408571D01*
X117681428Y-102932380D02*
X117205238Y-102932380D01*
X117205238Y-101932380D01*
X117681428Y-101932380D01*
X118443333Y-102408571D02*
X118110000Y-102408571D01*
X118110000Y-102932380D02*
X118110000Y-101932380D01*
X118586190Y-101932380D01*
X119110000Y-101932380D02*
X119110000Y-102170476D01*
X118871904Y-102075238D02*
X119110000Y-102170476D01*
X119348095Y-102075238D01*
X118967142Y-102360952D02*
X119110000Y-102170476D01*
X119252857Y-102360952D01*
X119871904Y-101932380D02*
X119871904Y-102170476D01*
X119633809Y-102075238D02*
X119871904Y-102170476D01*
X120110000Y-102075238D01*
X119729047Y-102360952D02*
X119871904Y-102170476D01*
X120014761Y-102360952D01*
%TO.C,R13*%
X119917380Y-101734857D02*
X119441190Y-102068190D01*
X119917380Y-102306285D02*
X118917380Y-102306285D01*
X118917380Y-101925333D01*
X118965000Y-101830095D01*
X119012619Y-101782476D01*
X119107857Y-101734857D01*
X119250714Y-101734857D01*
X119345952Y-101782476D01*
X119393571Y-101830095D01*
X119441190Y-101925333D01*
X119441190Y-102306285D01*
X119917380Y-100782476D02*
X119917380Y-101353904D01*
X119917380Y-101068190D02*
X118917380Y-101068190D01*
X119060238Y-101163428D01*
X119155476Y-101258666D01*
X119203095Y-101353904D01*
X118917380Y-100449142D02*
X118917380Y-99830095D01*
X119298333Y-100163428D01*
X119298333Y-100020571D01*
X119345952Y-99925333D01*
X119393571Y-99877714D01*
X119488809Y-99830095D01*
X119726904Y-99830095D01*
X119822142Y-99877714D01*
X119869761Y-99925333D01*
X119917380Y-100020571D01*
X119917380Y-100306285D01*
X119869761Y-100401523D01*
X119822142Y-100449142D01*
%TO.C,R12*%
X119409380Y-80017857D02*
X118933190Y-80351190D01*
X119409380Y-80589285D02*
X118409380Y-80589285D01*
X118409380Y-80208333D01*
X118457000Y-80113095D01*
X118504619Y-80065476D01*
X118599857Y-80017857D01*
X118742714Y-80017857D01*
X118837952Y-80065476D01*
X118885571Y-80113095D01*
X118933190Y-80208333D01*
X118933190Y-80589285D01*
X119409380Y-79065476D02*
X119409380Y-79636904D01*
X119409380Y-79351190D02*
X118409380Y-79351190D01*
X118552238Y-79446428D01*
X118647476Y-79541666D01*
X118695095Y-79636904D01*
X118504619Y-78684523D02*
X118457000Y-78636904D01*
X118409380Y-78541666D01*
X118409380Y-78303571D01*
X118457000Y-78208333D01*
X118504619Y-78160714D01*
X118599857Y-78113095D01*
X118695095Y-78113095D01*
X118837952Y-78160714D01*
X119409380Y-78732142D01*
X119409380Y-78113095D01*
%TO.C,C8*%
X126667142Y-101258666D02*
X126714761Y-101306285D01*
X126762380Y-101449142D01*
X126762380Y-101544380D01*
X126714761Y-101687238D01*
X126619523Y-101782476D01*
X126524285Y-101830095D01*
X126333809Y-101877714D01*
X126190952Y-101877714D01*
X126000476Y-101830095D01*
X125905238Y-101782476D01*
X125810000Y-101687238D01*
X125762380Y-101544380D01*
X125762380Y-101449142D01*
X125810000Y-101306285D01*
X125857619Y-101258666D01*
X126190952Y-100687238D02*
X126143333Y-100782476D01*
X126095714Y-100830095D01*
X126000476Y-100877714D01*
X125952857Y-100877714D01*
X125857619Y-100830095D01*
X125810000Y-100782476D01*
X125762380Y-100687238D01*
X125762380Y-100496761D01*
X125810000Y-100401523D01*
X125857619Y-100353904D01*
X125952857Y-100306285D01*
X126000476Y-100306285D01*
X126095714Y-100353904D01*
X126143333Y-100401523D01*
X126190952Y-100496761D01*
X126190952Y-100687238D01*
X126238571Y-100782476D01*
X126286190Y-100830095D01*
X126381428Y-100877714D01*
X126571904Y-100877714D01*
X126667142Y-100830095D01*
X126714761Y-100782476D01*
X126762380Y-100687238D01*
X126762380Y-100496761D01*
X126714761Y-100401523D01*
X126667142Y-100353904D01*
X126571904Y-100306285D01*
X126381428Y-100306285D01*
X126286190Y-100353904D01*
X126238571Y-100401523D01*
X126190952Y-100496761D01*
%TO.C,C7*%
X126794142Y-79541666D02*
X126841761Y-79589285D01*
X126889380Y-79732142D01*
X126889380Y-79827380D01*
X126841761Y-79970238D01*
X126746523Y-80065476D01*
X126651285Y-80113095D01*
X126460809Y-80160714D01*
X126317952Y-80160714D01*
X126127476Y-80113095D01*
X126032238Y-80065476D01*
X125937000Y-79970238D01*
X125889380Y-79827380D01*
X125889380Y-79732142D01*
X125937000Y-79589285D01*
X125984619Y-79541666D01*
X125889380Y-79208333D02*
X125889380Y-78541666D01*
X126889380Y-78970238D01*
%TO.C,C15*%
X134922142Y-93759257D02*
X134969761Y-93806876D01*
X135017380Y-93949733D01*
X135017380Y-94044971D01*
X134969761Y-94187828D01*
X134874523Y-94283066D01*
X134779285Y-94330685D01*
X134588809Y-94378304D01*
X134445952Y-94378304D01*
X134255476Y-94330685D01*
X134160238Y-94283066D01*
X134065000Y-94187828D01*
X134017380Y-94044971D01*
X134017380Y-93949733D01*
X134065000Y-93806876D01*
X134112619Y-93759257D01*
X135017380Y-92806876D02*
X135017380Y-93378304D01*
X135017380Y-93092590D02*
X134017380Y-93092590D01*
X134160238Y-93187828D01*
X134255476Y-93283066D01*
X134303095Y-93378304D01*
X134017380Y-91902114D02*
X134017380Y-92378304D01*
X134493571Y-92425923D01*
X134445952Y-92378304D01*
X134398333Y-92283066D01*
X134398333Y-92044971D01*
X134445952Y-91949733D01*
X134493571Y-91902114D01*
X134588809Y-91854495D01*
X134826904Y-91854495D01*
X134922142Y-91902114D01*
X134969761Y-91949733D01*
X135017380Y-92044971D01*
X135017380Y-92283066D01*
X134969761Y-92378304D01*
X134922142Y-92425923D01*
%TO.C,C14*%
X132382142Y-93759257D02*
X132429761Y-93806876D01*
X132477380Y-93949733D01*
X132477380Y-94044971D01*
X132429761Y-94187828D01*
X132334523Y-94283066D01*
X132239285Y-94330685D01*
X132048809Y-94378304D01*
X131905952Y-94378304D01*
X131715476Y-94330685D01*
X131620238Y-94283066D01*
X131525000Y-94187828D01*
X131477380Y-94044971D01*
X131477380Y-93949733D01*
X131525000Y-93806876D01*
X131572619Y-93759257D01*
X132477380Y-92806876D02*
X132477380Y-93378304D01*
X132477380Y-93092590D02*
X131477380Y-93092590D01*
X131620238Y-93187828D01*
X131715476Y-93283066D01*
X131763095Y-93378304D01*
X131810714Y-91949733D02*
X132477380Y-91949733D01*
X131429761Y-92187828D02*
X132144047Y-92425923D01*
X132144047Y-91806876D01*
%TO.C,C13*%
X129842142Y-93759257D02*
X129889761Y-93806876D01*
X129937380Y-93949733D01*
X129937380Y-94044971D01*
X129889761Y-94187828D01*
X129794523Y-94283066D01*
X129699285Y-94330685D01*
X129508809Y-94378304D01*
X129365952Y-94378304D01*
X129175476Y-94330685D01*
X129080238Y-94283066D01*
X128985000Y-94187828D01*
X128937380Y-94044971D01*
X128937380Y-93949733D01*
X128985000Y-93806876D01*
X129032619Y-93759257D01*
X129937380Y-92806876D02*
X129937380Y-93378304D01*
X129937380Y-93092590D02*
X128937380Y-93092590D01*
X129080238Y-93187828D01*
X129175476Y-93283066D01*
X129223095Y-93378304D01*
X128937380Y-92473542D02*
X128937380Y-91854495D01*
X129318333Y-92187828D01*
X129318333Y-92044971D01*
X129365952Y-91949733D01*
X129413571Y-91902114D01*
X129508809Y-91854495D01*
X129746904Y-91854495D01*
X129842142Y-91902114D01*
X129889761Y-91949733D01*
X129937380Y-92044971D01*
X129937380Y-92330685D01*
X129889761Y-92425923D01*
X129842142Y-92473542D01*
%TO.C,C12*%
X127302142Y-93759257D02*
X127349761Y-93806876D01*
X127397380Y-93949733D01*
X127397380Y-94044971D01*
X127349761Y-94187828D01*
X127254523Y-94283066D01*
X127159285Y-94330685D01*
X126968809Y-94378304D01*
X126825952Y-94378304D01*
X126635476Y-94330685D01*
X126540238Y-94283066D01*
X126445000Y-94187828D01*
X126397380Y-94044971D01*
X126397380Y-93949733D01*
X126445000Y-93806876D01*
X126492619Y-93759257D01*
X127397380Y-92806876D02*
X127397380Y-93378304D01*
X127397380Y-93092590D02*
X126397380Y-93092590D01*
X126540238Y-93187828D01*
X126635476Y-93283066D01*
X126683095Y-93378304D01*
X126492619Y-92425923D02*
X126445000Y-92378304D01*
X126397380Y-92283066D01*
X126397380Y-92044971D01*
X126445000Y-91949733D01*
X126492619Y-91902114D01*
X126587857Y-91854495D01*
X126683095Y-91854495D01*
X126825952Y-91902114D01*
X127397380Y-92473542D01*
X127397380Y-91854495D01*
%TO.C,C11*%
X87932142Y-78366857D02*
X87979761Y-78414476D01*
X88027380Y-78557333D01*
X88027380Y-78652571D01*
X87979761Y-78795428D01*
X87884523Y-78890666D01*
X87789285Y-78938285D01*
X87598809Y-78985904D01*
X87455952Y-78985904D01*
X87265476Y-78938285D01*
X87170238Y-78890666D01*
X87075000Y-78795428D01*
X87027380Y-78652571D01*
X87027380Y-78557333D01*
X87075000Y-78414476D01*
X87122619Y-78366857D01*
X88027380Y-77414476D02*
X88027380Y-77985904D01*
X88027380Y-77700190D02*
X87027380Y-77700190D01*
X87170238Y-77795428D01*
X87265476Y-77890666D01*
X87313095Y-77985904D01*
X88027380Y-76462095D02*
X88027380Y-77033523D01*
X88027380Y-76747809D02*
X87027380Y-76747809D01*
X87170238Y-76843047D01*
X87265476Y-76938285D01*
X87313095Y-77033523D01*
%TO.C,REF\u002A\u002A*%
X77660666Y-58482380D02*
X77327333Y-58006190D01*
X77089238Y-58482380D02*
X77089238Y-57482380D01*
X77470190Y-57482380D01*
X77565428Y-57530000D01*
X77613047Y-57577619D01*
X77660666Y-57672857D01*
X77660666Y-57815714D01*
X77613047Y-57910952D01*
X77565428Y-57958571D01*
X77470190Y-58006190D01*
X77089238Y-58006190D01*
X78089238Y-57958571D02*
X78422571Y-57958571D01*
X78565428Y-58482380D02*
X78089238Y-58482380D01*
X78089238Y-57482380D01*
X78565428Y-57482380D01*
X79327333Y-57958571D02*
X78994000Y-57958571D01*
X78994000Y-58482380D02*
X78994000Y-57482380D01*
X79470190Y-57482380D01*
X79994000Y-57482380D02*
X79994000Y-57720476D01*
X79755904Y-57625238D02*
X79994000Y-57720476D01*
X80232095Y-57625238D01*
X79851142Y-57910952D02*
X79994000Y-57720476D01*
X80136857Y-57910952D01*
X80755904Y-57482380D02*
X80755904Y-57720476D01*
X80517809Y-57625238D02*
X80755904Y-57720476D01*
X80994000Y-57625238D01*
X80613047Y-57910952D02*
X80755904Y-57720476D01*
X80898761Y-57910952D01*
X122872666Y-58482380D02*
X122539333Y-58006190D01*
X122301238Y-58482380D02*
X122301238Y-57482380D01*
X122682190Y-57482380D01*
X122777428Y-57530000D01*
X122825047Y-57577619D01*
X122872666Y-57672857D01*
X122872666Y-57815714D01*
X122825047Y-57910952D01*
X122777428Y-57958571D01*
X122682190Y-58006190D01*
X122301238Y-58006190D01*
X123301238Y-57958571D02*
X123634571Y-57958571D01*
X123777428Y-58482380D02*
X123301238Y-58482380D01*
X123301238Y-57482380D01*
X123777428Y-57482380D01*
X124539333Y-57958571D02*
X124206000Y-57958571D01*
X124206000Y-58482380D02*
X124206000Y-57482380D01*
X124682190Y-57482380D01*
X125206000Y-57482380D02*
X125206000Y-57720476D01*
X124967904Y-57625238D02*
X125206000Y-57720476D01*
X125444095Y-57625238D01*
X125063142Y-57910952D02*
X125206000Y-57720476D01*
X125348857Y-57910952D01*
X125967904Y-57482380D02*
X125967904Y-57720476D01*
X125729809Y-57625238D02*
X125967904Y-57720476D01*
X126206000Y-57625238D01*
X125825047Y-57910952D02*
X125967904Y-57720476D01*
X126110761Y-57910952D01*
X112966666Y-121347380D02*
X112633333Y-120871190D01*
X112395238Y-121347380D02*
X112395238Y-120347380D01*
X112776190Y-120347380D01*
X112871428Y-120395000D01*
X112919047Y-120442619D01*
X112966666Y-120537857D01*
X112966666Y-120680714D01*
X112919047Y-120775952D01*
X112871428Y-120823571D01*
X112776190Y-120871190D01*
X112395238Y-120871190D01*
X113395238Y-120823571D02*
X113728571Y-120823571D01*
X113871428Y-121347380D02*
X113395238Y-121347380D01*
X113395238Y-120347380D01*
X113871428Y-120347380D01*
X114633333Y-120823571D02*
X114300000Y-120823571D01*
X114300000Y-121347380D02*
X114300000Y-120347380D01*
X114776190Y-120347380D01*
X115300000Y-120347380D02*
X115300000Y-120585476D01*
X115061904Y-120490238D02*
X115300000Y-120585476D01*
X115538095Y-120490238D01*
X115157142Y-120775952D02*
X115300000Y-120585476D01*
X115442857Y-120775952D01*
X116061904Y-120347380D02*
X116061904Y-120585476D01*
X115823809Y-120490238D02*
X116061904Y-120585476D01*
X116300000Y-120490238D01*
X115919047Y-120775952D02*
X116061904Y-120585476D01*
X116204761Y-120775952D01*
X87566666Y-121347380D02*
X87233333Y-120871190D01*
X86995238Y-121347380D02*
X86995238Y-120347380D01*
X87376190Y-120347380D01*
X87471428Y-120395000D01*
X87519047Y-120442619D01*
X87566666Y-120537857D01*
X87566666Y-120680714D01*
X87519047Y-120775952D01*
X87471428Y-120823571D01*
X87376190Y-120871190D01*
X86995238Y-120871190D01*
X87995238Y-120823571D02*
X88328571Y-120823571D01*
X88471428Y-121347380D02*
X87995238Y-121347380D01*
X87995238Y-120347380D01*
X88471428Y-120347380D01*
X89233333Y-120823571D02*
X88900000Y-120823571D01*
X88900000Y-121347380D02*
X88900000Y-120347380D01*
X89376190Y-120347380D01*
X89900000Y-120347380D02*
X89900000Y-120585476D01*
X89661904Y-120490238D02*
X89900000Y-120585476D01*
X90138095Y-120490238D01*
X89757142Y-120775952D02*
X89900000Y-120585476D01*
X90042857Y-120775952D01*
X90661904Y-120347380D02*
X90661904Y-120585476D01*
X90423809Y-120490238D02*
X90661904Y-120585476D01*
X90900000Y-120490238D01*
X90519047Y-120775952D02*
X90661904Y-120585476D01*
X90804761Y-120775952D01*
%TO.C,J1*%
X70782380Y-103203333D02*
X71496666Y-103203333D01*
X71639523Y-103250952D01*
X71734761Y-103346190D01*
X71782380Y-103489047D01*
X71782380Y-103584285D01*
X71782380Y-102203333D02*
X71782380Y-102774761D01*
X71782380Y-102489047D02*
X70782380Y-102489047D01*
X70925238Y-102584285D01*
X71020476Y-102679523D01*
X71068095Y-102774761D01*
%TO.C,U4*%
X95554895Y-107935780D02*
X95554895Y-108745304D01*
X95602514Y-108840542D01*
X95650133Y-108888161D01*
X95745371Y-108935780D01*
X95935847Y-108935780D01*
X96031085Y-108888161D01*
X96078704Y-108840542D01*
X96126323Y-108745304D01*
X96126323Y-107935780D01*
X97031085Y-108269114D02*
X97031085Y-108935780D01*
X96792990Y-107888161D02*
X96554895Y-108602447D01*
X97173942Y-108602447D01*
%TO.C,U3*%
X106984895Y-107910380D02*
X106984895Y-108719904D01*
X107032514Y-108815142D01*
X107080133Y-108862761D01*
X107175371Y-108910380D01*
X107365847Y-108910380D01*
X107461085Y-108862761D01*
X107508704Y-108815142D01*
X107556323Y-108719904D01*
X107556323Y-107910380D01*
X107937276Y-107910380D02*
X108556323Y-107910380D01*
X108222990Y-108291333D01*
X108365847Y-108291333D01*
X108461085Y-108338952D01*
X108508704Y-108386571D01*
X108556323Y-108481809D01*
X108556323Y-108719904D01*
X108508704Y-108815142D01*
X108461085Y-108862761D01*
X108365847Y-108910380D01*
X108080133Y-108910380D01*
X107984895Y-108862761D01*
X107937276Y-108815142D01*
%TO.C,U2*%
X99796695Y-74407780D02*
X99796695Y-75217304D01*
X99844314Y-75312542D01*
X99891933Y-75360161D01*
X99987171Y-75407780D01*
X100177647Y-75407780D01*
X100272885Y-75360161D01*
X100320504Y-75312542D01*
X100368123Y-75217304D01*
X100368123Y-74407780D01*
X100796695Y-74503019D02*
X100844314Y-74455400D01*
X100939552Y-74407780D01*
X101177647Y-74407780D01*
X101272885Y-74455400D01*
X101320504Y-74503019D01*
X101368123Y-74598257D01*
X101368123Y-74693495D01*
X101320504Y-74836352D01*
X100749076Y-75407780D01*
X101368123Y-75407780D01*
%TO.C,U1*%
X111226695Y-74407780D02*
X111226695Y-75217304D01*
X111274314Y-75312542D01*
X111321933Y-75360161D01*
X111417171Y-75407780D01*
X111607647Y-75407780D01*
X111702885Y-75360161D01*
X111750504Y-75312542D01*
X111798123Y-75217304D01*
X111798123Y-74407780D01*
X112798123Y-75407780D02*
X112226695Y-75407780D01*
X112512409Y-75407780D02*
X112512409Y-74407780D01*
X112417171Y-74550638D01*
X112321933Y-74645876D01*
X112226695Y-74693495D01*
%TO.C,IC1*%
D13*
X81310238Y-94148123D02*
X81310238Y-92878123D01*
X82640714Y-94027171D02*
X82580238Y-94087647D01*
X82398809Y-94148123D01*
X82277857Y-94148123D01*
X82096428Y-94087647D01*
X81975476Y-93966695D01*
X81915000Y-93845742D01*
X81854523Y-93603838D01*
X81854523Y-93422409D01*
X81915000Y-93180504D01*
X81975476Y-93059552D01*
X82096428Y-92938600D01*
X82277857Y-92878123D01*
X82398809Y-92878123D01*
X82580238Y-92938600D01*
X82640714Y-92999076D01*
X83850238Y-94148123D02*
X83124523Y-94148123D01*
X83487380Y-94148123D02*
X83487380Y-92878123D01*
X83366428Y-93059552D01*
X83245476Y-93180504D01*
X83124523Y-93240980D01*
%TO.C,C6*%
D14*
X90302142Y-92395166D02*
X90349761Y-92442785D01*
X90397380Y-92585642D01*
X90397380Y-92680880D01*
X90349761Y-92823738D01*
X90254523Y-92918976D01*
X90159285Y-92966595D01*
X89968809Y-93014214D01*
X89825952Y-93014214D01*
X89635476Y-92966595D01*
X89540238Y-92918976D01*
X89445000Y-92823738D01*
X89397380Y-92680880D01*
X89397380Y-92585642D01*
X89445000Y-92442785D01*
X89492619Y-92395166D01*
X89397380Y-91538023D02*
X89397380Y-91728500D01*
X89445000Y-91823738D01*
X89492619Y-91871357D01*
X89635476Y-91966595D01*
X89825952Y-92014214D01*
X90206904Y-92014214D01*
X90302142Y-91966595D01*
X90349761Y-91918976D01*
X90397380Y-91823738D01*
X90397380Y-91633261D01*
X90349761Y-91538023D01*
X90302142Y-91490404D01*
X90206904Y-91442785D01*
X89968809Y-91442785D01*
X89873571Y-91490404D01*
X89825952Y-91538023D01*
X89778333Y-91633261D01*
X89778333Y-91823738D01*
X89825952Y-91918976D01*
X89873571Y-91966595D01*
X89968809Y-92014214D01*
%TO.C,D1*%
X85422980Y-103441695D02*
X84422980Y-103441695D01*
X84422980Y-103203600D01*
X84470600Y-103060742D01*
X84565838Y-102965504D01*
X84661076Y-102917885D01*
X84851552Y-102870266D01*
X84994409Y-102870266D01*
X85184885Y-102917885D01*
X85280123Y-102965504D01*
X85375361Y-103060742D01*
X85422980Y-103203600D01*
X85422980Y-103441695D01*
X85422980Y-101917885D02*
X85422980Y-102489314D01*
X85422980Y-102203600D02*
X84422980Y-102203600D01*
X84565838Y-102298838D01*
X84661076Y-102394076D01*
X84708695Y-102489314D01*
%TO.C,R5*%
X85912033Y-105438180D02*
X85578700Y-104961990D01*
X85340604Y-105438180D02*
X85340604Y-104438180D01*
X85721557Y-104438180D01*
X85816795Y-104485800D01*
X85864414Y-104533419D01*
X85912033Y-104628657D01*
X85912033Y-104771514D01*
X85864414Y-104866752D01*
X85816795Y-104914371D01*
X85721557Y-104961990D01*
X85340604Y-104961990D01*
X86816795Y-104438180D02*
X86340604Y-104438180D01*
X86292985Y-104914371D01*
X86340604Y-104866752D01*
X86435842Y-104819133D01*
X86673938Y-104819133D01*
X86769176Y-104866752D01*
X86816795Y-104914371D01*
X86864414Y-105009609D01*
X86864414Y-105247704D01*
X86816795Y-105342942D01*
X86769176Y-105390561D01*
X86673938Y-105438180D01*
X86435842Y-105438180D01*
X86340604Y-105390561D01*
X86292985Y-105342942D01*
%TO.C,R4*%
X85890433Y-103837980D02*
X85557100Y-103361790D01*
X85319004Y-103837980D02*
X85319004Y-102837980D01*
X85699957Y-102837980D01*
X85795195Y-102885600D01*
X85842814Y-102933219D01*
X85890433Y-103028457D01*
X85890433Y-103171314D01*
X85842814Y-103266552D01*
X85795195Y-103314171D01*
X85699957Y-103361790D01*
X85319004Y-103361790D01*
X86747576Y-103171314D02*
X86747576Y-103837980D01*
X86509480Y-102790361D02*
X86271385Y-103504647D01*
X86890433Y-103504647D01*
%TO.C,C3*%
X80478333Y-100527142D02*
X80430714Y-100574761D01*
X80287857Y-100622380D01*
X80192619Y-100622380D01*
X80049761Y-100574761D01*
X79954523Y-100479523D01*
X79906904Y-100384285D01*
X79859285Y-100193809D01*
X79859285Y-100050952D01*
X79906904Y-99860476D01*
X79954523Y-99765238D01*
X80049761Y-99670000D01*
X80192619Y-99622380D01*
X80287857Y-99622380D01*
X80430714Y-99670000D01*
X80478333Y-99717619D01*
X80811666Y-99622380D02*
X81430714Y-99622380D01*
X81097380Y-100003333D01*
X81240238Y-100003333D01*
X81335476Y-100050952D01*
X81383095Y-100098571D01*
X81430714Y-100193809D01*
X81430714Y-100431904D01*
X81383095Y-100527142D01*
X81335476Y-100574761D01*
X81240238Y-100622380D01*
X80954523Y-100622380D01*
X80859285Y-100574761D01*
X80811666Y-100527142D01*
%TO.C,C9*%
X80478333Y-98622142D02*
X80430714Y-98669761D01*
X80287857Y-98717380D01*
X80192619Y-98717380D01*
X80049761Y-98669761D01*
X79954523Y-98574523D01*
X79906904Y-98479285D01*
X79859285Y-98288809D01*
X79859285Y-98145952D01*
X79906904Y-97955476D01*
X79954523Y-97860238D01*
X80049761Y-97765000D01*
X80192619Y-97717380D01*
X80287857Y-97717380D01*
X80430714Y-97765000D01*
X80478333Y-97812619D01*
X80954523Y-98717380D02*
X81145000Y-98717380D01*
X81240238Y-98669761D01*
X81287857Y-98622142D01*
X81383095Y-98479285D01*
X81430714Y-98288809D01*
X81430714Y-97907857D01*
X81383095Y-97812619D01*
X81335476Y-97765000D01*
X81240238Y-97717380D01*
X81049761Y-97717380D01*
X80954523Y-97765000D01*
X80906904Y-97812619D01*
X80859285Y-97907857D01*
X80859285Y-98145952D01*
X80906904Y-98241190D01*
X80954523Y-98288809D01*
X81049761Y-98336428D01*
X81240238Y-98336428D01*
X81335476Y-98288809D01*
X81383095Y-98241190D01*
X81430714Y-98145952D01*
%TO.C,C5*%
X83449033Y-85972942D02*
X83401414Y-86020561D01*
X83258557Y-86068180D01*
X83163319Y-86068180D01*
X83020461Y-86020561D01*
X82925223Y-85925323D01*
X82877604Y-85830085D01*
X82829985Y-85639609D01*
X82829985Y-85496752D01*
X82877604Y-85306276D01*
X82925223Y-85211038D01*
X83020461Y-85115800D01*
X83163319Y-85068180D01*
X83258557Y-85068180D01*
X83401414Y-85115800D01*
X83449033Y-85163419D01*
X84353795Y-85068180D02*
X83877604Y-85068180D01*
X83829985Y-85544371D01*
X83877604Y-85496752D01*
X83972842Y-85449133D01*
X84210938Y-85449133D01*
X84306176Y-85496752D01*
X84353795Y-85544371D01*
X84401414Y-85639609D01*
X84401414Y-85877704D01*
X84353795Y-85972942D01*
X84306176Y-86020561D01*
X84210938Y-86068180D01*
X83972842Y-86068180D01*
X83877604Y-86020561D01*
X83829985Y-85972942D01*
%TO.C,C4*%
X80478333Y-105292142D02*
X80430714Y-105339761D01*
X80287857Y-105387380D01*
X80192619Y-105387380D01*
X80049761Y-105339761D01*
X79954523Y-105244523D01*
X79906904Y-105149285D01*
X79859285Y-104958809D01*
X79859285Y-104815952D01*
X79906904Y-104625476D01*
X79954523Y-104530238D01*
X80049761Y-104435000D01*
X80192619Y-104387380D01*
X80287857Y-104387380D01*
X80430714Y-104435000D01*
X80478333Y-104482619D01*
X81335476Y-104720714D02*
X81335476Y-105387380D01*
X81097380Y-104339761D02*
X80859285Y-105054047D01*
X81478333Y-105054047D01*
%TO.C,C2*%
X76033333Y-95767142D02*
X75985714Y-95814761D01*
X75842857Y-95862380D01*
X75747619Y-95862380D01*
X75604761Y-95814761D01*
X75509523Y-95719523D01*
X75461904Y-95624285D01*
X75414285Y-95433809D01*
X75414285Y-95290952D01*
X75461904Y-95100476D01*
X75509523Y-95005238D01*
X75604761Y-94910000D01*
X75747619Y-94862380D01*
X75842857Y-94862380D01*
X75985714Y-94910000D01*
X76033333Y-94957619D01*
X76414285Y-94957619D02*
X76461904Y-94910000D01*
X76557142Y-94862380D01*
X76795238Y-94862380D01*
X76890476Y-94910000D01*
X76938095Y-94957619D01*
X76985714Y-95052857D01*
X76985714Y-95148095D01*
X76938095Y-95290952D01*
X76366666Y-95862380D01*
X76985714Y-95862380D01*
%TO.C,C1*%
X76033333Y-92592142D02*
X75985714Y-92639761D01*
X75842857Y-92687380D01*
X75747619Y-92687380D01*
X75604761Y-92639761D01*
X75509523Y-92544523D01*
X75461904Y-92449285D01*
X75414285Y-92258809D01*
X75414285Y-92115952D01*
X75461904Y-91925476D01*
X75509523Y-91830238D01*
X75604761Y-91735000D01*
X75747619Y-91687380D01*
X75842857Y-91687380D01*
X75985714Y-91735000D01*
X76033333Y-91782619D01*
X76985714Y-92687380D02*
X76414285Y-92687380D01*
X76700000Y-92687380D02*
X76700000Y-91687380D01*
X76604761Y-91830238D01*
X76509523Y-91925476D01*
X76414285Y-91973095D01*
%TO.C,R1*%
X76033333Y-97767380D02*
X75700000Y-97291190D01*
X75461904Y-97767380D02*
X75461904Y-96767380D01*
X75842857Y-96767380D01*
X75938095Y-96815000D01*
X75985714Y-96862619D01*
X76033333Y-96957857D01*
X76033333Y-97100714D01*
X75985714Y-97195952D01*
X75938095Y-97243571D01*
X75842857Y-97291190D01*
X75461904Y-97291190D01*
X76985714Y-97767380D02*
X76414285Y-97767380D01*
X76700000Y-97767380D02*
X76700000Y-96767380D01*
X76604761Y-96910238D01*
X76509523Y-97005476D01*
X76414285Y-97053095D01*
%TO.C,R3*%
X80019233Y-88928180D02*
X79685900Y-88451990D01*
X79447804Y-88928180D02*
X79447804Y-87928180D01*
X79828757Y-87928180D01*
X79923995Y-87975800D01*
X79971614Y-88023419D01*
X80019233Y-88118657D01*
X80019233Y-88261514D01*
X79971614Y-88356752D01*
X79923995Y-88404371D01*
X79828757Y-88451990D01*
X79447804Y-88451990D01*
X80352566Y-87928180D02*
X80971614Y-87928180D01*
X80638280Y-88309133D01*
X80781138Y-88309133D01*
X80876376Y-88356752D01*
X80923995Y-88404371D01*
X80971614Y-88499609D01*
X80971614Y-88737704D01*
X80923995Y-88832942D01*
X80876376Y-88880561D01*
X80781138Y-88928180D01*
X80495423Y-88928180D01*
X80400185Y-88880561D01*
X80352566Y-88832942D01*
%TO.C,R2*%
X76033333Y-87922380D02*
X75700000Y-87446190D01*
X75461904Y-87922380D02*
X75461904Y-86922380D01*
X75842857Y-86922380D01*
X75938095Y-86970000D01*
X75985714Y-87017619D01*
X76033333Y-87112857D01*
X76033333Y-87255714D01*
X75985714Y-87350952D01*
X75938095Y-87398571D01*
X75842857Y-87446190D01*
X75461904Y-87446190D01*
X76414285Y-87017619D02*
X76461904Y-86970000D01*
X76557142Y-86922380D01*
X76795238Y-86922380D01*
X76890476Y-86970000D01*
X76938095Y-87017619D01*
X76985714Y-87112857D01*
X76985714Y-87208095D01*
X76938095Y-87350952D01*
X76366666Y-87922380D01*
X76985714Y-87922380D01*
%TO.C,R9*%
X94008180Y-117897566D02*
X93531990Y-118230900D01*
X94008180Y-118468995D02*
X93008180Y-118468995D01*
X93008180Y-118088042D01*
X93055800Y-117992804D01*
X93103419Y-117945185D01*
X93198657Y-117897566D01*
X93341514Y-117897566D01*
X93436752Y-117945185D01*
X93484371Y-117992804D01*
X93531990Y-118088042D01*
X93531990Y-118468995D01*
X94008180Y-117421376D02*
X94008180Y-117230900D01*
X93960561Y-117135661D01*
X93912942Y-117088042D01*
X93770085Y-116992804D01*
X93579609Y-116945185D01*
X93198657Y-116945185D01*
X93103419Y-116992804D01*
X93055800Y-117040423D01*
X93008180Y-117135661D01*
X93008180Y-117326138D01*
X93055800Y-117421376D01*
X93103419Y-117468995D01*
X93198657Y-117516614D01*
X93436752Y-117516614D01*
X93531990Y-117468995D01*
X93579609Y-117421376D01*
X93627228Y-117326138D01*
X93627228Y-117135661D01*
X93579609Y-117040423D01*
X93531990Y-116992804D01*
X93436752Y-116945185D01*
%TO.C,R8*%
X105412780Y-117897566D02*
X104936590Y-118230900D01*
X105412780Y-118468995D02*
X104412780Y-118468995D01*
X104412780Y-118088042D01*
X104460400Y-117992804D01*
X104508019Y-117945185D01*
X104603257Y-117897566D01*
X104746114Y-117897566D01*
X104841352Y-117945185D01*
X104888971Y-117992804D01*
X104936590Y-118088042D01*
X104936590Y-118468995D01*
X104841352Y-117326138D02*
X104793733Y-117421376D01*
X104746114Y-117468995D01*
X104650876Y-117516614D01*
X104603257Y-117516614D01*
X104508019Y-117468995D01*
X104460400Y-117421376D01*
X104412780Y-117326138D01*
X104412780Y-117135661D01*
X104460400Y-117040423D01*
X104508019Y-116992804D01*
X104603257Y-116945185D01*
X104650876Y-116945185D01*
X104746114Y-116992804D01*
X104793733Y-117040423D01*
X104841352Y-117135661D01*
X104841352Y-117326138D01*
X104888971Y-117421376D01*
X104936590Y-117468995D01*
X105031828Y-117516614D01*
X105222304Y-117516614D01*
X105317542Y-117468995D01*
X105365161Y-117421376D01*
X105412780Y-117326138D01*
X105412780Y-117135661D01*
X105365161Y-117040423D01*
X105317542Y-116992804D01*
X105222304Y-116945185D01*
X105031828Y-116945185D01*
X104936590Y-116992804D01*
X104888971Y-117040423D01*
X104841352Y-117135661D01*
%TO.C,R11*%
X94226142Y-85194380D02*
X93892809Y-84718190D01*
X93654714Y-85194380D02*
X93654714Y-84194380D01*
X94035666Y-84194380D01*
X94130904Y-84242000D01*
X94178523Y-84289619D01*
X94226142Y-84384857D01*
X94226142Y-84527714D01*
X94178523Y-84622952D01*
X94130904Y-84670571D01*
X94035666Y-84718190D01*
X93654714Y-84718190D01*
X95178523Y-85194380D02*
X94607095Y-85194380D01*
X94892809Y-85194380D02*
X94892809Y-84194380D01*
X94797571Y-84337238D01*
X94702333Y-84432476D01*
X94607095Y-84480095D01*
X96130904Y-85194380D02*
X95559476Y-85194380D01*
X95845190Y-85194380D02*
X95845190Y-84194380D01*
X95749952Y-84337238D01*
X95654714Y-84432476D01*
X95559476Y-84480095D01*
%TO.C,R10*%
X106418142Y-84432380D02*
X106084809Y-83956190D01*
X105846714Y-84432380D02*
X105846714Y-83432380D01*
X106227666Y-83432380D01*
X106322904Y-83480000D01*
X106370523Y-83527619D01*
X106418142Y-83622857D01*
X106418142Y-83765714D01*
X106370523Y-83860952D01*
X106322904Y-83908571D01*
X106227666Y-83956190D01*
X105846714Y-83956190D01*
X107370523Y-84432380D02*
X106799095Y-84432380D01*
X107084809Y-84432380D02*
X107084809Y-83432380D01*
X106989571Y-83575238D01*
X106894333Y-83670476D01*
X106799095Y-83718095D01*
X107989571Y-83432380D02*
X108084809Y-83432380D01*
X108180047Y-83480000D01*
X108227666Y-83527619D01*
X108275285Y-83622857D01*
X108322904Y-83813333D01*
X108322904Y-84051428D01*
X108275285Y-84241904D01*
X108227666Y-84337142D01*
X108180047Y-84384761D01*
X108084809Y-84432380D01*
X107989571Y-84432380D01*
X107894333Y-84384761D01*
X107846714Y-84337142D01*
X107799095Y-84241904D01*
X107751476Y-84051428D01*
X107751476Y-83813333D01*
X107799095Y-83622857D01*
X107846714Y-83527619D01*
X107894333Y-83480000D01*
X107989571Y-83432380D01*
%TO.C,R7*%
X92846233Y-81943180D02*
X92512900Y-81466990D01*
X92274804Y-81943180D02*
X92274804Y-80943180D01*
X92655757Y-80943180D01*
X92750995Y-80990800D01*
X92798614Y-81038419D01*
X92846233Y-81133657D01*
X92846233Y-81276514D01*
X92798614Y-81371752D01*
X92750995Y-81419371D01*
X92655757Y-81466990D01*
X92274804Y-81466990D01*
X93179566Y-80943180D02*
X93846233Y-80943180D01*
X93417661Y-81943180D01*
%TO.C,R6*%
X92850033Y-83492580D02*
X92516700Y-83016390D01*
X92278604Y-83492580D02*
X92278604Y-82492580D01*
X92659557Y-82492580D01*
X92754795Y-82540200D01*
X92802414Y-82587819D01*
X92850033Y-82683057D01*
X92850033Y-82825914D01*
X92802414Y-82921152D01*
X92754795Y-82968771D01*
X92659557Y-83016390D01*
X92278604Y-83016390D01*
X93707176Y-82492580D02*
X93516700Y-82492580D01*
X93421461Y-82540200D01*
X93373842Y-82587819D01*
X93278604Y-82730676D01*
X93230985Y-82921152D01*
X93230985Y-83302104D01*
X93278604Y-83397342D01*
X93326223Y-83444961D01*
X93421461Y-83492580D01*
X93611938Y-83492580D01*
X93707176Y-83444961D01*
X93754795Y-83397342D01*
X93802414Y-83302104D01*
X93802414Y-83064009D01*
X93754795Y-82968771D01*
X93707176Y-82921152D01*
X93611938Y-82873533D01*
X93421461Y-82873533D01*
X93326223Y-82921152D01*
X93278604Y-82968771D01*
X93230985Y-83064009D01*
%TO.C,D2*%
X89471780Y-81546895D02*
X88471780Y-81546895D01*
X88471780Y-81308800D01*
X88519400Y-81165942D01*
X88614638Y-81070704D01*
X88709876Y-81023085D01*
X88900352Y-80975466D01*
X89043209Y-80975466D01*
X89233685Y-81023085D01*
X89328923Y-81070704D01*
X89424161Y-81165942D01*
X89471780Y-81308800D01*
X89471780Y-81546895D01*
X88567019Y-80594514D02*
X88519400Y-80546895D01*
X88471780Y-80451657D01*
X88471780Y-80213561D01*
X88519400Y-80118323D01*
X88567019Y-80070704D01*
X88662257Y-80023085D01*
X88757495Y-80023085D01*
X88900352Y-80070704D01*
X89471780Y-80642133D01*
X89471780Y-80023085D01*
%TD*%
M02*
