G04 #@! TF.GenerationSoftware,KiCad,Pcbnew,(5.1.6)-1*
G04 #@! TF.CreationDate,2021-04-16T13:49:19+02:00*
G04 #@! TF.ProjectId,Interfaceboard,496e7465-7266-4616-9365-626f6172642e,Version 1*
G04 #@! TF.SameCoordinates,Original*
G04 #@! TF.FileFunction,Soldermask,Top*
G04 #@! TF.FilePolarity,Negative*
%FSLAX46Y46*%
G04 Gerber Fmt 4.6, Leading zero omitted, Abs format (unit mm)*
G04 Created by KiCad (PCBNEW (5.1.6)-1) date 2021-04-16 13:49:19*
%MOMM*%
%LPD*%
G01*
G04 APERTURE LIST*
%ADD10C,3.300000*%
%ADD11R,1.000000X0.900000*%
%ADD12C,3.100000*%
%ADD13R,0.750000X1.160000*%
%ADD14R,0.550000X1.550000*%
%ADD15R,0.700000X0.800000*%
%ADD16R,1.750000X1.750000*%
%ADD17C,1.750000*%
%ADD18R,1.650000X1.400000*%
G04 APERTURE END LIST*
D10*
X109450000Y-125550000D03*
X180550000Y-54450000D03*
G36*
G01*
X118400000Y-80568750D02*
X118400000Y-81131250D01*
G75*
G02*
X118156250Y-81375000I-243750J0D01*
G01*
X117668750Y-81375000D01*
G75*
G02*
X117425000Y-81131250I0J243750D01*
G01*
X117425000Y-80568750D01*
G75*
G02*
X117668750Y-80325000I243750J0D01*
G01*
X118156250Y-80325000D01*
G75*
G02*
X118400000Y-80568750I0J-243750D01*
G01*
G37*
G36*
G01*
X119975000Y-80568750D02*
X119975000Y-81131250D01*
G75*
G02*
X119731250Y-81375000I-243750J0D01*
G01*
X119243750Y-81375000D01*
G75*
G02*
X119000000Y-81131250I0J243750D01*
G01*
X119000000Y-80568750D01*
G75*
G02*
X119243750Y-80325000I243750J0D01*
G01*
X119731250Y-80325000D01*
G75*
G02*
X119975000Y-80568750I0J-243750D01*
G01*
G37*
G36*
G01*
X118400000Y-75568750D02*
X118400000Y-76131250D01*
G75*
G02*
X118156250Y-76375000I-243750J0D01*
G01*
X117668750Y-76375000D01*
G75*
G02*
X117425000Y-76131250I0J243750D01*
G01*
X117425000Y-75568750D01*
G75*
G02*
X117668750Y-75325000I243750J0D01*
G01*
X118156250Y-75325000D01*
G75*
G02*
X118400000Y-75568750I0J-243750D01*
G01*
G37*
G36*
G01*
X119975000Y-75568750D02*
X119975000Y-76131250D01*
G75*
G02*
X119731250Y-76375000I-243750J0D01*
G01*
X119243750Y-76375000D01*
G75*
G02*
X119000000Y-76131250I0J243750D01*
G01*
X119000000Y-75568750D01*
G75*
G02*
X119243750Y-75325000I243750J0D01*
G01*
X119731250Y-75325000D01*
G75*
G02*
X119975000Y-75568750I0J-243750D01*
G01*
G37*
G36*
G01*
X122450000Y-80568750D02*
X122450000Y-81131250D01*
G75*
G02*
X122206250Y-81375000I-243750J0D01*
G01*
X121718750Y-81375000D01*
G75*
G02*
X121475000Y-81131250I0J243750D01*
G01*
X121475000Y-80568750D01*
G75*
G02*
X121718750Y-80325000I243750J0D01*
G01*
X122206250Y-80325000D01*
G75*
G02*
X122450000Y-80568750I0J-243750D01*
G01*
G37*
G36*
G01*
X124025000Y-80568750D02*
X124025000Y-81131250D01*
G75*
G02*
X123781250Y-81375000I-243750J0D01*
G01*
X123293750Y-81375000D01*
G75*
G02*
X123050000Y-81131250I0J243750D01*
G01*
X123050000Y-80568750D01*
G75*
G02*
X123293750Y-80325000I243750J0D01*
G01*
X123781250Y-80325000D01*
G75*
G02*
X124025000Y-80568750I0J-243750D01*
G01*
G37*
G36*
G01*
X122450000Y-75568750D02*
X122450000Y-76131250D01*
G75*
G02*
X122206250Y-76375000I-243750J0D01*
G01*
X121718750Y-76375000D01*
G75*
G02*
X121475000Y-76131250I0J243750D01*
G01*
X121475000Y-75568750D01*
G75*
G02*
X121718750Y-75325000I243750J0D01*
G01*
X122206250Y-75325000D01*
G75*
G02*
X122450000Y-75568750I0J-243750D01*
G01*
G37*
G36*
G01*
X124025000Y-75568750D02*
X124025000Y-76131250D01*
G75*
G02*
X123781250Y-76375000I-243750J0D01*
G01*
X123293750Y-76375000D01*
G75*
G02*
X123050000Y-76131250I0J243750D01*
G01*
X123050000Y-75568750D01*
G75*
G02*
X123293750Y-75325000I243750J0D01*
G01*
X123781250Y-75325000D01*
G75*
G02*
X124025000Y-75568750I0J-243750D01*
G01*
G37*
G36*
G01*
X159625000Y-77000000D02*
X159625000Y-76400000D01*
G75*
G02*
X159850000Y-76175000I225000J0D01*
G01*
X160300000Y-76175000D01*
G75*
G02*
X160525000Y-76400000I0J-225000D01*
G01*
X160525000Y-77000000D01*
G75*
G02*
X160300000Y-77225000I-225000J0D01*
G01*
X159850000Y-77225000D01*
G75*
G02*
X159625000Y-77000000I0J225000D01*
G01*
G37*
G36*
G01*
X157975000Y-77000000D02*
X157975000Y-76400000D01*
G75*
G02*
X158200000Y-76175000I225000J0D01*
G01*
X158650000Y-76175000D01*
G75*
G02*
X158875000Y-76400000I0J-225000D01*
G01*
X158875000Y-77000000D01*
G75*
G02*
X158650000Y-77225000I-225000J0D01*
G01*
X158200000Y-77225000D01*
G75*
G02*
X157975000Y-77000000I0J225000D01*
G01*
G37*
G36*
G01*
X158875000Y-78300000D02*
X158875000Y-78900000D01*
G75*
G02*
X158650000Y-79125000I-225000J0D01*
G01*
X158200000Y-79125000D01*
G75*
G02*
X157975000Y-78900000I0J225000D01*
G01*
X157975000Y-78300000D01*
G75*
G02*
X158200000Y-78075000I225000J0D01*
G01*
X158650000Y-78075000D01*
G75*
G02*
X158875000Y-78300000I0J-225000D01*
G01*
G37*
G36*
G01*
X160525000Y-78300000D02*
X160525000Y-78900000D01*
G75*
G02*
X160300000Y-79125000I-225000J0D01*
G01*
X159850000Y-79125000D01*
G75*
G02*
X159625000Y-78900000I0J225000D01*
G01*
X159625000Y-78300000D01*
G75*
G02*
X159850000Y-78075000I225000J0D01*
G01*
X160300000Y-78075000D01*
G75*
G02*
X160525000Y-78300000I0J-225000D01*
G01*
G37*
G36*
G01*
X156650000Y-81375000D02*
X157250000Y-81375000D01*
G75*
G02*
X157475000Y-81600000I0J-225000D01*
G01*
X157475000Y-82050000D01*
G75*
G02*
X157250000Y-82275000I-225000J0D01*
G01*
X156650000Y-82275000D01*
G75*
G02*
X156425000Y-82050000I0J225000D01*
G01*
X156425000Y-81600000D01*
G75*
G02*
X156650000Y-81375000I225000J0D01*
G01*
G37*
G36*
G01*
X156650000Y-79725000D02*
X157250000Y-79725000D01*
G75*
G02*
X157475000Y-79950000I0J-225000D01*
G01*
X157475000Y-80400000D01*
G75*
G02*
X157250000Y-80625000I-225000J0D01*
G01*
X156650000Y-80625000D01*
G75*
G02*
X156425000Y-80400000I0J225000D01*
G01*
X156425000Y-79950000D01*
G75*
G02*
X156650000Y-79725000I225000J0D01*
G01*
G37*
D11*
X154950000Y-77650000D03*
X156950000Y-76700000D03*
X156950000Y-78600000D03*
D12*
X133000000Y-58000000D03*
X142000000Y-58000000D03*
D13*
X170000000Y-72450000D03*
X171900000Y-72450000D03*
X171900000Y-74650000D03*
X170950000Y-74650000D03*
X170000000Y-74650000D03*
D14*
X163825000Y-66875000D03*
X164475000Y-66875000D03*
X165125000Y-66875000D03*
X165775000Y-66875000D03*
X165775000Y-62425000D03*
X165125000Y-62425000D03*
X164475000Y-62425000D03*
X163825000Y-62425000D03*
X175625000Y-66875000D03*
X176275000Y-66875000D03*
X176925000Y-66875000D03*
X177575000Y-66875000D03*
X177575000Y-62425000D03*
X176925000Y-62425000D03*
X176275000Y-62425000D03*
X175625000Y-62425000D03*
G36*
G01*
X175168750Y-116450000D02*
X175731250Y-116450000D01*
G75*
G02*
X175975000Y-116693750I0J-243750D01*
G01*
X175975000Y-117181250D01*
G75*
G02*
X175731250Y-117425000I-243750J0D01*
G01*
X175168750Y-117425000D01*
G75*
G02*
X174925000Y-117181250I0J243750D01*
G01*
X174925000Y-116693750D01*
G75*
G02*
X175168750Y-116450000I243750J0D01*
G01*
G37*
G36*
G01*
X175168750Y-114875000D02*
X175731250Y-114875000D01*
G75*
G02*
X175975000Y-115118750I0J-243750D01*
G01*
X175975000Y-115606250D01*
G75*
G02*
X175731250Y-115850000I-243750J0D01*
G01*
X175168750Y-115850000D01*
G75*
G02*
X174925000Y-115606250I0J243750D01*
G01*
X174925000Y-115118750D01*
G75*
G02*
X175168750Y-114875000I243750J0D01*
G01*
G37*
G36*
G01*
X171668750Y-65050000D02*
X172231250Y-65050000D01*
G75*
G02*
X172475000Y-65293750I0J-243750D01*
G01*
X172475000Y-65781250D01*
G75*
G02*
X172231250Y-66025000I-243750J0D01*
G01*
X171668750Y-66025000D01*
G75*
G02*
X171425000Y-65781250I0J243750D01*
G01*
X171425000Y-65293750D01*
G75*
G02*
X171668750Y-65050000I243750J0D01*
G01*
G37*
G36*
G01*
X171668750Y-63475000D02*
X172231250Y-63475000D01*
G75*
G02*
X172475000Y-63718750I0J-243750D01*
G01*
X172475000Y-64206250D01*
G75*
G02*
X172231250Y-64450000I-243750J0D01*
G01*
X171668750Y-64450000D01*
G75*
G02*
X171425000Y-64206250I0J243750D01*
G01*
X171425000Y-63718750D01*
G75*
G02*
X171668750Y-63475000I243750J0D01*
G01*
G37*
G36*
G01*
X171618750Y-79137500D02*
X172181250Y-79137500D01*
G75*
G02*
X172425000Y-79381250I0J-243750D01*
G01*
X172425000Y-79868750D01*
G75*
G02*
X172181250Y-80112500I-243750J0D01*
G01*
X171618750Y-80112500D01*
G75*
G02*
X171375000Y-79868750I0J243750D01*
G01*
X171375000Y-79381250D01*
G75*
G02*
X171618750Y-79137500I243750J0D01*
G01*
G37*
G36*
G01*
X171618750Y-77562500D02*
X172181250Y-77562500D01*
G75*
G02*
X172425000Y-77806250I0J-243750D01*
G01*
X172425000Y-78293750D01*
G75*
G02*
X172181250Y-78537500I-243750J0D01*
G01*
X171618750Y-78537500D01*
G75*
G02*
X171375000Y-78293750I0J243750D01*
G01*
X171375000Y-77806250D01*
G75*
G02*
X171618750Y-77562500I243750J0D01*
G01*
G37*
G36*
G01*
X171618750Y-82200000D02*
X172181250Y-82200000D01*
G75*
G02*
X172425000Y-82443750I0J-243750D01*
G01*
X172425000Y-82931250D01*
G75*
G02*
X172181250Y-83175000I-243750J0D01*
G01*
X171618750Y-83175000D01*
G75*
G02*
X171375000Y-82931250I0J243750D01*
G01*
X171375000Y-82443750D01*
G75*
G02*
X171618750Y-82200000I243750J0D01*
G01*
G37*
G36*
G01*
X171618750Y-80625000D02*
X172181250Y-80625000D01*
G75*
G02*
X172425000Y-80868750I0J-243750D01*
G01*
X172425000Y-81356250D01*
G75*
G02*
X172181250Y-81600000I-243750J0D01*
G01*
X171618750Y-81600000D01*
G75*
G02*
X171375000Y-81356250I0J243750D01*
G01*
X171375000Y-80868750D01*
G75*
G02*
X171618750Y-80625000I243750J0D01*
G01*
G37*
G36*
G01*
X174181250Y-115850000D02*
X173618750Y-115850000D01*
G75*
G02*
X173375000Y-115606250I0J243750D01*
G01*
X173375000Y-115118750D01*
G75*
G02*
X173618750Y-114875000I243750J0D01*
G01*
X174181250Y-114875000D01*
G75*
G02*
X174425000Y-115118750I0J-243750D01*
G01*
X174425000Y-115606250D01*
G75*
G02*
X174181250Y-115850000I-243750J0D01*
G01*
G37*
G36*
G01*
X174181250Y-117425000D02*
X173618750Y-117425000D01*
G75*
G02*
X173375000Y-117181250I0J243750D01*
G01*
X173375000Y-116693750D01*
G75*
G02*
X173618750Y-116450000I243750J0D01*
G01*
X174181250Y-116450000D01*
G75*
G02*
X174425000Y-116693750I0J-243750D01*
G01*
X174425000Y-117181250D01*
G75*
G02*
X174181250Y-117425000I-243750J0D01*
G01*
G37*
G36*
G01*
X158700000Y-101581250D02*
X158700000Y-101018750D01*
G75*
G02*
X158943750Y-100775000I243750J0D01*
G01*
X159431250Y-100775000D01*
G75*
G02*
X159675000Y-101018750I0J-243750D01*
G01*
X159675000Y-101581250D01*
G75*
G02*
X159431250Y-101825000I-243750J0D01*
G01*
X158943750Y-101825000D01*
G75*
G02*
X158700000Y-101581250I0J243750D01*
G01*
G37*
G36*
G01*
X157125000Y-101581250D02*
X157125000Y-101018750D01*
G75*
G02*
X157368750Y-100775000I243750J0D01*
G01*
X157856250Y-100775000D01*
G75*
G02*
X158100000Y-101018750I0J-243750D01*
G01*
X158100000Y-101581250D01*
G75*
G02*
X157856250Y-101825000I-243750J0D01*
G01*
X157368750Y-101825000D01*
G75*
G02*
X157125000Y-101581250I0J243750D01*
G01*
G37*
G36*
G01*
X158700000Y-103131250D02*
X158700000Y-102568750D01*
G75*
G02*
X158943750Y-102325000I243750J0D01*
G01*
X159431250Y-102325000D01*
G75*
G02*
X159675000Y-102568750I0J-243750D01*
G01*
X159675000Y-103131250D01*
G75*
G02*
X159431250Y-103375000I-243750J0D01*
G01*
X158943750Y-103375000D01*
G75*
G02*
X158700000Y-103131250I0J243750D01*
G01*
G37*
G36*
G01*
X157125000Y-103131250D02*
X157125000Y-102568750D01*
G75*
G02*
X157368750Y-102325000I243750J0D01*
G01*
X157856250Y-102325000D01*
G75*
G02*
X158100000Y-102568750I0J-243750D01*
G01*
X158100000Y-103131250D01*
G75*
G02*
X157856250Y-103375000I-243750J0D01*
G01*
X157368750Y-103375000D01*
G75*
G02*
X157125000Y-103131250I0J243750D01*
G01*
G37*
G36*
G01*
X154845000Y-109875000D02*
X157055000Y-109875000D01*
G75*
G02*
X157325000Y-110145000I0J-270000D01*
G01*
X157325000Y-110955000D01*
G75*
G02*
X157055000Y-111225000I-270000J0D01*
G01*
X154845000Y-111225000D01*
G75*
G02*
X154575000Y-110955000I0J270000D01*
G01*
X154575000Y-110145000D01*
G75*
G02*
X154845000Y-109875000I270000J0D01*
G01*
G37*
G36*
G01*
X154845000Y-107075000D02*
X157055000Y-107075000D01*
G75*
G02*
X157325000Y-107345000I0J-270000D01*
G01*
X157325000Y-108155000D01*
G75*
G02*
X157055000Y-108425000I-270000J0D01*
G01*
X154845000Y-108425000D01*
G75*
G02*
X154575000Y-108155000I0J270000D01*
G01*
X154575000Y-107345000D01*
G75*
G02*
X154845000Y-107075000I270000J0D01*
G01*
G37*
G36*
G01*
X163618750Y-71900000D02*
X164181250Y-71900000D01*
G75*
G02*
X164425000Y-72143750I0J-243750D01*
G01*
X164425000Y-72631250D01*
G75*
G02*
X164181250Y-72875000I-243750J0D01*
G01*
X163618750Y-72875000D01*
G75*
G02*
X163375000Y-72631250I0J243750D01*
G01*
X163375000Y-72143750D01*
G75*
G02*
X163618750Y-71900000I243750J0D01*
G01*
G37*
G36*
G01*
X163618750Y-70325000D02*
X164181250Y-70325000D01*
G75*
G02*
X164425000Y-70568750I0J-243750D01*
G01*
X164425000Y-71056250D01*
G75*
G02*
X164181250Y-71300000I-243750J0D01*
G01*
X163618750Y-71300000D01*
G75*
G02*
X163375000Y-71056250I0J243750D01*
G01*
X163375000Y-70568750D01*
G75*
G02*
X163618750Y-70325000I243750J0D01*
G01*
G37*
G36*
G01*
X158095000Y-109875000D02*
X160305000Y-109875000D01*
G75*
G02*
X160575000Y-110145000I0J-270000D01*
G01*
X160575000Y-110955000D01*
G75*
G02*
X160305000Y-111225000I-270000J0D01*
G01*
X158095000Y-111225000D01*
G75*
G02*
X157825000Y-110955000I0J270000D01*
G01*
X157825000Y-110145000D01*
G75*
G02*
X158095000Y-109875000I270000J0D01*
G01*
G37*
G36*
G01*
X158095000Y-107075000D02*
X160305000Y-107075000D01*
G75*
G02*
X160575000Y-107345000I0J-270000D01*
G01*
X160575000Y-108155000D01*
G75*
G02*
X160305000Y-108425000I-270000J0D01*
G01*
X158095000Y-108425000D01*
G75*
G02*
X157825000Y-108155000I0J270000D01*
G01*
X157825000Y-107345000D01*
G75*
G02*
X158095000Y-107075000I270000J0D01*
G01*
G37*
G36*
G01*
X165268750Y-71900000D02*
X165831250Y-71900000D01*
G75*
G02*
X166075000Y-72143750I0J-243750D01*
G01*
X166075000Y-72631250D01*
G75*
G02*
X165831250Y-72875000I-243750J0D01*
G01*
X165268750Y-72875000D01*
G75*
G02*
X165025000Y-72631250I0J243750D01*
G01*
X165025000Y-72143750D01*
G75*
G02*
X165268750Y-71900000I243750J0D01*
G01*
G37*
G36*
G01*
X165268750Y-70325000D02*
X165831250Y-70325000D01*
G75*
G02*
X166075000Y-70568750I0J-243750D01*
G01*
X166075000Y-71056250D01*
G75*
G02*
X165831250Y-71300000I-243750J0D01*
G01*
X165268750Y-71300000D01*
G75*
G02*
X165025000Y-71056250I0J243750D01*
G01*
X165025000Y-70568750D01*
G75*
G02*
X165268750Y-70325000I243750J0D01*
G01*
G37*
G36*
G01*
X167550000Y-101018750D02*
X167550000Y-101581250D01*
G75*
G02*
X167306250Y-101825000I-243750J0D01*
G01*
X166818750Y-101825000D01*
G75*
G02*
X166575000Y-101581250I0J243750D01*
G01*
X166575000Y-101018750D01*
G75*
G02*
X166818750Y-100775000I243750J0D01*
G01*
X167306250Y-100775000D01*
G75*
G02*
X167550000Y-101018750I0J-243750D01*
G01*
G37*
G36*
G01*
X169125000Y-101018750D02*
X169125000Y-101581250D01*
G75*
G02*
X168881250Y-101825000I-243750J0D01*
G01*
X168393750Y-101825000D01*
G75*
G02*
X168150000Y-101581250I0J243750D01*
G01*
X168150000Y-101018750D01*
G75*
G02*
X168393750Y-100775000I243750J0D01*
G01*
X168881250Y-100775000D01*
G75*
G02*
X169125000Y-101018750I0J-243750D01*
G01*
G37*
G36*
G01*
X167550000Y-102568750D02*
X167550000Y-103131250D01*
G75*
G02*
X167306250Y-103375000I-243750J0D01*
G01*
X166818750Y-103375000D01*
G75*
G02*
X166575000Y-103131250I0J243750D01*
G01*
X166575000Y-102568750D01*
G75*
G02*
X166818750Y-102325000I243750J0D01*
G01*
X167306250Y-102325000D01*
G75*
G02*
X167550000Y-102568750I0J-243750D01*
G01*
G37*
G36*
G01*
X169125000Y-102568750D02*
X169125000Y-103131250D01*
G75*
G02*
X168881250Y-103375000I-243750J0D01*
G01*
X168393750Y-103375000D01*
G75*
G02*
X168150000Y-103131250I0J243750D01*
G01*
X168150000Y-102568750D01*
G75*
G02*
X168393750Y-102325000I243750J0D01*
G01*
X168881250Y-102325000D01*
G75*
G02*
X169125000Y-102568750I0J-243750D01*
G01*
G37*
G36*
G01*
X162695000Y-109825000D02*
X164905000Y-109825000D01*
G75*
G02*
X165175000Y-110095000I0J-270000D01*
G01*
X165175000Y-110905000D01*
G75*
G02*
X164905000Y-111175000I-270000J0D01*
G01*
X162695000Y-111175000D01*
G75*
G02*
X162425000Y-110905000I0J270000D01*
G01*
X162425000Y-110095000D01*
G75*
G02*
X162695000Y-109825000I270000J0D01*
G01*
G37*
G36*
G01*
X162695000Y-107025000D02*
X164905000Y-107025000D01*
G75*
G02*
X165175000Y-107295000I0J-270000D01*
G01*
X165175000Y-108105000D01*
G75*
G02*
X164905000Y-108375000I-270000J0D01*
G01*
X162695000Y-108375000D01*
G75*
G02*
X162425000Y-108105000I0J270000D01*
G01*
X162425000Y-107295000D01*
G75*
G02*
X162695000Y-107025000I270000J0D01*
G01*
G37*
G36*
G01*
X175518750Y-71900000D02*
X176081250Y-71900000D01*
G75*
G02*
X176325000Y-72143750I0J-243750D01*
G01*
X176325000Y-72631250D01*
G75*
G02*
X176081250Y-72875000I-243750J0D01*
G01*
X175518750Y-72875000D01*
G75*
G02*
X175275000Y-72631250I0J243750D01*
G01*
X175275000Y-72143750D01*
G75*
G02*
X175518750Y-71900000I243750J0D01*
G01*
G37*
G36*
G01*
X175518750Y-70325000D02*
X176081250Y-70325000D01*
G75*
G02*
X176325000Y-70568750I0J-243750D01*
G01*
X176325000Y-71056250D01*
G75*
G02*
X176081250Y-71300000I-243750J0D01*
G01*
X175518750Y-71300000D01*
G75*
G02*
X175275000Y-71056250I0J243750D01*
G01*
X175275000Y-70568750D01*
G75*
G02*
X175518750Y-70325000I243750J0D01*
G01*
G37*
G36*
G01*
X165945000Y-109825000D02*
X168155000Y-109825000D01*
G75*
G02*
X168425000Y-110095000I0J-270000D01*
G01*
X168425000Y-110905000D01*
G75*
G02*
X168155000Y-111175000I-270000J0D01*
G01*
X165945000Y-111175000D01*
G75*
G02*
X165675000Y-110905000I0J270000D01*
G01*
X165675000Y-110095000D01*
G75*
G02*
X165945000Y-109825000I270000J0D01*
G01*
G37*
G36*
G01*
X165945000Y-107025000D02*
X168155000Y-107025000D01*
G75*
G02*
X168425000Y-107295000I0J-270000D01*
G01*
X168425000Y-108105000D01*
G75*
G02*
X168155000Y-108375000I-270000J0D01*
G01*
X165945000Y-108375000D01*
G75*
G02*
X165675000Y-108105000I0J270000D01*
G01*
X165675000Y-107295000D01*
G75*
G02*
X165945000Y-107025000I270000J0D01*
G01*
G37*
G36*
G01*
X177118750Y-71900000D02*
X177681250Y-71900000D01*
G75*
G02*
X177925000Y-72143750I0J-243750D01*
G01*
X177925000Y-72631250D01*
G75*
G02*
X177681250Y-72875000I-243750J0D01*
G01*
X177118750Y-72875000D01*
G75*
G02*
X176875000Y-72631250I0J243750D01*
G01*
X176875000Y-72143750D01*
G75*
G02*
X177118750Y-71900000I243750J0D01*
G01*
G37*
G36*
G01*
X177118750Y-70325000D02*
X177681250Y-70325000D01*
G75*
G02*
X177925000Y-70568750I0J-243750D01*
G01*
X177925000Y-71056250D01*
G75*
G02*
X177681250Y-71300000I-243750J0D01*
G01*
X177118750Y-71300000D01*
G75*
G02*
X176875000Y-71056250I0J243750D01*
G01*
X176875000Y-70568750D01*
G75*
G02*
X177118750Y-70325000I243750J0D01*
G01*
G37*
G36*
G01*
X150850000Y-67468750D02*
X150850000Y-68431250D01*
G75*
G02*
X150581250Y-68700000I-268750J0D01*
G01*
X150043750Y-68700000D01*
G75*
G02*
X149775000Y-68431250I0J268750D01*
G01*
X149775000Y-67468750D01*
G75*
G02*
X150043750Y-67200000I268750J0D01*
G01*
X150581250Y-67200000D01*
G75*
G02*
X150850000Y-67468750I0J-268750D01*
G01*
G37*
G36*
G01*
X152725000Y-67468750D02*
X152725000Y-68431250D01*
G75*
G02*
X152456250Y-68700000I-268750J0D01*
G01*
X151918750Y-68700000D01*
G75*
G02*
X151650000Y-68431250I0J268750D01*
G01*
X151650000Y-67468750D01*
G75*
G02*
X151918750Y-67200000I268750J0D01*
G01*
X152456250Y-67200000D01*
G75*
G02*
X152725000Y-67468750I0J-268750D01*
G01*
G37*
G36*
G01*
X151650000Y-65831250D02*
X151650000Y-64868750D01*
G75*
G02*
X151918750Y-64600000I268750J0D01*
G01*
X152456250Y-64600000D01*
G75*
G02*
X152725000Y-64868750I0J-268750D01*
G01*
X152725000Y-65831250D01*
G75*
G02*
X152456250Y-66100000I-268750J0D01*
G01*
X151918750Y-66100000D01*
G75*
G02*
X151650000Y-65831250I0J268750D01*
G01*
G37*
G36*
G01*
X149775000Y-65831250D02*
X149775000Y-64868750D01*
G75*
G02*
X150043750Y-64600000I268750J0D01*
G01*
X150581250Y-64600000D01*
G75*
G02*
X150850000Y-64868750I0J-268750D01*
G01*
X150850000Y-65831250D01*
G75*
G02*
X150581250Y-66100000I-268750J0D01*
G01*
X150043750Y-66100000D01*
G75*
G02*
X149775000Y-65831250I0J268750D01*
G01*
G37*
D15*
X167650000Y-119450000D03*
X169050000Y-119450000D03*
X160250000Y-119450000D03*
X158850000Y-119450000D03*
X162800000Y-119450000D03*
X164200000Y-119450000D03*
G36*
G01*
X169718750Y-77400000D02*
X170281250Y-77400000D01*
G75*
G02*
X170525000Y-77643750I0J-243750D01*
G01*
X170525000Y-78131250D01*
G75*
G02*
X170281250Y-78375000I-243750J0D01*
G01*
X169718750Y-78375000D01*
G75*
G02*
X169475000Y-78131250I0J243750D01*
G01*
X169475000Y-77643750D01*
G75*
G02*
X169718750Y-77400000I243750J0D01*
G01*
G37*
G36*
G01*
X169718750Y-75825000D02*
X170281250Y-75825000D01*
G75*
G02*
X170525000Y-76068750I0J-243750D01*
G01*
X170525000Y-76556250D01*
G75*
G02*
X170281250Y-76800000I-243750J0D01*
G01*
X169718750Y-76800000D01*
G75*
G02*
X169475000Y-76556250I0J243750D01*
G01*
X169475000Y-76068750D01*
G75*
G02*
X169718750Y-75825000I243750J0D01*
G01*
G37*
G36*
G01*
X173062500Y-62731250D02*
X173062500Y-62168750D01*
G75*
G02*
X173306250Y-61925000I243750J0D01*
G01*
X173793750Y-61925000D01*
G75*
G02*
X174037500Y-62168750I0J-243750D01*
G01*
X174037500Y-62731250D01*
G75*
G02*
X173793750Y-62975000I-243750J0D01*
G01*
X173306250Y-62975000D01*
G75*
G02*
X173062500Y-62731250I0J243750D01*
G01*
G37*
G36*
G01*
X171487500Y-62731250D02*
X171487500Y-62168750D01*
G75*
G02*
X171731250Y-61925000I243750J0D01*
G01*
X172218750Y-61925000D01*
G75*
G02*
X172462500Y-62168750I0J-243750D01*
G01*
X172462500Y-62731250D01*
G75*
G02*
X172218750Y-62975000I-243750J0D01*
G01*
X171731250Y-62975000D01*
G75*
G02*
X171487500Y-62731250I0J243750D01*
G01*
G37*
G36*
G01*
X173000000Y-76831250D02*
X173000000Y-76268750D01*
G75*
G02*
X173243750Y-76025000I243750J0D01*
G01*
X173731250Y-76025000D01*
G75*
G02*
X173975000Y-76268750I0J-243750D01*
G01*
X173975000Y-76831250D01*
G75*
G02*
X173731250Y-77075000I-243750J0D01*
G01*
X173243750Y-77075000D01*
G75*
G02*
X173000000Y-76831250I0J243750D01*
G01*
G37*
G36*
G01*
X171425000Y-76831250D02*
X171425000Y-76268750D01*
G75*
G02*
X171668750Y-76025000I243750J0D01*
G01*
X172156250Y-76025000D01*
G75*
G02*
X172400000Y-76268750I0J-243750D01*
G01*
X172400000Y-76831250D01*
G75*
G02*
X172156250Y-77075000I-243750J0D01*
G01*
X171668750Y-77075000D01*
G75*
G02*
X171425000Y-76831250I0J243750D01*
G01*
G37*
G36*
G01*
X168068750Y-73500000D02*
X168631250Y-73500000D01*
G75*
G02*
X168875000Y-73743750I0J-243750D01*
G01*
X168875000Y-74231250D01*
G75*
G02*
X168631250Y-74475000I-243750J0D01*
G01*
X168068750Y-74475000D01*
G75*
G02*
X167825000Y-74231250I0J243750D01*
G01*
X167825000Y-73743750D01*
G75*
G02*
X168068750Y-73500000I243750J0D01*
G01*
G37*
G36*
G01*
X168068750Y-71925000D02*
X168631250Y-71925000D01*
G75*
G02*
X168875000Y-72168750I0J-243750D01*
G01*
X168875000Y-72656250D01*
G75*
G02*
X168631250Y-72900000I-243750J0D01*
G01*
X168068750Y-72900000D01*
G75*
G02*
X167825000Y-72656250I0J243750D01*
G01*
X167825000Y-72168750D01*
G75*
G02*
X168068750Y-71925000I243750J0D01*
G01*
G37*
G36*
G01*
X170481250Y-69500000D02*
X169518750Y-69500000D01*
G75*
G02*
X169250000Y-69231250I0J268750D01*
G01*
X169250000Y-68693750D01*
G75*
G02*
X169518750Y-68425000I268750J0D01*
G01*
X170481250Y-68425000D01*
G75*
G02*
X170750000Y-68693750I0J-268750D01*
G01*
X170750000Y-69231250D01*
G75*
G02*
X170481250Y-69500000I-268750J0D01*
G01*
G37*
G36*
G01*
X170481250Y-71375000D02*
X169518750Y-71375000D01*
G75*
G02*
X169250000Y-71106250I0J268750D01*
G01*
X169250000Y-70568750D01*
G75*
G02*
X169518750Y-70300000I268750J0D01*
G01*
X170481250Y-70300000D01*
G75*
G02*
X170750000Y-70568750I0J-268750D01*
G01*
X170750000Y-71106250D01*
G75*
G02*
X170481250Y-71375000I-268750J0D01*
G01*
G37*
G36*
G01*
X154531250Y-68487500D02*
X153568750Y-68487500D01*
G75*
G02*
X153300000Y-68218750I0J268750D01*
G01*
X153300000Y-67681250D01*
G75*
G02*
X153568750Y-67412500I268750J0D01*
G01*
X154531250Y-67412500D01*
G75*
G02*
X154800000Y-67681250I0J-268750D01*
G01*
X154800000Y-68218750D01*
G75*
G02*
X154531250Y-68487500I-268750J0D01*
G01*
G37*
G36*
G01*
X154531250Y-70362500D02*
X153568750Y-70362500D01*
G75*
G02*
X153300000Y-70093750I0J268750D01*
G01*
X153300000Y-69556250D01*
G75*
G02*
X153568750Y-69287500I268750J0D01*
G01*
X154531250Y-69287500D01*
G75*
G02*
X154800000Y-69556250I0J-268750D01*
G01*
X154800000Y-70093750D01*
G75*
G02*
X154531250Y-70362500I-268750J0D01*
G01*
G37*
G36*
G01*
X154531250Y-64050000D02*
X153568750Y-64050000D01*
G75*
G02*
X153300000Y-63781250I0J268750D01*
G01*
X153300000Y-63243750D01*
G75*
G02*
X153568750Y-62975000I268750J0D01*
G01*
X154531250Y-62975000D01*
G75*
G02*
X154800000Y-63243750I0J-268750D01*
G01*
X154800000Y-63781250D01*
G75*
G02*
X154531250Y-64050000I-268750J0D01*
G01*
G37*
G36*
G01*
X154531250Y-65925000D02*
X153568750Y-65925000D01*
G75*
G02*
X153300000Y-65656250I0J268750D01*
G01*
X153300000Y-65118750D01*
G75*
G02*
X153568750Y-64850000I268750J0D01*
G01*
X154531250Y-64850000D01*
G75*
G02*
X154800000Y-65118750I0J-268750D01*
G01*
X154800000Y-65656250D01*
G75*
G02*
X154531250Y-65925000I-268750J0D01*
G01*
G37*
G36*
G01*
X167731250Y-65950000D02*
X167168750Y-65950000D01*
G75*
G02*
X166925000Y-65706250I0J243750D01*
G01*
X166925000Y-65218750D01*
G75*
G02*
X167168750Y-64975000I243750J0D01*
G01*
X167731250Y-64975000D01*
G75*
G02*
X167975000Y-65218750I0J-243750D01*
G01*
X167975000Y-65706250D01*
G75*
G02*
X167731250Y-65950000I-243750J0D01*
G01*
G37*
G36*
G01*
X167731250Y-67525000D02*
X167168750Y-67525000D01*
G75*
G02*
X166925000Y-67281250I0J243750D01*
G01*
X166925000Y-66793750D01*
G75*
G02*
X167168750Y-66550000I243750J0D01*
G01*
X167731250Y-66550000D01*
G75*
G02*
X167975000Y-66793750I0J-243750D01*
G01*
X167975000Y-67281250D01*
G75*
G02*
X167731250Y-67525000I-243750J0D01*
G01*
G37*
G36*
G01*
X162068750Y-70200000D02*
X162631250Y-70200000D01*
G75*
G02*
X162875000Y-70443750I0J-243750D01*
G01*
X162875000Y-70931250D01*
G75*
G02*
X162631250Y-71175000I-243750J0D01*
G01*
X162068750Y-71175000D01*
G75*
G02*
X161825000Y-70931250I0J243750D01*
G01*
X161825000Y-70443750D01*
G75*
G02*
X162068750Y-70200000I243750J0D01*
G01*
G37*
G36*
G01*
X162068750Y-68625000D02*
X162631250Y-68625000D01*
G75*
G02*
X162875000Y-68868750I0J-243750D01*
G01*
X162875000Y-69356250D01*
G75*
G02*
X162631250Y-69600000I-243750J0D01*
G01*
X162068750Y-69600000D01*
G75*
G02*
X161825000Y-69356250I0J243750D01*
G01*
X161825000Y-68868750D01*
G75*
G02*
X162068750Y-68625000I243750J0D01*
G01*
G37*
G36*
G01*
X164450000Y-68868750D02*
X164450000Y-69431250D01*
G75*
G02*
X164206250Y-69675000I-243750J0D01*
G01*
X163718750Y-69675000D01*
G75*
G02*
X163475000Y-69431250I0J243750D01*
G01*
X163475000Y-68868750D01*
G75*
G02*
X163718750Y-68625000I243750J0D01*
G01*
X164206250Y-68625000D01*
G75*
G02*
X164450000Y-68868750I0J-243750D01*
G01*
G37*
G36*
G01*
X166025000Y-68868750D02*
X166025000Y-69431250D01*
G75*
G02*
X165781250Y-69675000I-243750J0D01*
G01*
X165293750Y-69675000D01*
G75*
G02*
X165050000Y-69431250I0J243750D01*
G01*
X165050000Y-68868750D01*
G75*
G02*
X165293750Y-68625000I243750J0D01*
G01*
X165781250Y-68625000D01*
G75*
G02*
X166025000Y-68868750I0J-243750D01*
G01*
G37*
G36*
G01*
X167381250Y-69600000D02*
X166818750Y-69600000D01*
G75*
G02*
X166575000Y-69356250I0J243750D01*
G01*
X166575000Y-68868750D01*
G75*
G02*
X166818750Y-68625000I243750J0D01*
G01*
X167381250Y-68625000D01*
G75*
G02*
X167625000Y-68868750I0J-243750D01*
G01*
X167625000Y-69356250D01*
G75*
G02*
X167381250Y-69600000I-243750J0D01*
G01*
G37*
G36*
G01*
X167381250Y-71175000D02*
X166818750Y-71175000D01*
G75*
G02*
X166575000Y-70931250I0J243750D01*
G01*
X166575000Y-70443750D01*
G75*
G02*
X166818750Y-70200000I243750J0D01*
G01*
X167381250Y-70200000D01*
G75*
G02*
X167625000Y-70443750I0J-243750D01*
G01*
X167625000Y-70931250D01*
G75*
G02*
X167381250Y-71175000I-243750J0D01*
G01*
G37*
G36*
G01*
X167168750Y-63450000D02*
X167731250Y-63450000D01*
G75*
G02*
X167975000Y-63693750I0J-243750D01*
G01*
X167975000Y-64181250D01*
G75*
G02*
X167731250Y-64425000I-243750J0D01*
G01*
X167168750Y-64425000D01*
G75*
G02*
X166925000Y-64181250I0J243750D01*
G01*
X166925000Y-63693750D01*
G75*
G02*
X167168750Y-63450000I243750J0D01*
G01*
G37*
G36*
G01*
X167168750Y-61875000D02*
X167731250Y-61875000D01*
G75*
G02*
X167975000Y-62118750I0J-243750D01*
G01*
X167975000Y-62606250D01*
G75*
G02*
X167731250Y-62850000I-243750J0D01*
G01*
X167168750Y-62850000D01*
G75*
G02*
X166925000Y-62606250I0J243750D01*
G01*
X166925000Y-62118750D01*
G75*
G02*
X167168750Y-61875000I243750J0D01*
G01*
G37*
G36*
G01*
X179531250Y-65900000D02*
X178968750Y-65900000D01*
G75*
G02*
X178725000Y-65656250I0J243750D01*
G01*
X178725000Y-65168750D01*
G75*
G02*
X178968750Y-64925000I243750J0D01*
G01*
X179531250Y-64925000D01*
G75*
G02*
X179775000Y-65168750I0J-243750D01*
G01*
X179775000Y-65656250D01*
G75*
G02*
X179531250Y-65900000I-243750J0D01*
G01*
G37*
G36*
G01*
X179531250Y-67475000D02*
X178968750Y-67475000D01*
G75*
G02*
X178725000Y-67231250I0J243750D01*
G01*
X178725000Y-66743750D01*
G75*
G02*
X178968750Y-66500000I243750J0D01*
G01*
X179531250Y-66500000D01*
G75*
G02*
X179775000Y-66743750I0J-243750D01*
G01*
X179775000Y-67231250D01*
G75*
G02*
X179531250Y-67475000I-243750J0D01*
G01*
G37*
G36*
G01*
X173968750Y-70200000D02*
X174531250Y-70200000D01*
G75*
G02*
X174775000Y-70443750I0J-243750D01*
G01*
X174775000Y-70931250D01*
G75*
G02*
X174531250Y-71175000I-243750J0D01*
G01*
X173968750Y-71175000D01*
G75*
G02*
X173725000Y-70931250I0J243750D01*
G01*
X173725000Y-70443750D01*
G75*
G02*
X173968750Y-70200000I243750J0D01*
G01*
G37*
G36*
G01*
X173968750Y-68625000D02*
X174531250Y-68625000D01*
G75*
G02*
X174775000Y-68868750I0J-243750D01*
G01*
X174775000Y-69356250D01*
G75*
G02*
X174531250Y-69600000I-243750J0D01*
G01*
X173968750Y-69600000D01*
G75*
G02*
X173725000Y-69356250I0J243750D01*
G01*
X173725000Y-68868750D01*
G75*
G02*
X173968750Y-68625000I243750J0D01*
G01*
G37*
G36*
G01*
X176300000Y-68868750D02*
X176300000Y-69431250D01*
G75*
G02*
X176056250Y-69675000I-243750J0D01*
G01*
X175568750Y-69675000D01*
G75*
G02*
X175325000Y-69431250I0J243750D01*
G01*
X175325000Y-68868750D01*
G75*
G02*
X175568750Y-68625000I243750J0D01*
G01*
X176056250Y-68625000D01*
G75*
G02*
X176300000Y-68868750I0J-243750D01*
G01*
G37*
G36*
G01*
X177875000Y-68868750D02*
X177875000Y-69431250D01*
G75*
G02*
X177631250Y-69675000I-243750J0D01*
G01*
X177143750Y-69675000D01*
G75*
G02*
X176900000Y-69431250I0J243750D01*
G01*
X176900000Y-68868750D01*
G75*
G02*
X177143750Y-68625000I243750J0D01*
G01*
X177631250Y-68625000D01*
G75*
G02*
X177875000Y-68868750I0J-243750D01*
G01*
G37*
G36*
G01*
X179231250Y-69600000D02*
X178668750Y-69600000D01*
G75*
G02*
X178425000Y-69356250I0J243750D01*
G01*
X178425000Y-68868750D01*
G75*
G02*
X178668750Y-68625000I243750J0D01*
G01*
X179231250Y-68625000D01*
G75*
G02*
X179475000Y-68868750I0J-243750D01*
G01*
X179475000Y-69356250D01*
G75*
G02*
X179231250Y-69600000I-243750J0D01*
G01*
G37*
G36*
G01*
X179231250Y-71175000D02*
X178668750Y-71175000D01*
G75*
G02*
X178425000Y-70931250I0J243750D01*
G01*
X178425000Y-70443750D01*
G75*
G02*
X178668750Y-70200000I243750J0D01*
G01*
X179231250Y-70200000D01*
G75*
G02*
X179475000Y-70443750I0J-243750D01*
G01*
X179475000Y-70931250D01*
G75*
G02*
X179231250Y-71175000I-243750J0D01*
G01*
G37*
G36*
G01*
X178968750Y-63400000D02*
X179531250Y-63400000D01*
G75*
G02*
X179775000Y-63643750I0J-243750D01*
G01*
X179775000Y-64131250D01*
G75*
G02*
X179531250Y-64375000I-243750J0D01*
G01*
X178968750Y-64375000D01*
G75*
G02*
X178725000Y-64131250I0J243750D01*
G01*
X178725000Y-63643750D01*
G75*
G02*
X178968750Y-63400000I243750J0D01*
G01*
G37*
G36*
G01*
X178968750Y-61825000D02*
X179531250Y-61825000D01*
G75*
G02*
X179775000Y-62068750I0J-243750D01*
G01*
X179775000Y-62556250D01*
G75*
G02*
X179531250Y-62800000I-243750J0D01*
G01*
X178968750Y-62800000D01*
G75*
G02*
X178725000Y-62556250I0J243750D01*
G01*
X178725000Y-62068750D01*
G75*
G02*
X178968750Y-61825000I243750J0D01*
G01*
G37*
D16*
X124690000Y-58260000D03*
D17*
X124690000Y-55720000D03*
X122150000Y-58260000D03*
X122150000Y-55720000D03*
X119610000Y-58260000D03*
X119610000Y-55720000D03*
X117070000Y-58260000D03*
X117070000Y-55720000D03*
X114530000Y-58260000D03*
X114530000Y-55720000D03*
D16*
X175470000Y-58260000D03*
D17*
X175470000Y-55720000D03*
X172930000Y-58260000D03*
X172930000Y-55720000D03*
X170390000Y-58260000D03*
X170390000Y-55720000D03*
X167850000Y-58260000D03*
X167850000Y-55720000D03*
X165310000Y-58260000D03*
X165310000Y-55720000D03*
D16*
X160240000Y-121740000D03*
D17*
X160240000Y-124280000D03*
X162780000Y-121740000D03*
X162780000Y-124280000D03*
X165320000Y-121740000D03*
X165320000Y-124280000D03*
X167860000Y-121740000D03*
X167860000Y-124280000D03*
X170400000Y-121740000D03*
X170400000Y-124280000D03*
D16*
X119600000Y-121740000D03*
D17*
X119600000Y-124280000D03*
X122140000Y-121740000D03*
X122140000Y-124280000D03*
X124680000Y-121740000D03*
X124680000Y-124280000D03*
X127220000Y-121740000D03*
X127220000Y-124280000D03*
X129760000Y-121740000D03*
X129760000Y-124280000D03*
D12*
X152050000Y-58000000D03*
X152050000Y-123500000D03*
X167100000Y-83800000D03*
X131950000Y-90500000D03*
D18*
X117170000Y-65500000D03*
X117170000Y-70000000D03*
X125130000Y-70000000D03*
X125130000Y-65500000D03*
G36*
G01*
X128350000Y-65781250D02*
X128350000Y-65218750D01*
G75*
G02*
X128593750Y-64975000I243750J0D01*
G01*
X129081250Y-64975000D01*
G75*
G02*
X129325000Y-65218750I0J-243750D01*
G01*
X129325000Y-65781250D01*
G75*
G02*
X129081250Y-66025000I-243750J0D01*
G01*
X128593750Y-66025000D01*
G75*
G02*
X128350000Y-65781250I0J243750D01*
G01*
G37*
G36*
G01*
X126775000Y-65781250D02*
X126775000Y-65218750D01*
G75*
G02*
X127018750Y-64975000I243750J0D01*
G01*
X127506250Y-64975000D01*
G75*
G02*
X127750000Y-65218750I0J-243750D01*
G01*
X127750000Y-65781250D01*
G75*
G02*
X127506250Y-66025000I-243750J0D01*
G01*
X127018750Y-66025000D01*
G75*
G02*
X126775000Y-65781250I0J243750D01*
G01*
G37*
M02*
