G04 #@! TF.GenerationSoftware,KiCad,Pcbnew,(5.1.6)-1*
G04 #@! TF.CreationDate,2021-04-16T13:49:19+02:00*
G04 #@! TF.ProjectId,Interfaceboard,496e7465-7266-4616-9365-626f6172642e,Version 1*
G04 #@! TF.SameCoordinates,Original*
G04 #@! TF.FileFunction,Copper,L2,Bot*
G04 #@! TF.FilePolarity,Positive*
%FSLAX46Y46*%
G04 Gerber Fmt 4.6, Leading zero omitted, Abs format (unit mm)*
G04 Created by KiCad (PCBNEW (5.1.6)-1) date 2021-04-16 13:49:19*
%MOMM*%
%LPD*%
G01*
G04 APERTURE LIST*
G04 #@! TA.AperFunction,ComponentPad*
%ADD10C,3.000000*%
G04 #@! TD*
G04 #@! TA.AperFunction,ComponentPad*
%ADD11R,1.650000X1.650000*%
G04 #@! TD*
G04 #@! TA.AperFunction,ComponentPad*
%ADD12C,1.650000*%
G04 #@! TD*
G04 #@! TA.AperFunction,ViaPad*
%ADD13C,0.800000*%
G04 #@! TD*
G04 #@! TA.AperFunction,Conductor*
%ADD14C,0.450000*%
G04 #@! TD*
G04 #@! TA.AperFunction,Conductor*
%ADD15C,0.500000*%
G04 #@! TD*
G04 #@! TA.AperFunction,Conductor*
%ADD16C,0.250000*%
G04 #@! TD*
G04 #@! TA.AperFunction,Conductor*
%ADD17C,0.254000*%
G04 #@! TD*
G04 APERTURE END LIST*
D10*
X133000000Y-58000000D03*
X142000000Y-58000000D03*
D11*
X124690000Y-58260000D03*
D12*
X124690000Y-55720000D03*
X122150000Y-58260000D03*
X122150000Y-55720000D03*
X119610000Y-58260000D03*
X119610000Y-55720000D03*
X117070000Y-58260000D03*
X117070000Y-55720000D03*
X114530000Y-58260000D03*
X114530000Y-55720000D03*
D11*
X175470000Y-58260000D03*
D12*
X175470000Y-55720000D03*
X172930000Y-58260000D03*
X172930000Y-55720000D03*
X170390000Y-58260000D03*
X170390000Y-55720000D03*
X167850000Y-58260000D03*
X167850000Y-55720000D03*
X165310000Y-58260000D03*
X165310000Y-55720000D03*
D11*
X160240000Y-121740000D03*
D12*
X160240000Y-124280000D03*
X162780000Y-121740000D03*
X162780000Y-124280000D03*
X165320000Y-121740000D03*
X165320000Y-124280000D03*
X167860000Y-121740000D03*
X167860000Y-124280000D03*
X170400000Y-121740000D03*
X170400000Y-124280000D03*
D11*
X119600000Y-121740000D03*
D12*
X119600000Y-124280000D03*
X122140000Y-121740000D03*
X122140000Y-124280000D03*
X124680000Y-121740000D03*
X124680000Y-124280000D03*
X127220000Y-121740000D03*
X127220000Y-124280000D03*
X129760000Y-121740000D03*
X129760000Y-124280000D03*
D10*
X152050000Y-58000000D03*
X152050000Y-123500000D03*
X167100000Y-83800000D03*
X131950000Y-90500000D03*
D13*
X118000000Y-126500000D03*
X113050000Y-128000000D03*
X107000000Y-122000000D03*
X107000000Y-116000000D03*
X107000000Y-110000000D03*
X107000000Y-103000000D03*
X107000000Y-95000000D03*
X107000000Y-87000000D03*
X107000000Y-78000000D03*
X107000000Y-68000000D03*
X107000000Y-59000000D03*
X115000000Y-51000000D03*
X127000000Y-51000000D03*
X138000000Y-51000000D03*
X148000000Y-51000000D03*
X159000000Y-51000000D03*
X169000000Y-51000000D03*
X178000000Y-51000000D03*
X184000000Y-58000000D03*
X184000000Y-66000000D03*
X184000000Y-78000000D03*
X184000000Y-88000000D03*
X184000000Y-97000000D03*
X184000000Y-106000000D03*
X184000000Y-115000000D03*
X184000000Y-124000000D03*
X179000000Y-129000000D03*
X173000000Y-129000000D03*
X169000000Y-127000000D03*
X167000000Y-127000000D03*
X163000000Y-127000000D03*
X161000000Y-127000000D03*
X150000000Y-127000000D03*
X146000000Y-127000000D03*
X137350000Y-126500000D03*
X130000000Y-126500000D03*
X157750000Y-119500000D03*
X165250000Y-119500000D03*
X170250000Y-119500000D03*
X175500000Y-118250000D03*
X161500000Y-115750000D03*
X161500000Y-112000000D03*
X159000000Y-113750000D03*
X163750000Y-113750000D03*
X157500000Y-100000000D03*
X157500000Y-104250000D03*
X169000000Y-100000000D03*
X169000000Y-104250000D03*
X165500000Y-94500000D03*
X168350000Y-78050000D03*
X167100000Y-71950000D03*
X165550000Y-73600000D03*
X177400000Y-73600000D03*
X179000000Y-72000000D03*
X168550000Y-68950000D03*
X168350000Y-75200000D03*
X161000000Y-70750000D03*
X166250000Y-64650000D03*
X178050000Y-64650000D03*
X166500000Y-53750000D03*
X169250000Y-53750000D03*
X171750000Y-53750000D03*
X174250000Y-53750000D03*
X126750000Y-55500000D03*
X161000000Y-66250000D03*
X155500000Y-69750000D03*
X152500000Y-69750000D03*
X158400000Y-75500000D03*
X156950000Y-75500000D03*
X161750000Y-77500000D03*
X159000000Y-94500000D03*
X148500000Y-90750000D03*
X148500000Y-68250000D03*
X128250000Y-111500000D03*
X128500000Y-115750000D03*
X121000000Y-126500000D03*
X123500000Y-126500000D03*
X127500000Y-126500000D03*
X126250000Y-109750000D03*
X153000000Y-94500000D03*
X145250000Y-102750000D03*
X132000000Y-115000000D03*
X146000000Y-115000000D03*
X123500000Y-74500000D03*
X123500000Y-77250000D03*
X123500000Y-79500000D03*
X123500000Y-82250000D03*
X114500000Y-76750000D03*
X123000000Y-60500000D03*
X121250000Y-67750000D03*
X116750000Y-73250000D03*
X121500000Y-87000000D03*
X121500000Y-95000000D03*
X121500000Y-103000000D03*
X121500000Y-110000000D03*
X121500000Y-116000000D03*
X142000000Y-87000000D03*
X142000000Y-79500000D03*
X142000000Y-72000000D03*
X142000000Y-64500000D03*
X134500000Y-64500000D03*
X134500000Y-72000000D03*
X134500000Y-79500000D03*
X134500000Y-87000000D03*
X130500000Y-99750000D03*
X171750000Y-111750000D03*
X152500000Y-63500000D03*
X155500000Y-63500000D03*
X155500000Y-66750000D03*
X179250000Y-61000000D03*
X174750000Y-62450000D03*
X165500000Y-112000000D03*
X157250000Y-112000000D03*
X173450000Y-67200000D03*
X174250000Y-71950000D03*
X173500000Y-75300000D03*
X173500000Y-77950000D03*
X142750000Y-93150000D03*
X136350000Y-99950000D03*
X130450000Y-105850000D03*
X126400000Y-98250000D03*
X126600000Y-88850000D03*
X138950000Y-108250000D03*
X149550000Y-98400000D03*
X153250000Y-86050000D03*
X148550000Y-82500000D03*
X148450000Y-74850000D03*
X151750000Y-78650000D03*
X158850000Y-80700000D03*
X159000000Y-86800000D03*
X162150000Y-91400000D03*
X162000000Y-83200000D03*
X165300000Y-86700000D03*
X165200000Y-79500000D03*
X161150000Y-98100000D03*
X164950000Y-105300000D03*
X149550000Y-103550000D03*
X149350000Y-114950000D03*
X138850000Y-119100000D03*
X158950000Y-58100000D03*
X180500000Y-63900000D03*
X180500000Y-65400000D03*
X180250000Y-70700000D03*
X169250000Y-64750000D03*
X170000000Y-67700000D03*
X173200000Y-73550000D03*
X174500000Y-85750000D03*
X170500000Y-90250000D03*
X173950000Y-92000000D03*
X174250000Y-98050000D03*
X169050000Y-96900000D03*
X174250000Y-104950000D03*
X177350000Y-82900000D03*
X177150000Y-94750000D03*
X177150000Y-107950000D03*
X170050000Y-63900000D03*
X177350000Y-63850000D03*
X170050000Y-65500000D03*
X177350000Y-65500000D03*
X160100000Y-74850000D03*
X176900000Y-60950000D03*
X165299989Y-60949989D03*
X168350000Y-71000000D03*
X148250000Y-93150000D03*
X129500000Y-111850000D03*
X171900000Y-85150000D03*
X175449998Y-90950000D03*
D14*
X170050000Y-63900000D02*
X177300000Y-63900000D01*
D15*
X177300000Y-63900000D02*
X177350000Y-63850000D01*
D14*
X170050000Y-65500000D02*
X177350000Y-65500000D01*
D15*
X160100000Y-74850000D02*
X168400000Y-66550000D01*
D16*
X168400000Y-63950000D02*
X168400000Y-64000000D01*
D15*
X168400000Y-66550000D02*
X168400000Y-64000000D01*
X168400000Y-63950000D02*
X165399989Y-60949989D01*
D16*
X165399989Y-60949989D02*
X165299989Y-60949989D01*
D15*
X171400000Y-60950000D02*
X176900000Y-60950000D01*
X168400000Y-63950000D02*
X171400000Y-60950000D01*
D16*
X119600000Y-121740000D02*
X119660000Y-121740000D01*
D15*
X168350000Y-73050000D02*
X168350000Y-71000000D01*
X148250000Y-93150000D02*
X168350000Y-73050000D01*
X119600000Y-121740000D02*
X129490000Y-111850000D01*
X129490000Y-111850000D02*
X129500000Y-111850000D01*
X175449998Y-88699998D02*
X175449998Y-90950000D01*
X171900000Y-85150000D02*
X175449998Y-88699998D01*
D17*
G36*
X184114994Y-50419222D02*
G01*
X184225614Y-50452620D01*
X184327639Y-50506868D01*
X184417179Y-50579895D01*
X184490833Y-50668925D01*
X184545792Y-50770572D01*
X184579960Y-50880949D01*
X184594001Y-51014538D01*
X184594000Y-128980146D01*
X184580778Y-129114994D01*
X184547379Y-129225615D01*
X184493132Y-129327639D01*
X184420106Y-129417179D01*
X184331072Y-129490834D01*
X184229428Y-129545792D01*
X184119051Y-129579960D01*
X183985472Y-129594000D01*
X106019854Y-129594000D01*
X105885006Y-129580778D01*
X105774385Y-129547379D01*
X105672361Y-129493132D01*
X105582821Y-129420106D01*
X105509166Y-129331072D01*
X105454208Y-129229428D01*
X105420040Y-129119051D01*
X105406000Y-128985472D01*
X105406000Y-125202621D01*
X105923000Y-125202621D01*
X105923000Y-125897379D01*
X106058540Y-126578788D01*
X106324413Y-127220661D01*
X106710400Y-127798332D01*
X107201668Y-128289600D01*
X107779339Y-128675587D01*
X108421212Y-128941460D01*
X109102621Y-129077000D01*
X109797379Y-129077000D01*
X110478788Y-128941460D01*
X111120661Y-128675587D01*
X111698332Y-128289600D01*
X112189600Y-127798332D01*
X112575587Y-127220661D01*
X112841460Y-126578788D01*
X112977000Y-125897379D01*
X112977000Y-125202621D01*
X112967374Y-125154224D01*
X118905381Y-125154224D01*
X118994369Y-125329645D01*
X119210782Y-125427629D01*
X119442151Y-125481510D01*
X119679587Y-125489218D01*
X119913964Y-125450457D01*
X120136275Y-125366716D01*
X120205631Y-125329645D01*
X120294619Y-125154224D01*
X121445381Y-125154224D01*
X121534369Y-125329645D01*
X121750782Y-125427629D01*
X121982151Y-125481510D01*
X122219587Y-125489218D01*
X122453964Y-125450457D01*
X122676275Y-125366716D01*
X122745631Y-125329645D01*
X122834619Y-125154224D01*
X123985381Y-125154224D01*
X124074369Y-125329645D01*
X124290782Y-125427629D01*
X124522151Y-125481510D01*
X124759587Y-125489218D01*
X124993964Y-125450457D01*
X125216275Y-125366716D01*
X125285631Y-125329645D01*
X125374619Y-125154224D01*
X126525381Y-125154224D01*
X126614369Y-125329645D01*
X126830782Y-125427629D01*
X127062151Y-125481510D01*
X127299587Y-125489218D01*
X127533964Y-125450457D01*
X127756275Y-125366716D01*
X127825631Y-125329645D01*
X127914619Y-125154224D01*
X129065381Y-125154224D01*
X129154369Y-125329645D01*
X129370782Y-125427629D01*
X129602151Y-125481510D01*
X129839587Y-125489218D01*
X130073964Y-125450457D01*
X130296275Y-125366716D01*
X130365631Y-125329645D01*
X130454619Y-125154224D01*
X129760000Y-124459605D01*
X129065381Y-125154224D01*
X127914619Y-125154224D01*
X127220000Y-124459605D01*
X126525381Y-125154224D01*
X125374619Y-125154224D01*
X124680000Y-124459605D01*
X123985381Y-125154224D01*
X122834619Y-125154224D01*
X122140000Y-124459605D01*
X121445381Y-125154224D01*
X120294619Y-125154224D01*
X119600000Y-124459605D01*
X118905381Y-125154224D01*
X112967374Y-125154224D01*
X112841460Y-124521212D01*
X112774513Y-124359587D01*
X118390782Y-124359587D01*
X118429543Y-124593964D01*
X118513284Y-124816275D01*
X118550355Y-124885631D01*
X118725776Y-124974619D01*
X119420395Y-124280000D01*
X119779605Y-124280000D01*
X120474224Y-124974619D01*
X120649645Y-124885631D01*
X120747629Y-124669218D01*
X120801510Y-124437849D01*
X120804050Y-124359587D01*
X120930782Y-124359587D01*
X120969543Y-124593964D01*
X121053284Y-124816275D01*
X121090355Y-124885631D01*
X121265776Y-124974619D01*
X121960395Y-124280000D01*
X122319605Y-124280000D01*
X123014224Y-124974619D01*
X123189645Y-124885631D01*
X123287629Y-124669218D01*
X123341510Y-124437849D01*
X123344050Y-124359587D01*
X123470782Y-124359587D01*
X123509543Y-124593964D01*
X123593284Y-124816275D01*
X123630355Y-124885631D01*
X123805776Y-124974619D01*
X124500395Y-124280000D01*
X124859605Y-124280000D01*
X125554224Y-124974619D01*
X125729645Y-124885631D01*
X125827629Y-124669218D01*
X125881510Y-124437849D01*
X125884050Y-124359587D01*
X126010782Y-124359587D01*
X126049543Y-124593964D01*
X126133284Y-124816275D01*
X126170355Y-124885631D01*
X126345776Y-124974619D01*
X127040395Y-124280000D01*
X127399605Y-124280000D01*
X128094224Y-124974619D01*
X128269645Y-124885631D01*
X128367629Y-124669218D01*
X128421510Y-124437849D01*
X128424050Y-124359587D01*
X128550782Y-124359587D01*
X128589543Y-124593964D01*
X128673284Y-124816275D01*
X128710355Y-124885631D01*
X128885776Y-124974619D01*
X129580395Y-124280000D01*
X129939605Y-124280000D01*
X130634224Y-124974619D01*
X130809645Y-124885631D01*
X130823163Y-124855773D01*
X150873833Y-124855773D01*
X151044283Y-125100316D01*
X151375814Y-125265772D01*
X151733253Y-125363371D01*
X152102865Y-125389361D01*
X152470445Y-125342744D01*
X152821868Y-125225311D01*
X152954862Y-125154224D01*
X159545381Y-125154224D01*
X159634369Y-125329645D01*
X159850782Y-125427629D01*
X160082151Y-125481510D01*
X160319587Y-125489218D01*
X160553964Y-125450457D01*
X160776275Y-125366716D01*
X160845631Y-125329645D01*
X160934619Y-125154224D01*
X162085381Y-125154224D01*
X162174369Y-125329645D01*
X162390782Y-125427629D01*
X162622151Y-125481510D01*
X162859587Y-125489218D01*
X163093964Y-125450457D01*
X163316275Y-125366716D01*
X163385631Y-125329645D01*
X163474619Y-125154224D01*
X164625381Y-125154224D01*
X164714369Y-125329645D01*
X164930782Y-125427629D01*
X165162151Y-125481510D01*
X165399587Y-125489218D01*
X165633964Y-125450457D01*
X165856275Y-125366716D01*
X165925631Y-125329645D01*
X166014619Y-125154224D01*
X167165381Y-125154224D01*
X167254369Y-125329645D01*
X167470782Y-125427629D01*
X167702151Y-125481510D01*
X167939587Y-125489218D01*
X168173964Y-125450457D01*
X168396275Y-125366716D01*
X168465631Y-125329645D01*
X168554619Y-125154224D01*
X169705381Y-125154224D01*
X169794369Y-125329645D01*
X170010782Y-125427629D01*
X170242151Y-125481510D01*
X170479587Y-125489218D01*
X170713964Y-125450457D01*
X170936275Y-125366716D01*
X171005631Y-125329645D01*
X171094619Y-125154224D01*
X170400000Y-124459605D01*
X169705381Y-125154224D01*
X168554619Y-125154224D01*
X167860000Y-124459605D01*
X167165381Y-125154224D01*
X166014619Y-125154224D01*
X165320000Y-124459605D01*
X164625381Y-125154224D01*
X163474619Y-125154224D01*
X162780000Y-124459605D01*
X162085381Y-125154224D01*
X160934619Y-125154224D01*
X160240000Y-124459605D01*
X159545381Y-125154224D01*
X152954862Y-125154224D01*
X153055717Y-125100316D01*
X153226167Y-124855773D01*
X152050000Y-123679605D01*
X150873833Y-124855773D01*
X130823163Y-124855773D01*
X130907629Y-124669218D01*
X130961510Y-124437849D01*
X130969218Y-124200413D01*
X130930457Y-123966036D01*
X130846716Y-123743725D01*
X130809645Y-123674369D01*
X130634224Y-123585381D01*
X129939605Y-124280000D01*
X129580395Y-124280000D01*
X128885776Y-123585381D01*
X128710355Y-123674369D01*
X128612371Y-123890782D01*
X128558490Y-124122151D01*
X128550782Y-124359587D01*
X128424050Y-124359587D01*
X128429218Y-124200413D01*
X128390457Y-123966036D01*
X128306716Y-123743725D01*
X128269645Y-123674369D01*
X128094224Y-123585381D01*
X127399605Y-124280000D01*
X127040395Y-124280000D01*
X126345776Y-123585381D01*
X126170355Y-123674369D01*
X126072371Y-123890782D01*
X126018490Y-124122151D01*
X126010782Y-124359587D01*
X125884050Y-124359587D01*
X125889218Y-124200413D01*
X125850457Y-123966036D01*
X125766716Y-123743725D01*
X125729645Y-123674369D01*
X125554224Y-123585381D01*
X124859605Y-124280000D01*
X124500395Y-124280000D01*
X123805776Y-123585381D01*
X123630355Y-123674369D01*
X123532371Y-123890782D01*
X123478490Y-124122151D01*
X123470782Y-124359587D01*
X123344050Y-124359587D01*
X123349218Y-124200413D01*
X123310457Y-123966036D01*
X123226716Y-123743725D01*
X123189645Y-123674369D01*
X123014224Y-123585381D01*
X122319605Y-124280000D01*
X121960395Y-124280000D01*
X121265776Y-123585381D01*
X121090355Y-123674369D01*
X120992371Y-123890782D01*
X120938490Y-124122151D01*
X120930782Y-124359587D01*
X120804050Y-124359587D01*
X120809218Y-124200413D01*
X120770457Y-123966036D01*
X120686716Y-123743725D01*
X120649645Y-123674369D01*
X120474224Y-123585381D01*
X119779605Y-124280000D01*
X119420395Y-124280000D01*
X118725776Y-123585381D01*
X118550355Y-123674369D01*
X118452371Y-123890782D01*
X118398490Y-124122151D01*
X118390782Y-124359587D01*
X112774513Y-124359587D01*
X112575587Y-123879339D01*
X112259163Y-123405776D01*
X118905381Y-123405776D01*
X119600000Y-124100395D01*
X120294619Y-123405776D01*
X121445381Y-123405776D01*
X122140000Y-124100395D01*
X122834619Y-123405776D01*
X123985381Y-123405776D01*
X124680000Y-124100395D01*
X125374619Y-123405776D01*
X126525381Y-123405776D01*
X127220000Y-124100395D01*
X127914619Y-123405776D01*
X129065381Y-123405776D01*
X129760000Y-124100395D01*
X130307530Y-123552865D01*
X150160639Y-123552865D01*
X150207256Y-123920445D01*
X150324689Y-124271868D01*
X150449684Y-124505717D01*
X150694227Y-124676167D01*
X151870395Y-123500000D01*
X152229605Y-123500000D01*
X153405773Y-124676167D01*
X153650316Y-124505717D01*
X153723244Y-124359587D01*
X159030782Y-124359587D01*
X159069543Y-124593964D01*
X159153284Y-124816275D01*
X159190355Y-124885631D01*
X159365776Y-124974619D01*
X160060395Y-124280000D01*
X160419605Y-124280000D01*
X161114224Y-124974619D01*
X161289645Y-124885631D01*
X161387629Y-124669218D01*
X161441510Y-124437849D01*
X161444050Y-124359587D01*
X161570782Y-124359587D01*
X161609543Y-124593964D01*
X161693284Y-124816275D01*
X161730355Y-124885631D01*
X161905776Y-124974619D01*
X162600395Y-124280000D01*
X162959605Y-124280000D01*
X163654224Y-124974619D01*
X163829645Y-124885631D01*
X163927629Y-124669218D01*
X163981510Y-124437849D01*
X163984050Y-124359587D01*
X164110782Y-124359587D01*
X164149543Y-124593964D01*
X164233284Y-124816275D01*
X164270355Y-124885631D01*
X164445776Y-124974619D01*
X165140395Y-124280000D01*
X165499605Y-124280000D01*
X166194224Y-124974619D01*
X166369645Y-124885631D01*
X166467629Y-124669218D01*
X166521510Y-124437849D01*
X166524050Y-124359587D01*
X166650782Y-124359587D01*
X166689543Y-124593964D01*
X166773284Y-124816275D01*
X166810355Y-124885631D01*
X166985776Y-124974619D01*
X167680395Y-124280000D01*
X168039605Y-124280000D01*
X168734224Y-124974619D01*
X168909645Y-124885631D01*
X169007629Y-124669218D01*
X169061510Y-124437849D01*
X169064050Y-124359587D01*
X169190782Y-124359587D01*
X169229543Y-124593964D01*
X169313284Y-124816275D01*
X169350355Y-124885631D01*
X169525776Y-124974619D01*
X170220395Y-124280000D01*
X170579605Y-124280000D01*
X171274224Y-124974619D01*
X171449645Y-124885631D01*
X171547629Y-124669218D01*
X171601510Y-124437849D01*
X171609218Y-124200413D01*
X171570457Y-123966036D01*
X171486716Y-123743725D01*
X171449645Y-123674369D01*
X171274224Y-123585381D01*
X170579605Y-124280000D01*
X170220395Y-124280000D01*
X169525776Y-123585381D01*
X169350355Y-123674369D01*
X169252371Y-123890782D01*
X169198490Y-124122151D01*
X169190782Y-124359587D01*
X169064050Y-124359587D01*
X169069218Y-124200413D01*
X169030457Y-123966036D01*
X168946716Y-123743725D01*
X168909645Y-123674369D01*
X168734224Y-123585381D01*
X168039605Y-124280000D01*
X167680395Y-124280000D01*
X166985776Y-123585381D01*
X166810355Y-123674369D01*
X166712371Y-123890782D01*
X166658490Y-124122151D01*
X166650782Y-124359587D01*
X166524050Y-124359587D01*
X166529218Y-124200413D01*
X166490457Y-123966036D01*
X166406716Y-123743725D01*
X166369645Y-123674369D01*
X166194224Y-123585381D01*
X165499605Y-124280000D01*
X165140395Y-124280000D01*
X164445776Y-123585381D01*
X164270355Y-123674369D01*
X164172371Y-123890782D01*
X164118490Y-124122151D01*
X164110782Y-124359587D01*
X163984050Y-124359587D01*
X163989218Y-124200413D01*
X163950457Y-123966036D01*
X163866716Y-123743725D01*
X163829645Y-123674369D01*
X163654224Y-123585381D01*
X162959605Y-124280000D01*
X162600395Y-124280000D01*
X161905776Y-123585381D01*
X161730355Y-123674369D01*
X161632371Y-123890782D01*
X161578490Y-124122151D01*
X161570782Y-124359587D01*
X161444050Y-124359587D01*
X161449218Y-124200413D01*
X161410457Y-123966036D01*
X161326716Y-123743725D01*
X161289645Y-123674369D01*
X161114224Y-123585381D01*
X160419605Y-124280000D01*
X160060395Y-124280000D01*
X159365776Y-123585381D01*
X159190355Y-123674369D01*
X159092371Y-123890782D01*
X159038490Y-124122151D01*
X159030782Y-124359587D01*
X153723244Y-124359587D01*
X153815772Y-124174186D01*
X153913371Y-123816747D01*
X153939361Y-123447135D01*
X153934116Y-123405776D01*
X159545381Y-123405776D01*
X160240000Y-124100395D01*
X160934619Y-123405776D01*
X162085381Y-123405776D01*
X162780000Y-124100395D01*
X163474619Y-123405776D01*
X164625381Y-123405776D01*
X165320000Y-124100395D01*
X166014619Y-123405776D01*
X167165381Y-123405776D01*
X167860000Y-124100395D01*
X168554619Y-123405776D01*
X169705381Y-123405776D01*
X170400000Y-124100395D01*
X171094619Y-123405776D01*
X171005631Y-123230355D01*
X170789218Y-123132371D01*
X170557849Y-123078490D01*
X170320413Y-123070782D01*
X170086036Y-123109543D01*
X169863725Y-123193284D01*
X169794369Y-123230355D01*
X169705381Y-123405776D01*
X168554619Y-123405776D01*
X168465631Y-123230355D01*
X168249218Y-123132371D01*
X168017849Y-123078490D01*
X167780413Y-123070782D01*
X167546036Y-123109543D01*
X167323725Y-123193284D01*
X167254369Y-123230355D01*
X167165381Y-123405776D01*
X166014619Y-123405776D01*
X165925631Y-123230355D01*
X165709218Y-123132371D01*
X165477849Y-123078490D01*
X165240413Y-123070782D01*
X165006036Y-123109543D01*
X164783725Y-123193284D01*
X164714369Y-123230355D01*
X164625381Y-123405776D01*
X163474619Y-123405776D01*
X163385631Y-123230355D01*
X163169218Y-123132371D01*
X162937849Y-123078490D01*
X162700413Y-123070782D01*
X162466036Y-123109543D01*
X162243725Y-123193284D01*
X162174369Y-123230355D01*
X162085381Y-123405776D01*
X160934619Y-123405776D01*
X160845631Y-123230355D01*
X160629218Y-123132371D01*
X160397849Y-123078490D01*
X160160413Y-123070782D01*
X159926036Y-123109543D01*
X159703725Y-123193284D01*
X159634369Y-123230355D01*
X159545381Y-123405776D01*
X153934116Y-123405776D01*
X153892744Y-123079555D01*
X153775311Y-122728132D01*
X153650316Y-122494283D01*
X153405773Y-122323833D01*
X152229605Y-123500000D01*
X151870395Y-123500000D01*
X150694227Y-122323833D01*
X150449684Y-122494283D01*
X150284228Y-122825814D01*
X150186629Y-123183253D01*
X150160639Y-123552865D01*
X130307530Y-123552865D01*
X130454619Y-123405776D01*
X130365631Y-123230355D01*
X130149218Y-123132371D01*
X129917849Y-123078490D01*
X129680413Y-123070782D01*
X129446036Y-123109543D01*
X129223725Y-123193284D01*
X129154369Y-123230355D01*
X129065381Y-123405776D01*
X127914619Y-123405776D01*
X127825631Y-123230355D01*
X127609218Y-123132371D01*
X127377849Y-123078490D01*
X127140413Y-123070782D01*
X126906036Y-123109543D01*
X126683725Y-123193284D01*
X126614369Y-123230355D01*
X126525381Y-123405776D01*
X125374619Y-123405776D01*
X125285631Y-123230355D01*
X125069218Y-123132371D01*
X124837849Y-123078490D01*
X124600413Y-123070782D01*
X124366036Y-123109543D01*
X124143725Y-123193284D01*
X124074369Y-123230355D01*
X123985381Y-123405776D01*
X122834619Y-123405776D01*
X122745631Y-123230355D01*
X122529218Y-123132371D01*
X122297849Y-123078490D01*
X122060413Y-123070782D01*
X121826036Y-123109543D01*
X121603725Y-123193284D01*
X121534369Y-123230355D01*
X121445381Y-123405776D01*
X120294619Y-123405776D01*
X120205631Y-123230355D01*
X119989218Y-123132371D01*
X119757849Y-123078490D01*
X119520413Y-123070782D01*
X119286036Y-123109543D01*
X119063725Y-123193284D01*
X118994369Y-123230355D01*
X118905381Y-123405776D01*
X112259163Y-123405776D01*
X112189600Y-123301668D01*
X111698332Y-122810400D01*
X111120661Y-122424413D01*
X110478788Y-122158540D01*
X109797379Y-122023000D01*
X109102621Y-122023000D01*
X108421212Y-122158540D01*
X107779339Y-122424413D01*
X107201668Y-122810400D01*
X106710400Y-123301668D01*
X106324413Y-123879339D01*
X106058540Y-124521212D01*
X105923000Y-125202621D01*
X105406000Y-125202621D01*
X105406000Y-120915000D01*
X118392157Y-120915000D01*
X118392157Y-122565000D01*
X118399513Y-122639689D01*
X118421299Y-122711508D01*
X118456678Y-122777696D01*
X118504289Y-122835711D01*
X118562304Y-122883322D01*
X118628492Y-122918701D01*
X118700311Y-122940487D01*
X118775000Y-122947843D01*
X120425000Y-122947843D01*
X120499689Y-122940487D01*
X120571508Y-122918701D01*
X120637696Y-122883322D01*
X120695711Y-122835711D01*
X120743322Y-122777696D01*
X120778701Y-122711508D01*
X120800487Y-122639689D01*
X120807843Y-122565000D01*
X120807843Y-121424525D01*
X121086629Y-121145739D01*
X121071257Y-121168745D01*
X120980346Y-121388223D01*
X120934000Y-121621219D01*
X120934000Y-121858781D01*
X120980346Y-122091777D01*
X121071257Y-122311255D01*
X121203239Y-122508780D01*
X121371220Y-122676761D01*
X121568745Y-122808743D01*
X121788223Y-122899654D01*
X122021219Y-122946000D01*
X122258781Y-122946000D01*
X122491777Y-122899654D01*
X122711255Y-122808743D01*
X122908780Y-122676761D01*
X123076761Y-122508780D01*
X123208743Y-122311255D01*
X123299654Y-122091777D01*
X123346000Y-121858781D01*
X123346000Y-121621219D01*
X123474000Y-121621219D01*
X123474000Y-121858781D01*
X123520346Y-122091777D01*
X123611257Y-122311255D01*
X123743239Y-122508780D01*
X123911220Y-122676761D01*
X124108745Y-122808743D01*
X124328223Y-122899654D01*
X124561219Y-122946000D01*
X124798781Y-122946000D01*
X125031777Y-122899654D01*
X125251255Y-122808743D01*
X125448780Y-122676761D01*
X125616761Y-122508780D01*
X125748743Y-122311255D01*
X125839654Y-122091777D01*
X125886000Y-121858781D01*
X125886000Y-121621219D01*
X126014000Y-121621219D01*
X126014000Y-121858781D01*
X126060346Y-122091777D01*
X126151257Y-122311255D01*
X126283239Y-122508780D01*
X126451220Y-122676761D01*
X126648745Y-122808743D01*
X126868223Y-122899654D01*
X127101219Y-122946000D01*
X127338781Y-122946000D01*
X127571777Y-122899654D01*
X127791255Y-122808743D01*
X127988780Y-122676761D01*
X128156761Y-122508780D01*
X128288743Y-122311255D01*
X128379654Y-122091777D01*
X128426000Y-121858781D01*
X128426000Y-121621219D01*
X128554000Y-121621219D01*
X128554000Y-121858781D01*
X128600346Y-122091777D01*
X128691257Y-122311255D01*
X128823239Y-122508780D01*
X128991220Y-122676761D01*
X129188745Y-122808743D01*
X129408223Y-122899654D01*
X129641219Y-122946000D01*
X129878781Y-122946000D01*
X130111777Y-122899654D01*
X130331255Y-122808743D01*
X130528780Y-122676761D01*
X130696761Y-122508780D01*
X130828743Y-122311255D01*
X130897928Y-122144227D01*
X150873833Y-122144227D01*
X152050000Y-123320395D01*
X153226167Y-122144227D01*
X153055717Y-121899684D01*
X152724186Y-121734228D01*
X152366747Y-121636629D01*
X151997135Y-121610639D01*
X151629555Y-121657256D01*
X151278132Y-121774689D01*
X151044283Y-121899684D01*
X150873833Y-122144227D01*
X130897928Y-122144227D01*
X130919654Y-122091777D01*
X130966000Y-121858781D01*
X130966000Y-121621219D01*
X130919654Y-121388223D01*
X130828743Y-121168745D01*
X130696761Y-120971220D01*
X130640541Y-120915000D01*
X159032157Y-120915000D01*
X159032157Y-122565000D01*
X159039513Y-122639689D01*
X159061299Y-122711508D01*
X159096678Y-122777696D01*
X159144289Y-122835711D01*
X159202304Y-122883322D01*
X159268492Y-122918701D01*
X159340311Y-122940487D01*
X159415000Y-122947843D01*
X161065000Y-122947843D01*
X161139689Y-122940487D01*
X161211508Y-122918701D01*
X161277696Y-122883322D01*
X161335711Y-122835711D01*
X161383322Y-122777696D01*
X161418701Y-122711508D01*
X161440487Y-122639689D01*
X161447843Y-122565000D01*
X161447843Y-121621219D01*
X161574000Y-121621219D01*
X161574000Y-121858781D01*
X161620346Y-122091777D01*
X161711257Y-122311255D01*
X161843239Y-122508780D01*
X162011220Y-122676761D01*
X162208745Y-122808743D01*
X162428223Y-122899654D01*
X162661219Y-122946000D01*
X162898781Y-122946000D01*
X163131777Y-122899654D01*
X163351255Y-122808743D01*
X163548780Y-122676761D01*
X163716761Y-122508780D01*
X163848743Y-122311255D01*
X163939654Y-122091777D01*
X163986000Y-121858781D01*
X163986000Y-121621219D01*
X164114000Y-121621219D01*
X164114000Y-121858781D01*
X164160346Y-122091777D01*
X164251257Y-122311255D01*
X164383239Y-122508780D01*
X164551220Y-122676761D01*
X164748745Y-122808743D01*
X164968223Y-122899654D01*
X165201219Y-122946000D01*
X165438781Y-122946000D01*
X165671777Y-122899654D01*
X165891255Y-122808743D01*
X166088780Y-122676761D01*
X166256761Y-122508780D01*
X166388743Y-122311255D01*
X166479654Y-122091777D01*
X166526000Y-121858781D01*
X166526000Y-121621219D01*
X166654000Y-121621219D01*
X166654000Y-121858781D01*
X166700346Y-122091777D01*
X166791257Y-122311255D01*
X166923239Y-122508780D01*
X167091220Y-122676761D01*
X167288745Y-122808743D01*
X167508223Y-122899654D01*
X167741219Y-122946000D01*
X167978781Y-122946000D01*
X168211777Y-122899654D01*
X168431255Y-122808743D01*
X168628780Y-122676761D01*
X168796761Y-122508780D01*
X168928743Y-122311255D01*
X169019654Y-122091777D01*
X169066000Y-121858781D01*
X169066000Y-121621219D01*
X169194000Y-121621219D01*
X169194000Y-121858781D01*
X169240346Y-122091777D01*
X169331257Y-122311255D01*
X169463239Y-122508780D01*
X169631220Y-122676761D01*
X169828745Y-122808743D01*
X170048223Y-122899654D01*
X170281219Y-122946000D01*
X170518781Y-122946000D01*
X170751777Y-122899654D01*
X170971255Y-122808743D01*
X171168780Y-122676761D01*
X171336761Y-122508780D01*
X171468743Y-122311255D01*
X171559654Y-122091777D01*
X171606000Y-121858781D01*
X171606000Y-121621219D01*
X171559654Y-121388223D01*
X171468743Y-121168745D01*
X171336761Y-120971220D01*
X171168780Y-120803239D01*
X170971255Y-120671257D01*
X170751777Y-120580346D01*
X170518781Y-120534000D01*
X170281219Y-120534000D01*
X170048223Y-120580346D01*
X169828745Y-120671257D01*
X169631220Y-120803239D01*
X169463239Y-120971220D01*
X169331257Y-121168745D01*
X169240346Y-121388223D01*
X169194000Y-121621219D01*
X169066000Y-121621219D01*
X169019654Y-121388223D01*
X168928743Y-121168745D01*
X168796761Y-120971220D01*
X168628780Y-120803239D01*
X168431255Y-120671257D01*
X168211777Y-120580346D01*
X167978781Y-120534000D01*
X167741219Y-120534000D01*
X167508223Y-120580346D01*
X167288745Y-120671257D01*
X167091220Y-120803239D01*
X166923239Y-120971220D01*
X166791257Y-121168745D01*
X166700346Y-121388223D01*
X166654000Y-121621219D01*
X166526000Y-121621219D01*
X166479654Y-121388223D01*
X166388743Y-121168745D01*
X166256761Y-120971220D01*
X166088780Y-120803239D01*
X165891255Y-120671257D01*
X165671777Y-120580346D01*
X165438781Y-120534000D01*
X165201219Y-120534000D01*
X164968223Y-120580346D01*
X164748745Y-120671257D01*
X164551220Y-120803239D01*
X164383239Y-120971220D01*
X164251257Y-121168745D01*
X164160346Y-121388223D01*
X164114000Y-121621219D01*
X163986000Y-121621219D01*
X163939654Y-121388223D01*
X163848743Y-121168745D01*
X163716761Y-120971220D01*
X163548780Y-120803239D01*
X163351255Y-120671257D01*
X163131777Y-120580346D01*
X162898781Y-120534000D01*
X162661219Y-120534000D01*
X162428223Y-120580346D01*
X162208745Y-120671257D01*
X162011220Y-120803239D01*
X161843239Y-120971220D01*
X161711257Y-121168745D01*
X161620346Y-121388223D01*
X161574000Y-121621219D01*
X161447843Y-121621219D01*
X161447843Y-120915000D01*
X161440487Y-120840311D01*
X161418701Y-120768492D01*
X161383322Y-120702304D01*
X161335711Y-120644289D01*
X161277696Y-120596678D01*
X161211508Y-120561299D01*
X161139689Y-120539513D01*
X161065000Y-120532157D01*
X159415000Y-120532157D01*
X159340311Y-120539513D01*
X159268492Y-120561299D01*
X159202304Y-120596678D01*
X159144289Y-120644289D01*
X159096678Y-120702304D01*
X159061299Y-120768492D01*
X159039513Y-120840311D01*
X159032157Y-120915000D01*
X130640541Y-120915000D01*
X130528780Y-120803239D01*
X130331255Y-120671257D01*
X130111777Y-120580346D01*
X129878781Y-120534000D01*
X129641219Y-120534000D01*
X129408223Y-120580346D01*
X129188745Y-120671257D01*
X128991220Y-120803239D01*
X128823239Y-120971220D01*
X128691257Y-121168745D01*
X128600346Y-121388223D01*
X128554000Y-121621219D01*
X128426000Y-121621219D01*
X128379654Y-121388223D01*
X128288743Y-121168745D01*
X128156761Y-120971220D01*
X127988780Y-120803239D01*
X127791255Y-120671257D01*
X127571777Y-120580346D01*
X127338781Y-120534000D01*
X127101219Y-120534000D01*
X126868223Y-120580346D01*
X126648745Y-120671257D01*
X126451220Y-120803239D01*
X126283239Y-120971220D01*
X126151257Y-121168745D01*
X126060346Y-121388223D01*
X126014000Y-121621219D01*
X125886000Y-121621219D01*
X125839654Y-121388223D01*
X125748743Y-121168745D01*
X125616761Y-120971220D01*
X125448780Y-120803239D01*
X125251255Y-120671257D01*
X125031777Y-120580346D01*
X124798781Y-120534000D01*
X124561219Y-120534000D01*
X124328223Y-120580346D01*
X124108745Y-120671257D01*
X123911220Y-120803239D01*
X123743239Y-120971220D01*
X123611257Y-121168745D01*
X123520346Y-121388223D01*
X123474000Y-121621219D01*
X123346000Y-121621219D01*
X123299654Y-121388223D01*
X123208743Y-121168745D01*
X123076761Y-120971220D01*
X122908780Y-120803239D01*
X122711255Y-120671257D01*
X122491777Y-120580346D01*
X122258781Y-120534000D01*
X122021219Y-120534000D01*
X121788223Y-120580346D01*
X121568745Y-120671257D01*
X121545739Y-120686629D01*
X129607439Y-112624930D01*
X129727809Y-112600987D01*
X129869942Y-112542113D01*
X129997859Y-112456642D01*
X130106642Y-112347859D01*
X130192113Y-112219942D01*
X130250987Y-112077809D01*
X130281000Y-111926922D01*
X130281000Y-111773078D01*
X130250987Y-111622191D01*
X130192113Y-111480058D01*
X130106642Y-111352141D01*
X129997859Y-111243358D01*
X129869942Y-111157887D01*
X129727809Y-111099013D01*
X129576922Y-111069000D01*
X129423078Y-111069000D01*
X129272191Y-111099013D01*
X129130058Y-111157887D01*
X129002141Y-111243358D01*
X128893358Y-111352141D01*
X128807887Y-111480058D01*
X128749013Y-111622191D01*
X128730036Y-111717595D01*
X119915475Y-120532157D01*
X118775000Y-120532157D01*
X118700311Y-120539513D01*
X118628492Y-120561299D01*
X118562304Y-120596678D01*
X118504289Y-120644289D01*
X118456678Y-120702304D01*
X118421299Y-120768492D01*
X118399513Y-120840311D01*
X118392157Y-120915000D01*
X105406000Y-120915000D01*
X105406000Y-93073078D01*
X147469000Y-93073078D01*
X147469000Y-93226922D01*
X147499013Y-93377809D01*
X147557887Y-93519942D01*
X147643358Y-93647859D01*
X147752141Y-93756642D01*
X147880058Y-93842113D01*
X148022191Y-93900987D01*
X148173078Y-93931000D01*
X148326922Y-93931000D01*
X148477809Y-93900987D01*
X148619942Y-93842113D01*
X148747859Y-93756642D01*
X148856642Y-93647859D01*
X148942113Y-93519942D01*
X149000987Y-93377809D01*
X149022447Y-93269921D01*
X157136595Y-85155773D01*
X165923833Y-85155773D01*
X166094283Y-85400316D01*
X166425814Y-85565772D01*
X166783253Y-85663371D01*
X167152865Y-85689361D01*
X167520445Y-85642744D01*
X167871868Y-85525311D01*
X168105717Y-85400316D01*
X168276167Y-85155773D01*
X168193473Y-85073078D01*
X171119000Y-85073078D01*
X171119000Y-85226922D01*
X171149013Y-85377809D01*
X171207887Y-85519942D01*
X171293358Y-85647859D01*
X171402141Y-85756642D01*
X171530058Y-85842113D01*
X171672191Y-85900987D01*
X171780079Y-85922447D01*
X174818998Y-88961367D01*
X174818999Y-90488594D01*
X174757885Y-90580058D01*
X174699011Y-90722191D01*
X174668998Y-90873078D01*
X174668998Y-91026922D01*
X174699011Y-91177809D01*
X174757885Y-91319942D01*
X174843356Y-91447859D01*
X174952139Y-91556642D01*
X175080056Y-91642113D01*
X175222189Y-91700987D01*
X175373076Y-91731000D01*
X175526920Y-91731000D01*
X175677807Y-91700987D01*
X175819940Y-91642113D01*
X175947857Y-91556642D01*
X176056640Y-91447859D01*
X176142111Y-91319942D01*
X176200985Y-91177809D01*
X176230998Y-91026922D01*
X176230998Y-90873078D01*
X176200985Y-90722191D01*
X176142111Y-90580058D01*
X176080998Y-90488595D01*
X176080998Y-88730985D01*
X176084050Y-88699997D01*
X176080998Y-88669009D01*
X176080998Y-88669000D01*
X176071868Y-88576300D01*
X176035787Y-88457356D01*
X175977194Y-88347737D01*
X175898341Y-88251655D01*
X175874267Y-88231898D01*
X172672447Y-85030079D01*
X172650987Y-84922191D01*
X172592113Y-84780058D01*
X172506642Y-84652141D01*
X172397859Y-84543358D01*
X172269942Y-84457887D01*
X172127809Y-84399013D01*
X171976922Y-84369000D01*
X171823078Y-84369000D01*
X171672191Y-84399013D01*
X171530058Y-84457887D01*
X171402141Y-84543358D01*
X171293358Y-84652141D01*
X171207887Y-84780058D01*
X171149013Y-84922191D01*
X171119000Y-85073078D01*
X168193473Y-85073078D01*
X167100000Y-83979605D01*
X165923833Y-85155773D01*
X157136595Y-85155773D01*
X158439503Y-83852865D01*
X165210639Y-83852865D01*
X165257256Y-84220445D01*
X165374689Y-84571868D01*
X165499684Y-84805717D01*
X165744227Y-84976167D01*
X166920395Y-83800000D01*
X167279605Y-83800000D01*
X168455773Y-84976167D01*
X168700316Y-84805717D01*
X168865772Y-84474186D01*
X168963371Y-84116747D01*
X168989361Y-83747135D01*
X168942744Y-83379555D01*
X168825311Y-83028132D01*
X168700316Y-82794283D01*
X168455773Y-82623833D01*
X167279605Y-83800000D01*
X166920395Y-83800000D01*
X165744227Y-82623833D01*
X165499684Y-82794283D01*
X165334228Y-83125814D01*
X165236629Y-83483253D01*
X165210639Y-83852865D01*
X158439503Y-83852865D01*
X159848141Y-82444227D01*
X165923833Y-82444227D01*
X167100000Y-83620395D01*
X168276167Y-82444227D01*
X168105717Y-82199684D01*
X167774186Y-82034228D01*
X167416747Y-81936629D01*
X167047135Y-81910639D01*
X166679555Y-81957256D01*
X166328132Y-82074689D01*
X166094283Y-82199684D01*
X165923833Y-82444227D01*
X159848141Y-82444227D01*
X168774269Y-73518100D01*
X168798343Y-73498343D01*
X168877196Y-73402261D01*
X168935789Y-73292642D01*
X168971870Y-73173698D01*
X168981000Y-73080998D01*
X168981000Y-73080997D01*
X168984053Y-73050000D01*
X168981000Y-73019002D01*
X168981000Y-71461405D01*
X169042113Y-71369942D01*
X169100987Y-71227809D01*
X169131000Y-71076922D01*
X169131000Y-70923078D01*
X169100987Y-70772191D01*
X169042113Y-70630058D01*
X168956642Y-70502141D01*
X168847859Y-70393358D01*
X168719942Y-70307887D01*
X168577809Y-70249013D01*
X168426922Y-70219000D01*
X168273078Y-70219000D01*
X168122191Y-70249013D01*
X167980058Y-70307887D01*
X167852141Y-70393358D01*
X167743358Y-70502141D01*
X167657887Y-70630058D01*
X167599013Y-70772191D01*
X167569000Y-70923078D01*
X167569000Y-71076922D01*
X167599013Y-71227809D01*
X167657887Y-71369942D01*
X167719001Y-71461406D01*
X167719000Y-72788631D01*
X148130079Y-92377553D01*
X148022191Y-92399013D01*
X147880058Y-92457887D01*
X147752141Y-92543358D01*
X147643358Y-92652141D01*
X147557887Y-92780058D01*
X147499013Y-92922191D01*
X147469000Y-93073078D01*
X105406000Y-93073078D01*
X105406000Y-91855773D01*
X130773833Y-91855773D01*
X130944283Y-92100316D01*
X131275814Y-92265772D01*
X131633253Y-92363371D01*
X132002865Y-92389361D01*
X132370445Y-92342744D01*
X132721868Y-92225311D01*
X132955717Y-92100316D01*
X133126167Y-91855773D01*
X131950000Y-90679605D01*
X130773833Y-91855773D01*
X105406000Y-91855773D01*
X105406000Y-90552865D01*
X130060639Y-90552865D01*
X130107256Y-90920445D01*
X130224689Y-91271868D01*
X130349684Y-91505717D01*
X130594227Y-91676167D01*
X131770395Y-90500000D01*
X132129605Y-90500000D01*
X133305773Y-91676167D01*
X133550316Y-91505717D01*
X133715772Y-91174186D01*
X133813371Y-90816747D01*
X133839361Y-90447135D01*
X133792744Y-90079555D01*
X133675311Y-89728132D01*
X133550316Y-89494283D01*
X133305773Y-89323833D01*
X132129605Y-90500000D01*
X131770395Y-90500000D01*
X130594227Y-89323833D01*
X130349684Y-89494283D01*
X130184228Y-89825814D01*
X130086629Y-90183253D01*
X130060639Y-90552865D01*
X105406000Y-90552865D01*
X105406000Y-89144227D01*
X130773833Y-89144227D01*
X131950000Y-90320395D01*
X133126167Y-89144227D01*
X132955717Y-88899684D01*
X132624186Y-88734228D01*
X132266747Y-88636629D01*
X131897135Y-88610639D01*
X131529555Y-88657256D01*
X131178132Y-88774689D01*
X130944283Y-88899684D01*
X130773833Y-89144227D01*
X105406000Y-89144227D01*
X105406000Y-74773078D01*
X159319000Y-74773078D01*
X159319000Y-74926922D01*
X159349013Y-75077809D01*
X159407887Y-75219942D01*
X159493358Y-75347859D01*
X159602141Y-75456642D01*
X159730058Y-75542113D01*
X159872191Y-75600987D01*
X160023078Y-75631000D01*
X160176922Y-75631000D01*
X160327809Y-75600987D01*
X160469942Y-75542113D01*
X160597859Y-75456642D01*
X160706642Y-75347859D01*
X160792113Y-75219942D01*
X160850987Y-75077809D01*
X160872447Y-74969921D01*
X168824269Y-67018100D01*
X168848343Y-66998343D01*
X168927196Y-66902261D01*
X168985789Y-66792642D01*
X169021870Y-66673698D01*
X169031000Y-66580998D01*
X169031000Y-66580997D01*
X169034053Y-66550000D01*
X169031000Y-66519002D01*
X169031000Y-65423078D01*
X169269000Y-65423078D01*
X169269000Y-65576922D01*
X169299013Y-65727809D01*
X169357887Y-65869942D01*
X169443358Y-65997859D01*
X169552141Y-66106642D01*
X169680058Y-66192113D01*
X169822191Y-66250987D01*
X169973078Y-66281000D01*
X170126922Y-66281000D01*
X170277809Y-66250987D01*
X170419942Y-66192113D01*
X170547859Y-66106642D01*
X170548501Y-66106000D01*
X176851499Y-66106000D01*
X176852141Y-66106642D01*
X176980058Y-66192113D01*
X177122191Y-66250987D01*
X177273078Y-66281000D01*
X177426922Y-66281000D01*
X177577809Y-66250987D01*
X177719942Y-66192113D01*
X177847859Y-66106642D01*
X177956642Y-65997859D01*
X178042113Y-65869942D01*
X178100987Y-65727809D01*
X178131000Y-65576922D01*
X178131000Y-65423078D01*
X178100987Y-65272191D01*
X178042113Y-65130058D01*
X177956642Y-65002141D01*
X177847859Y-64893358D01*
X177719942Y-64807887D01*
X177577809Y-64749013D01*
X177426922Y-64719000D01*
X177273078Y-64719000D01*
X177122191Y-64749013D01*
X176980058Y-64807887D01*
X176852141Y-64893358D01*
X176851499Y-64894000D01*
X170548501Y-64894000D01*
X170547859Y-64893358D01*
X170419942Y-64807887D01*
X170277809Y-64749013D01*
X170126922Y-64719000D01*
X169973078Y-64719000D01*
X169822191Y-64749013D01*
X169680058Y-64807887D01*
X169552141Y-64893358D01*
X169443358Y-65002141D01*
X169357887Y-65130058D01*
X169299013Y-65272191D01*
X169269000Y-65423078D01*
X169031000Y-65423078D01*
X169031000Y-64211368D01*
X169269000Y-63973368D01*
X169269000Y-63976922D01*
X169299013Y-64127809D01*
X169357887Y-64269942D01*
X169443358Y-64397859D01*
X169552141Y-64506642D01*
X169680058Y-64592113D01*
X169822191Y-64650987D01*
X169973078Y-64681000D01*
X170126922Y-64681000D01*
X170277809Y-64650987D01*
X170419942Y-64592113D01*
X170547859Y-64506642D01*
X170548501Y-64506000D01*
X176926011Y-64506000D01*
X176980058Y-64542113D01*
X177122191Y-64600987D01*
X177273078Y-64631000D01*
X177426922Y-64631000D01*
X177577809Y-64600987D01*
X177719942Y-64542113D01*
X177847859Y-64456642D01*
X177956642Y-64347859D01*
X178042113Y-64219942D01*
X178100987Y-64077809D01*
X178131000Y-63926922D01*
X178131000Y-63773078D01*
X178100987Y-63622191D01*
X178042113Y-63480058D01*
X177956642Y-63352141D01*
X177847859Y-63243358D01*
X177719942Y-63157887D01*
X177577809Y-63099013D01*
X177426922Y-63069000D01*
X177273078Y-63069000D01*
X177122191Y-63099013D01*
X176980058Y-63157887D01*
X176852141Y-63243358D01*
X176801499Y-63294000D01*
X170548501Y-63294000D01*
X170547859Y-63293358D01*
X170419942Y-63207887D01*
X170277809Y-63149013D01*
X170126922Y-63119000D01*
X170123368Y-63119000D01*
X171661369Y-61581000D01*
X176438595Y-61581000D01*
X176530058Y-61642113D01*
X176672191Y-61700987D01*
X176823078Y-61731000D01*
X176976922Y-61731000D01*
X177127809Y-61700987D01*
X177269942Y-61642113D01*
X177397859Y-61556642D01*
X177506642Y-61447859D01*
X177592113Y-61319942D01*
X177650987Y-61177809D01*
X177681000Y-61026922D01*
X177681000Y-60873078D01*
X177650987Y-60722191D01*
X177592113Y-60580058D01*
X177506642Y-60452141D01*
X177397859Y-60343358D01*
X177269942Y-60257887D01*
X177127809Y-60199013D01*
X176976922Y-60169000D01*
X176823078Y-60169000D01*
X176672191Y-60199013D01*
X176530058Y-60257887D01*
X176438595Y-60319000D01*
X171430990Y-60319000D01*
X171400000Y-60315948D01*
X171369009Y-60319000D01*
X171369002Y-60319000D01*
X171276414Y-60328119D01*
X171276302Y-60328130D01*
X171157358Y-60364211D01*
X171047739Y-60422804D01*
X170975748Y-60481886D01*
X170951657Y-60501657D01*
X170931899Y-60525732D01*
X168400000Y-63057631D01*
X166041379Y-60699011D01*
X165992102Y-60580047D01*
X165906631Y-60452130D01*
X165797848Y-60343347D01*
X165669931Y-60257876D01*
X165527798Y-60199002D01*
X165376911Y-60168989D01*
X165223067Y-60168989D01*
X165072180Y-60199002D01*
X164930047Y-60257876D01*
X164802130Y-60343347D01*
X164693347Y-60452130D01*
X164607876Y-60580047D01*
X164549002Y-60722180D01*
X164518989Y-60873067D01*
X164518989Y-61026911D01*
X164549002Y-61177798D01*
X164607876Y-61319931D01*
X164693347Y-61447848D01*
X164802130Y-61556631D01*
X164930047Y-61642102D01*
X165072180Y-61700976D01*
X165223067Y-61730989D01*
X165288621Y-61730989D01*
X167769001Y-64211370D01*
X167769000Y-66288631D01*
X159980079Y-74077553D01*
X159872191Y-74099013D01*
X159730058Y-74157887D01*
X159602141Y-74243358D01*
X159493358Y-74352141D01*
X159407887Y-74480058D01*
X159349013Y-74622191D01*
X159319000Y-74773078D01*
X105406000Y-74773078D01*
X105406000Y-58141219D01*
X113324000Y-58141219D01*
X113324000Y-58378781D01*
X113370346Y-58611777D01*
X113461257Y-58831255D01*
X113593239Y-59028780D01*
X113761220Y-59196761D01*
X113958745Y-59328743D01*
X114178223Y-59419654D01*
X114411219Y-59466000D01*
X114648781Y-59466000D01*
X114881777Y-59419654D01*
X115101255Y-59328743D01*
X115298780Y-59196761D01*
X115466761Y-59028780D01*
X115598743Y-58831255D01*
X115689654Y-58611777D01*
X115736000Y-58378781D01*
X115736000Y-58141219D01*
X115864000Y-58141219D01*
X115864000Y-58378781D01*
X115910346Y-58611777D01*
X116001257Y-58831255D01*
X116133239Y-59028780D01*
X116301220Y-59196761D01*
X116498745Y-59328743D01*
X116718223Y-59419654D01*
X116951219Y-59466000D01*
X117188781Y-59466000D01*
X117421777Y-59419654D01*
X117641255Y-59328743D01*
X117838780Y-59196761D01*
X118006761Y-59028780D01*
X118138743Y-58831255D01*
X118229654Y-58611777D01*
X118276000Y-58378781D01*
X118276000Y-58141219D01*
X118404000Y-58141219D01*
X118404000Y-58378781D01*
X118450346Y-58611777D01*
X118541257Y-58831255D01*
X118673239Y-59028780D01*
X118841220Y-59196761D01*
X119038745Y-59328743D01*
X119258223Y-59419654D01*
X119491219Y-59466000D01*
X119728781Y-59466000D01*
X119961777Y-59419654D01*
X120181255Y-59328743D01*
X120378780Y-59196761D01*
X120546761Y-59028780D01*
X120678743Y-58831255D01*
X120769654Y-58611777D01*
X120816000Y-58378781D01*
X120816000Y-58141219D01*
X120944000Y-58141219D01*
X120944000Y-58378781D01*
X120990346Y-58611777D01*
X121081257Y-58831255D01*
X121213239Y-59028780D01*
X121381220Y-59196761D01*
X121578745Y-59328743D01*
X121798223Y-59419654D01*
X122031219Y-59466000D01*
X122268781Y-59466000D01*
X122501777Y-59419654D01*
X122721255Y-59328743D01*
X122918780Y-59196761D01*
X123086761Y-59028780D01*
X123218743Y-58831255D01*
X123309654Y-58611777D01*
X123356000Y-58378781D01*
X123356000Y-58141219D01*
X123309654Y-57908223D01*
X123218743Y-57688745D01*
X123086761Y-57491220D01*
X123030541Y-57435000D01*
X123482157Y-57435000D01*
X123482157Y-59085000D01*
X123489513Y-59159689D01*
X123511299Y-59231508D01*
X123546678Y-59297696D01*
X123594289Y-59355711D01*
X123652304Y-59403322D01*
X123718492Y-59438701D01*
X123790311Y-59460487D01*
X123865000Y-59467843D01*
X125515000Y-59467843D01*
X125589689Y-59460487D01*
X125661508Y-59438701D01*
X125727696Y-59403322D01*
X125785711Y-59355711D01*
X125833322Y-59297696D01*
X125868701Y-59231508D01*
X125890487Y-59159689D01*
X125897843Y-59085000D01*
X125897843Y-57814738D01*
X131119000Y-57814738D01*
X131119000Y-58185262D01*
X131191286Y-58548667D01*
X131333080Y-58890987D01*
X131538932Y-59199067D01*
X131800933Y-59461068D01*
X132109013Y-59666920D01*
X132451333Y-59808714D01*
X132814738Y-59881000D01*
X133185262Y-59881000D01*
X133548667Y-59808714D01*
X133890987Y-59666920D01*
X134199067Y-59461068D01*
X134461068Y-59199067D01*
X134666920Y-58890987D01*
X134808714Y-58548667D01*
X134881000Y-58185262D01*
X134881000Y-57814738D01*
X140119000Y-57814738D01*
X140119000Y-58185262D01*
X140191286Y-58548667D01*
X140333080Y-58890987D01*
X140538932Y-59199067D01*
X140800933Y-59461068D01*
X141109013Y-59666920D01*
X141451333Y-59808714D01*
X141814738Y-59881000D01*
X142185262Y-59881000D01*
X142548667Y-59808714D01*
X142890987Y-59666920D01*
X143199067Y-59461068D01*
X143304362Y-59355773D01*
X150873833Y-59355773D01*
X151044283Y-59600316D01*
X151375814Y-59765772D01*
X151733253Y-59863371D01*
X152102865Y-59889361D01*
X152470445Y-59842744D01*
X152821868Y-59725311D01*
X153055717Y-59600316D01*
X153226167Y-59355773D01*
X152050000Y-58179605D01*
X150873833Y-59355773D01*
X143304362Y-59355773D01*
X143461068Y-59199067D01*
X143666920Y-58890987D01*
X143808714Y-58548667D01*
X143881000Y-58185262D01*
X143881000Y-58052865D01*
X150160639Y-58052865D01*
X150207256Y-58420445D01*
X150324689Y-58771868D01*
X150449684Y-59005717D01*
X150694227Y-59176167D01*
X151870395Y-58000000D01*
X152229605Y-58000000D01*
X153405773Y-59176167D01*
X153650316Y-59005717D01*
X153815772Y-58674186D01*
X153913371Y-58316747D01*
X153925713Y-58141219D01*
X164104000Y-58141219D01*
X164104000Y-58378781D01*
X164150346Y-58611777D01*
X164241257Y-58831255D01*
X164373239Y-59028780D01*
X164541220Y-59196761D01*
X164738745Y-59328743D01*
X164958223Y-59419654D01*
X165191219Y-59466000D01*
X165428781Y-59466000D01*
X165661777Y-59419654D01*
X165881255Y-59328743D01*
X166078780Y-59196761D01*
X166246761Y-59028780D01*
X166378743Y-58831255D01*
X166469654Y-58611777D01*
X166516000Y-58378781D01*
X166516000Y-58141219D01*
X166644000Y-58141219D01*
X166644000Y-58378781D01*
X166690346Y-58611777D01*
X166781257Y-58831255D01*
X166913239Y-59028780D01*
X167081220Y-59196761D01*
X167278745Y-59328743D01*
X167498223Y-59419654D01*
X167731219Y-59466000D01*
X167968781Y-59466000D01*
X168201777Y-59419654D01*
X168421255Y-59328743D01*
X168618780Y-59196761D01*
X168786761Y-59028780D01*
X168918743Y-58831255D01*
X169009654Y-58611777D01*
X169056000Y-58378781D01*
X169056000Y-58141219D01*
X169184000Y-58141219D01*
X169184000Y-58378781D01*
X169230346Y-58611777D01*
X169321257Y-58831255D01*
X169453239Y-59028780D01*
X169621220Y-59196761D01*
X169818745Y-59328743D01*
X170038223Y-59419654D01*
X170271219Y-59466000D01*
X170508781Y-59466000D01*
X170741777Y-59419654D01*
X170961255Y-59328743D01*
X171158780Y-59196761D01*
X171326761Y-59028780D01*
X171458743Y-58831255D01*
X171549654Y-58611777D01*
X171596000Y-58378781D01*
X171596000Y-58141219D01*
X171724000Y-58141219D01*
X171724000Y-58378781D01*
X171770346Y-58611777D01*
X171861257Y-58831255D01*
X171993239Y-59028780D01*
X172161220Y-59196761D01*
X172358745Y-59328743D01*
X172578223Y-59419654D01*
X172811219Y-59466000D01*
X173048781Y-59466000D01*
X173281777Y-59419654D01*
X173501255Y-59328743D01*
X173698780Y-59196761D01*
X173866761Y-59028780D01*
X173998743Y-58831255D01*
X174089654Y-58611777D01*
X174136000Y-58378781D01*
X174136000Y-58141219D01*
X174089654Y-57908223D01*
X173998743Y-57688745D01*
X173866761Y-57491220D01*
X173810541Y-57435000D01*
X174262157Y-57435000D01*
X174262157Y-59085000D01*
X174269513Y-59159689D01*
X174291299Y-59231508D01*
X174326678Y-59297696D01*
X174374289Y-59355711D01*
X174432304Y-59403322D01*
X174498492Y-59438701D01*
X174570311Y-59460487D01*
X174645000Y-59467843D01*
X176295000Y-59467843D01*
X176369689Y-59460487D01*
X176441508Y-59438701D01*
X176507696Y-59403322D01*
X176565711Y-59355711D01*
X176613322Y-59297696D01*
X176648701Y-59231508D01*
X176670487Y-59159689D01*
X176677843Y-59085000D01*
X176677843Y-57435000D01*
X176670487Y-57360311D01*
X176648701Y-57288492D01*
X176613322Y-57222304D01*
X176565711Y-57164289D01*
X176507696Y-57116678D01*
X176441508Y-57081299D01*
X176369689Y-57059513D01*
X176295000Y-57052157D01*
X174645000Y-57052157D01*
X174570311Y-57059513D01*
X174498492Y-57081299D01*
X174432304Y-57116678D01*
X174374289Y-57164289D01*
X174326678Y-57222304D01*
X174291299Y-57288492D01*
X174269513Y-57360311D01*
X174262157Y-57435000D01*
X173810541Y-57435000D01*
X173698780Y-57323239D01*
X173501255Y-57191257D01*
X173281777Y-57100346D01*
X173048781Y-57054000D01*
X172811219Y-57054000D01*
X172578223Y-57100346D01*
X172358745Y-57191257D01*
X172161220Y-57323239D01*
X171993239Y-57491220D01*
X171861257Y-57688745D01*
X171770346Y-57908223D01*
X171724000Y-58141219D01*
X171596000Y-58141219D01*
X171549654Y-57908223D01*
X171458743Y-57688745D01*
X171326761Y-57491220D01*
X171158780Y-57323239D01*
X170961255Y-57191257D01*
X170741777Y-57100346D01*
X170508781Y-57054000D01*
X170271219Y-57054000D01*
X170038223Y-57100346D01*
X169818745Y-57191257D01*
X169621220Y-57323239D01*
X169453239Y-57491220D01*
X169321257Y-57688745D01*
X169230346Y-57908223D01*
X169184000Y-58141219D01*
X169056000Y-58141219D01*
X169009654Y-57908223D01*
X168918743Y-57688745D01*
X168786761Y-57491220D01*
X168618780Y-57323239D01*
X168421255Y-57191257D01*
X168201777Y-57100346D01*
X167968781Y-57054000D01*
X167731219Y-57054000D01*
X167498223Y-57100346D01*
X167278745Y-57191257D01*
X167081220Y-57323239D01*
X166913239Y-57491220D01*
X166781257Y-57688745D01*
X166690346Y-57908223D01*
X166644000Y-58141219D01*
X166516000Y-58141219D01*
X166469654Y-57908223D01*
X166378743Y-57688745D01*
X166246761Y-57491220D01*
X166078780Y-57323239D01*
X165881255Y-57191257D01*
X165661777Y-57100346D01*
X165428781Y-57054000D01*
X165191219Y-57054000D01*
X164958223Y-57100346D01*
X164738745Y-57191257D01*
X164541220Y-57323239D01*
X164373239Y-57491220D01*
X164241257Y-57688745D01*
X164150346Y-57908223D01*
X164104000Y-58141219D01*
X153925713Y-58141219D01*
X153939361Y-57947135D01*
X153892744Y-57579555D01*
X153775311Y-57228132D01*
X153650316Y-56994283D01*
X153405773Y-56823833D01*
X152229605Y-58000000D01*
X151870395Y-58000000D01*
X150694227Y-56823833D01*
X150449684Y-56994283D01*
X150284228Y-57325814D01*
X150186629Y-57683253D01*
X150160639Y-58052865D01*
X143881000Y-58052865D01*
X143881000Y-57814738D01*
X143808714Y-57451333D01*
X143666920Y-57109013D01*
X143461068Y-56800933D01*
X143304362Y-56644227D01*
X150873833Y-56644227D01*
X152050000Y-57820395D01*
X153226167Y-56644227D01*
X153191315Y-56594224D01*
X164615381Y-56594224D01*
X164704369Y-56769645D01*
X164920782Y-56867629D01*
X165152151Y-56921510D01*
X165389587Y-56929218D01*
X165623964Y-56890457D01*
X165846275Y-56806716D01*
X165915631Y-56769645D01*
X166004619Y-56594224D01*
X167155381Y-56594224D01*
X167244369Y-56769645D01*
X167460782Y-56867629D01*
X167692151Y-56921510D01*
X167929587Y-56929218D01*
X168163964Y-56890457D01*
X168386275Y-56806716D01*
X168455631Y-56769645D01*
X168544619Y-56594224D01*
X169695381Y-56594224D01*
X169784369Y-56769645D01*
X170000782Y-56867629D01*
X170232151Y-56921510D01*
X170469587Y-56929218D01*
X170703964Y-56890457D01*
X170926275Y-56806716D01*
X170995631Y-56769645D01*
X171084619Y-56594224D01*
X172235381Y-56594224D01*
X172324369Y-56769645D01*
X172540782Y-56867629D01*
X172772151Y-56921510D01*
X173009587Y-56929218D01*
X173243964Y-56890457D01*
X173466275Y-56806716D01*
X173535631Y-56769645D01*
X173624619Y-56594224D01*
X174775381Y-56594224D01*
X174864369Y-56769645D01*
X175080782Y-56867629D01*
X175312151Y-56921510D01*
X175549587Y-56929218D01*
X175783964Y-56890457D01*
X176006275Y-56806716D01*
X176075631Y-56769645D01*
X176164619Y-56594224D01*
X175470000Y-55899605D01*
X174775381Y-56594224D01*
X173624619Y-56594224D01*
X172930000Y-55899605D01*
X172235381Y-56594224D01*
X171084619Y-56594224D01*
X170390000Y-55899605D01*
X169695381Y-56594224D01*
X168544619Y-56594224D01*
X167850000Y-55899605D01*
X167155381Y-56594224D01*
X166004619Y-56594224D01*
X165310000Y-55899605D01*
X164615381Y-56594224D01*
X153191315Y-56594224D01*
X153055717Y-56399684D01*
X152724186Y-56234228D01*
X152366747Y-56136629D01*
X151997135Y-56110639D01*
X151629555Y-56157256D01*
X151278132Y-56274689D01*
X151044283Y-56399684D01*
X150873833Y-56644227D01*
X143304362Y-56644227D01*
X143199067Y-56538932D01*
X142890987Y-56333080D01*
X142548667Y-56191286D01*
X142185262Y-56119000D01*
X141814738Y-56119000D01*
X141451333Y-56191286D01*
X141109013Y-56333080D01*
X140800933Y-56538932D01*
X140538932Y-56800933D01*
X140333080Y-57109013D01*
X140191286Y-57451333D01*
X140119000Y-57814738D01*
X134881000Y-57814738D01*
X134808714Y-57451333D01*
X134666920Y-57109013D01*
X134461068Y-56800933D01*
X134199067Y-56538932D01*
X133890987Y-56333080D01*
X133548667Y-56191286D01*
X133185262Y-56119000D01*
X132814738Y-56119000D01*
X132451333Y-56191286D01*
X132109013Y-56333080D01*
X131800933Y-56538932D01*
X131538932Y-56800933D01*
X131333080Y-57109013D01*
X131191286Y-57451333D01*
X131119000Y-57814738D01*
X125897843Y-57814738D01*
X125897843Y-57435000D01*
X125890487Y-57360311D01*
X125868701Y-57288492D01*
X125833322Y-57222304D01*
X125785711Y-57164289D01*
X125727696Y-57116678D01*
X125661508Y-57081299D01*
X125589689Y-57059513D01*
X125515000Y-57052157D01*
X123865000Y-57052157D01*
X123790311Y-57059513D01*
X123718492Y-57081299D01*
X123652304Y-57116678D01*
X123594289Y-57164289D01*
X123546678Y-57222304D01*
X123511299Y-57288492D01*
X123489513Y-57360311D01*
X123482157Y-57435000D01*
X123030541Y-57435000D01*
X122918780Y-57323239D01*
X122721255Y-57191257D01*
X122501777Y-57100346D01*
X122268781Y-57054000D01*
X122031219Y-57054000D01*
X121798223Y-57100346D01*
X121578745Y-57191257D01*
X121381220Y-57323239D01*
X121213239Y-57491220D01*
X121081257Y-57688745D01*
X120990346Y-57908223D01*
X120944000Y-58141219D01*
X120816000Y-58141219D01*
X120769654Y-57908223D01*
X120678743Y-57688745D01*
X120546761Y-57491220D01*
X120378780Y-57323239D01*
X120181255Y-57191257D01*
X119961777Y-57100346D01*
X119728781Y-57054000D01*
X119491219Y-57054000D01*
X119258223Y-57100346D01*
X119038745Y-57191257D01*
X118841220Y-57323239D01*
X118673239Y-57491220D01*
X118541257Y-57688745D01*
X118450346Y-57908223D01*
X118404000Y-58141219D01*
X118276000Y-58141219D01*
X118229654Y-57908223D01*
X118138743Y-57688745D01*
X118006761Y-57491220D01*
X117838780Y-57323239D01*
X117641255Y-57191257D01*
X117421777Y-57100346D01*
X117188781Y-57054000D01*
X116951219Y-57054000D01*
X116718223Y-57100346D01*
X116498745Y-57191257D01*
X116301220Y-57323239D01*
X116133239Y-57491220D01*
X116001257Y-57688745D01*
X115910346Y-57908223D01*
X115864000Y-58141219D01*
X115736000Y-58141219D01*
X115689654Y-57908223D01*
X115598743Y-57688745D01*
X115466761Y-57491220D01*
X115298780Y-57323239D01*
X115101255Y-57191257D01*
X114881777Y-57100346D01*
X114648781Y-57054000D01*
X114411219Y-57054000D01*
X114178223Y-57100346D01*
X113958745Y-57191257D01*
X113761220Y-57323239D01*
X113593239Y-57491220D01*
X113461257Y-57688745D01*
X113370346Y-57908223D01*
X113324000Y-58141219D01*
X105406000Y-58141219D01*
X105406000Y-56594224D01*
X113835381Y-56594224D01*
X113924369Y-56769645D01*
X114140782Y-56867629D01*
X114372151Y-56921510D01*
X114609587Y-56929218D01*
X114843964Y-56890457D01*
X115066275Y-56806716D01*
X115135631Y-56769645D01*
X115224619Y-56594224D01*
X116375381Y-56594224D01*
X116464369Y-56769645D01*
X116680782Y-56867629D01*
X116912151Y-56921510D01*
X117149587Y-56929218D01*
X117383964Y-56890457D01*
X117606275Y-56806716D01*
X117675631Y-56769645D01*
X117764619Y-56594224D01*
X118915381Y-56594224D01*
X119004369Y-56769645D01*
X119220782Y-56867629D01*
X119452151Y-56921510D01*
X119689587Y-56929218D01*
X119923964Y-56890457D01*
X120146275Y-56806716D01*
X120215631Y-56769645D01*
X120304619Y-56594224D01*
X121455381Y-56594224D01*
X121544369Y-56769645D01*
X121760782Y-56867629D01*
X121992151Y-56921510D01*
X122229587Y-56929218D01*
X122463964Y-56890457D01*
X122686275Y-56806716D01*
X122755631Y-56769645D01*
X122844619Y-56594224D01*
X123995381Y-56594224D01*
X124084369Y-56769645D01*
X124300782Y-56867629D01*
X124532151Y-56921510D01*
X124769587Y-56929218D01*
X125003964Y-56890457D01*
X125226275Y-56806716D01*
X125295631Y-56769645D01*
X125384619Y-56594224D01*
X124690000Y-55899605D01*
X123995381Y-56594224D01*
X122844619Y-56594224D01*
X122150000Y-55899605D01*
X121455381Y-56594224D01*
X120304619Y-56594224D01*
X119610000Y-55899605D01*
X118915381Y-56594224D01*
X117764619Y-56594224D01*
X117070000Y-55899605D01*
X116375381Y-56594224D01*
X115224619Y-56594224D01*
X114530000Y-55899605D01*
X113835381Y-56594224D01*
X105406000Y-56594224D01*
X105406000Y-55799587D01*
X113320782Y-55799587D01*
X113359543Y-56033964D01*
X113443284Y-56256275D01*
X113480355Y-56325631D01*
X113655776Y-56414619D01*
X114350395Y-55720000D01*
X114709605Y-55720000D01*
X115404224Y-56414619D01*
X115579645Y-56325631D01*
X115677629Y-56109218D01*
X115731510Y-55877849D01*
X115734050Y-55799587D01*
X115860782Y-55799587D01*
X115899543Y-56033964D01*
X115983284Y-56256275D01*
X116020355Y-56325631D01*
X116195776Y-56414619D01*
X116890395Y-55720000D01*
X117249605Y-55720000D01*
X117944224Y-56414619D01*
X118119645Y-56325631D01*
X118217629Y-56109218D01*
X118271510Y-55877849D01*
X118274050Y-55799587D01*
X118400782Y-55799587D01*
X118439543Y-56033964D01*
X118523284Y-56256275D01*
X118560355Y-56325631D01*
X118735776Y-56414619D01*
X119430395Y-55720000D01*
X119789605Y-55720000D01*
X120484224Y-56414619D01*
X120659645Y-56325631D01*
X120757629Y-56109218D01*
X120811510Y-55877849D01*
X120814050Y-55799587D01*
X120940782Y-55799587D01*
X120979543Y-56033964D01*
X121063284Y-56256275D01*
X121100355Y-56325631D01*
X121275776Y-56414619D01*
X121970395Y-55720000D01*
X122329605Y-55720000D01*
X123024224Y-56414619D01*
X123199645Y-56325631D01*
X123297629Y-56109218D01*
X123351510Y-55877849D01*
X123354050Y-55799587D01*
X123480782Y-55799587D01*
X123519543Y-56033964D01*
X123603284Y-56256275D01*
X123640355Y-56325631D01*
X123815776Y-56414619D01*
X124510395Y-55720000D01*
X124869605Y-55720000D01*
X125564224Y-56414619D01*
X125739645Y-56325631D01*
X125837629Y-56109218D01*
X125891510Y-55877849D01*
X125894050Y-55799587D01*
X164100782Y-55799587D01*
X164139543Y-56033964D01*
X164223284Y-56256275D01*
X164260355Y-56325631D01*
X164435776Y-56414619D01*
X165130395Y-55720000D01*
X165489605Y-55720000D01*
X166184224Y-56414619D01*
X166359645Y-56325631D01*
X166457629Y-56109218D01*
X166511510Y-55877849D01*
X166514050Y-55799587D01*
X166640782Y-55799587D01*
X166679543Y-56033964D01*
X166763284Y-56256275D01*
X166800355Y-56325631D01*
X166975776Y-56414619D01*
X167670395Y-55720000D01*
X168029605Y-55720000D01*
X168724224Y-56414619D01*
X168899645Y-56325631D01*
X168997629Y-56109218D01*
X169051510Y-55877849D01*
X169054050Y-55799587D01*
X169180782Y-55799587D01*
X169219543Y-56033964D01*
X169303284Y-56256275D01*
X169340355Y-56325631D01*
X169515776Y-56414619D01*
X170210395Y-55720000D01*
X170569605Y-55720000D01*
X171264224Y-56414619D01*
X171439645Y-56325631D01*
X171537629Y-56109218D01*
X171591510Y-55877849D01*
X171594050Y-55799587D01*
X171720782Y-55799587D01*
X171759543Y-56033964D01*
X171843284Y-56256275D01*
X171880355Y-56325631D01*
X172055776Y-56414619D01*
X172750395Y-55720000D01*
X173109605Y-55720000D01*
X173804224Y-56414619D01*
X173979645Y-56325631D01*
X174077629Y-56109218D01*
X174131510Y-55877849D01*
X174134050Y-55799587D01*
X174260782Y-55799587D01*
X174299543Y-56033964D01*
X174383284Y-56256275D01*
X174420355Y-56325631D01*
X174595776Y-56414619D01*
X175290395Y-55720000D01*
X175649605Y-55720000D01*
X176344224Y-56414619D01*
X176519645Y-56325631D01*
X176617629Y-56109218D01*
X176671510Y-55877849D01*
X176679218Y-55640413D01*
X176640457Y-55406036D01*
X176556716Y-55183725D01*
X176519645Y-55114369D01*
X176344224Y-55025381D01*
X175649605Y-55720000D01*
X175290395Y-55720000D01*
X174595776Y-55025381D01*
X174420355Y-55114369D01*
X174322371Y-55330782D01*
X174268490Y-55562151D01*
X174260782Y-55799587D01*
X174134050Y-55799587D01*
X174139218Y-55640413D01*
X174100457Y-55406036D01*
X174016716Y-55183725D01*
X173979645Y-55114369D01*
X173804224Y-55025381D01*
X173109605Y-55720000D01*
X172750395Y-55720000D01*
X172055776Y-55025381D01*
X171880355Y-55114369D01*
X171782371Y-55330782D01*
X171728490Y-55562151D01*
X171720782Y-55799587D01*
X171594050Y-55799587D01*
X171599218Y-55640413D01*
X171560457Y-55406036D01*
X171476716Y-55183725D01*
X171439645Y-55114369D01*
X171264224Y-55025381D01*
X170569605Y-55720000D01*
X170210395Y-55720000D01*
X169515776Y-55025381D01*
X169340355Y-55114369D01*
X169242371Y-55330782D01*
X169188490Y-55562151D01*
X169180782Y-55799587D01*
X169054050Y-55799587D01*
X169059218Y-55640413D01*
X169020457Y-55406036D01*
X168936716Y-55183725D01*
X168899645Y-55114369D01*
X168724224Y-55025381D01*
X168029605Y-55720000D01*
X167670395Y-55720000D01*
X166975776Y-55025381D01*
X166800355Y-55114369D01*
X166702371Y-55330782D01*
X166648490Y-55562151D01*
X166640782Y-55799587D01*
X166514050Y-55799587D01*
X166519218Y-55640413D01*
X166480457Y-55406036D01*
X166396716Y-55183725D01*
X166359645Y-55114369D01*
X166184224Y-55025381D01*
X165489605Y-55720000D01*
X165130395Y-55720000D01*
X164435776Y-55025381D01*
X164260355Y-55114369D01*
X164162371Y-55330782D01*
X164108490Y-55562151D01*
X164100782Y-55799587D01*
X125894050Y-55799587D01*
X125899218Y-55640413D01*
X125860457Y-55406036D01*
X125776716Y-55183725D01*
X125739645Y-55114369D01*
X125564224Y-55025381D01*
X124869605Y-55720000D01*
X124510395Y-55720000D01*
X123815776Y-55025381D01*
X123640355Y-55114369D01*
X123542371Y-55330782D01*
X123488490Y-55562151D01*
X123480782Y-55799587D01*
X123354050Y-55799587D01*
X123359218Y-55640413D01*
X123320457Y-55406036D01*
X123236716Y-55183725D01*
X123199645Y-55114369D01*
X123024224Y-55025381D01*
X122329605Y-55720000D01*
X121970395Y-55720000D01*
X121275776Y-55025381D01*
X121100355Y-55114369D01*
X121002371Y-55330782D01*
X120948490Y-55562151D01*
X120940782Y-55799587D01*
X120814050Y-55799587D01*
X120819218Y-55640413D01*
X120780457Y-55406036D01*
X120696716Y-55183725D01*
X120659645Y-55114369D01*
X120484224Y-55025381D01*
X119789605Y-55720000D01*
X119430395Y-55720000D01*
X118735776Y-55025381D01*
X118560355Y-55114369D01*
X118462371Y-55330782D01*
X118408490Y-55562151D01*
X118400782Y-55799587D01*
X118274050Y-55799587D01*
X118279218Y-55640413D01*
X118240457Y-55406036D01*
X118156716Y-55183725D01*
X118119645Y-55114369D01*
X117944224Y-55025381D01*
X117249605Y-55720000D01*
X116890395Y-55720000D01*
X116195776Y-55025381D01*
X116020355Y-55114369D01*
X115922371Y-55330782D01*
X115868490Y-55562151D01*
X115860782Y-55799587D01*
X115734050Y-55799587D01*
X115739218Y-55640413D01*
X115700457Y-55406036D01*
X115616716Y-55183725D01*
X115579645Y-55114369D01*
X115404224Y-55025381D01*
X114709605Y-55720000D01*
X114350395Y-55720000D01*
X113655776Y-55025381D01*
X113480355Y-55114369D01*
X113382371Y-55330782D01*
X113328490Y-55562151D01*
X113320782Y-55799587D01*
X105406000Y-55799587D01*
X105406000Y-54845776D01*
X113835381Y-54845776D01*
X114530000Y-55540395D01*
X115224619Y-54845776D01*
X116375381Y-54845776D01*
X117070000Y-55540395D01*
X117764619Y-54845776D01*
X118915381Y-54845776D01*
X119610000Y-55540395D01*
X120304619Y-54845776D01*
X121455381Y-54845776D01*
X122150000Y-55540395D01*
X122844619Y-54845776D01*
X123995381Y-54845776D01*
X124690000Y-55540395D01*
X125384619Y-54845776D01*
X164615381Y-54845776D01*
X165310000Y-55540395D01*
X166004619Y-54845776D01*
X167155381Y-54845776D01*
X167850000Y-55540395D01*
X168544619Y-54845776D01*
X169695381Y-54845776D01*
X170390000Y-55540395D01*
X171084619Y-54845776D01*
X172235381Y-54845776D01*
X172930000Y-55540395D01*
X173624619Y-54845776D01*
X174775381Y-54845776D01*
X175470000Y-55540395D01*
X176164619Y-54845776D01*
X176075631Y-54670355D01*
X175859218Y-54572371D01*
X175627849Y-54518490D01*
X175390413Y-54510782D01*
X175156036Y-54549543D01*
X174933725Y-54633284D01*
X174864369Y-54670355D01*
X174775381Y-54845776D01*
X173624619Y-54845776D01*
X173535631Y-54670355D01*
X173319218Y-54572371D01*
X173087849Y-54518490D01*
X172850413Y-54510782D01*
X172616036Y-54549543D01*
X172393725Y-54633284D01*
X172324369Y-54670355D01*
X172235381Y-54845776D01*
X171084619Y-54845776D01*
X170995631Y-54670355D01*
X170779218Y-54572371D01*
X170547849Y-54518490D01*
X170310413Y-54510782D01*
X170076036Y-54549543D01*
X169853725Y-54633284D01*
X169784369Y-54670355D01*
X169695381Y-54845776D01*
X168544619Y-54845776D01*
X168455631Y-54670355D01*
X168239218Y-54572371D01*
X168007849Y-54518490D01*
X167770413Y-54510782D01*
X167536036Y-54549543D01*
X167313725Y-54633284D01*
X167244369Y-54670355D01*
X167155381Y-54845776D01*
X166004619Y-54845776D01*
X165915631Y-54670355D01*
X165699218Y-54572371D01*
X165467849Y-54518490D01*
X165230413Y-54510782D01*
X164996036Y-54549543D01*
X164773725Y-54633284D01*
X164704369Y-54670355D01*
X164615381Y-54845776D01*
X125384619Y-54845776D01*
X125295631Y-54670355D01*
X125079218Y-54572371D01*
X124847849Y-54518490D01*
X124610413Y-54510782D01*
X124376036Y-54549543D01*
X124153725Y-54633284D01*
X124084369Y-54670355D01*
X123995381Y-54845776D01*
X122844619Y-54845776D01*
X122755631Y-54670355D01*
X122539218Y-54572371D01*
X122307849Y-54518490D01*
X122070413Y-54510782D01*
X121836036Y-54549543D01*
X121613725Y-54633284D01*
X121544369Y-54670355D01*
X121455381Y-54845776D01*
X120304619Y-54845776D01*
X120215631Y-54670355D01*
X119999218Y-54572371D01*
X119767849Y-54518490D01*
X119530413Y-54510782D01*
X119296036Y-54549543D01*
X119073725Y-54633284D01*
X119004369Y-54670355D01*
X118915381Y-54845776D01*
X117764619Y-54845776D01*
X117675631Y-54670355D01*
X117459218Y-54572371D01*
X117227849Y-54518490D01*
X116990413Y-54510782D01*
X116756036Y-54549543D01*
X116533725Y-54633284D01*
X116464369Y-54670355D01*
X116375381Y-54845776D01*
X115224619Y-54845776D01*
X115135631Y-54670355D01*
X114919218Y-54572371D01*
X114687849Y-54518490D01*
X114450413Y-54510782D01*
X114216036Y-54549543D01*
X113993725Y-54633284D01*
X113924369Y-54670355D01*
X113835381Y-54845776D01*
X105406000Y-54845776D01*
X105406000Y-54102621D01*
X177023000Y-54102621D01*
X177023000Y-54797379D01*
X177158540Y-55478788D01*
X177424413Y-56120661D01*
X177810400Y-56698332D01*
X178301668Y-57189600D01*
X178879339Y-57575587D01*
X179521212Y-57841460D01*
X180202621Y-57977000D01*
X180897379Y-57977000D01*
X181578788Y-57841460D01*
X182220661Y-57575587D01*
X182798332Y-57189600D01*
X183289600Y-56698332D01*
X183675587Y-56120661D01*
X183941460Y-55478788D01*
X184077000Y-54797379D01*
X184077000Y-54102621D01*
X183941460Y-53421212D01*
X183675587Y-52779339D01*
X183289600Y-52201668D01*
X182798332Y-51710400D01*
X182220661Y-51324413D01*
X181578788Y-51058540D01*
X180897379Y-50923000D01*
X180202621Y-50923000D01*
X179521212Y-51058540D01*
X178879339Y-51324413D01*
X178301668Y-51710400D01*
X177810400Y-52201668D01*
X177424413Y-52779339D01*
X177158540Y-53421212D01*
X177023000Y-54102621D01*
X105406000Y-54102621D01*
X105406000Y-51019854D01*
X105419222Y-50885006D01*
X105452620Y-50774386D01*
X105506868Y-50672361D01*
X105579895Y-50582821D01*
X105668925Y-50509167D01*
X105770572Y-50454208D01*
X105880949Y-50420040D01*
X106014528Y-50406000D01*
X183980146Y-50406000D01*
X184114994Y-50419222D01*
G37*
X184114994Y-50419222D02*
X184225614Y-50452620D01*
X184327639Y-50506868D01*
X184417179Y-50579895D01*
X184490833Y-50668925D01*
X184545792Y-50770572D01*
X184579960Y-50880949D01*
X184594001Y-51014538D01*
X184594000Y-128980146D01*
X184580778Y-129114994D01*
X184547379Y-129225615D01*
X184493132Y-129327639D01*
X184420106Y-129417179D01*
X184331072Y-129490834D01*
X184229428Y-129545792D01*
X184119051Y-129579960D01*
X183985472Y-129594000D01*
X106019854Y-129594000D01*
X105885006Y-129580778D01*
X105774385Y-129547379D01*
X105672361Y-129493132D01*
X105582821Y-129420106D01*
X105509166Y-129331072D01*
X105454208Y-129229428D01*
X105420040Y-129119051D01*
X105406000Y-128985472D01*
X105406000Y-125202621D01*
X105923000Y-125202621D01*
X105923000Y-125897379D01*
X106058540Y-126578788D01*
X106324413Y-127220661D01*
X106710400Y-127798332D01*
X107201668Y-128289600D01*
X107779339Y-128675587D01*
X108421212Y-128941460D01*
X109102621Y-129077000D01*
X109797379Y-129077000D01*
X110478788Y-128941460D01*
X111120661Y-128675587D01*
X111698332Y-128289600D01*
X112189600Y-127798332D01*
X112575587Y-127220661D01*
X112841460Y-126578788D01*
X112977000Y-125897379D01*
X112977000Y-125202621D01*
X112967374Y-125154224D01*
X118905381Y-125154224D01*
X118994369Y-125329645D01*
X119210782Y-125427629D01*
X119442151Y-125481510D01*
X119679587Y-125489218D01*
X119913964Y-125450457D01*
X120136275Y-125366716D01*
X120205631Y-125329645D01*
X120294619Y-125154224D01*
X121445381Y-125154224D01*
X121534369Y-125329645D01*
X121750782Y-125427629D01*
X121982151Y-125481510D01*
X122219587Y-125489218D01*
X122453964Y-125450457D01*
X122676275Y-125366716D01*
X122745631Y-125329645D01*
X122834619Y-125154224D01*
X123985381Y-125154224D01*
X124074369Y-125329645D01*
X124290782Y-125427629D01*
X124522151Y-125481510D01*
X124759587Y-125489218D01*
X124993964Y-125450457D01*
X125216275Y-125366716D01*
X125285631Y-125329645D01*
X125374619Y-125154224D01*
X126525381Y-125154224D01*
X126614369Y-125329645D01*
X126830782Y-125427629D01*
X127062151Y-125481510D01*
X127299587Y-125489218D01*
X127533964Y-125450457D01*
X127756275Y-125366716D01*
X127825631Y-125329645D01*
X127914619Y-125154224D01*
X129065381Y-125154224D01*
X129154369Y-125329645D01*
X129370782Y-125427629D01*
X129602151Y-125481510D01*
X129839587Y-125489218D01*
X130073964Y-125450457D01*
X130296275Y-125366716D01*
X130365631Y-125329645D01*
X130454619Y-125154224D01*
X129760000Y-124459605D01*
X129065381Y-125154224D01*
X127914619Y-125154224D01*
X127220000Y-124459605D01*
X126525381Y-125154224D01*
X125374619Y-125154224D01*
X124680000Y-124459605D01*
X123985381Y-125154224D01*
X122834619Y-125154224D01*
X122140000Y-124459605D01*
X121445381Y-125154224D01*
X120294619Y-125154224D01*
X119600000Y-124459605D01*
X118905381Y-125154224D01*
X112967374Y-125154224D01*
X112841460Y-124521212D01*
X112774513Y-124359587D01*
X118390782Y-124359587D01*
X118429543Y-124593964D01*
X118513284Y-124816275D01*
X118550355Y-124885631D01*
X118725776Y-124974619D01*
X119420395Y-124280000D01*
X119779605Y-124280000D01*
X120474224Y-124974619D01*
X120649645Y-124885631D01*
X120747629Y-124669218D01*
X120801510Y-124437849D01*
X120804050Y-124359587D01*
X120930782Y-124359587D01*
X120969543Y-124593964D01*
X121053284Y-124816275D01*
X121090355Y-124885631D01*
X121265776Y-124974619D01*
X121960395Y-124280000D01*
X122319605Y-124280000D01*
X123014224Y-124974619D01*
X123189645Y-124885631D01*
X123287629Y-124669218D01*
X123341510Y-124437849D01*
X123344050Y-124359587D01*
X123470782Y-124359587D01*
X123509543Y-124593964D01*
X123593284Y-124816275D01*
X123630355Y-124885631D01*
X123805776Y-124974619D01*
X124500395Y-124280000D01*
X124859605Y-124280000D01*
X125554224Y-124974619D01*
X125729645Y-124885631D01*
X125827629Y-124669218D01*
X125881510Y-124437849D01*
X125884050Y-124359587D01*
X126010782Y-124359587D01*
X126049543Y-124593964D01*
X126133284Y-124816275D01*
X126170355Y-124885631D01*
X126345776Y-124974619D01*
X127040395Y-124280000D01*
X127399605Y-124280000D01*
X128094224Y-124974619D01*
X128269645Y-124885631D01*
X128367629Y-124669218D01*
X128421510Y-124437849D01*
X128424050Y-124359587D01*
X128550782Y-124359587D01*
X128589543Y-124593964D01*
X128673284Y-124816275D01*
X128710355Y-124885631D01*
X128885776Y-124974619D01*
X129580395Y-124280000D01*
X129939605Y-124280000D01*
X130634224Y-124974619D01*
X130809645Y-124885631D01*
X130823163Y-124855773D01*
X150873833Y-124855773D01*
X151044283Y-125100316D01*
X151375814Y-125265772D01*
X151733253Y-125363371D01*
X152102865Y-125389361D01*
X152470445Y-125342744D01*
X152821868Y-125225311D01*
X152954862Y-125154224D01*
X159545381Y-125154224D01*
X159634369Y-125329645D01*
X159850782Y-125427629D01*
X160082151Y-125481510D01*
X160319587Y-125489218D01*
X160553964Y-125450457D01*
X160776275Y-125366716D01*
X160845631Y-125329645D01*
X160934619Y-125154224D01*
X162085381Y-125154224D01*
X162174369Y-125329645D01*
X162390782Y-125427629D01*
X162622151Y-125481510D01*
X162859587Y-125489218D01*
X163093964Y-125450457D01*
X163316275Y-125366716D01*
X163385631Y-125329645D01*
X163474619Y-125154224D01*
X164625381Y-125154224D01*
X164714369Y-125329645D01*
X164930782Y-125427629D01*
X165162151Y-125481510D01*
X165399587Y-125489218D01*
X165633964Y-125450457D01*
X165856275Y-125366716D01*
X165925631Y-125329645D01*
X166014619Y-125154224D01*
X167165381Y-125154224D01*
X167254369Y-125329645D01*
X167470782Y-125427629D01*
X167702151Y-125481510D01*
X167939587Y-125489218D01*
X168173964Y-125450457D01*
X168396275Y-125366716D01*
X168465631Y-125329645D01*
X168554619Y-125154224D01*
X169705381Y-125154224D01*
X169794369Y-125329645D01*
X170010782Y-125427629D01*
X170242151Y-125481510D01*
X170479587Y-125489218D01*
X170713964Y-125450457D01*
X170936275Y-125366716D01*
X171005631Y-125329645D01*
X171094619Y-125154224D01*
X170400000Y-124459605D01*
X169705381Y-125154224D01*
X168554619Y-125154224D01*
X167860000Y-124459605D01*
X167165381Y-125154224D01*
X166014619Y-125154224D01*
X165320000Y-124459605D01*
X164625381Y-125154224D01*
X163474619Y-125154224D01*
X162780000Y-124459605D01*
X162085381Y-125154224D01*
X160934619Y-125154224D01*
X160240000Y-124459605D01*
X159545381Y-125154224D01*
X152954862Y-125154224D01*
X153055717Y-125100316D01*
X153226167Y-124855773D01*
X152050000Y-123679605D01*
X150873833Y-124855773D01*
X130823163Y-124855773D01*
X130907629Y-124669218D01*
X130961510Y-124437849D01*
X130969218Y-124200413D01*
X130930457Y-123966036D01*
X130846716Y-123743725D01*
X130809645Y-123674369D01*
X130634224Y-123585381D01*
X129939605Y-124280000D01*
X129580395Y-124280000D01*
X128885776Y-123585381D01*
X128710355Y-123674369D01*
X128612371Y-123890782D01*
X128558490Y-124122151D01*
X128550782Y-124359587D01*
X128424050Y-124359587D01*
X128429218Y-124200413D01*
X128390457Y-123966036D01*
X128306716Y-123743725D01*
X128269645Y-123674369D01*
X128094224Y-123585381D01*
X127399605Y-124280000D01*
X127040395Y-124280000D01*
X126345776Y-123585381D01*
X126170355Y-123674369D01*
X126072371Y-123890782D01*
X126018490Y-124122151D01*
X126010782Y-124359587D01*
X125884050Y-124359587D01*
X125889218Y-124200413D01*
X125850457Y-123966036D01*
X125766716Y-123743725D01*
X125729645Y-123674369D01*
X125554224Y-123585381D01*
X124859605Y-124280000D01*
X124500395Y-124280000D01*
X123805776Y-123585381D01*
X123630355Y-123674369D01*
X123532371Y-123890782D01*
X123478490Y-124122151D01*
X123470782Y-124359587D01*
X123344050Y-124359587D01*
X123349218Y-124200413D01*
X123310457Y-123966036D01*
X123226716Y-123743725D01*
X123189645Y-123674369D01*
X123014224Y-123585381D01*
X122319605Y-124280000D01*
X121960395Y-124280000D01*
X121265776Y-123585381D01*
X121090355Y-123674369D01*
X120992371Y-123890782D01*
X120938490Y-124122151D01*
X120930782Y-124359587D01*
X120804050Y-124359587D01*
X120809218Y-124200413D01*
X120770457Y-123966036D01*
X120686716Y-123743725D01*
X120649645Y-123674369D01*
X120474224Y-123585381D01*
X119779605Y-124280000D01*
X119420395Y-124280000D01*
X118725776Y-123585381D01*
X118550355Y-123674369D01*
X118452371Y-123890782D01*
X118398490Y-124122151D01*
X118390782Y-124359587D01*
X112774513Y-124359587D01*
X112575587Y-123879339D01*
X112259163Y-123405776D01*
X118905381Y-123405776D01*
X119600000Y-124100395D01*
X120294619Y-123405776D01*
X121445381Y-123405776D01*
X122140000Y-124100395D01*
X122834619Y-123405776D01*
X123985381Y-123405776D01*
X124680000Y-124100395D01*
X125374619Y-123405776D01*
X126525381Y-123405776D01*
X127220000Y-124100395D01*
X127914619Y-123405776D01*
X129065381Y-123405776D01*
X129760000Y-124100395D01*
X130307530Y-123552865D01*
X150160639Y-123552865D01*
X150207256Y-123920445D01*
X150324689Y-124271868D01*
X150449684Y-124505717D01*
X150694227Y-124676167D01*
X151870395Y-123500000D01*
X152229605Y-123500000D01*
X153405773Y-124676167D01*
X153650316Y-124505717D01*
X153723244Y-124359587D01*
X159030782Y-124359587D01*
X159069543Y-124593964D01*
X159153284Y-124816275D01*
X159190355Y-124885631D01*
X159365776Y-124974619D01*
X160060395Y-124280000D01*
X160419605Y-124280000D01*
X161114224Y-124974619D01*
X161289645Y-124885631D01*
X161387629Y-124669218D01*
X161441510Y-124437849D01*
X161444050Y-124359587D01*
X161570782Y-124359587D01*
X161609543Y-124593964D01*
X161693284Y-124816275D01*
X161730355Y-124885631D01*
X161905776Y-124974619D01*
X162600395Y-124280000D01*
X162959605Y-124280000D01*
X163654224Y-124974619D01*
X163829645Y-124885631D01*
X163927629Y-124669218D01*
X163981510Y-124437849D01*
X163984050Y-124359587D01*
X164110782Y-124359587D01*
X164149543Y-124593964D01*
X164233284Y-124816275D01*
X164270355Y-124885631D01*
X164445776Y-124974619D01*
X165140395Y-124280000D01*
X165499605Y-124280000D01*
X166194224Y-124974619D01*
X166369645Y-124885631D01*
X166467629Y-124669218D01*
X166521510Y-124437849D01*
X166524050Y-124359587D01*
X166650782Y-124359587D01*
X166689543Y-124593964D01*
X166773284Y-124816275D01*
X166810355Y-124885631D01*
X166985776Y-124974619D01*
X167680395Y-124280000D01*
X168039605Y-124280000D01*
X168734224Y-124974619D01*
X168909645Y-124885631D01*
X169007629Y-124669218D01*
X169061510Y-124437849D01*
X169064050Y-124359587D01*
X169190782Y-124359587D01*
X169229543Y-124593964D01*
X169313284Y-124816275D01*
X169350355Y-124885631D01*
X169525776Y-124974619D01*
X170220395Y-124280000D01*
X170579605Y-124280000D01*
X171274224Y-124974619D01*
X171449645Y-124885631D01*
X171547629Y-124669218D01*
X171601510Y-124437849D01*
X171609218Y-124200413D01*
X171570457Y-123966036D01*
X171486716Y-123743725D01*
X171449645Y-123674369D01*
X171274224Y-123585381D01*
X170579605Y-124280000D01*
X170220395Y-124280000D01*
X169525776Y-123585381D01*
X169350355Y-123674369D01*
X169252371Y-123890782D01*
X169198490Y-124122151D01*
X169190782Y-124359587D01*
X169064050Y-124359587D01*
X169069218Y-124200413D01*
X169030457Y-123966036D01*
X168946716Y-123743725D01*
X168909645Y-123674369D01*
X168734224Y-123585381D01*
X168039605Y-124280000D01*
X167680395Y-124280000D01*
X166985776Y-123585381D01*
X166810355Y-123674369D01*
X166712371Y-123890782D01*
X166658490Y-124122151D01*
X166650782Y-124359587D01*
X166524050Y-124359587D01*
X166529218Y-124200413D01*
X166490457Y-123966036D01*
X166406716Y-123743725D01*
X166369645Y-123674369D01*
X166194224Y-123585381D01*
X165499605Y-124280000D01*
X165140395Y-124280000D01*
X164445776Y-123585381D01*
X164270355Y-123674369D01*
X164172371Y-123890782D01*
X164118490Y-124122151D01*
X164110782Y-124359587D01*
X163984050Y-124359587D01*
X163989218Y-124200413D01*
X163950457Y-123966036D01*
X163866716Y-123743725D01*
X163829645Y-123674369D01*
X163654224Y-123585381D01*
X162959605Y-124280000D01*
X162600395Y-124280000D01*
X161905776Y-123585381D01*
X161730355Y-123674369D01*
X161632371Y-123890782D01*
X161578490Y-124122151D01*
X161570782Y-124359587D01*
X161444050Y-124359587D01*
X161449218Y-124200413D01*
X161410457Y-123966036D01*
X161326716Y-123743725D01*
X161289645Y-123674369D01*
X161114224Y-123585381D01*
X160419605Y-124280000D01*
X160060395Y-124280000D01*
X159365776Y-123585381D01*
X159190355Y-123674369D01*
X159092371Y-123890782D01*
X159038490Y-124122151D01*
X159030782Y-124359587D01*
X153723244Y-124359587D01*
X153815772Y-124174186D01*
X153913371Y-123816747D01*
X153939361Y-123447135D01*
X153934116Y-123405776D01*
X159545381Y-123405776D01*
X160240000Y-124100395D01*
X160934619Y-123405776D01*
X162085381Y-123405776D01*
X162780000Y-124100395D01*
X163474619Y-123405776D01*
X164625381Y-123405776D01*
X165320000Y-124100395D01*
X166014619Y-123405776D01*
X167165381Y-123405776D01*
X167860000Y-124100395D01*
X168554619Y-123405776D01*
X169705381Y-123405776D01*
X170400000Y-124100395D01*
X171094619Y-123405776D01*
X171005631Y-123230355D01*
X170789218Y-123132371D01*
X170557849Y-123078490D01*
X170320413Y-123070782D01*
X170086036Y-123109543D01*
X169863725Y-123193284D01*
X169794369Y-123230355D01*
X169705381Y-123405776D01*
X168554619Y-123405776D01*
X168465631Y-123230355D01*
X168249218Y-123132371D01*
X168017849Y-123078490D01*
X167780413Y-123070782D01*
X167546036Y-123109543D01*
X167323725Y-123193284D01*
X167254369Y-123230355D01*
X167165381Y-123405776D01*
X166014619Y-123405776D01*
X165925631Y-123230355D01*
X165709218Y-123132371D01*
X165477849Y-123078490D01*
X165240413Y-123070782D01*
X165006036Y-123109543D01*
X164783725Y-123193284D01*
X164714369Y-123230355D01*
X164625381Y-123405776D01*
X163474619Y-123405776D01*
X163385631Y-123230355D01*
X163169218Y-123132371D01*
X162937849Y-123078490D01*
X162700413Y-123070782D01*
X162466036Y-123109543D01*
X162243725Y-123193284D01*
X162174369Y-123230355D01*
X162085381Y-123405776D01*
X160934619Y-123405776D01*
X160845631Y-123230355D01*
X160629218Y-123132371D01*
X160397849Y-123078490D01*
X160160413Y-123070782D01*
X159926036Y-123109543D01*
X159703725Y-123193284D01*
X159634369Y-123230355D01*
X159545381Y-123405776D01*
X153934116Y-123405776D01*
X153892744Y-123079555D01*
X153775311Y-122728132D01*
X153650316Y-122494283D01*
X153405773Y-122323833D01*
X152229605Y-123500000D01*
X151870395Y-123500000D01*
X150694227Y-122323833D01*
X150449684Y-122494283D01*
X150284228Y-122825814D01*
X150186629Y-123183253D01*
X150160639Y-123552865D01*
X130307530Y-123552865D01*
X130454619Y-123405776D01*
X130365631Y-123230355D01*
X130149218Y-123132371D01*
X129917849Y-123078490D01*
X129680413Y-123070782D01*
X129446036Y-123109543D01*
X129223725Y-123193284D01*
X129154369Y-123230355D01*
X129065381Y-123405776D01*
X127914619Y-123405776D01*
X127825631Y-123230355D01*
X127609218Y-123132371D01*
X127377849Y-123078490D01*
X127140413Y-123070782D01*
X126906036Y-123109543D01*
X126683725Y-123193284D01*
X126614369Y-123230355D01*
X126525381Y-123405776D01*
X125374619Y-123405776D01*
X125285631Y-123230355D01*
X125069218Y-123132371D01*
X124837849Y-123078490D01*
X124600413Y-123070782D01*
X124366036Y-123109543D01*
X124143725Y-123193284D01*
X124074369Y-123230355D01*
X123985381Y-123405776D01*
X122834619Y-123405776D01*
X122745631Y-123230355D01*
X122529218Y-123132371D01*
X122297849Y-123078490D01*
X122060413Y-123070782D01*
X121826036Y-123109543D01*
X121603725Y-123193284D01*
X121534369Y-123230355D01*
X121445381Y-123405776D01*
X120294619Y-123405776D01*
X120205631Y-123230355D01*
X119989218Y-123132371D01*
X119757849Y-123078490D01*
X119520413Y-123070782D01*
X119286036Y-123109543D01*
X119063725Y-123193284D01*
X118994369Y-123230355D01*
X118905381Y-123405776D01*
X112259163Y-123405776D01*
X112189600Y-123301668D01*
X111698332Y-122810400D01*
X111120661Y-122424413D01*
X110478788Y-122158540D01*
X109797379Y-122023000D01*
X109102621Y-122023000D01*
X108421212Y-122158540D01*
X107779339Y-122424413D01*
X107201668Y-122810400D01*
X106710400Y-123301668D01*
X106324413Y-123879339D01*
X106058540Y-124521212D01*
X105923000Y-125202621D01*
X105406000Y-125202621D01*
X105406000Y-120915000D01*
X118392157Y-120915000D01*
X118392157Y-122565000D01*
X118399513Y-122639689D01*
X118421299Y-122711508D01*
X118456678Y-122777696D01*
X118504289Y-122835711D01*
X118562304Y-122883322D01*
X118628492Y-122918701D01*
X118700311Y-122940487D01*
X118775000Y-122947843D01*
X120425000Y-122947843D01*
X120499689Y-122940487D01*
X120571508Y-122918701D01*
X120637696Y-122883322D01*
X120695711Y-122835711D01*
X120743322Y-122777696D01*
X120778701Y-122711508D01*
X120800487Y-122639689D01*
X120807843Y-122565000D01*
X120807843Y-121424525D01*
X121086629Y-121145739D01*
X121071257Y-121168745D01*
X120980346Y-121388223D01*
X120934000Y-121621219D01*
X120934000Y-121858781D01*
X120980346Y-122091777D01*
X121071257Y-122311255D01*
X121203239Y-122508780D01*
X121371220Y-122676761D01*
X121568745Y-122808743D01*
X121788223Y-122899654D01*
X122021219Y-122946000D01*
X122258781Y-122946000D01*
X122491777Y-122899654D01*
X122711255Y-122808743D01*
X122908780Y-122676761D01*
X123076761Y-122508780D01*
X123208743Y-122311255D01*
X123299654Y-122091777D01*
X123346000Y-121858781D01*
X123346000Y-121621219D01*
X123474000Y-121621219D01*
X123474000Y-121858781D01*
X123520346Y-122091777D01*
X123611257Y-122311255D01*
X123743239Y-122508780D01*
X123911220Y-122676761D01*
X124108745Y-122808743D01*
X124328223Y-122899654D01*
X124561219Y-122946000D01*
X124798781Y-122946000D01*
X125031777Y-122899654D01*
X125251255Y-122808743D01*
X125448780Y-122676761D01*
X125616761Y-122508780D01*
X125748743Y-122311255D01*
X125839654Y-122091777D01*
X125886000Y-121858781D01*
X125886000Y-121621219D01*
X126014000Y-121621219D01*
X126014000Y-121858781D01*
X126060346Y-122091777D01*
X126151257Y-122311255D01*
X126283239Y-122508780D01*
X126451220Y-122676761D01*
X126648745Y-122808743D01*
X126868223Y-122899654D01*
X127101219Y-122946000D01*
X127338781Y-122946000D01*
X127571777Y-122899654D01*
X127791255Y-122808743D01*
X127988780Y-122676761D01*
X128156761Y-122508780D01*
X128288743Y-122311255D01*
X128379654Y-122091777D01*
X128426000Y-121858781D01*
X128426000Y-121621219D01*
X128554000Y-121621219D01*
X128554000Y-121858781D01*
X128600346Y-122091777D01*
X128691257Y-122311255D01*
X128823239Y-122508780D01*
X128991220Y-122676761D01*
X129188745Y-122808743D01*
X129408223Y-122899654D01*
X129641219Y-122946000D01*
X129878781Y-122946000D01*
X130111777Y-122899654D01*
X130331255Y-122808743D01*
X130528780Y-122676761D01*
X130696761Y-122508780D01*
X130828743Y-122311255D01*
X130897928Y-122144227D01*
X150873833Y-122144227D01*
X152050000Y-123320395D01*
X153226167Y-122144227D01*
X153055717Y-121899684D01*
X152724186Y-121734228D01*
X152366747Y-121636629D01*
X151997135Y-121610639D01*
X151629555Y-121657256D01*
X151278132Y-121774689D01*
X151044283Y-121899684D01*
X150873833Y-122144227D01*
X130897928Y-122144227D01*
X130919654Y-122091777D01*
X130966000Y-121858781D01*
X130966000Y-121621219D01*
X130919654Y-121388223D01*
X130828743Y-121168745D01*
X130696761Y-120971220D01*
X130640541Y-120915000D01*
X159032157Y-120915000D01*
X159032157Y-122565000D01*
X159039513Y-122639689D01*
X159061299Y-122711508D01*
X159096678Y-122777696D01*
X159144289Y-122835711D01*
X159202304Y-122883322D01*
X159268492Y-122918701D01*
X159340311Y-122940487D01*
X159415000Y-122947843D01*
X161065000Y-122947843D01*
X161139689Y-122940487D01*
X161211508Y-122918701D01*
X161277696Y-122883322D01*
X161335711Y-122835711D01*
X161383322Y-122777696D01*
X161418701Y-122711508D01*
X161440487Y-122639689D01*
X161447843Y-122565000D01*
X161447843Y-121621219D01*
X161574000Y-121621219D01*
X161574000Y-121858781D01*
X161620346Y-122091777D01*
X161711257Y-122311255D01*
X161843239Y-122508780D01*
X162011220Y-122676761D01*
X162208745Y-122808743D01*
X162428223Y-122899654D01*
X162661219Y-122946000D01*
X162898781Y-122946000D01*
X163131777Y-122899654D01*
X163351255Y-122808743D01*
X163548780Y-122676761D01*
X163716761Y-122508780D01*
X163848743Y-122311255D01*
X163939654Y-122091777D01*
X163986000Y-121858781D01*
X163986000Y-121621219D01*
X164114000Y-121621219D01*
X164114000Y-121858781D01*
X164160346Y-122091777D01*
X164251257Y-122311255D01*
X164383239Y-122508780D01*
X164551220Y-122676761D01*
X164748745Y-122808743D01*
X164968223Y-122899654D01*
X165201219Y-122946000D01*
X165438781Y-122946000D01*
X165671777Y-122899654D01*
X165891255Y-122808743D01*
X166088780Y-122676761D01*
X166256761Y-122508780D01*
X166388743Y-122311255D01*
X166479654Y-122091777D01*
X166526000Y-121858781D01*
X166526000Y-121621219D01*
X166654000Y-121621219D01*
X166654000Y-121858781D01*
X166700346Y-122091777D01*
X166791257Y-122311255D01*
X166923239Y-122508780D01*
X167091220Y-122676761D01*
X167288745Y-122808743D01*
X167508223Y-122899654D01*
X167741219Y-122946000D01*
X167978781Y-122946000D01*
X168211777Y-122899654D01*
X168431255Y-122808743D01*
X168628780Y-122676761D01*
X168796761Y-122508780D01*
X168928743Y-122311255D01*
X169019654Y-122091777D01*
X169066000Y-121858781D01*
X169066000Y-121621219D01*
X169194000Y-121621219D01*
X169194000Y-121858781D01*
X169240346Y-122091777D01*
X169331257Y-122311255D01*
X169463239Y-122508780D01*
X169631220Y-122676761D01*
X169828745Y-122808743D01*
X170048223Y-122899654D01*
X170281219Y-122946000D01*
X170518781Y-122946000D01*
X170751777Y-122899654D01*
X170971255Y-122808743D01*
X171168780Y-122676761D01*
X171336761Y-122508780D01*
X171468743Y-122311255D01*
X171559654Y-122091777D01*
X171606000Y-121858781D01*
X171606000Y-121621219D01*
X171559654Y-121388223D01*
X171468743Y-121168745D01*
X171336761Y-120971220D01*
X171168780Y-120803239D01*
X170971255Y-120671257D01*
X170751777Y-120580346D01*
X170518781Y-120534000D01*
X170281219Y-120534000D01*
X170048223Y-120580346D01*
X169828745Y-120671257D01*
X169631220Y-120803239D01*
X169463239Y-120971220D01*
X169331257Y-121168745D01*
X169240346Y-121388223D01*
X169194000Y-121621219D01*
X169066000Y-121621219D01*
X169019654Y-121388223D01*
X168928743Y-121168745D01*
X168796761Y-120971220D01*
X168628780Y-120803239D01*
X168431255Y-120671257D01*
X168211777Y-120580346D01*
X167978781Y-120534000D01*
X167741219Y-120534000D01*
X167508223Y-120580346D01*
X167288745Y-120671257D01*
X167091220Y-120803239D01*
X166923239Y-120971220D01*
X166791257Y-121168745D01*
X166700346Y-121388223D01*
X166654000Y-121621219D01*
X166526000Y-121621219D01*
X166479654Y-121388223D01*
X166388743Y-121168745D01*
X166256761Y-120971220D01*
X166088780Y-120803239D01*
X165891255Y-120671257D01*
X165671777Y-120580346D01*
X165438781Y-120534000D01*
X165201219Y-120534000D01*
X164968223Y-120580346D01*
X164748745Y-120671257D01*
X164551220Y-120803239D01*
X164383239Y-120971220D01*
X164251257Y-121168745D01*
X164160346Y-121388223D01*
X164114000Y-121621219D01*
X163986000Y-121621219D01*
X163939654Y-121388223D01*
X163848743Y-121168745D01*
X163716761Y-120971220D01*
X163548780Y-120803239D01*
X163351255Y-120671257D01*
X163131777Y-120580346D01*
X162898781Y-120534000D01*
X162661219Y-120534000D01*
X162428223Y-120580346D01*
X162208745Y-120671257D01*
X162011220Y-120803239D01*
X161843239Y-120971220D01*
X161711257Y-121168745D01*
X161620346Y-121388223D01*
X161574000Y-121621219D01*
X161447843Y-121621219D01*
X161447843Y-120915000D01*
X161440487Y-120840311D01*
X161418701Y-120768492D01*
X161383322Y-120702304D01*
X161335711Y-120644289D01*
X161277696Y-120596678D01*
X161211508Y-120561299D01*
X161139689Y-120539513D01*
X161065000Y-120532157D01*
X159415000Y-120532157D01*
X159340311Y-120539513D01*
X159268492Y-120561299D01*
X159202304Y-120596678D01*
X159144289Y-120644289D01*
X159096678Y-120702304D01*
X159061299Y-120768492D01*
X159039513Y-120840311D01*
X159032157Y-120915000D01*
X130640541Y-120915000D01*
X130528780Y-120803239D01*
X130331255Y-120671257D01*
X130111777Y-120580346D01*
X129878781Y-120534000D01*
X129641219Y-120534000D01*
X129408223Y-120580346D01*
X129188745Y-120671257D01*
X128991220Y-120803239D01*
X128823239Y-120971220D01*
X128691257Y-121168745D01*
X128600346Y-121388223D01*
X128554000Y-121621219D01*
X128426000Y-121621219D01*
X128379654Y-121388223D01*
X128288743Y-121168745D01*
X128156761Y-120971220D01*
X127988780Y-120803239D01*
X127791255Y-120671257D01*
X127571777Y-120580346D01*
X127338781Y-120534000D01*
X127101219Y-120534000D01*
X126868223Y-120580346D01*
X126648745Y-120671257D01*
X126451220Y-120803239D01*
X126283239Y-120971220D01*
X126151257Y-121168745D01*
X126060346Y-121388223D01*
X126014000Y-121621219D01*
X125886000Y-121621219D01*
X125839654Y-121388223D01*
X125748743Y-121168745D01*
X125616761Y-120971220D01*
X125448780Y-120803239D01*
X125251255Y-120671257D01*
X125031777Y-120580346D01*
X124798781Y-120534000D01*
X124561219Y-120534000D01*
X124328223Y-120580346D01*
X124108745Y-120671257D01*
X123911220Y-120803239D01*
X123743239Y-120971220D01*
X123611257Y-121168745D01*
X123520346Y-121388223D01*
X123474000Y-121621219D01*
X123346000Y-121621219D01*
X123299654Y-121388223D01*
X123208743Y-121168745D01*
X123076761Y-120971220D01*
X122908780Y-120803239D01*
X122711255Y-120671257D01*
X122491777Y-120580346D01*
X122258781Y-120534000D01*
X122021219Y-120534000D01*
X121788223Y-120580346D01*
X121568745Y-120671257D01*
X121545739Y-120686629D01*
X129607439Y-112624930D01*
X129727809Y-112600987D01*
X129869942Y-112542113D01*
X129997859Y-112456642D01*
X130106642Y-112347859D01*
X130192113Y-112219942D01*
X130250987Y-112077809D01*
X130281000Y-111926922D01*
X130281000Y-111773078D01*
X130250987Y-111622191D01*
X130192113Y-111480058D01*
X130106642Y-111352141D01*
X129997859Y-111243358D01*
X129869942Y-111157887D01*
X129727809Y-111099013D01*
X129576922Y-111069000D01*
X129423078Y-111069000D01*
X129272191Y-111099013D01*
X129130058Y-111157887D01*
X129002141Y-111243358D01*
X128893358Y-111352141D01*
X128807887Y-111480058D01*
X128749013Y-111622191D01*
X128730036Y-111717595D01*
X119915475Y-120532157D01*
X118775000Y-120532157D01*
X118700311Y-120539513D01*
X118628492Y-120561299D01*
X118562304Y-120596678D01*
X118504289Y-120644289D01*
X118456678Y-120702304D01*
X118421299Y-120768492D01*
X118399513Y-120840311D01*
X118392157Y-120915000D01*
X105406000Y-120915000D01*
X105406000Y-93073078D01*
X147469000Y-93073078D01*
X147469000Y-93226922D01*
X147499013Y-93377809D01*
X147557887Y-93519942D01*
X147643358Y-93647859D01*
X147752141Y-93756642D01*
X147880058Y-93842113D01*
X148022191Y-93900987D01*
X148173078Y-93931000D01*
X148326922Y-93931000D01*
X148477809Y-93900987D01*
X148619942Y-93842113D01*
X148747859Y-93756642D01*
X148856642Y-93647859D01*
X148942113Y-93519942D01*
X149000987Y-93377809D01*
X149022447Y-93269921D01*
X157136595Y-85155773D01*
X165923833Y-85155773D01*
X166094283Y-85400316D01*
X166425814Y-85565772D01*
X166783253Y-85663371D01*
X167152865Y-85689361D01*
X167520445Y-85642744D01*
X167871868Y-85525311D01*
X168105717Y-85400316D01*
X168276167Y-85155773D01*
X168193473Y-85073078D01*
X171119000Y-85073078D01*
X171119000Y-85226922D01*
X171149013Y-85377809D01*
X171207887Y-85519942D01*
X171293358Y-85647859D01*
X171402141Y-85756642D01*
X171530058Y-85842113D01*
X171672191Y-85900987D01*
X171780079Y-85922447D01*
X174818998Y-88961367D01*
X174818999Y-90488594D01*
X174757885Y-90580058D01*
X174699011Y-90722191D01*
X174668998Y-90873078D01*
X174668998Y-91026922D01*
X174699011Y-91177809D01*
X174757885Y-91319942D01*
X174843356Y-91447859D01*
X174952139Y-91556642D01*
X175080056Y-91642113D01*
X175222189Y-91700987D01*
X175373076Y-91731000D01*
X175526920Y-91731000D01*
X175677807Y-91700987D01*
X175819940Y-91642113D01*
X175947857Y-91556642D01*
X176056640Y-91447859D01*
X176142111Y-91319942D01*
X176200985Y-91177809D01*
X176230998Y-91026922D01*
X176230998Y-90873078D01*
X176200985Y-90722191D01*
X176142111Y-90580058D01*
X176080998Y-90488595D01*
X176080998Y-88730985D01*
X176084050Y-88699997D01*
X176080998Y-88669009D01*
X176080998Y-88669000D01*
X176071868Y-88576300D01*
X176035787Y-88457356D01*
X175977194Y-88347737D01*
X175898341Y-88251655D01*
X175874267Y-88231898D01*
X172672447Y-85030079D01*
X172650987Y-84922191D01*
X172592113Y-84780058D01*
X172506642Y-84652141D01*
X172397859Y-84543358D01*
X172269942Y-84457887D01*
X172127809Y-84399013D01*
X171976922Y-84369000D01*
X171823078Y-84369000D01*
X171672191Y-84399013D01*
X171530058Y-84457887D01*
X171402141Y-84543358D01*
X171293358Y-84652141D01*
X171207887Y-84780058D01*
X171149013Y-84922191D01*
X171119000Y-85073078D01*
X168193473Y-85073078D01*
X167100000Y-83979605D01*
X165923833Y-85155773D01*
X157136595Y-85155773D01*
X158439503Y-83852865D01*
X165210639Y-83852865D01*
X165257256Y-84220445D01*
X165374689Y-84571868D01*
X165499684Y-84805717D01*
X165744227Y-84976167D01*
X166920395Y-83800000D01*
X167279605Y-83800000D01*
X168455773Y-84976167D01*
X168700316Y-84805717D01*
X168865772Y-84474186D01*
X168963371Y-84116747D01*
X168989361Y-83747135D01*
X168942744Y-83379555D01*
X168825311Y-83028132D01*
X168700316Y-82794283D01*
X168455773Y-82623833D01*
X167279605Y-83800000D01*
X166920395Y-83800000D01*
X165744227Y-82623833D01*
X165499684Y-82794283D01*
X165334228Y-83125814D01*
X165236629Y-83483253D01*
X165210639Y-83852865D01*
X158439503Y-83852865D01*
X159848141Y-82444227D01*
X165923833Y-82444227D01*
X167100000Y-83620395D01*
X168276167Y-82444227D01*
X168105717Y-82199684D01*
X167774186Y-82034228D01*
X167416747Y-81936629D01*
X167047135Y-81910639D01*
X166679555Y-81957256D01*
X166328132Y-82074689D01*
X166094283Y-82199684D01*
X165923833Y-82444227D01*
X159848141Y-82444227D01*
X168774269Y-73518100D01*
X168798343Y-73498343D01*
X168877196Y-73402261D01*
X168935789Y-73292642D01*
X168971870Y-73173698D01*
X168981000Y-73080998D01*
X168981000Y-73080997D01*
X168984053Y-73050000D01*
X168981000Y-73019002D01*
X168981000Y-71461405D01*
X169042113Y-71369942D01*
X169100987Y-71227809D01*
X169131000Y-71076922D01*
X169131000Y-70923078D01*
X169100987Y-70772191D01*
X169042113Y-70630058D01*
X168956642Y-70502141D01*
X168847859Y-70393358D01*
X168719942Y-70307887D01*
X168577809Y-70249013D01*
X168426922Y-70219000D01*
X168273078Y-70219000D01*
X168122191Y-70249013D01*
X167980058Y-70307887D01*
X167852141Y-70393358D01*
X167743358Y-70502141D01*
X167657887Y-70630058D01*
X167599013Y-70772191D01*
X167569000Y-70923078D01*
X167569000Y-71076922D01*
X167599013Y-71227809D01*
X167657887Y-71369942D01*
X167719001Y-71461406D01*
X167719000Y-72788631D01*
X148130079Y-92377553D01*
X148022191Y-92399013D01*
X147880058Y-92457887D01*
X147752141Y-92543358D01*
X147643358Y-92652141D01*
X147557887Y-92780058D01*
X147499013Y-92922191D01*
X147469000Y-93073078D01*
X105406000Y-93073078D01*
X105406000Y-91855773D01*
X130773833Y-91855773D01*
X130944283Y-92100316D01*
X131275814Y-92265772D01*
X131633253Y-92363371D01*
X132002865Y-92389361D01*
X132370445Y-92342744D01*
X132721868Y-92225311D01*
X132955717Y-92100316D01*
X133126167Y-91855773D01*
X131950000Y-90679605D01*
X130773833Y-91855773D01*
X105406000Y-91855773D01*
X105406000Y-90552865D01*
X130060639Y-90552865D01*
X130107256Y-90920445D01*
X130224689Y-91271868D01*
X130349684Y-91505717D01*
X130594227Y-91676167D01*
X131770395Y-90500000D01*
X132129605Y-90500000D01*
X133305773Y-91676167D01*
X133550316Y-91505717D01*
X133715772Y-91174186D01*
X133813371Y-90816747D01*
X133839361Y-90447135D01*
X133792744Y-90079555D01*
X133675311Y-89728132D01*
X133550316Y-89494283D01*
X133305773Y-89323833D01*
X132129605Y-90500000D01*
X131770395Y-90500000D01*
X130594227Y-89323833D01*
X130349684Y-89494283D01*
X130184228Y-89825814D01*
X130086629Y-90183253D01*
X130060639Y-90552865D01*
X105406000Y-90552865D01*
X105406000Y-89144227D01*
X130773833Y-89144227D01*
X131950000Y-90320395D01*
X133126167Y-89144227D01*
X132955717Y-88899684D01*
X132624186Y-88734228D01*
X132266747Y-88636629D01*
X131897135Y-88610639D01*
X131529555Y-88657256D01*
X131178132Y-88774689D01*
X130944283Y-88899684D01*
X130773833Y-89144227D01*
X105406000Y-89144227D01*
X105406000Y-74773078D01*
X159319000Y-74773078D01*
X159319000Y-74926922D01*
X159349013Y-75077809D01*
X159407887Y-75219942D01*
X159493358Y-75347859D01*
X159602141Y-75456642D01*
X159730058Y-75542113D01*
X159872191Y-75600987D01*
X160023078Y-75631000D01*
X160176922Y-75631000D01*
X160327809Y-75600987D01*
X160469942Y-75542113D01*
X160597859Y-75456642D01*
X160706642Y-75347859D01*
X160792113Y-75219942D01*
X160850987Y-75077809D01*
X160872447Y-74969921D01*
X168824269Y-67018100D01*
X168848343Y-66998343D01*
X168927196Y-66902261D01*
X168985789Y-66792642D01*
X169021870Y-66673698D01*
X169031000Y-66580998D01*
X169031000Y-66580997D01*
X169034053Y-66550000D01*
X169031000Y-66519002D01*
X169031000Y-65423078D01*
X169269000Y-65423078D01*
X169269000Y-65576922D01*
X169299013Y-65727809D01*
X169357887Y-65869942D01*
X169443358Y-65997859D01*
X169552141Y-66106642D01*
X169680058Y-66192113D01*
X169822191Y-66250987D01*
X169973078Y-66281000D01*
X170126922Y-66281000D01*
X170277809Y-66250987D01*
X170419942Y-66192113D01*
X170547859Y-66106642D01*
X170548501Y-66106000D01*
X176851499Y-66106000D01*
X176852141Y-66106642D01*
X176980058Y-66192113D01*
X177122191Y-66250987D01*
X177273078Y-66281000D01*
X177426922Y-66281000D01*
X177577809Y-66250987D01*
X177719942Y-66192113D01*
X177847859Y-66106642D01*
X177956642Y-65997859D01*
X178042113Y-65869942D01*
X178100987Y-65727809D01*
X178131000Y-65576922D01*
X178131000Y-65423078D01*
X178100987Y-65272191D01*
X178042113Y-65130058D01*
X177956642Y-65002141D01*
X177847859Y-64893358D01*
X177719942Y-64807887D01*
X177577809Y-64749013D01*
X177426922Y-64719000D01*
X177273078Y-64719000D01*
X177122191Y-64749013D01*
X176980058Y-64807887D01*
X176852141Y-64893358D01*
X176851499Y-64894000D01*
X170548501Y-64894000D01*
X170547859Y-64893358D01*
X170419942Y-64807887D01*
X170277809Y-64749013D01*
X170126922Y-64719000D01*
X169973078Y-64719000D01*
X169822191Y-64749013D01*
X169680058Y-64807887D01*
X169552141Y-64893358D01*
X169443358Y-65002141D01*
X169357887Y-65130058D01*
X169299013Y-65272191D01*
X169269000Y-65423078D01*
X169031000Y-65423078D01*
X169031000Y-64211368D01*
X169269000Y-63973368D01*
X169269000Y-63976922D01*
X169299013Y-64127809D01*
X169357887Y-64269942D01*
X169443358Y-64397859D01*
X169552141Y-64506642D01*
X169680058Y-64592113D01*
X169822191Y-64650987D01*
X169973078Y-64681000D01*
X170126922Y-64681000D01*
X170277809Y-64650987D01*
X170419942Y-64592113D01*
X170547859Y-64506642D01*
X170548501Y-64506000D01*
X176926011Y-64506000D01*
X176980058Y-64542113D01*
X177122191Y-64600987D01*
X177273078Y-64631000D01*
X177426922Y-64631000D01*
X177577809Y-64600987D01*
X177719942Y-64542113D01*
X177847859Y-64456642D01*
X177956642Y-64347859D01*
X178042113Y-64219942D01*
X178100987Y-64077809D01*
X178131000Y-63926922D01*
X178131000Y-63773078D01*
X178100987Y-63622191D01*
X178042113Y-63480058D01*
X177956642Y-63352141D01*
X177847859Y-63243358D01*
X177719942Y-63157887D01*
X177577809Y-63099013D01*
X177426922Y-63069000D01*
X177273078Y-63069000D01*
X177122191Y-63099013D01*
X176980058Y-63157887D01*
X176852141Y-63243358D01*
X176801499Y-63294000D01*
X170548501Y-63294000D01*
X170547859Y-63293358D01*
X170419942Y-63207887D01*
X170277809Y-63149013D01*
X170126922Y-63119000D01*
X170123368Y-63119000D01*
X171661369Y-61581000D01*
X176438595Y-61581000D01*
X176530058Y-61642113D01*
X176672191Y-61700987D01*
X176823078Y-61731000D01*
X176976922Y-61731000D01*
X177127809Y-61700987D01*
X177269942Y-61642113D01*
X177397859Y-61556642D01*
X177506642Y-61447859D01*
X177592113Y-61319942D01*
X177650987Y-61177809D01*
X177681000Y-61026922D01*
X177681000Y-60873078D01*
X177650987Y-60722191D01*
X177592113Y-60580058D01*
X177506642Y-60452141D01*
X177397859Y-60343358D01*
X177269942Y-60257887D01*
X177127809Y-60199013D01*
X176976922Y-60169000D01*
X176823078Y-60169000D01*
X176672191Y-60199013D01*
X176530058Y-60257887D01*
X176438595Y-60319000D01*
X171430990Y-60319000D01*
X171400000Y-60315948D01*
X171369009Y-60319000D01*
X171369002Y-60319000D01*
X171276414Y-60328119D01*
X171276302Y-60328130D01*
X171157358Y-60364211D01*
X171047739Y-60422804D01*
X170975748Y-60481886D01*
X170951657Y-60501657D01*
X170931899Y-60525732D01*
X168400000Y-63057631D01*
X166041379Y-60699011D01*
X165992102Y-60580047D01*
X165906631Y-60452130D01*
X165797848Y-60343347D01*
X165669931Y-60257876D01*
X165527798Y-60199002D01*
X165376911Y-60168989D01*
X165223067Y-60168989D01*
X165072180Y-60199002D01*
X164930047Y-60257876D01*
X164802130Y-60343347D01*
X164693347Y-60452130D01*
X164607876Y-60580047D01*
X164549002Y-60722180D01*
X164518989Y-60873067D01*
X164518989Y-61026911D01*
X164549002Y-61177798D01*
X164607876Y-61319931D01*
X164693347Y-61447848D01*
X164802130Y-61556631D01*
X164930047Y-61642102D01*
X165072180Y-61700976D01*
X165223067Y-61730989D01*
X165288621Y-61730989D01*
X167769001Y-64211370D01*
X167769000Y-66288631D01*
X159980079Y-74077553D01*
X159872191Y-74099013D01*
X159730058Y-74157887D01*
X159602141Y-74243358D01*
X159493358Y-74352141D01*
X159407887Y-74480058D01*
X159349013Y-74622191D01*
X159319000Y-74773078D01*
X105406000Y-74773078D01*
X105406000Y-58141219D01*
X113324000Y-58141219D01*
X113324000Y-58378781D01*
X113370346Y-58611777D01*
X113461257Y-58831255D01*
X113593239Y-59028780D01*
X113761220Y-59196761D01*
X113958745Y-59328743D01*
X114178223Y-59419654D01*
X114411219Y-59466000D01*
X114648781Y-59466000D01*
X114881777Y-59419654D01*
X115101255Y-59328743D01*
X115298780Y-59196761D01*
X115466761Y-59028780D01*
X115598743Y-58831255D01*
X115689654Y-58611777D01*
X115736000Y-58378781D01*
X115736000Y-58141219D01*
X115864000Y-58141219D01*
X115864000Y-58378781D01*
X115910346Y-58611777D01*
X116001257Y-58831255D01*
X116133239Y-59028780D01*
X116301220Y-59196761D01*
X116498745Y-59328743D01*
X116718223Y-59419654D01*
X116951219Y-59466000D01*
X117188781Y-59466000D01*
X117421777Y-59419654D01*
X117641255Y-59328743D01*
X117838780Y-59196761D01*
X118006761Y-59028780D01*
X118138743Y-58831255D01*
X118229654Y-58611777D01*
X118276000Y-58378781D01*
X118276000Y-58141219D01*
X118404000Y-58141219D01*
X118404000Y-58378781D01*
X118450346Y-58611777D01*
X118541257Y-58831255D01*
X118673239Y-59028780D01*
X118841220Y-59196761D01*
X119038745Y-59328743D01*
X119258223Y-59419654D01*
X119491219Y-59466000D01*
X119728781Y-59466000D01*
X119961777Y-59419654D01*
X120181255Y-59328743D01*
X120378780Y-59196761D01*
X120546761Y-59028780D01*
X120678743Y-58831255D01*
X120769654Y-58611777D01*
X120816000Y-58378781D01*
X120816000Y-58141219D01*
X120944000Y-58141219D01*
X120944000Y-58378781D01*
X120990346Y-58611777D01*
X121081257Y-58831255D01*
X121213239Y-59028780D01*
X121381220Y-59196761D01*
X121578745Y-59328743D01*
X121798223Y-59419654D01*
X122031219Y-59466000D01*
X122268781Y-59466000D01*
X122501777Y-59419654D01*
X122721255Y-59328743D01*
X122918780Y-59196761D01*
X123086761Y-59028780D01*
X123218743Y-58831255D01*
X123309654Y-58611777D01*
X123356000Y-58378781D01*
X123356000Y-58141219D01*
X123309654Y-57908223D01*
X123218743Y-57688745D01*
X123086761Y-57491220D01*
X123030541Y-57435000D01*
X123482157Y-57435000D01*
X123482157Y-59085000D01*
X123489513Y-59159689D01*
X123511299Y-59231508D01*
X123546678Y-59297696D01*
X123594289Y-59355711D01*
X123652304Y-59403322D01*
X123718492Y-59438701D01*
X123790311Y-59460487D01*
X123865000Y-59467843D01*
X125515000Y-59467843D01*
X125589689Y-59460487D01*
X125661508Y-59438701D01*
X125727696Y-59403322D01*
X125785711Y-59355711D01*
X125833322Y-59297696D01*
X125868701Y-59231508D01*
X125890487Y-59159689D01*
X125897843Y-59085000D01*
X125897843Y-57814738D01*
X131119000Y-57814738D01*
X131119000Y-58185262D01*
X131191286Y-58548667D01*
X131333080Y-58890987D01*
X131538932Y-59199067D01*
X131800933Y-59461068D01*
X132109013Y-59666920D01*
X132451333Y-59808714D01*
X132814738Y-59881000D01*
X133185262Y-59881000D01*
X133548667Y-59808714D01*
X133890987Y-59666920D01*
X134199067Y-59461068D01*
X134461068Y-59199067D01*
X134666920Y-58890987D01*
X134808714Y-58548667D01*
X134881000Y-58185262D01*
X134881000Y-57814738D01*
X140119000Y-57814738D01*
X140119000Y-58185262D01*
X140191286Y-58548667D01*
X140333080Y-58890987D01*
X140538932Y-59199067D01*
X140800933Y-59461068D01*
X141109013Y-59666920D01*
X141451333Y-59808714D01*
X141814738Y-59881000D01*
X142185262Y-59881000D01*
X142548667Y-59808714D01*
X142890987Y-59666920D01*
X143199067Y-59461068D01*
X143304362Y-59355773D01*
X150873833Y-59355773D01*
X151044283Y-59600316D01*
X151375814Y-59765772D01*
X151733253Y-59863371D01*
X152102865Y-59889361D01*
X152470445Y-59842744D01*
X152821868Y-59725311D01*
X153055717Y-59600316D01*
X153226167Y-59355773D01*
X152050000Y-58179605D01*
X150873833Y-59355773D01*
X143304362Y-59355773D01*
X143461068Y-59199067D01*
X143666920Y-58890987D01*
X143808714Y-58548667D01*
X143881000Y-58185262D01*
X143881000Y-58052865D01*
X150160639Y-58052865D01*
X150207256Y-58420445D01*
X150324689Y-58771868D01*
X150449684Y-59005717D01*
X150694227Y-59176167D01*
X151870395Y-58000000D01*
X152229605Y-58000000D01*
X153405773Y-59176167D01*
X153650316Y-59005717D01*
X153815772Y-58674186D01*
X153913371Y-58316747D01*
X153925713Y-58141219D01*
X164104000Y-58141219D01*
X164104000Y-58378781D01*
X164150346Y-58611777D01*
X164241257Y-58831255D01*
X164373239Y-59028780D01*
X164541220Y-59196761D01*
X164738745Y-59328743D01*
X164958223Y-59419654D01*
X165191219Y-59466000D01*
X165428781Y-59466000D01*
X165661777Y-59419654D01*
X165881255Y-59328743D01*
X166078780Y-59196761D01*
X166246761Y-59028780D01*
X166378743Y-58831255D01*
X166469654Y-58611777D01*
X166516000Y-58378781D01*
X166516000Y-58141219D01*
X166644000Y-58141219D01*
X166644000Y-58378781D01*
X166690346Y-58611777D01*
X166781257Y-58831255D01*
X166913239Y-59028780D01*
X167081220Y-59196761D01*
X167278745Y-59328743D01*
X167498223Y-59419654D01*
X167731219Y-59466000D01*
X167968781Y-59466000D01*
X168201777Y-59419654D01*
X168421255Y-59328743D01*
X168618780Y-59196761D01*
X168786761Y-59028780D01*
X168918743Y-58831255D01*
X169009654Y-58611777D01*
X169056000Y-58378781D01*
X169056000Y-58141219D01*
X169184000Y-58141219D01*
X169184000Y-58378781D01*
X169230346Y-58611777D01*
X169321257Y-58831255D01*
X169453239Y-59028780D01*
X169621220Y-59196761D01*
X169818745Y-59328743D01*
X170038223Y-59419654D01*
X170271219Y-59466000D01*
X170508781Y-59466000D01*
X170741777Y-59419654D01*
X170961255Y-59328743D01*
X171158780Y-59196761D01*
X171326761Y-59028780D01*
X171458743Y-58831255D01*
X171549654Y-58611777D01*
X171596000Y-58378781D01*
X171596000Y-58141219D01*
X171724000Y-58141219D01*
X171724000Y-58378781D01*
X171770346Y-58611777D01*
X171861257Y-58831255D01*
X171993239Y-59028780D01*
X172161220Y-59196761D01*
X172358745Y-59328743D01*
X172578223Y-59419654D01*
X172811219Y-59466000D01*
X173048781Y-59466000D01*
X173281777Y-59419654D01*
X173501255Y-59328743D01*
X173698780Y-59196761D01*
X173866761Y-59028780D01*
X173998743Y-58831255D01*
X174089654Y-58611777D01*
X174136000Y-58378781D01*
X174136000Y-58141219D01*
X174089654Y-57908223D01*
X173998743Y-57688745D01*
X173866761Y-57491220D01*
X173810541Y-57435000D01*
X174262157Y-57435000D01*
X174262157Y-59085000D01*
X174269513Y-59159689D01*
X174291299Y-59231508D01*
X174326678Y-59297696D01*
X174374289Y-59355711D01*
X174432304Y-59403322D01*
X174498492Y-59438701D01*
X174570311Y-59460487D01*
X174645000Y-59467843D01*
X176295000Y-59467843D01*
X176369689Y-59460487D01*
X176441508Y-59438701D01*
X176507696Y-59403322D01*
X176565711Y-59355711D01*
X176613322Y-59297696D01*
X176648701Y-59231508D01*
X176670487Y-59159689D01*
X176677843Y-59085000D01*
X176677843Y-57435000D01*
X176670487Y-57360311D01*
X176648701Y-57288492D01*
X176613322Y-57222304D01*
X176565711Y-57164289D01*
X176507696Y-57116678D01*
X176441508Y-57081299D01*
X176369689Y-57059513D01*
X176295000Y-57052157D01*
X174645000Y-57052157D01*
X174570311Y-57059513D01*
X174498492Y-57081299D01*
X174432304Y-57116678D01*
X174374289Y-57164289D01*
X174326678Y-57222304D01*
X174291299Y-57288492D01*
X174269513Y-57360311D01*
X174262157Y-57435000D01*
X173810541Y-57435000D01*
X173698780Y-57323239D01*
X173501255Y-57191257D01*
X173281777Y-57100346D01*
X173048781Y-57054000D01*
X172811219Y-57054000D01*
X172578223Y-57100346D01*
X172358745Y-57191257D01*
X172161220Y-57323239D01*
X171993239Y-57491220D01*
X171861257Y-57688745D01*
X171770346Y-57908223D01*
X171724000Y-58141219D01*
X171596000Y-58141219D01*
X171549654Y-57908223D01*
X171458743Y-57688745D01*
X171326761Y-57491220D01*
X171158780Y-57323239D01*
X170961255Y-57191257D01*
X170741777Y-57100346D01*
X170508781Y-57054000D01*
X170271219Y-57054000D01*
X170038223Y-57100346D01*
X169818745Y-57191257D01*
X169621220Y-57323239D01*
X169453239Y-57491220D01*
X169321257Y-57688745D01*
X169230346Y-57908223D01*
X169184000Y-58141219D01*
X169056000Y-58141219D01*
X169009654Y-57908223D01*
X168918743Y-57688745D01*
X168786761Y-57491220D01*
X168618780Y-57323239D01*
X168421255Y-57191257D01*
X168201777Y-57100346D01*
X167968781Y-57054000D01*
X167731219Y-57054000D01*
X167498223Y-57100346D01*
X167278745Y-57191257D01*
X167081220Y-57323239D01*
X166913239Y-57491220D01*
X166781257Y-57688745D01*
X166690346Y-57908223D01*
X166644000Y-58141219D01*
X166516000Y-58141219D01*
X166469654Y-57908223D01*
X166378743Y-57688745D01*
X166246761Y-57491220D01*
X166078780Y-57323239D01*
X165881255Y-57191257D01*
X165661777Y-57100346D01*
X165428781Y-57054000D01*
X165191219Y-57054000D01*
X164958223Y-57100346D01*
X164738745Y-57191257D01*
X164541220Y-57323239D01*
X164373239Y-57491220D01*
X164241257Y-57688745D01*
X164150346Y-57908223D01*
X164104000Y-58141219D01*
X153925713Y-58141219D01*
X153939361Y-57947135D01*
X153892744Y-57579555D01*
X153775311Y-57228132D01*
X153650316Y-56994283D01*
X153405773Y-56823833D01*
X152229605Y-58000000D01*
X151870395Y-58000000D01*
X150694227Y-56823833D01*
X150449684Y-56994283D01*
X150284228Y-57325814D01*
X150186629Y-57683253D01*
X150160639Y-58052865D01*
X143881000Y-58052865D01*
X143881000Y-57814738D01*
X143808714Y-57451333D01*
X143666920Y-57109013D01*
X143461068Y-56800933D01*
X143304362Y-56644227D01*
X150873833Y-56644227D01*
X152050000Y-57820395D01*
X153226167Y-56644227D01*
X153191315Y-56594224D01*
X164615381Y-56594224D01*
X164704369Y-56769645D01*
X164920782Y-56867629D01*
X165152151Y-56921510D01*
X165389587Y-56929218D01*
X165623964Y-56890457D01*
X165846275Y-56806716D01*
X165915631Y-56769645D01*
X166004619Y-56594224D01*
X167155381Y-56594224D01*
X167244369Y-56769645D01*
X167460782Y-56867629D01*
X167692151Y-56921510D01*
X167929587Y-56929218D01*
X168163964Y-56890457D01*
X168386275Y-56806716D01*
X168455631Y-56769645D01*
X168544619Y-56594224D01*
X169695381Y-56594224D01*
X169784369Y-56769645D01*
X170000782Y-56867629D01*
X170232151Y-56921510D01*
X170469587Y-56929218D01*
X170703964Y-56890457D01*
X170926275Y-56806716D01*
X170995631Y-56769645D01*
X171084619Y-56594224D01*
X172235381Y-56594224D01*
X172324369Y-56769645D01*
X172540782Y-56867629D01*
X172772151Y-56921510D01*
X173009587Y-56929218D01*
X173243964Y-56890457D01*
X173466275Y-56806716D01*
X173535631Y-56769645D01*
X173624619Y-56594224D01*
X174775381Y-56594224D01*
X174864369Y-56769645D01*
X175080782Y-56867629D01*
X175312151Y-56921510D01*
X175549587Y-56929218D01*
X175783964Y-56890457D01*
X176006275Y-56806716D01*
X176075631Y-56769645D01*
X176164619Y-56594224D01*
X175470000Y-55899605D01*
X174775381Y-56594224D01*
X173624619Y-56594224D01*
X172930000Y-55899605D01*
X172235381Y-56594224D01*
X171084619Y-56594224D01*
X170390000Y-55899605D01*
X169695381Y-56594224D01*
X168544619Y-56594224D01*
X167850000Y-55899605D01*
X167155381Y-56594224D01*
X166004619Y-56594224D01*
X165310000Y-55899605D01*
X164615381Y-56594224D01*
X153191315Y-56594224D01*
X153055717Y-56399684D01*
X152724186Y-56234228D01*
X152366747Y-56136629D01*
X151997135Y-56110639D01*
X151629555Y-56157256D01*
X151278132Y-56274689D01*
X151044283Y-56399684D01*
X150873833Y-56644227D01*
X143304362Y-56644227D01*
X143199067Y-56538932D01*
X142890987Y-56333080D01*
X142548667Y-56191286D01*
X142185262Y-56119000D01*
X141814738Y-56119000D01*
X141451333Y-56191286D01*
X141109013Y-56333080D01*
X140800933Y-56538932D01*
X140538932Y-56800933D01*
X140333080Y-57109013D01*
X140191286Y-57451333D01*
X140119000Y-57814738D01*
X134881000Y-57814738D01*
X134808714Y-57451333D01*
X134666920Y-57109013D01*
X134461068Y-56800933D01*
X134199067Y-56538932D01*
X133890987Y-56333080D01*
X133548667Y-56191286D01*
X133185262Y-56119000D01*
X132814738Y-56119000D01*
X132451333Y-56191286D01*
X132109013Y-56333080D01*
X131800933Y-56538932D01*
X131538932Y-56800933D01*
X131333080Y-57109013D01*
X131191286Y-57451333D01*
X131119000Y-57814738D01*
X125897843Y-57814738D01*
X125897843Y-57435000D01*
X125890487Y-57360311D01*
X125868701Y-57288492D01*
X125833322Y-57222304D01*
X125785711Y-57164289D01*
X125727696Y-57116678D01*
X125661508Y-57081299D01*
X125589689Y-57059513D01*
X125515000Y-57052157D01*
X123865000Y-57052157D01*
X123790311Y-57059513D01*
X123718492Y-57081299D01*
X123652304Y-57116678D01*
X123594289Y-57164289D01*
X123546678Y-57222304D01*
X123511299Y-57288492D01*
X123489513Y-57360311D01*
X123482157Y-57435000D01*
X123030541Y-57435000D01*
X122918780Y-57323239D01*
X122721255Y-57191257D01*
X122501777Y-57100346D01*
X122268781Y-57054000D01*
X122031219Y-57054000D01*
X121798223Y-57100346D01*
X121578745Y-57191257D01*
X121381220Y-57323239D01*
X121213239Y-57491220D01*
X121081257Y-57688745D01*
X120990346Y-57908223D01*
X120944000Y-58141219D01*
X120816000Y-58141219D01*
X120769654Y-57908223D01*
X120678743Y-57688745D01*
X120546761Y-57491220D01*
X120378780Y-57323239D01*
X120181255Y-57191257D01*
X119961777Y-57100346D01*
X119728781Y-57054000D01*
X119491219Y-57054000D01*
X119258223Y-57100346D01*
X119038745Y-57191257D01*
X118841220Y-57323239D01*
X118673239Y-57491220D01*
X118541257Y-57688745D01*
X118450346Y-57908223D01*
X118404000Y-58141219D01*
X118276000Y-58141219D01*
X118229654Y-57908223D01*
X118138743Y-57688745D01*
X118006761Y-57491220D01*
X117838780Y-57323239D01*
X117641255Y-57191257D01*
X117421777Y-57100346D01*
X117188781Y-57054000D01*
X116951219Y-57054000D01*
X116718223Y-57100346D01*
X116498745Y-57191257D01*
X116301220Y-57323239D01*
X116133239Y-57491220D01*
X116001257Y-57688745D01*
X115910346Y-57908223D01*
X115864000Y-58141219D01*
X115736000Y-58141219D01*
X115689654Y-57908223D01*
X115598743Y-57688745D01*
X115466761Y-57491220D01*
X115298780Y-57323239D01*
X115101255Y-57191257D01*
X114881777Y-57100346D01*
X114648781Y-57054000D01*
X114411219Y-57054000D01*
X114178223Y-57100346D01*
X113958745Y-57191257D01*
X113761220Y-57323239D01*
X113593239Y-57491220D01*
X113461257Y-57688745D01*
X113370346Y-57908223D01*
X113324000Y-58141219D01*
X105406000Y-58141219D01*
X105406000Y-56594224D01*
X113835381Y-56594224D01*
X113924369Y-56769645D01*
X114140782Y-56867629D01*
X114372151Y-56921510D01*
X114609587Y-56929218D01*
X114843964Y-56890457D01*
X115066275Y-56806716D01*
X115135631Y-56769645D01*
X115224619Y-56594224D01*
X116375381Y-56594224D01*
X116464369Y-56769645D01*
X116680782Y-56867629D01*
X116912151Y-56921510D01*
X117149587Y-56929218D01*
X117383964Y-56890457D01*
X117606275Y-56806716D01*
X117675631Y-56769645D01*
X117764619Y-56594224D01*
X118915381Y-56594224D01*
X119004369Y-56769645D01*
X119220782Y-56867629D01*
X119452151Y-56921510D01*
X119689587Y-56929218D01*
X119923964Y-56890457D01*
X120146275Y-56806716D01*
X120215631Y-56769645D01*
X120304619Y-56594224D01*
X121455381Y-56594224D01*
X121544369Y-56769645D01*
X121760782Y-56867629D01*
X121992151Y-56921510D01*
X122229587Y-56929218D01*
X122463964Y-56890457D01*
X122686275Y-56806716D01*
X122755631Y-56769645D01*
X122844619Y-56594224D01*
X123995381Y-56594224D01*
X124084369Y-56769645D01*
X124300782Y-56867629D01*
X124532151Y-56921510D01*
X124769587Y-56929218D01*
X125003964Y-56890457D01*
X125226275Y-56806716D01*
X125295631Y-56769645D01*
X125384619Y-56594224D01*
X124690000Y-55899605D01*
X123995381Y-56594224D01*
X122844619Y-56594224D01*
X122150000Y-55899605D01*
X121455381Y-56594224D01*
X120304619Y-56594224D01*
X119610000Y-55899605D01*
X118915381Y-56594224D01*
X117764619Y-56594224D01*
X117070000Y-55899605D01*
X116375381Y-56594224D01*
X115224619Y-56594224D01*
X114530000Y-55899605D01*
X113835381Y-56594224D01*
X105406000Y-56594224D01*
X105406000Y-55799587D01*
X113320782Y-55799587D01*
X113359543Y-56033964D01*
X113443284Y-56256275D01*
X113480355Y-56325631D01*
X113655776Y-56414619D01*
X114350395Y-55720000D01*
X114709605Y-55720000D01*
X115404224Y-56414619D01*
X115579645Y-56325631D01*
X115677629Y-56109218D01*
X115731510Y-55877849D01*
X115734050Y-55799587D01*
X115860782Y-55799587D01*
X115899543Y-56033964D01*
X115983284Y-56256275D01*
X116020355Y-56325631D01*
X116195776Y-56414619D01*
X116890395Y-55720000D01*
X117249605Y-55720000D01*
X117944224Y-56414619D01*
X118119645Y-56325631D01*
X118217629Y-56109218D01*
X118271510Y-55877849D01*
X118274050Y-55799587D01*
X118400782Y-55799587D01*
X118439543Y-56033964D01*
X118523284Y-56256275D01*
X118560355Y-56325631D01*
X118735776Y-56414619D01*
X119430395Y-55720000D01*
X119789605Y-55720000D01*
X120484224Y-56414619D01*
X120659645Y-56325631D01*
X120757629Y-56109218D01*
X120811510Y-55877849D01*
X120814050Y-55799587D01*
X120940782Y-55799587D01*
X120979543Y-56033964D01*
X121063284Y-56256275D01*
X121100355Y-56325631D01*
X121275776Y-56414619D01*
X121970395Y-55720000D01*
X122329605Y-55720000D01*
X123024224Y-56414619D01*
X123199645Y-56325631D01*
X123297629Y-56109218D01*
X123351510Y-55877849D01*
X123354050Y-55799587D01*
X123480782Y-55799587D01*
X123519543Y-56033964D01*
X123603284Y-56256275D01*
X123640355Y-56325631D01*
X123815776Y-56414619D01*
X124510395Y-55720000D01*
X124869605Y-55720000D01*
X125564224Y-56414619D01*
X125739645Y-56325631D01*
X125837629Y-56109218D01*
X125891510Y-55877849D01*
X125894050Y-55799587D01*
X164100782Y-55799587D01*
X164139543Y-56033964D01*
X164223284Y-56256275D01*
X164260355Y-56325631D01*
X164435776Y-56414619D01*
X165130395Y-55720000D01*
X165489605Y-55720000D01*
X166184224Y-56414619D01*
X166359645Y-56325631D01*
X166457629Y-56109218D01*
X166511510Y-55877849D01*
X166514050Y-55799587D01*
X166640782Y-55799587D01*
X166679543Y-56033964D01*
X166763284Y-56256275D01*
X166800355Y-56325631D01*
X166975776Y-56414619D01*
X167670395Y-55720000D01*
X168029605Y-55720000D01*
X168724224Y-56414619D01*
X168899645Y-56325631D01*
X168997629Y-56109218D01*
X169051510Y-55877849D01*
X169054050Y-55799587D01*
X169180782Y-55799587D01*
X169219543Y-56033964D01*
X169303284Y-56256275D01*
X169340355Y-56325631D01*
X169515776Y-56414619D01*
X170210395Y-55720000D01*
X170569605Y-55720000D01*
X171264224Y-56414619D01*
X171439645Y-56325631D01*
X171537629Y-56109218D01*
X171591510Y-55877849D01*
X171594050Y-55799587D01*
X171720782Y-55799587D01*
X171759543Y-56033964D01*
X171843284Y-56256275D01*
X171880355Y-56325631D01*
X172055776Y-56414619D01*
X172750395Y-55720000D01*
X173109605Y-55720000D01*
X173804224Y-56414619D01*
X173979645Y-56325631D01*
X174077629Y-56109218D01*
X174131510Y-55877849D01*
X174134050Y-55799587D01*
X174260782Y-55799587D01*
X174299543Y-56033964D01*
X174383284Y-56256275D01*
X174420355Y-56325631D01*
X174595776Y-56414619D01*
X175290395Y-55720000D01*
X175649605Y-55720000D01*
X176344224Y-56414619D01*
X176519645Y-56325631D01*
X176617629Y-56109218D01*
X176671510Y-55877849D01*
X176679218Y-55640413D01*
X176640457Y-55406036D01*
X176556716Y-55183725D01*
X176519645Y-55114369D01*
X176344224Y-55025381D01*
X175649605Y-55720000D01*
X175290395Y-55720000D01*
X174595776Y-55025381D01*
X174420355Y-55114369D01*
X174322371Y-55330782D01*
X174268490Y-55562151D01*
X174260782Y-55799587D01*
X174134050Y-55799587D01*
X174139218Y-55640413D01*
X174100457Y-55406036D01*
X174016716Y-55183725D01*
X173979645Y-55114369D01*
X173804224Y-55025381D01*
X173109605Y-55720000D01*
X172750395Y-55720000D01*
X172055776Y-55025381D01*
X171880355Y-55114369D01*
X171782371Y-55330782D01*
X171728490Y-55562151D01*
X171720782Y-55799587D01*
X171594050Y-55799587D01*
X171599218Y-55640413D01*
X171560457Y-55406036D01*
X171476716Y-55183725D01*
X171439645Y-55114369D01*
X171264224Y-55025381D01*
X170569605Y-55720000D01*
X170210395Y-55720000D01*
X169515776Y-55025381D01*
X169340355Y-55114369D01*
X169242371Y-55330782D01*
X169188490Y-55562151D01*
X169180782Y-55799587D01*
X169054050Y-55799587D01*
X169059218Y-55640413D01*
X169020457Y-55406036D01*
X168936716Y-55183725D01*
X168899645Y-55114369D01*
X168724224Y-55025381D01*
X168029605Y-55720000D01*
X167670395Y-55720000D01*
X166975776Y-55025381D01*
X166800355Y-55114369D01*
X166702371Y-55330782D01*
X166648490Y-55562151D01*
X166640782Y-55799587D01*
X166514050Y-55799587D01*
X166519218Y-55640413D01*
X166480457Y-55406036D01*
X166396716Y-55183725D01*
X166359645Y-55114369D01*
X166184224Y-55025381D01*
X165489605Y-55720000D01*
X165130395Y-55720000D01*
X164435776Y-55025381D01*
X164260355Y-55114369D01*
X164162371Y-55330782D01*
X164108490Y-55562151D01*
X164100782Y-55799587D01*
X125894050Y-55799587D01*
X125899218Y-55640413D01*
X125860457Y-55406036D01*
X125776716Y-55183725D01*
X125739645Y-55114369D01*
X125564224Y-55025381D01*
X124869605Y-55720000D01*
X124510395Y-55720000D01*
X123815776Y-55025381D01*
X123640355Y-55114369D01*
X123542371Y-55330782D01*
X123488490Y-55562151D01*
X123480782Y-55799587D01*
X123354050Y-55799587D01*
X123359218Y-55640413D01*
X123320457Y-55406036D01*
X123236716Y-55183725D01*
X123199645Y-55114369D01*
X123024224Y-55025381D01*
X122329605Y-55720000D01*
X121970395Y-55720000D01*
X121275776Y-55025381D01*
X121100355Y-55114369D01*
X121002371Y-55330782D01*
X120948490Y-55562151D01*
X120940782Y-55799587D01*
X120814050Y-55799587D01*
X120819218Y-55640413D01*
X120780457Y-55406036D01*
X120696716Y-55183725D01*
X120659645Y-55114369D01*
X120484224Y-55025381D01*
X119789605Y-55720000D01*
X119430395Y-55720000D01*
X118735776Y-55025381D01*
X118560355Y-55114369D01*
X118462371Y-55330782D01*
X118408490Y-55562151D01*
X118400782Y-55799587D01*
X118274050Y-55799587D01*
X118279218Y-55640413D01*
X118240457Y-55406036D01*
X118156716Y-55183725D01*
X118119645Y-55114369D01*
X117944224Y-55025381D01*
X117249605Y-55720000D01*
X116890395Y-55720000D01*
X116195776Y-55025381D01*
X116020355Y-55114369D01*
X115922371Y-55330782D01*
X115868490Y-55562151D01*
X115860782Y-55799587D01*
X115734050Y-55799587D01*
X115739218Y-55640413D01*
X115700457Y-55406036D01*
X115616716Y-55183725D01*
X115579645Y-55114369D01*
X115404224Y-55025381D01*
X114709605Y-55720000D01*
X114350395Y-55720000D01*
X113655776Y-55025381D01*
X113480355Y-55114369D01*
X113382371Y-55330782D01*
X113328490Y-55562151D01*
X113320782Y-55799587D01*
X105406000Y-55799587D01*
X105406000Y-54845776D01*
X113835381Y-54845776D01*
X114530000Y-55540395D01*
X115224619Y-54845776D01*
X116375381Y-54845776D01*
X117070000Y-55540395D01*
X117764619Y-54845776D01*
X118915381Y-54845776D01*
X119610000Y-55540395D01*
X120304619Y-54845776D01*
X121455381Y-54845776D01*
X122150000Y-55540395D01*
X122844619Y-54845776D01*
X123995381Y-54845776D01*
X124690000Y-55540395D01*
X125384619Y-54845776D01*
X164615381Y-54845776D01*
X165310000Y-55540395D01*
X166004619Y-54845776D01*
X167155381Y-54845776D01*
X167850000Y-55540395D01*
X168544619Y-54845776D01*
X169695381Y-54845776D01*
X170390000Y-55540395D01*
X171084619Y-54845776D01*
X172235381Y-54845776D01*
X172930000Y-55540395D01*
X173624619Y-54845776D01*
X174775381Y-54845776D01*
X175470000Y-55540395D01*
X176164619Y-54845776D01*
X176075631Y-54670355D01*
X175859218Y-54572371D01*
X175627849Y-54518490D01*
X175390413Y-54510782D01*
X175156036Y-54549543D01*
X174933725Y-54633284D01*
X174864369Y-54670355D01*
X174775381Y-54845776D01*
X173624619Y-54845776D01*
X173535631Y-54670355D01*
X173319218Y-54572371D01*
X173087849Y-54518490D01*
X172850413Y-54510782D01*
X172616036Y-54549543D01*
X172393725Y-54633284D01*
X172324369Y-54670355D01*
X172235381Y-54845776D01*
X171084619Y-54845776D01*
X170995631Y-54670355D01*
X170779218Y-54572371D01*
X170547849Y-54518490D01*
X170310413Y-54510782D01*
X170076036Y-54549543D01*
X169853725Y-54633284D01*
X169784369Y-54670355D01*
X169695381Y-54845776D01*
X168544619Y-54845776D01*
X168455631Y-54670355D01*
X168239218Y-54572371D01*
X168007849Y-54518490D01*
X167770413Y-54510782D01*
X167536036Y-54549543D01*
X167313725Y-54633284D01*
X167244369Y-54670355D01*
X167155381Y-54845776D01*
X166004619Y-54845776D01*
X165915631Y-54670355D01*
X165699218Y-54572371D01*
X165467849Y-54518490D01*
X165230413Y-54510782D01*
X164996036Y-54549543D01*
X164773725Y-54633284D01*
X164704369Y-54670355D01*
X164615381Y-54845776D01*
X125384619Y-54845776D01*
X125295631Y-54670355D01*
X125079218Y-54572371D01*
X124847849Y-54518490D01*
X124610413Y-54510782D01*
X124376036Y-54549543D01*
X124153725Y-54633284D01*
X124084369Y-54670355D01*
X123995381Y-54845776D01*
X122844619Y-54845776D01*
X122755631Y-54670355D01*
X122539218Y-54572371D01*
X122307849Y-54518490D01*
X122070413Y-54510782D01*
X121836036Y-54549543D01*
X121613725Y-54633284D01*
X121544369Y-54670355D01*
X121455381Y-54845776D01*
X120304619Y-54845776D01*
X120215631Y-54670355D01*
X119999218Y-54572371D01*
X119767849Y-54518490D01*
X119530413Y-54510782D01*
X119296036Y-54549543D01*
X119073725Y-54633284D01*
X119004369Y-54670355D01*
X118915381Y-54845776D01*
X117764619Y-54845776D01*
X117675631Y-54670355D01*
X117459218Y-54572371D01*
X117227849Y-54518490D01*
X116990413Y-54510782D01*
X116756036Y-54549543D01*
X116533725Y-54633284D01*
X116464369Y-54670355D01*
X116375381Y-54845776D01*
X115224619Y-54845776D01*
X115135631Y-54670355D01*
X114919218Y-54572371D01*
X114687849Y-54518490D01*
X114450413Y-54510782D01*
X114216036Y-54549543D01*
X113993725Y-54633284D01*
X113924369Y-54670355D01*
X113835381Y-54845776D01*
X105406000Y-54845776D01*
X105406000Y-54102621D01*
X177023000Y-54102621D01*
X177023000Y-54797379D01*
X177158540Y-55478788D01*
X177424413Y-56120661D01*
X177810400Y-56698332D01*
X178301668Y-57189600D01*
X178879339Y-57575587D01*
X179521212Y-57841460D01*
X180202621Y-57977000D01*
X180897379Y-57977000D01*
X181578788Y-57841460D01*
X182220661Y-57575587D01*
X182798332Y-57189600D01*
X183289600Y-56698332D01*
X183675587Y-56120661D01*
X183941460Y-55478788D01*
X184077000Y-54797379D01*
X184077000Y-54102621D01*
X183941460Y-53421212D01*
X183675587Y-52779339D01*
X183289600Y-52201668D01*
X182798332Y-51710400D01*
X182220661Y-51324413D01*
X181578788Y-51058540D01*
X180897379Y-50923000D01*
X180202621Y-50923000D01*
X179521212Y-51058540D01*
X178879339Y-51324413D01*
X178301668Y-51710400D01*
X177810400Y-52201668D01*
X177424413Y-52779339D01*
X177158540Y-53421212D01*
X177023000Y-54102621D01*
X105406000Y-54102621D01*
X105406000Y-51019854D01*
X105419222Y-50885006D01*
X105452620Y-50774386D01*
X105506868Y-50672361D01*
X105579895Y-50582821D01*
X105668925Y-50509167D01*
X105770572Y-50454208D01*
X105880949Y-50420040D01*
X106014528Y-50406000D01*
X183980146Y-50406000D01*
X184114994Y-50419222D01*
M02*
