G04 #@! TF.GenerationSoftware,KiCad,Pcbnew,(5.1.6)-1*
G04 #@! TF.CreationDate,2021-04-16T13:49:19+02:00*
G04 #@! TF.ProjectId,Interfaceboard,496e7465-7266-4616-9365-626f6172642e,Version 1*
G04 #@! TF.SameCoordinates,Original*
G04 #@! TF.FileFunction,Soldermask,Bot*
G04 #@! TF.FilePolarity,Negative*
%FSLAX46Y46*%
G04 Gerber Fmt 4.6, Leading zero omitted, Abs format (unit mm)*
G04 Created by KiCad (PCBNEW (5.1.6)-1) date 2021-04-16 13:49:19*
%MOMM*%
%LPD*%
G01*
G04 APERTURE LIST*
%ADD10C,3.300000*%
%ADD11C,3.100000*%
%ADD12R,1.750000X1.750000*%
%ADD13C,1.750000*%
G04 APERTURE END LIST*
D10*
X109450000Y-125550000D03*
X180550000Y-54450000D03*
D11*
X133000000Y-58000000D03*
X142000000Y-58000000D03*
D12*
X124690000Y-58260000D03*
D13*
X124690000Y-55720000D03*
X122150000Y-58260000D03*
X122150000Y-55720000D03*
X119610000Y-58260000D03*
X119610000Y-55720000D03*
X117070000Y-58260000D03*
X117070000Y-55720000D03*
X114530000Y-58260000D03*
X114530000Y-55720000D03*
D12*
X175470000Y-58260000D03*
D13*
X175470000Y-55720000D03*
X172930000Y-58260000D03*
X172930000Y-55720000D03*
X170390000Y-58260000D03*
X170390000Y-55720000D03*
X167850000Y-58260000D03*
X167850000Y-55720000D03*
X165310000Y-58260000D03*
X165310000Y-55720000D03*
D12*
X160240000Y-121740000D03*
D13*
X160240000Y-124280000D03*
X162780000Y-121740000D03*
X162780000Y-124280000D03*
X165320000Y-121740000D03*
X165320000Y-124280000D03*
X167860000Y-121740000D03*
X167860000Y-124280000D03*
X170400000Y-121740000D03*
X170400000Y-124280000D03*
D12*
X119600000Y-121740000D03*
D13*
X119600000Y-124280000D03*
X122140000Y-121740000D03*
X122140000Y-124280000D03*
X124680000Y-121740000D03*
X124680000Y-124280000D03*
X127220000Y-121740000D03*
X127220000Y-124280000D03*
X129760000Y-121740000D03*
X129760000Y-124280000D03*
D11*
X152050000Y-58000000D03*
X152050000Y-123500000D03*
X167100000Y-83800000D03*
X131950000Y-90500000D03*
M02*
