M48
INCH,TZ
T1C0.0157
T2C0.0433
T3C0.0787
%
G90
G05
T1
X42126Y-23228
X42126Y-26772
X42126Y-30709
X42126Y-34252
X42126Y-37402
X42126Y-40551
X42126Y-43307
X42126Y-45669
X42126Y-48031
X44508Y-50394
X45079Y-30217
X45276Y-20079
X45965Y-28839
X46457Y-49803
X47638Y-49803
X47736Y-26673
X47835Y-34252
X47835Y-37402
X47835Y-40551
X47835Y-43307
X47835Y-45669
X48425Y-23819
X48622Y-29331
X48622Y-30413
X48622Y-31299
X48622Y-32382
X48622Y-49803
X49705Y-43209
X49764Y-38681
X49843Y-34980
X49902Y-21850
X50000Y-20079
X50197Y-49803
X50492Y-43898
X50591Y-45571
X50984Y-44035
X51181Y-49803
X51358Y-41673
X51378Y-39272
X51969Y-45276
X52953Y-25394
X52953Y-28346
X52953Y-31299
X52953Y-34252
X53681Y-39350
X54075Y-49803
X54331Y-20079
X54665Y-46890
X54705Y-42618
X55906Y-25394
X55906Y-28346
X55906Y-31299
X55906Y-34252
X56201Y-36673
X57185Y-40453
X57480Y-45276
X57480Y-50000
X58268Y-20079
X58366Y-36673
X58445Y-29469
X58465Y-26870
X58465Y-35728
X58484Y-32480
X58799Y-45256
X58878Y-38740
X58878Y-40768
X59055Y-50000
X59744Y-30965
X60039Y-25000
X60039Y-27461
X60236Y-37205
X60335Y-33878
X61220Y-25000
X61220Y-26280
X61220Y-27461
X61791Y-29724
X61909Y-44094
X62008Y-39370
X62008Y-41043
X62106Y-47047
X62362Y-29724
X62539Y-31772
X62579Y-22874
X62598Y-20079
X62598Y-34173
X62598Y-37205
X62598Y-44783
X63031Y-29469
X63386Y-26083
X63386Y-27854
X63386Y-50000
X63445Y-38622
X63583Y-44094
X63583Y-45571
X63681Y-30512
X63780Y-32756
X63839Y-35984
X64173Y-50000
X64469Y-44783
X64941Y-41457
X65039Y-31299
X65059Y-47047
X65079Y-23996
X65079Y-34134
X65157Y-37205
X65157Y-44094
X65177Y-28976
X65453Y-25453
X65551Y-21161
X65748Y-50000
X65787Y-28327
X66280Y-27953
X66280Y-29606
X66280Y-30728
X66358Y-27146
X66535Y-20079
X66535Y-39370
X66535Y-41043
X66535Y-50000
X66555Y-38150
X66634Y-21161
X66634Y-25492
X66929Y-26654
X66949Y-25157
X66949Y-25787
X67028Y-47047
X67126Y-35531
X67618Y-21161
X67618Y-43996
X67677Y-33524
X68110Y-50787
X68189Y-28957
X68287Y-26457
X68307Y-29646
X68307Y-30689
X68484Y-36220
X68602Y-21161
X68602Y-28327
X68602Y-38602
X68602Y-41319
X68701Y-33760
X68799Y-24587
X69075Y-35807
X69094Y-46555
X69646Y-23996
X69744Y-37303
X69744Y-42500
X69823Y-25138
X69823Y-25787
X69823Y-32638
X69843Y-28976
X70079Y-20079
X70098Y-25453
X70472Y-28346
X70472Y-50787
X70571Y-24016
X70965Y-27835
X71063Y-25157
X71063Y-25748
X72441Y-22835
X72441Y-25984
X72441Y-30709
X72441Y-34646
X72441Y-38189
X72441Y-41732
X72441Y-45276
X72441Y-48819
T2
X63087Y-47929
X63087Y-48929
X64087Y-47929
X64087Y-48929
X65087Y-47929
X65087Y-48929
X66087Y-47929
X66087Y-48929
X67087Y-47929
X67087Y-48929
X47087Y-47929
X47087Y-48929
X48087Y-47929
X48087Y-48929
X49087Y-47929
X49087Y-48929
X50087Y-47929
X50087Y-48929
X51087Y-47929
X51087Y-48929
X45091Y-21937
X45091Y-22937
X46091Y-21937
X46091Y-22937
X47091Y-21937
X47091Y-22937
X48091Y-21937
X48091Y-22937
X49091Y-21937
X49091Y-22937
X65083Y-21937
X65083Y-22937
X66083Y-21937
X66083Y-22937
X67083Y-21937
X67083Y-22937
X68083Y-21937
X68083Y-22937
X69083Y-21937
X69083Y-22937
T3
X55906Y-22835
X59862Y-48622
X59862Y-22835
X52362Y-22835
X51949Y-35630
X65787Y-32992
T0
M30
