M48
INCH,TZ
T1C0.0157
T2C0.0472
%
G90
G05
T1
X16500Y-44500
X18500Y-44500
X19750Y-45250
X19750Y-46750
X20750Y-44500
X20750Y-46000
X20750Y-47750
X21750Y-45250
X21750Y-46750
X22750Y-44500
X22750Y-46000
X22750Y-47750
X23750Y-45250
X23750Y-46750
X24750Y-44500
X24750Y-46000
X24750Y-47750
X25750Y-45250
X25750Y-46750
X26750Y-44500
X26750Y-46000
X26750Y-47750
X28750Y-44500
X30750Y-44500
X30750Y-46000
X30750Y-47750
X31750Y-45250
X31750Y-46750
X32750Y-44500
X32750Y-46000
X32750Y-47750
X33750Y-45250
X33750Y-46750
X34750Y-44500
X34750Y-46000
X34750Y-47750
X35750Y-45250
X35750Y-46750
X36750Y-44500
X36750Y-46000
X36750Y-47750
X37500Y-45250
X38500Y-44500
X40500Y-44500
X41500Y-45250
X41500Y-46750
X42750Y-44500
X44750Y-44500
X46000Y-45250
X46000Y-46750
X47000Y-44500
X47000Y-46000
X47000Y-47750
X48000Y-45250
X48000Y-46750
X49000Y-44500
X49000Y-46000
X49000Y-47750
X50000Y-45250
X50000Y-46750
X51000Y-44500
X51000Y-46000
X51000Y-47750
X52000Y-45250
X52000Y-46750
X53000Y-44500
X53000Y-46000
X53000Y-47750
X55000Y-44500
X56250Y-45250
X57250Y-44500
X57250Y-46000
X57250Y-47750
X58250Y-45250
X58250Y-46750
X59250Y-44500
X59250Y-46000
X59250Y-47750
X60250Y-45250
X60250Y-46750
X61250Y-44500
X61250Y-46000
X61250Y-47750
X62250Y-45250
X62250Y-46750
X63250Y-44500
X63250Y-46000
X63250Y-47750
X64250Y-45250
X65250Y-44500
X67000Y-44500
X68000Y-45250
X68000Y-46750
X69000Y-44500
X71000Y-44500
X72000Y-45250
X73000Y-44500
X73000Y-46000
X73000Y-47750
X74000Y-45250
X74000Y-46750
X75000Y-44500
X75000Y-46000
X75000Y-47750
X76000Y-45250
X76000Y-46750
X77000Y-44500
X77000Y-46000
X77000Y-47750
X78000Y-45250
X78000Y-46750
X79000Y-44500
X79000Y-46000
X79000Y-47750
X80000Y-45250
X81000Y-44500
X83000Y-44500
X83000Y-46000
X83000Y-47750
X84000Y-45250
X84000Y-46750
X85000Y-44500
X85000Y-46000
X85000Y-47750
X86000Y-45250
X86000Y-46750
X87000Y-44500
X87000Y-46000
X87000Y-47750
X88000Y-45250
X88000Y-46750
X89000Y-44500
X89000Y-46000
X89000Y-47750
X90000Y-45250
X90000Y-46750
X91000Y-44500
X93000Y-44500
T2
X41250Y-38750
X41250Y-40719
X36000Y-26250
X36000Y-28219
X74500Y-38750
X74500Y-40719
X85500Y-38750
X85500Y-40719
X58000Y-38750
X58000Y-40719
X19250Y-38750
X19250Y-40719
X35750Y-38750
X35750Y-40719
X85500Y-26250
X85500Y-28219
X19500Y-26250
X19500Y-28219
X30500Y-26250
X30500Y-28219
X63500Y-38750
X63500Y-40719
X30250Y-38750
X30250Y-40719
X63500Y-26250
X63500Y-28219
X24750Y-38750
X24750Y-40719
X52250Y-38750
X52250Y-40719
X69000Y-26250
X69000Y-28219
X41500Y-26250
X41500Y-28219
X91000Y-26250
X91000Y-28219
X80000Y-38750
X80000Y-40719
X91000Y-38750
X91000Y-40719
X74500Y-26250
X74500Y-28219
X69000Y-38750
X69000Y-40719
X52500Y-26250
X52500Y-28219
X58000Y-26250
X58000Y-28219
X80000Y-26250
X80000Y-28219
X25000Y-26250
X25000Y-28219
X46750Y-38750
X46750Y-40719
X47000Y-26250
X47000Y-28219
T0
M30
