G04 #@! TF.GenerationSoftware,KiCad,Pcbnew,(5.1.9)-1*
G04 #@! TF.CreationDate,2021-04-16T15:08:48+02:00*
G04 #@! TF.ProjectId,dc_link,64635f6c-696e-46b2-9e6b-696361645f70,rev?*
G04 #@! TF.SameCoordinates,Original*
G04 #@! TF.FileFunction,Soldermask,Bot*
G04 #@! TF.FilePolarity,Negative*
%FSLAX46Y46*%
G04 Gerber Fmt 4.6, Leading zero omitted, Abs format (unit mm)*
G04 Created by KiCad (PCBNEW (5.1.9)-1) date 2021-04-16 15:08:48*
%MOMM*%
%LPD*%
G01*
G04 APERTURE LIST*
%ADD10C,4.400000*%
%ADD11C,2.400000*%
%ADD12R,2.400000X2.400000*%
G04 APERTURE END LIST*
D10*
X233680000Y-118745000D03*
X206375000Y-118745000D03*
X179070000Y-118745000D03*
X166370000Y-118745000D03*
X139065000Y-118745000D03*
X111760000Y-118745000D03*
X99695000Y-118745000D03*
X72390000Y-118745000D03*
X219583000Y-56007000D03*
X209423000Y-56007000D03*
X199263000Y-56007000D03*
X152273000Y-56007000D03*
X142113000Y-56007000D03*
X131953000Y-56007000D03*
X85598000Y-56007000D03*
X75438000Y-56007000D03*
X78105000Y-86741000D03*
X88265000Y-86741000D03*
X134620000Y-86741000D03*
X67945000Y-86741000D03*
X45085000Y-118745000D03*
X144780000Y-86741000D03*
X154940000Y-86741000D03*
X201930000Y-86741000D03*
X212090000Y-86741000D03*
X222250000Y-86741000D03*
X65278000Y-56007000D03*
D11*
X62865000Y-103425000D03*
D12*
X62865000Y-98425000D03*
D11*
X48895000Y-103425000D03*
D12*
X48895000Y-98425000D03*
D11*
X132715000Y-103425000D03*
D12*
X132715000Y-98425000D03*
D11*
X203200000Y-103425000D03*
D12*
X203200000Y-98425000D03*
D11*
X118745000Y-103425000D03*
D12*
X118745000Y-98425000D03*
X133350000Y-66675000D03*
D11*
X133350000Y-71675000D03*
X104775000Y-103425000D03*
D12*
X104775000Y-98425000D03*
X63500000Y-66675000D03*
D11*
X63500000Y-71675000D03*
X231140000Y-103425000D03*
D12*
X231140000Y-98425000D03*
X49530000Y-66675000D03*
D11*
X49530000Y-71675000D03*
D12*
X161290000Y-66675000D03*
D11*
X161290000Y-71675000D03*
X217170000Y-103425000D03*
D12*
X217170000Y-98425000D03*
X77470000Y-66675000D03*
D11*
X77470000Y-71675000D03*
X147320000Y-103425000D03*
D12*
X147320000Y-98425000D03*
X91440000Y-66675000D03*
D11*
X91440000Y-71675000D03*
D12*
X175260000Y-66675000D03*
D11*
X175260000Y-71675000D03*
D12*
X119380000Y-66675000D03*
D11*
X119380000Y-71675000D03*
X90805000Y-103425000D03*
D12*
X90805000Y-98425000D03*
X105410000Y-66675000D03*
D11*
X105410000Y-71675000D03*
D12*
X189230000Y-66675000D03*
D11*
X189230000Y-71675000D03*
X161290000Y-103425000D03*
D12*
X161290000Y-98425000D03*
X147320000Y-66675000D03*
D11*
X147320000Y-71675000D03*
X76835000Y-103425000D03*
D12*
X76835000Y-98425000D03*
X203200000Y-66675000D03*
D11*
X203200000Y-71675000D03*
X175260000Y-103425000D03*
D12*
X175260000Y-98425000D03*
D11*
X189230000Y-103425000D03*
D12*
X189230000Y-98425000D03*
X217170000Y-66675000D03*
D11*
X217170000Y-71675000D03*
D12*
X231140000Y-66675000D03*
D11*
X231140000Y-71675000D03*
M02*
