M48
INCH,TZ
T1C0.1732
%
G90
G05
T1
X17750Y-46750
X25700Y-22050
X26750Y-34150
X28500Y-46750
X29700Y-22050
X30750Y-34150
X33700Y-22050
X34750Y-34150
X39250Y-46750
X44000Y-46750
X51950Y-22050
X53000Y-34150
X54750Y-46750
X55950Y-22050
X57000Y-34150
X59950Y-22050
X61000Y-34150
X65500Y-46750
X70500Y-46750
X78450Y-22050
X79500Y-34150
X81250Y-46750
X82450Y-22050
X83500Y-34150
X86450Y-22050
X87500Y-34150
X92000Y-46750
T0
M30
