%TF.GenerationSoftware,KiCad,Pcbnew,(5.1.9)-1*%
%TF.CreationDate,2021-04-16T14:49:38+02:00*%
%TF.ProjectId,dc_link,64635f6c-696e-46b2-9e6b-696361645f70,rev?*%
%TF.SameCoordinates,Original*%
%TF.FileFunction,Soldermask,Bot*%
%TF.FilePolarity,Negative*%
%FSLAX46Y46*%
G04 Gerber Fmt 4.6, Leading zero omitted, Abs format (unit mm)*
G04 Created by KiCad (PCBNEW (5.1.9)-1) date 2021-04-16 14:49:38*
%MOMM*%
%LPD*%
G01*
G04 APERTURE LIST*
%ADD10C,4.400000*%
%ADD11C,2.400000*%
%ADD12R,2.400000X2.400000*%
G04 APERTURE END LIST*
D10*
%TO.C,REF\u002A\u002A*%
X233680000Y-118745000D03*
%TD*%
%TO.C,REF\u002A\u002A*%
X206375000Y-118745000D03*
%TD*%
%TO.C,REF\u002A\u002A*%
X179070000Y-118745000D03*
%TD*%
%TO.C,REF\u002A\u002A*%
X166370000Y-118745000D03*
%TD*%
%TO.C,REF\u002A\u002A*%
X139065000Y-118745000D03*
%TD*%
%TO.C,REF\u002A\u002A*%
X111760000Y-118745000D03*
%TD*%
%TO.C,REF\u002A\u002A*%
X99695000Y-118745000D03*
%TD*%
%TO.C,REF\u002A\u002A*%
X72390000Y-118745000D03*
%TD*%
%TO.C,REF\u002A\u002A*%
X219583000Y-56007000D03*
%TD*%
%TO.C,REF\u002A\u002A*%
X209423000Y-56007000D03*
%TD*%
%TO.C,REF\u002A\u002A*%
X199263000Y-56007000D03*
%TD*%
%TO.C,REF\u002A\u002A*%
X152273000Y-56007000D03*
%TD*%
%TO.C,REF\u002A\u002A*%
X142113000Y-56007000D03*
%TD*%
%TO.C,REF\u002A\u002A*%
X131953000Y-56007000D03*
%TD*%
%TO.C,REF\u002A\u002A*%
X85598000Y-56007000D03*
%TD*%
%TO.C,REF\u002A\u002A*%
X75438000Y-56007000D03*
%TD*%
%TO.C,REF\u002A\u002A*%
X78105000Y-86741000D03*
%TD*%
%TO.C,REF\u002A\u002A*%
X88265000Y-86741000D03*
%TD*%
%TO.C,REF\u002A\u002A*%
X134620000Y-86741000D03*
%TD*%
%TO.C,REF\u002A\u002A*%
X67945000Y-86741000D03*
%TD*%
%TO.C,REF\u002A\u002A*%
X45085000Y-118745000D03*
%TD*%
%TO.C,REF\u002A\u002A*%
X144780000Y-86741000D03*
%TD*%
%TO.C,REF\u002A\u002A*%
X154940000Y-86741000D03*
%TD*%
%TO.C,REF\u002A\u002A*%
X201930000Y-86741000D03*
%TD*%
%TO.C,REF\u002A\u002A*%
X212090000Y-86741000D03*
%TD*%
%TO.C,REF\u002A\u002A*%
X222250000Y-86741000D03*
%TD*%
%TO.C,REF\u002A\u002A*%
X65278000Y-56007000D03*
%TD*%
D11*
%TO.C,C2*%
X62865000Y-103425000D03*
D12*
X62865000Y-98425000D03*
%TD*%
D11*
%TO.C,C14*%
X48895000Y-103425000D03*
D12*
X48895000Y-98425000D03*
%TD*%
D11*
%TO.C,C28*%
X132715000Y-103425000D03*
D12*
X132715000Y-98425000D03*
%TD*%
D11*
%TO.C,C27*%
X203200000Y-103425000D03*
D12*
X203200000Y-98425000D03*
%TD*%
D11*
%TO.C,C26*%
X118745000Y-103425000D03*
D12*
X118745000Y-98425000D03*
%TD*%
%TO.C,C25*%
X133350000Y-66675000D03*
D11*
X133350000Y-71675000D03*
%TD*%
%TO.C,C24*%
X104775000Y-103425000D03*
D12*
X104775000Y-98425000D03*
%TD*%
%TO.C,C23*%
X63500000Y-66675000D03*
D11*
X63500000Y-71675000D03*
%TD*%
%TO.C,C22*%
X231140000Y-103425000D03*
D12*
X231140000Y-98425000D03*
%TD*%
%TO.C,C21*%
X49530000Y-66675000D03*
D11*
X49530000Y-71675000D03*
%TD*%
D12*
%TO.C,C20*%
X161290000Y-66675000D03*
D11*
X161290000Y-71675000D03*
%TD*%
%TO.C,C19*%
X217170000Y-103425000D03*
D12*
X217170000Y-98425000D03*
%TD*%
%TO.C,C18*%
X77470000Y-66675000D03*
D11*
X77470000Y-71675000D03*
%TD*%
%TO.C,C17*%
X147320000Y-103425000D03*
D12*
X147320000Y-98425000D03*
%TD*%
%TO.C,C16*%
X91440000Y-66675000D03*
D11*
X91440000Y-71675000D03*
%TD*%
D12*
%TO.C,C15*%
X175260000Y-66675000D03*
D11*
X175260000Y-71675000D03*
%TD*%
D12*
%TO.C,C13*%
X119380000Y-66675000D03*
D11*
X119380000Y-71675000D03*
%TD*%
%TO.C,C12*%
X90805000Y-103425000D03*
D12*
X90805000Y-98425000D03*
%TD*%
%TO.C,C11*%
X105410000Y-66675000D03*
D11*
X105410000Y-71675000D03*
%TD*%
D12*
%TO.C,C10*%
X189230000Y-66675000D03*
D11*
X189230000Y-71675000D03*
%TD*%
%TO.C,C9*%
X161290000Y-103425000D03*
D12*
X161290000Y-98425000D03*
%TD*%
%TO.C,C8*%
X147320000Y-66675000D03*
D11*
X147320000Y-71675000D03*
%TD*%
%TO.C,C7*%
X76835000Y-103425000D03*
D12*
X76835000Y-98425000D03*
%TD*%
%TO.C,C6*%
X203200000Y-66675000D03*
D11*
X203200000Y-71675000D03*
%TD*%
%TO.C,C5*%
X175260000Y-103425000D03*
D12*
X175260000Y-98425000D03*
%TD*%
D11*
%TO.C,C4*%
X189230000Y-103425000D03*
D12*
X189230000Y-98425000D03*
%TD*%
%TO.C,C3*%
X217170000Y-66675000D03*
D11*
X217170000Y-71675000D03*
%TD*%
D12*
%TO.C,C1*%
X231140000Y-66675000D03*
D11*
X231140000Y-71675000D03*
%TD*%
M02*
